<svg viewBox="0 0 102 102" xmlns="http://www.w3.org/2000/svg" xmlns:serif="http://www.serif.com/" fill-rule="evenodd" clip-rule="evenodd" stroke-linejoin="round" stroke-miterlimit="1.41">
    <g serif:id="AI ico">
        <circle cx="50.81" cy="50.91" r="50.72" fill="#3f3023"/>
        <path d="M51.136.191l.328.004.326.005.327.007.326.009.325.012.325.013.324.015.324.018.323.019.322.022.323.023.321.026.321.027.32.03.32.031.319.034.319.035.318.038.318.039.316.042.317.043.315.045.315.047.315.049.313.051.313.053.313.055.312.057.311.059.31.06.31.063.309.064.308.066.308.068.307.07.306.072.306.074.305.075.304.077.303.08.303.08.302.083.301.085.3.086.3.088.299.09.298.092.297.094.297.095.296.097.295.099.294.101.293.102.293.104.291.106.291.108.29.109.289.111.288.113.288.114.287.116.285.118.285.12.284.121.283.123.282.125.282.126.28.128.279.129.279.131.278.133.276.135.276.136.275.137.274.14.272.141.272.142.271.144.27.146.269.147.268.149.267.15.266.152.265.154.264.155.263.157.262.158.261.159.26.162.259.162.258.165.256.165.256.168.255.168.253.171.253.171.251.173.25.175.249.176.249.178.246.179.246.18.245.182.244.184.242.184.241.186.24.188.239.189.238.19.237.192.235.193.235.195.233.196.232.197.23.199.23.2.228.201.227.203.226.204.225.205.223.207.222.208.221.21.22.21.218.212.217.213.216.215.214.216.214.217.212.218.21.22.21.221.208.222.206.223.206.225.204.226.203.227.201.228.2.23.199.23.197.232.196.233.194.235.194.235.191.237.191.237.189.239.187.241.187.241.184.242.184.244.182.245.18.245.179.247.178.248.176.25.174.25.174.251.171.253.171.253.168.255.168.255.165.257.165.258.162.259.161.26.16.261.158.261.157.263.155.264.154.265.152.266.15.268.149.268.147.269.146.27.144.27.142.272.141.273.14.274.137.275.136.276.135.276.133.278.131.278.129.28.128.28.126.282.125.282.123.283.121.284.12.285.117.285.117.287.114.287.113.289.111.289.109.29.108.291.106.291.104.293.102.293.101.294.099.295.097.296.095.296.094.298.091.298.09.299.089.299.086.301.085.301.082.302.081.303.079.303.078.304.075.305.074.305.072.307.07.307.068.307.066.309.064.309.063.31.06.31.059.311.057.312.055.312.052.313.051.314.05.315.047.315.045.315.043.316.042.317.039.318.037.318.036.318.033.32.032.319.029.321.028.321.025.321.024.322.021.323.02.323.017.324.016.324.013.325.012.325.009.326.007.326.005.327.003.328.001.327-.001.328-.003.327-.005.327-.007.327-.009.325-.012.326-.013.324-.016.325-.017.323-.02.324-.021.322-.024.322-.025.322-.028.321-.029.32-.032.32-.033.319-.036.319-.037.318-.039.317-.042.317-.043.317-.045.315-.047.315-.05.315-.051.313-.052.313-.055.313-.057.312-.059.311-.06.31-.063.31-.064.309-.066.308-.068.308-.07.307-.072.306-.074.306-.075.305-.078.304-.079.303-.081.303-.082.302-.085.301-.086.3-.089.3-.09.299-.091.298-.094.297-.095.297-.097.296-.099.294-.101.295-.102.293-.104.292-.106.292-.108.291-.109.29-.111.289-.113.288-.114.288-.117.286-.117.286-.12.285-.121.284-.123.283-.125.282-.126.281-.128.281-.129.279-.131.279-.133.277-.135.277-.136.276-.137.275-.14.273-.141.273-.142.272-.144.271-.146.27-.147.269-.149.268-.15.267-.152.266-.154.265-.155.264-.157.263-.158.262-.16.261-.161.26-.162.259-.165.258-.165.256-.168.256-.168.255-.171.253-.171.253-.174.251-.174.25-.176.249-.178.248-.179.247-.18.246-.182.245-.184.243-.184.243-.187.241-.187.24-.189.239-.191.238-.191.237-.194.235-.194.234-.196.234-.197.231-.199.231-.2.23-.201.228-.203.227-.204.226-.206.224-.206.224-.208.222-.21.221-.21.219-.212.219-.214.217-.214.216-.216.214-.217.214-.218.211-.22.211-.221.209-.222.208-.223.207-.225.206-.226.204-.227.202-.228.202-.23.2-.23.198-.232.198-.233.196-.235.194-.235.193-.237.192-.238.191-.239.189-.24.187-.241.186-.242.185-.244.184-.245.181-.246.181-.246.179-.249.177-.249.177-.25.174-.251.173-.253.172-.253.17-.255.169-.256.167-.256.166-.258.164-.259.163-.26.161-.261.16-.262.158-.263.157-.264.155-.265.153-.266.152-.267.151-.268.149-.269.147-.27.146-.271.144-.272.142-.272.141-.274.139-.275.138-.276.136-.276.135-.278.132-.279.132-.279.129-.28.128-.282.126-.282.125-.283.123-.284.121-.285.119-.285.118-.287.116-.288.115-.288.113-.289.111-.29.109-.291.108-.291.105-.293.104-.293.103-.294.101-.295.098-.296.097-.297.096-.297.093-.298.092-.299.09-.3.088-.3.087-.301.084-.302.083-.303.081-.303.079-.304.078-.305.075-.306.074-.306.072-.307.069-.308.069-.308.066-.309.064-.31.063-.31.06-.311.059-.312.056-.313.055-.313.053-.313.051-.315.049-.315.048-.315.045-.317.043-.316.041-.318.04-.318.037-.319.036-.319.033-.32.032-.32.029-.321.028-.321.025-.323.024-.322.021-.323.02-.324.017-.324.016-.325.013-.325.011-.326.01-.327.007-.326.005-.328.003-.328.001-.327-.001-.328-.003-.326-.005-.327-.007-.326-.01-.325-.011-.325-.013-.324-.016-.324-.017-.323-.02-.322-.021-.323-.024-.321-.025-.321-.028-.32-.029-.32-.032-.319-.033-.319-.036-.318-.037-.318-.04-.316-.041-.317-.043-.315-.045-.315-.048-.315-.049-.313-.051-.313-.053-.313-.055-.312-.056-.311-.059-.31-.06-.31-.063-.309-.064-.308-.066-.308-.069-.307-.069-.306-.072-.306-.074-.305-.075-.304-.078-.303-.079-.303-.081-.302-.083-.301-.084-.3-.087-.3-.088-.299-.09-.298-.092-.297-.093-.297-.096-.296-.097-.295-.098-.294-.101-.293-.103-.293-.104-.291-.105-.291-.108-.29-.109-.289-.111-.288-.113-.288-.115-.287-.116-.285-.118-.285-.119-.284-.121-.283-.123-.282-.125-.282-.126-.28-.128-.279-.129-.279-.132-.278-.132-.276-.135-.276-.136-.275-.138-.274-.139-.272-.141-.272-.142-.271-.144-.27-.146-.269-.147-.268-.149-.267-.151-.266-.152-.265-.153-.264-.155-.263-.157-.262-.158-.261-.16-.26-.161-.259-.163-.258-.164-.256-.166-.256-.167-.255-.169-.253-.17-.253-.172-.251-.173-.25-.174-.249-.177-.249-.177-.246-.179-.246-.181-.245-.181-.244-.184-.242-.185-.241-.186-.24-.187-.239-.189-.238-.191-.237-.192-.235-.193-.235-.194-.233-.196-.232-.198-.23-.198-.23-.2-.228-.202-.227-.202-.226-.204-.225-.206-.223-.207-.222-.208-.221-.209-.22-.211-.218-.211-.217-.214-.216-.214-.214-.216-.214-.217-.212-.219-.21-.219-.21-.221-.208-.222-.206-.224-.206-.224-.204-.226-.203-.227-.201-.228-.2-.23-.199-.231-.197-.231-.196-.234-.194-.234-.194-.235-.191-.237-.191-.238-.189-.239-.187-.24-.187-.241-.184-.243-.184-.243-.182-.245-.18-.246-.179-.247-.178-.248-.176-.249-.174-.25-.174-.251-.171-.253-.171-.253-.168-.255-.168-.256-.165-.256-.165-.258-.162-.259-.161-.26-.16-.261-.158-.262-.157-.263-.155-.264-.154-.265-.152-.266-.15-.267-.149-.268-.147-.269-.146-.27-.144-.271-.142-.272-.141-.273-.14-.273-.137-.275-.136-.276-.135-.277-.133-.277-.131-.279-.129-.279-.128-.281-.126-.281-.125-.282-.123-.283-.121-.284-.12-.285-.117-.286-.117-.286-.114-.288-.113-.288-.111-.289-.109-.29-.108-.291-.106-.292-.104-.292-.102-.293-.101-.295-.099-.294-.097-.296-.095-.297-.094-.297-.091-.298-.09-.299-.089-.3-.086-.3-.085-.301-.082-.302-.081-.303-.079-.303-.078-.304-.075-.305-.074-.306-.072-.306-.07-.307-.068-.308-.066-.308-.064-.309-.063-.31-.06-.31-.059-.311-.057-.312-.055-.313-.052-.313-.051-.313-.05-.315-.047-.315L.581 58l-.043-.317-.042-.317-.039-.317-.037-.318-.036-.319-.033-.319-.032-.32-.029-.32-.028-.321-.025-.322-.024-.322-.021-.322-.02-.324-.017-.323-.016-.325-.013-.324-.012-.326-.009-.325-.007-.327-.005-.327-.003-.327-.001-.328.001-.327.003-.328.005-.327.007-.326.009-.326.012-.325.013-.325.016-.324.017-.324.02-.323.021-.323.024-.322.025-.321.028-.321.029-.321.032-.319.033-.32.036-.318.037-.318.039-.318.042-.317.043-.316.045-.315.047-.315.05-.315.051-.314.052-.313.055-.312.057-.312.059-.311.06-.31.063-.31.064-.309.066-.309.068-.307.07-.307.072-.307.074-.305.075-.305.078-.304.079-.303.081-.303.082-.302.085-.301.086-.301.089-.299.09-.299.091-.298.094-.298.095-.296.097-.296.099-.295.101-.294.102-.293.104-.293.106-.291.108-.291.109-.29.111-.289.113-.289.114-.287.117-.287.117-.285.12-.285.121-.284.123-.283.125-.282.126-.282.128-.28.129-.28.131-.278.133-.278.135-.276.136-.276.137-.275.14-.274.141-.273.142-.272.144-.27.146-.27.147-.269.149-.268.15-.268.152-.266.154-.265.155-.264.157-.263.158-.261.16-.261.161-.26.162-.259.165-.258.165-.257.168-.255.168-.255.171-.253.171-.253.174-.251.174-.25.176-.25.178-.248.179-.247.18-.245.182-.245.184-.244.184-.242.187-.241.187-.241.189-.239.191-.237.191-.237.194-.235.194-.235.196-.233.197-.232.199-.23.2-.23.201-.228.203-.227.204-.226.206-.225.206-.223.208-.222.21-.221.21-.22.212-.218.214-.217.214-.216.216-.215.217-.213.218-.212.22-.21.221-.21.222-.208.223-.207.225-.205.226-.204.227-.203.228-.201.23-.2.23-.199.232-.197.233-.196.235-.195.235-.193.237-.192.238-.19.239-.189.24-.188.241-.186.242-.184.244-.184.245-.182.246-.18.246-.179.249-.178.249-.176.25-.175.251-.173.253-.171.253-.171.255-.168.256-.168.256-.165.258-.165.259-.162.26-.162.261-.159.262-.158.263-.157.264-.155.265-.154.266-.152.267-.15.268-.149.269-.147.27-.146.271-.144.272-.142.272-.141.274-.14.275-.137.276-.136.276-.135.278-.133.279-.131.279-.129.28-.128.282-.126.282-.125.283-.123.284-.121.285-.12.285-.118.287-.116.288-.114.288-.113.289-.111.29-.109.291-.108.291-.106.293-.104.293-.102.294-.101.295-.099.296-.097.297-.095.297-.094.298-.092.299-.09.3-.088.3-.086.301-.085.302-.083.303-.08.303-.08.304-.077.305-.075.306-.074.306-.072.307-.07.308-.068.308-.066.309-.064.31-.063.31-.06.311-.059.312-.057.313-.055.313-.053.313-.051.315-.049.315-.047.315-.045.317-.043.316-.042.318-.039.318-.038.319-.035.319-.034.32-.031.32-.03.321-.027.321-.026.323-.023.322-.022.323-.019.324-.018.324-.015.325-.013.325-.012.326-.009.327-.007.326-.005.328-.004.327-.001.328.001zm-.636 3l-.309.003-.307.005-.308.007-.306.009-.307.01-.306.013-.305.015-.305.016-.304.018-.303.021-.304.022-.302.024-.302.026-.302.027-.301.03-.3.032-.3.033-.299.035-.299.037-.298.039-.297.041-.297.042-.297.045-.295.046-.295.048-.295.05-.294.051-.293.054-.293.055-.292.057-.291.059-.291.06-.29.062-.289.064-.289.066-.288.068-.287.069-.287.071-.286.073-.285.074-.285.076-.284.078-.283.08-.282.081-.282.083-.281.084-.28.087-.28.088-.279.089-.278.092-.277.093-.277.094-.276.097-.275.097-.274.1-.273.101-.273.103-.272.104-.271.106-.271.108-.269.109-.269.111-.268.113-.267.114-.266.115-.265.117-.265.119-.264.12-.263.122-.261.124-.262.124-.26.127-.259.128-.259.129-.257.131-.257.133-.256.134-.255.136-.254.137-.253.138-.252.14-.251.142-.25.143-.25.144-.248.146-.247.147-.247.149-.246.15-.244.152-.243.153-.243.155-.242.156-.24.157-.24.159-.238.16-.238.162-.236.163-.236.164-.235.166-.233.167-.232.168-.232.17-.23.171-.229.173-.228.174-.227.175-.226.177-.225.178-.224.179-.223.18-.222.182-.22.183-.219.185-.219.185-.217.187-.216.189-.215.189-.214.191-.212.192-.212.193-.21.195-.209.196-.208.197-.207.198-.205.2-.204.2-.204.202-.202.203-.2.205-.2.205-.198.207-.197.208-.196.209-.194.21-.194.212-.192.212-.191.214-.189.215-.189.216-.187.217-.185.218-.185.22-.183.22-.182.222-.18.223-.179.223-.178.225-.177.226-.175.227-.174.229-.172.229-.172.23-.169.231-.169.233-.167.233-.166.235-.164.235-.163.237-.162.237-.16.239-.159.24-.157.24-.156.242-.155.242-.153.244-.151.244-.151.246-.148.246-.148.248-.146.248-.144.25-.143.25-.142.251-.14.252-.138.253-.137.254-.136.255-.134.256-.132.257-.131.257-.13.259-.128.259-.126.26-.125.261-.124.262-.122.263-.12.264-.119.264-.117.266-.115.266-.114.267-.113.268-.11.269-.11.269-.107.271-.106.271-.105.272-.103.272-.101.274-.099.274-.098.275-.097.276-.094.277-.093.277-.092.278-.089.279-.088.28-.086.28-.085.281-.083.282-.081.282-.08.283-.078.284-.076.285-.074.285-.073.286-.071.287-.069.287-.068.288-.065.289-.064.289-.063.29-.06.291-.059.291-.057.292-.055.293-.053.293-.052.294-.05.294-.048.295-.046.296-.044.296-.043.297-.041.298-.039.298-.037.299-.035.299-.033.3-.032.3-.029.301-.028.302-.026.302-.024.302-.022.303-.02.304-.019.304-.016.305-.015.305-.012.306-.011.306-.009.307-.007.307-.005.308-.002.309-.001.308.001.309.002.308.005.308.007.308.009.306.011.307.012.305.015.306.016.304.019.305.02.303.022.303.024.303.026.302.028.302.029.301.032.3.033.3.035.299.037.299.039.298.041.297.043.297.044.297.046.295.048.295.05.295.052.294.053.293.055.292.057.292.059.292.06.29.063.29.064.29.065.288.068.289.069.287.071.287.073.286.074.285.076.284.078.284.08.284.081.282.083.282.085.281.086.28.088.28.09.279.091.278.093.277.094.277.097.276.098.275.099.274.101.273.103.273.105.272.106.271.107.27.109.27.111.269.113.268.114.267.115.266.117.265.119.265.12.264.122.262.124.262.125.261.126.261.128.259.13.259.131.257.132.257.134.256.136.255.137.254.138.253.14.252.142.251.143.25.144.25.146.248.148.247.148.247.151.245.151.245.153.244.155.242.156.241.157.241.159.24.16.238.162.238.163.236.164.236.166.234.167.234.169.232.169.232.172.23.172.229.174.228.175.227.177.226.178.225.179.224.18.223.182.221.183.221.185.219.185.219.187.217.189.216.189.215.191.213.192.213.194.211.194.211.196.209.197.208.198.206.2.206.2.204.202.203.204.202.204.201.205.2.207.198.208.197.209.196.21.194.212.194.212.192.214.19.215.19.216.188.217.187.219.186.219.184.22.184.222.181.223.181.224.179.225.178.226.177.227.175.228.174.229.172.23.171.232.17.232.169.234.167.234.166.235.164.237.163.238.162.238.16.24.158.24.158.242.156.243.155.243.153.244.151.246.15.247.149.247.148.248.146.25.144.25.143.251.142.252.14.253.138.254.137.255.136.256.134.257.132.257.131.259.13.259.128.26.126.262.125.261.124.263.121.264.121.265.118.265.118.266.115.267.114.268.113.269.11.269.11.271.107.271.106.272.105.273.102.273.102.274.099.275.098.276.096.277.095.277.093.278.091.279.09.28.088.28.086.281.085.282.083.282.081.283.08.284.078.285.076.285.074.286.073.287.071.287.069.288.068.289.065.289.064.29.063.291.06.291.059.292.057.293.055.293.053.294.052.295.05.295.048.295.046.297.044.297.043.297.041.298.038.299.038.299.035.3.033.3.032.301.029.302.028.302.026.302.024.304.022.303.02.304.019.305.016.305.015.306.012.307.011.306.009.308.006.307.005.309.003.308.001.309-.001.309-.003.307-.005.308-.006.306-.009.307-.011.306-.012.305-.015.305-.016.304-.019.303-.02.304-.022.302-.024.302-.026.302-.028.301-.029.3-.032.3-.033.299-.035.299-.038.298-.038.297-.041.297-.043.297-.044.295-.046.295-.048.295-.05.294-.052.293-.053.293-.055.292-.057.291-.059.291-.06.29-.063.289-.064.289-.065.288-.068.287-.069.287-.071.286-.073.285-.074.285-.076.284-.078.283-.08.282-.081.282-.083.281-.085.28-.086.28-.088.279-.09.278-.091.277-.093.277-.095.276-.096.275-.098.274-.099.273-.102.273-.102.272-.105.271-.106.271-.107.269-.11.269-.11.268-.113.267-.114.266-.115.265-.118.265-.118.264-.121.263-.121.261-.124.262-.125.26-.126.259-.128.259-.13.257-.131.257-.132.256-.134.255-.136.254-.137.253-.139.252-.139.251-.142.25-.143.25-.144.248-.146.248-.148.246-.149.245-.15.245-.151.244-.154.242-.154.242-.156.24-.157.24-.159.238-.16.238-.162.237-.163.235-.164.234-.166.234-.167.232-.169.232-.17.23-.171.229-.172.228-.174.227-.175.226-.177.225-.178.224-.179.223-.181.222-.181.22-.184.219-.184.219-.186.217-.187.216-.188.215-.19.213-.19.213-.192.212-.194.21-.194.209-.196.208-.197.207-.198.205-.2.204-.201.204-.202.202-.203.2-.204.2-.206.198-.206.197-.208.196-.209.194-.211.194-.211.192-.213.191-.213.189-.215.189-.216.187-.218.185-.218.185-.219.183-.221.182-.221.18-.223.179-.224.178-.225.177-.226.175-.227.174-.228.172-.229.172-.231.17-.231.168-.232.167-.234.166-.234.164-.236.163-.236.162-.238.16-.238.159-.24.157-.241.156-.241.155-.243.153-.243.151-.245.151-.245.149-.247.147-.247.146-.248.144-.25.143-.25.142-.251.14-.252.138-.253.137-.254.136-.255.134-.256.132-.257.131-.257.13-.259.128-.259.126-.26.125-.262.124-.262.122-.262.12-.264.118-.265.118-.265.115-.266.114-.267.113-.268.11-.269.11-.269.107-.271.106-.271.105-.272.103-.273.101-.273.099-.274.098-.275.097-.276.094-.277.093-.277.091-.278.09-.279.088-.28.086-.28.085-.281.083-.282.081-.282.08-.284.078-.284.076-.284.074-.285.073-.286.071-.287.069-.287.068-.288.065-.289.064-.289.063-.291.06-.29.059-.292.057-.291.055-.293.053-.293.052-.294.05-.295.048-.295.046-.296.044-.296.043-.297.041-.297.039-.298.037-.299.035-.299.033-.3.032-.3.029-.301.028-.302.026-.302.024-.302.022-.304.02-.303.019-.305.016-.304.015-.306.012-.305.011-.307.009-.307.007-.307.004-.308.003-.308.001-.309-.001-.308-.003-.309-.004-.308-.007-.307-.009-.307-.011-.306-.012-.306-.015-.305-.016-.305-.019-.304-.02-.304-.022-.303-.024-.302-.026-.302-.028-.302-.029-.301-.032-.3-.033-.3-.035-.299-.037-.299-.039-.298-.041-.298-.043-.297-.044-.296-.046-.296-.048-.295-.05-.294-.052-.294-.053-.293-.055-.293-.057-.292-.059-.291-.06-.291-.063-.29-.064-.289-.065-.289-.068-.288-.069-.287-.071-.287-.073-.286-.074-.285-.076-.285-.078-.284-.08-.283-.081-.282-.083-.282-.085-.281-.086-.28-.088-.28-.089-.279-.092-.278-.093-.277-.094-.277-.097-.276-.098-.275-.099-.274-.101-.274-.103-.272-.105-.272-.106-.271-.107-.271-.11-.269-.11-.269-.113-.268-.114-.267-.115-.266-.118-.266-.118-.264-.12-.264-.122-.263-.124-.262-.125-.261-.126-.26-.128-.259-.13-.259-.131-.257-.132-.257-.134-.256-.136-.255-.137-.254-.138-.253-.14-.252-.142-.251-.143-.251-.144-.249-.146-.248-.148-.248-.148-.246-.151-.246-.151-.244-.153-.244-.155-.242-.156-.242-.157-.24-.159-.24-.16-.239-.162-.237-.163-.237-.164-.235-.166-.235-.167-.233-.168-.232-.17-.232-.172-.23-.172-.229-.174-.228-.175-.228-.177-.226-.178-.225-.179-.223-.18-.223-.182-.222-.183-.22-.185-.22-.185-.218-.187-.217-.189-.216-.189-.215-.191-.214-.192-.212-.194-.212-.194-.21-.196-.209-.197-.208-.198-.207-.2-.205-.2-.205-.202-.203-.204-.202-.204-.2-.205-.2-.207-.198-.208-.197-.209-.196-.21-.195-.212-.193-.213-.192-.213-.191-.215-.189-.216-.189-.217-.187-.219-.185-.219-.185-.22-.183-.222-.182-.223-.18-.224-.179-.225-.178-.226-.177-.227-.175-.228-.174-.229-.173-.23-.171-.232-.17-.232-.168-.233-.167-.235-.166-.235-.164-.237-.163-.238-.162-.238-.16-.24-.159-.24-.157-.242-.156-.242-.155-.244-.153-.245-.152-.245-.15-.246-.149-.248-.147-.248-.146-.25-.144-.25-.143-.251-.142-.252-.14-.253-.138-.254-.137-.255-.136-.256-.134-.257-.133-.257-.131-.259-.129-.259-.128-.26-.127-.262-.124-.261-.124-.263-.122-.264-.12-.265-.119-.265-.117-.266-.115-.267-.114-.268-.113-.269-.111-.269-.109-.271-.108-.271-.106-.272-.104-.273-.103-.273-.101-.274-.1-.275-.097-.276-.097-.277-.094-.277-.093-.278-.092-.279-.089-.28-.088-.28-.087-.281-.084-.282-.083-.282-.081-.283-.08-.284-.078-.285-.076-.285-.074-.286-.073-.287-.071-.287-.069-.288-.068-.289-.066-.289-.064-.29-.062-.291-.06-.291-.059-.292-.057-.293-.055-.293-.054-.294-.051-.295-.05-.295-.048-.295-.046-.297-.045-.297-.042-.297-.041-.298-.039-.299-.037-.299-.035-.3-.033-.3-.032-.301-.03-.302-.027-.302-.026-.302-.024-.304-.022-.303-.021-.304-.018-.305-.016-.305-.015-.306-.013-.307-.01-.306-.009-.308-.007-.307-.005-.309-.003-.309-.001-.308.001z" fill="#ff7f18"/>
        <g fill="#ff7f18" fill-rule="nonzero">
            <path d="M61.983 69.91h-8.485l-3.373-8.775H34.683l-3.188 8.775h-8.274l15.046-38.631h8.248L61.983 69.91zM47.622 54.626l-5.323-14.335-5.218 14.335h10.541zM66.068 38.13v-6.851h7.405v6.851h-7.405zm0 31.78V41.925h7.405V69.91h-7.405z"/>
        </g>
    </g>
</svg>
