<svg viewBox="0 0 120 212" xmlns="http://www.w3.org/2000/svg" fill-rule="evenodd" clip-rule="evenodd" stroke-linecap="round" stroke-linejoin="round" stroke-miterlimit="1.5">
    <path d="M85.804 103.343c0-23.678-19.224-42.902-42.902-42.902S0 79.665 0 103.343v65.424c0 23.678 19.224 42.902 42.902 42.902s42.902-19.224 42.902-42.902v-65.424z" fill="#b8504f"/>
    <circle cx="18.52" cy="23.45" r="7.06" fill="#1a1a1a"/>
    <path d="M49.834 211.37v-24.341h11.083v21.146a34.947 34.947 0 0 1-11.083 3.195z" fill="#292929"/>
    <path d="M60.917 208.175l-.161.076-.162.076-.162.075-.163.074-.163.074-.163.072-.164.072-.164.071-.165.07-.165.07-.166.068-.165.068-.167.067-.166.066-.167.065-.168.065-.168.063-.168.063-.168.062-.169.061-.17.06-.169.06-.171.058-.17.058-.171.057-.171.056-.172.055-.172.054-.172.053-.173.053-.173.052-.173.05-.174.05-.174.049-.174.048-.175.048-.175.046-.176.046-.175.044-.177.044-.176.043-.177.042-.177.041-.177.04-.178.039-.178.038-.179.038-.178.036-.18.036-.179.035-.18.033-.18.033-.18.032-.181.031-.18.03-.182.029-.181.029-.182.027-.182.026-.182.026-.183.024-.183.023-.183.023-.184.022v-24.341h11.083v21.146zm-8.083-18.146v17.794l.123-.028.162-.037.161-.038.161-.04.161-.04.161-.04.16-.042.16-.042.16-.044.159-.043.16-.045.158-.046.159-.046.157-.047.158-.048.158-.049.157-.05.157-.05.156-.051.157-.053.156-.052.155-.054.156-.054.154-.055.155-.056.154-.057.154-.057.153-.058.153-.059.153-.06.153-.06.152-.061.09-.037v-16.195h-5.083z" fill="none"/>
    <path d="M25.405 209.702v-22.673h11.083v24.605a36.135 36.135 0 0 1-11.083-1.932z" fill="#1a1a1a"/>
    <path d="M36.488 211.634l-.181-.004-.181-.005-.181-.005-.181-.006-.18-.007-.18-.009-.18-.008-.18-.01-.18-.011-.179-.011-.179-.013-.179-.013-.178-.014-.179-.015-.178-.016-.177-.016-.178-.018-.177-.018-.177-.019-.177-.02-.177-.021-.176-.022-.176-.023-.176-.023-.176-.024-.175-.025-.175-.026-.175-.027-.174-.027-.174-.029-.174-.029-.174-.03-.173-.031-.173-.032-.173-.032-.173-.034-.172-.034-.172-.035-.172-.036-.171-.036-.171-.038-.171-.038-.17-.039-.17-.04-.17-.04-.17-.042-.169-.042-.169-.043-.169-.044-.168-.045-.168-.045-.168-.046-.167-.047-.167-.048-.167-.049-.166-.049-.167-.05-.165-.051-.166-.052-.165-.053-.165-.053-.164-.054-.164-.055-.164-.055v-22.673h11.083v24.605zm-8.083-21.605v17.456l.099.027.154.04.155.041.155.039.155.039.155.038.156.037.155.037.156.035.157.035.157.035.157.033.157.033.158.032.158.031.158.031.158.03.159.029.159.028.159.028.16.027.159.025.16.026.16.024.161.024.161.023.161.022.161.022.162.02.162.02.162.019.162.019.075.008v-18.413h-5.083z" fill="none"/>
    <path d="M61.545 31.055c0-5.594-4.541-10.136-10.135-10.136H31.139c-5.594 0-10.135 4.542-10.135 10.136v35.86c0 5.594 4.541 10.135 10.135 10.135H51.41c5.594 0 10.135-4.541 10.135-10.135v-35.86z" fill="#f2d1b5"/>
    <path d="M60.694 49.682l3.276-28.763.037-.032a8.403 8.403 0 0 0-8.248-14.305c-12.195 4.366-17.887 5.339-25.396 1.591-.062.125-2.305-6.231-2.305-6.231s-.129-.592.157-1.228c.15-.334-8.189-3.773-10.058 8.125a23.94 23.94 0 0 0 .238 8.679c.949 4.49 2.659 12.525 2.659 12.525l.345-.573a8.688 8.688 0 0 1 9.79-3.881c2.354.663 5.617 1.182 10.086 1.229 25.344.267 6.075 22.864 19.419 22.864z" fill="#1a1a1a"/>
    <circle cx="29.27" cy="40.47" r="1.68" fill="#292929"/>
    <circle cx="44.2" cy="40.47" r="1.68" fill="#292929"/>
    <path d="M27.586 63.695c-1.102 1.333 7.37-7.947 18.29 0" fill="none" stroke="#bc7b55" stroke-width="3"/>
    <ellipse cx="58.81" cy="49.21" rx="4.27" ry="7.06" fill="#f2d1b5"/>
    <path fill="#f2d1b5" d="M36.68 77.05h8.55v16.26h-8.55z"/>
    <path fill="#bc7b55" d="M36.68 77.05h8.55v2.37h-8.55z"/>
    <path d="M20.943 175.456h-9.269v9.052c0 .974.489 1.908 1.358 2.597.869.689 2.048 1.076 3.277 1.076s2.408-.387 3.277-1.076c.869-.689 1.357-1.623 1.357-2.597v-9.052z" fill="#f2d1b5"/>
    <path d="M20.943 103.886h-4.968a4.302 4.302 0 0 0-4.301 4.302v67.268h9.269v-71.57z" fill="#1a1a1a"/>
    <path d="M45.23 83.023c14.079 1.14 25.008 10.57 25.008 21.989v77.85H20.943l-9.089-73.394c-.853-6.884 2.051-13.729 7.978-18.807 4.547-3.896 10.54-6.467 17.049-7.377-.356.867-17.192 42.408-7.691 92.172h16.04V83.023z" fill="#292929"/>
    <path fill="#292929" d="M60.97 103.89h9.27v71.57h-9.27z"/>
    <path d="M70.238 175.456v9.052c0 .974-.488 1.908-1.357 2.597a4.075 4.075 0 0 1-1.135.64l.12-.194c.166-.403.26-.949.26-1.519v-5.297h-1.775v5.297c0 .57.093 1.116.26 1.519l.287.466a4.868 4.868 0 0 1-1.294.164c-1.229 0-2.408-.387-3.277-1.076-.869-.689-1.358-1.623-1.358-2.597v-9.052h9.269z" fill="#f2d1b5"/>
    <path d="M60.969 182.705l-5.769-.886H20.943v1.935s.188 5.346 10.196 5.346h29.83v-6.395z" fill="#292929"/>
    <path d="M60.969 182.705v6.395h-29.83l-.233-.001-.229-.003-.225-.004-.223-.007-.218-.009-.215-.01-.212-.012-.209-.014-.205-.015-.201-.018-.199-.018-.195-.021-.191-.022-.189-.024-.185-.025-.182-.027-.179-.028-.176-.029-.173-.031-.17-.033-.166-.033-.164-.035-.161-.037-.157-.037-.155-.039-.152-.04-.149-.041-.146-.042-.143-.044-.14-.044-.138-.046-.135-.046-.132-.048-.13-.048-.127-.049-.124-.051-.122-.051-.119-.052-.116-.052-.114-.054-.112-.054-.109-.055-.107-.056-.104-.056-.102-.057-.099-.057-.097-.058-.095-.059-.093-.058-.09-.06-.088-.06-.086-.06-.084-.061-.081-.061-.08-.061-.077-.061-.075-.062-.074-.062-.071-.062-.07-.063-.067-.062-.065-.063-.064-.062-.062-.063-.06-.063-.058-.062-.056-.063-.055-.062-.053-.063-.051-.062-.049-.062-.048-.062-.047-.061-.044-.062-.043-.061-.042-.06-.04-.06-.039-.06-.037-.06-.036-.059-.034-.058-.033-.058-.032-.058-.03-.056-.029-.057-.028-.055-.026-.055-.026-.054-.047-.107-.043-.103-.038-.099-.035-.096-.031-.092-.027-.088-.024-.083-.02-.079-.018-.074-.015-.069-.013-.063-.01-.058-.008-.052-.007-.045-.008-.072-.004-.045-.001-.015v-1.935H55.2l5.769.886zm-39.026.114v.898l.005.042.004.025.005.032.007.04.009.045.011.049.012.053.016.058.018.064.02.066.024.07.026.073.03.078.034.08.038.086.018.04.022.043.022.045.022.043.024.045.026.046.026.046.027.047.029.047.029.047.031.048.033.049.033.049.035.049.036.05.038.049.039.051.04.05.042.051.043.051.045.051.046.052.048.051.05.052.051.052.053.052.054.052.056.052.059.053.06.052.061.052.064.052.066.053.067.052.07.052.072.052.073.051.076.052.078.051.08.051.082.051.085.051.087.05.089.05.092.049.094.049.096.049.1.048.101.047.104.047.107.047.109.046.112.045.114.044.118.044.12.043.123.043.125.041.129.041.131.04.134.039.138.038.14.036.143.036.147.035.149.034.153.033.155.031.159.03.162.03.165.027.169.027.172.025.175.024.178.022.182.021.185.02.189.017.192.017.195.015.199.013.203.011.206.01.21.008.213.007.217.004.221.003.226.001h28.828v-4.537l-4.846-.744h-33.18z" fill="none"/>
    <path d="M68.126 180.735v5.297c0 .57-.094 1.116-.26 1.519l-.12.194-.368.156-.163.039-.317.077-.287-.466c-.167-.403-.26-.949-.26-1.519v-5.297h1.775z" fill="#f3e1d3"/>
    <path d="M44.195 175.456H29.19c-9.501-49.764 7.335-91.305 7.691-92.172a36.347 36.347 0 0 1 5.991-.391h.002l1.443.08-.122.05v92.433z" fill="#fff"/>
    <path d="M45.23 83.023v92.433h-1.775V83.023l.209-.05 1.566.05z" fill="#adadad"/>
    <path d="M42.943 82.585a.438.438 0 0 0-.438-.437h-3.261a.438.438 0 0 0-.438.437v.876c0 .241.196.438.438.438h3.261a.439.439 0 0 0 .438-.438v-.876zM41.843 84.517c-2.375 14.665-3.663 32.341-3.41 60.547l-3.131 8.699-3.13-8.699c-.515-28.56 2.733-46.688 7.256-60.547h2.415z" fill="#e06c60"/>
    <path d="M41.843 84.517h-2.415l.189-.618h2.319l-.093.618z" fill="#c84335"/>
    <path d="M60.969 103.928v81.498h-10.67s-5.069.148-5.069-4.082v-77.963h15.739v.547z" fill="#292929"/>
    <path d="M60.969 185.426h-10.67l-.057.001-.069-.001-.092-.002-.115-.004-.135-.008-.075-.005-.079-.007-.083-.008-.087-.009-.091-.01-.094-.012-.098-.014-.101-.016-.103-.017-.106-.019-.109-.022-.11-.023-.112-.026-.114-.028-.115-.031-.117-.033-.117-.036-.118-.038-.119-.042-.119-.045-.118-.047-.06-.025-.059-.026-.059-.027-.059-.027-.059-.029-.058-.029-.059-.03-.058-.031-.057-.032-.058-.033-.057-.033-.057-.035-.056-.036-.056-.036-.056-.038-.054-.039-.055-.039-.054-.041-.053-.041-.053-.043-.052-.044-.051-.045-.051-.046-.05-.047-.049-.048-.049-.049-.047-.05-.047-.052-.046-.053-.045-.054-.044-.055-.043-.056-.042-.057-.041-.059-.04-.06-.039-.061-.038-.063-.037-.063-.036-.065-.034-.067-.033-.067-.032-.069-.031-.071-.029-.071-.028-.074-.027-.074-.025-.076-.024-.077-.023-.079-.02-.08-.02-.081-.018-.083-.016-.085-.015-.086-.013-.087-.011-.089-.01-.091-.008-.092-.007-.094-.004-.095-.003-.096-.001-.099v-77.963h15.739v82.045zM47.23 105.381v75.954l.001.069.002.059.002.057.004.054.004.052.006.049.006.048.007.047.008.045.008.042.009.041.009.039.01.039.01.036.011.034.012.035.011.032.012.031.012.031.013.029.013.028.013.026.014.027.014.026.016.026.015.026.014.022.016.024.017.024.016.022.017.022.019.023.018.022.019.022.02.022.019.021.021.021.022.021.022.021.022.02.024.021.025.02.024.02.026.021.026.019.027.02.029.02.028.019.029.019.03.019.032.019.031.019.031.018.033.018.035.018.033.018.034.016.035.017.036.017.036.017.038.016.032.014.08.032.078.029.078.027.08.026.081.025.08.023.081.022.08.02.081.018.08.017.079.016.079.014.075.013.075.011.073.01.07.009.068.008.065.007.061.006.058.004.051.004.103.006.079.003.06.002h.035l.044-.001h8.687v-78.045H47.23z" fill="#1c1c1c"/>
    <path fill="#292929" d="M45.23 93.31h15.74v11.71H45.23z"/>
    <g>
        <circle cx="85.8" cy="129.43" r="34.06" fill="#fff"/>
        <path d="M85.804 125.257l11.73-11.73 4.17 4.171-11.729 11.73 11.729 11.729-4.17 4.171-11.73-11.73-11.73 11.73-4.17-4.171 11.729-11.729-11.729-11.73 4.17-4.171 11.73 11.73z" fill="#a82626"/>
    </g>
</svg>
