<svg viewBox="0 0 103 103" xmlns="http://www.w3.org/2000/svg" xmlns:serif="http://www.serif.com/" fill-rule="evenodd" clip-rule="evenodd" stroke-linejoin="round" stroke-miterlimit="1.41">
    <g serif:id="git ico">
        <circle cx="51.63" cy="51.47" r="50.72" fill="#f05133"/>
        <path d="M84.312 48.442L54.65 18.782a4.376 4.376 0 0 0-6.187 0l-6.159 6.161 7.813 7.812a5.191 5.191 0 0 1 5.345 1.246 5.198 5.198 0 0 1 1.234 5.378l7.531 7.53a5.198 5.198 0 0 1 5.379 1.236 5.207 5.207 0 1 1-8.497 1.7l-7.023-7.023v18.481a5.207 5.207 0 1 1-4.28-.151V42.499a5.206 5.206 0 0 1-2.827-6.828l-7.701-7.703-20.339 20.337a4.375 4.375 0 0 0 0 6.188l29.662 29.661a4.377 4.377 0 0 0 6.188 0l29.523-29.523a4.378 4.378 0 0 0 0-6.189z" fill="#fff" fill-rule="nonzero"/>
    </g>
</svg>
