<svg viewBox="0 0 120 212" xmlns="http://www.w3.org/2000/svg" fill-rule="evenodd" clip-rule="evenodd" stroke-linejoin="round" stroke-miterlimit="1.41">
    <path d="M119.872 102.839c0-23.678-19.224-42.902-42.902-42.902-23.679 0-42.902 19.224-42.902 42.902v65.424c0 23.678 19.223 42.902 42.902 42.902 23.678 0 42.902-19.224 42.902-42.902v-65.424z" fill="#8ac379"/>
    <path d="M64.316 12.337a6.045 6.045 0 0 0-6.042-6.043 6.045 6.045 0 0 0-6.042 6.043v25.416a6.045 6.045 0 0 0 6.042 6.042 6.045 6.045 0 0 0 6.042-6.042V12.337z" fill="#623b1f"/>
    <path d="M94.732 84.891c.712.425 1.407.887 2.091 1.367a51.747 51.747 0 0 1 8.902 7.998c2.707 3.07 5.086 6.525 6.931 10.324a41.102 41.102 0 0 1 3.137 8.941c.501 2.235.811 4.524.926 6.826.081 1.632.064 3.27-.047 4.899a44.265 44.265 0 0 1-.41 3.711 46.016 46.016 0 0 1-.478 2.614c-1.191 5.608-3.375 10.901-6.081 15.78a73.397 73.397 0 0 1-1.207 2.095 78.876 78.876 0 0 1-1.832 2.913 87.62 87.62 0 0 1-2.429 3.496 100.6 100.6 0 0 1-3.395 4.381 120.645 120.645 0 0 1-4.642 5.321l-.257.278-7.55-8.868c.241-.259.48-.519.719-.779a105.048 105.048 0 0 0 4.497-5.255 83.687 83.687 0 0 0 3.2-4.28 69.981 69.981 0 0 0 2.234-3.404 60.723 60.723 0 0 0 1.638-2.826c.411-.756.806-1.523 1.182-2.301.259-.535.508-1.075.748-1.621 1.615-3.67 2.804-7.625 3.146-11.718.055-.662.089-1.327.098-1.991.013-.92-.019-1.84-.099-2.755a26.608 26.608 0 0 0-.633-3.901 27.895 27.895 0 0 0-2.042-5.667c-1.354-2.788-3.116-5.312-5.102-7.565a40.456 40.456 0 0 0-6.753-6.102 25.678 25.678 0 0 0-1.469-.98l-.093-.056-.01-.006 5.028-10.899.052.03z" fill="#121212" fill-rule="nonzero"/>
    <path d="M67.486 210.494v-25.099H57.33V207.2c3.149 1.693 6.565 2.83 10.156 3.294z" fill="#292929"/>
    <path d="M89.873 208.94v-23.545H79.717v25.672c3.546-.071 6.958-.895 10.156-2.127z" fill="#1a1a1a"/>
    <path d="M56.754 23.395c0-5.126 4.162-9.288 9.288-9.288h18.576c5.126 0 9.288 4.162 9.288 9.288v39.304c0 5.126-4.162 9.288-9.288 9.288H66.042c-5.126 0-9.288-4.162-9.288-9.288V23.395z" fill="#f2d1b5"/>
    <ellipse cx="86.33" cy="34.26" rx="1.54" ry="1.73" fill="#292929"/>
    <ellipse cx="72.65" cy="34.26" rx="1.54" ry="1.73" fill="#292929"/>
    <ellipse cx="57.28" cy="43.27" rx="3.92" ry="7.28" fill="#f2d1b5"/>
    <path d="M62.191 13V8.644c0-2.127.751-4.167 2.088-5.671 1.337-1.504 3.16-2.128 5.04-2.349 6.237-.734 14.663-.925 20.518 0 2.399.379 4.746.962 6.459 2.675a9.133 9.133 0 0 1 2.675 6.459c0 2.724-.961 5.337-2.674 7.263-.027.032-.056.063-.084.094l-2.307 15.237-1.681-6.962c-.763-3.164-3.316-5.36-6.23-5.36H62.191c-5.614.801-5.437 5.797-5.437 5.797l-1.861-2.176.873-5.686 1.738-.227-.207-2.862L62.191 13z" fill="#623b1f"/>
    <path fill="#f2d1b5" d="M71.7 71.99h7.83v16.77H71.7z"/>
    <path fill="#bc7b55" d="M71.7 71.99h7.83v2.45H71.7z"/>
    <path d="M76.359 173.461h.235l9.741-.16c3.699-50.437-6.705-93.991-6.979-94.886 5.015.94 13.301 3.591 16.804 7.608 4.566 5.236 5.952 12.245 6.146 19.393.889 32.725-6.389 71.495-7.049 75.682H57.33v-7.637h19.029z" fill="#1f1f1f"/>
    <path d="M72.653 173.549h13.682c8.706-51.363-6.653-94.238-6.979-95.133a29.588 29.588 0 0 0-5.49-.404h-.001l-1.323.083.111.052v95.402z" fill="#e5e5e6"/>
    <path d="M71.317 78.147v95.402h2.015V78.147l-.238-.053-1.777.053z" fill="#e5e5e6"/>
    <path d="M71.705 88.755v84.706c-1.335 1.478-4.638 1.408-4.645 1.407h-9.779V99.139v-.001c0-.676.059-1.344.173-1.998.709-10.076 4.559-17.995 14.251-19.046v10.661zM57.33 180.132l5.451-.11h32.656v1.995s-.179 5.513-9.719 5.513H57.281l.049-7.398z" fill="#292929"/>
    <path d="M94.705 4.766a.873.873 0 0 0-.873-.873h-24.87a.873.873 0 0 0-.873.873v1.747c0 .482.391.873.873.873h24.87a.873.873 0 0 0 .873-.873V4.766z" fill="#85502a"/>
    <path d="M89.369 54.095H70.065a7.507 7.507 0 0 0 7.508 7.508h4.288a7.509 7.509 0 0 0 7.508-7.508z" fill="#fff"/>
    <path d="M53.891 156.145l-1.256-1.447a88.25 88.25 0 0 1-3.022-3.803 78.952 78.952 0 0 1-2.106-2.949 69.134 69.134 0 0 1-2.505-3.969c-2.568-4.404-4.661-9.204-5.845-14.315a42.586 42.586 0 0 1-.535-2.707 39.746 39.746 0 0 1-.425-3.616 38.037 38.037 0 0 1-.024-5.109 37.332 37.332 0 0 1 1.09-6.904 39.391 39.391 0 0 1 3.612-9.107c2.153-3.943 4.89-7.459 7.938-10.555a58.353 58.353 0 0 1 7.642-6.512 56.866 56.866 0 0 1 2.855-1.916 40.13 40.13 0 0 1 2.374-1.388l.056-.029 4.604 11.134a24.738 24.738 0 0 0-.656.366 45.053 45.053 0 0 0-4.608 3.106 46.727 46.727 0 0 0-5.129 4.532c-2.206 2.268-4.211 4.82-5.778 7.691a26.468 26.468 0 0 0-2.318 5.682 23.594 23.594 0 0 0-.84 6.664c.01.61.043 1.22.097 1.828.332 3.697 1.463 7.254 2.982 10.535.25.541.511 1.075.782 1.602.323.629.659 1.249 1.008 1.86.455.798.932 1.582 1.425 2.353a62.4 62.4 0 0 0 1.974 2.893 72.638 72.638 0 0 0 2.887 3.721l1.154 1.348-.014.002-7.419 9.009z" fill="#292929"/>
    <path d="M61.324 147.134a76.844 76.844 0 0 0 2.734 3.043 109.94 109.94 0 0 0 3.788 3.815l.001.001a2.62 2.62 0 0 1 .299 3.436l-4.12 5.622a2.177 2.177 0 0 1-3.262.285l-.001-.001a121.486 121.486 0 0 1-3.923-3.94 87.023 87.023 0 0 1-2.949-3.25l7.419-9.009.014-.002z" fill="#f2d1b5"/>
    <g>
        <circle cx="34.07" cy="129.83" r="34.07" fill="#fff"/>
        <path d="M57.591 118.71l-25.727 32.523-.012.001-21.336-21.241 4.233-4.252 16.576 16.502 21.56-27.256 4.706 3.723z" fill="#26a88b"/>
    </g>
</svg>
