<svg viewBox="0 0 103 103" xmlns="http://www.w3.org/2000/svg" fill-rule="evenodd" clip-rule="evenodd" stroke-miterlimit="10">
    <circle cx="51.82" cy="51.27" r="51" fill="#d04548"/>
    <path d="M36.77 50.87c-.046.067-.126.276-.245.63a104.38 104.38 0 0 0-.978 3.115l-.606 2.018a255.212 255.212 0 0 0-1.493 5.146c-.101.359-.163.572-.186.639a4.063 4.063 0 0 1-.269.71c-.125.26-.27.505-.439.738a2.682 2.682 0 0 1-.556.58 1.03 1.03 0 0 1-.624.23c-.36 0-.622-.121-.785-.36-.163-.239-.245-.679-.245-1.318v-.28c0-.094.006-.193.017-.298.012-.213.096-.613.253-1.2.157-.586.346-1.248.564-1.989.219-.74.456-1.504.709-2.298.252-.792.48-1.502.683-2.128a33.347 33.347 0 0 1-1.941 1.988 20.682 20.682 0 0 1-2.141 1.778 12.53 12.53 0 0 1-2.211 1.288c-.742.333-1.456.5-2.141.5-.787 0-1.464-.175-2.032-.519a4.448 4.448 0 0 1-1.409-1.359 6.152 6.152 0 0 1-.827-1.898 8.597 8.597 0 0 1-.269-2.119v-.26c0-.08.005-.159.017-.239.067-1.279.25-2.591.547-3.937a32.115 32.115 0 0 1 1.173-4.015 37.008 37.008 0 0 1 1.679-3.906 34.294 34.294 0 0 1 2.074-3.605 28.01 28.01 0 0 1 2.386-3.127 18.965 18.965 0 0 1 2.597-2.457 12.42 12.42 0 0 1 2.691-1.608c.905-.386 1.803-.58 2.691-.58 1.024 0 2.013.28 2.968.839.955.558 1.849 1.466 2.681 2.717.191.28.312.563.362.85.049.287.076.557.076.809 0 .599-.143 1.072-.43 1.418-.287.347-.628.519-1.02.519-.36 0-.695-.189-1.003-.57-.31-.379-.655-.923-1.037-1.629-.36-.639-.756-1.102-1.189-1.389a2.497 2.497 0 0 0-1.408-.429c-.787 0-1.629.327-2.523.98-.893.652-1.779 1.516-2.656 2.587a28.433 28.433 0 0 0-2.522 3.676 38.248 38.248 0 0 0-2.134 4.236 30.136 30.136 0 0 0-1.475 4.275c-.366 1.404-.548 2.667-.548 3.787 0 .373.025.756.077 1.148.052.393.145.75.287 1.07.14.32.331.584.574.788.241.207.547.31.919.31.415 0 .888-.139 1.416-.419a10.586 10.586 0 0 0 1.644-1.098 21.094 21.094 0 0 0 1.712-1.539 27.235 27.235 0 0 0 2.917-3.425c.383-.54.67-1.009.859-1.409l1.569-4.694c.192-.505.442-.865.751-1.079.31-.213.627-.32.953-.32.157 0 .313.027.472.08a1.152 1.152 0 0 1 .716.691c.073.18.109.391.109.63 0 .639-.055 1.238-.168 1.799-.113.56-.257 1.106-.431 1.638-.174.532-.367 1.07-.582 1.607-.21.536-.419 1.099-.62 1.686zm21.269 3.916a15.814 15.814 0 0 1-1.728 1.948 17.543 17.543 0 0 1-2.032 1.688c-.697.492-1.384.888-2.057 1.188-.676.301-1.283.45-1.822.45-.54 0-.978-.18-1.317-.54-.337-.359-.505-.972-.505-1.839 0-.612.09-1.326.27-2.137-.293.52-.659 1.046-1.097 1.578a9.575 9.575 0 0 1-1.502 1.459 7.436 7.436 0 0 1-1.889 1.068 6.186 6.186 0 0 1-2.277.409c-.371 0-.729-.046-1.072-.14a2.24 2.24 0 0 1-.901-.478 2.385 2.385 0 0 1-.624-.909c-.157-.379-.236-.855-.236-1.428 0-.013.023-.216.067-.608.044-.393.188-1.013.431-1.858.241-.846.616-1.941 1.121-3.286.508-1.346 1.221-2.976 2.142-4.896.235-.505.509-.868.817-1.088a1.69 1.69 0 0 1 1.003-.33c.157 0 .319.023.49.069.168.048.325.121.472.22.146.1.265.226.355.379.089.153.135.329.135.53 0 .134-.017.261-.051.379-.056.228-.176.523-.364.89-.186.368-.402.787-.649 1.259-.247.473-.509.982-.784 1.529a21.88 21.88 0 0 0-.768 1.698 17.077 17.077 0 0 0-.606 1.787 7.742 7.742 0 0 0-.287 1.769c0 .239.055.459.168.66.113.199.299.3.557.3.731 0 1.428-.239 2.092-.719a9.273 9.273 0 0 0 1.839-1.788 17.101 17.101 0 0 0 1.527-2.298c.455-.819.836-1.567 1.139-2.247.214-.453.401-.939.564-1.458.163-.519.341-.999.532-1.439.191-.44.41-.806.658-1.099a1.17 1.17 0 0 1 .929-.44c.403 0 .725.153.96.46.236.306.354.673.354 1.098 0 .239-.074.57-.227.989-.154.419-.343.9-.575 1.439-.229.54-.48 1.116-.75 1.729-.27.612-.52 1.236-.75 1.867a18.962 18.962 0 0 0-.574 1.859 7.018 7.018 0 0 0-.228 1.687c0 .481.247.72.743.72.348 0 .781-.121 1.299-.36.519-.239 1.06-.576 1.629-1.008a15.241 15.241 0 0 0 1.703-1.529 12.273 12.273 0 0 0 1.51-1.899l.166 2.716z" fill="#fff" fill-rule="nonzero" stroke="#fff" stroke-width=".26"/>
    <path d="M58.564 53.787c-.125.306-.245.662-.364 1.07a3.904 3.904 0 0 0-.176 1.089.99.99 0 0 0 .101.48c.067.12.198.18.389.18.235 0 .53-.083.886-.251a8.914 8.914 0 0 0 1.146-.66c.412-.272.839-.586 1.282-.94a39.905 39.905 0 0 0 2.582-2.237c.4-.381.756-.729 1.072-1.049a.763.763 0 0 1 .319-.199c.123-.04.23-.059.32-.059.224 0 .411.094.557.279.145.186.218.433.218.739 0 .279-.078.593-.235.94-.157.346-.433.687-.827 1.018a50.995 50.995 0 0 1-2.176 2.237 22.405 22.405 0 0 1-2.184 1.868c-.725.539-1.444.968-2.158 1.29-.714.319-1.409.478-2.084.478-.461 0-.846-.073-1.156-.22a1.923 1.923 0 0 1-.743-.599 2.412 2.412 0 0 1-.396-.9 4.974 4.974 0 0 1-.118-1.098c0-.653.082-1.322.245-2.007.162-.686.355-1.315.581-1.887.395-1.04.793-2.071 1.198-3.097.404-1.026.775-1.965 1.114-2.817l5.11-12.887c.203-.518.474-.886.819-1.098.342-.213.689-.32 1.037-.32s.666.113.953.339c.287.226.431.593.431 1.098 0 .24-.048.494-.144.76a9.47 9.47 0 0 1-.362.859c-.281.626-.616 1.392-1.002 2.297a377.328 377.328 0 0 0-2.615 6.283l-1.366 3.366a457.413 457.413 0 0 0-2.254 5.655z" fill="#fff" fill-rule="nonzero" stroke="#fff" stroke-width=".26"/>
    <path d="M82.464 50.17c.157-.107.304-.193.438-.26a.868.868 0 0 1 .389-.1c.247 0 .432.111.557.329.124.22.185.49.185.81 0 .346-.074.698-.227 1.058a2.24 2.24 0 0 1-.684.9 174.627 174.627 0 0 0-3.22 2.916 35.189 35.189 0 0 1-2.674 2.268c-.838.633-1.655 1.121-2.453 1.468a6.38 6.38 0 0 1-2.565.518c-.855 0-1.515-.187-1.982-.559-.467-.373-.701-.886-.701-1.538v-.149c0-.046.006-.104.018-.171.044-.4.22-.859.522-1.378.304-.518.67-1.058 1.097-1.619.426-.56.882-1.125 1.366-1.697.484-.572.93-1.116 1.341-1.629.41-.513.751-.981 1.02-1.408.27-.427.406-.771.406-1.039a.466.466 0 0 0-.168-.379c-.113-.094-.299-.14-.557-.14-.45 0-.913.117-1.391.35a6.947 6.947 0 0 0-1.417.938c-.466.392-.922.842-1.366 1.349a19.883 19.883 0 0 0-1.248 1.579 21.218 21.218 0 0 0-1.062 1.648 23.103 23.103 0 0 0-.817 1.529l-.287.62c-.124.266-.258.566-.404.899-.147.333-.3.676-.465 1.028-.162.354-.312.687-.446.999l-.363.84c-.107.247-.184.415-.228.509-.057.121-.149.346-.279.679-.131.333-.278.722-.448 1.17-.169.446-.347.914-.53 1.408-.186.494-.36.959-.523 1.399-.162.44-.306.825-.43 1.158-.125.333-.203.559-.238.679a7.479 7.479 0 0 1-.396.98 3.997 3.997 0 0 1-.522.81 2.36 2.36 0 0 1-.676.558c-.252.14-.538.209-.851.209-.406 0-.739-.098-1.005-.289-.264-.193-.396-.563-.396-1.108 0-.266.034-.54.101-.819.067-.28.153-.557.253-.829a22.9 22.9 0 0 1 .312-.798c.107-.26.205-.509.294-.75a346.226 346.226 0 0 1 1.857-4.005c.629-1.34 1.234-2.664 1.812-3.977a96.216 96.216 0 0 0 1.611-3.866 39.045 39.045 0 0 0 1.231-3.636c.09-.239.214-.58.371-1.02.157-.44.337-.872.54-1.299.203-.427.43-.796.683-1.108.253-.314.526-.469.817-.469.45 0 .775.103.978.31.203.207.304.509.304.909 0 .08-.011.207-.034.379a17.96 17.96 0 0 1-.084.549 14.84 14.84 0 0 1-.109.549 2.95 2.95 0 0 1-.109.379c.415-.453.865-.901 1.349-1.349.484-.446.983-.85 1.502-1.209a8.683 8.683 0 0 1 1.585-.881 4.158 4.158 0 0 1 1.619-.338c.371 0 .738.053 1.104.16.365.107.691.262.978.469.287.207.52.467.7.779.18.314.27.676.27 1.089 0 .547-.138 1.129-.413 1.749-.276.62-.622 1.242-1.038 1.868a23.539 23.539 0 0 1-1.349 1.827 65.45 65.45 0 0 1-1.359 1.619c-.421.487-.775.9-1.062 1.239-.287.34-.436.57-.447.689 0 .16.051.289.151.39.099.101.27.149.507.149.191 0 .473-.107.844-.319.371-.213.892-.582 1.559-1.108a81.087 81.087 0 0 0 2.548-2.119c1.029-.884 2.298-2 3.804-3.345z" fill="#fff" fill-rule="nonzero" stroke="#fff" stroke-width=".26"/>
</svg>
