<svg viewBox="0 0 102 102" xmlns="http://www.w3.org/2000/svg" xmlns:serif="http://www.serif.com/" fill-rule="evenodd" clip-rule="evenodd" stroke-linejoin="round" stroke-miterlimit="1.41">
    <g serif:id="affinity ico">
        <circle cx="50.77" cy="50.91" r="50.72" fill="#02267a"/>
        <path d="M51.103.191l.327.004.327.005.326.007.326.009.326.012.324.013.325.015.323.018.323.019.323.022.322.023.322.026.321.027.32.03.32.031.319.034.319.035.318.038.317.039.317.042.316.043.316.045.315.047.314.049.314.051.313.053.313.055.311.057.311.059.311.06.31.063.309.064.308.066.308.068.307.07.306.072.306.074.304.075.305.077.303.08.303.08.302.083.301.085.3.086.3.088.299.09.298.092.297.094.297.095.295.097.295.099.294.101.294.102.292.104.292.106.291.108.29.109.289.111.288.113.288.114.286.116.286.118.285.12.284.121.283.123.282.125.281.126.281.128.279.129.279.131.277.133.277.135.276.136.274.137.274.14.273.141.272.142.271.144.27.146.269.147.268.149.267.15.266.152.265.154.264.155.263.157.262.158.261.159.26.162.259.162.257.165.257.165.256.168.254.168.254.171.252.171.252.173.25.175.249.176.248.178.247.179.246.18.245.182.243.184.243.184.241.186.24.188.239.189.238.19.236.192.236.193.234.195.233.196.232.197.231.199.229.2.229.201.227.203.226.204.224.205.224.207.222.208.221.21.219.21.219.212.217.213.216.215.214.216.213.217.212.218.211.22.209.221.208.222.207.223.205.225.204.226.203.227.202.228.2.23.198.23.198.232.196.233.194.235.193.235.192.237.19.237.189.239.188.241.186.241.185.242.183.244.182.245.181.245.179.247.177.248.176.25.175.25.173.251.172.253.17.253.169.255.167.255.166.257.164.258.163.259.161.26.16.261.158.261.157.263.155.264.153.265.152.266.151.268.148.268.148.269.145.27.144.27.143.272.141.273.139.274.138.275.136.276.134.276.133.278.131.278.13.28.128.28.126.282.125.282.122.283.122.284.119.285.118.285.116.287.115.287.112.289.111.289.11.29.107.291.106.291.104.293.103.293.1.294.099.295.097.296.096.296.093.298.092.298.09.299.088.299.087.301.084.301.083.302.081.303.079.303.077.304.076.305.074.305.071.307.07.307.068.307.067.309.064.309.062.31.061.31.059.311.056.312.055.312.053.313.051.314.049.315.047.315.046.315.043.316.041.317.04.318.037.318.036.318.033.32.032.319.029.321.028.321.025.321.024.322.021.323.02.323.017.324.015.324.014.325.011.325.01.326.007.326.005.327.003.328.001.327-.001.328-.003.327-.005.327-.007.327-.01.325-.011.326-.014.324-.015.325-.017.323-.02.324-.021.322-.024.322-.025.322-.028.321-.029.32-.032.32-.033.319-.036.319-.037.318-.04.317-.041.317-.043.317-.046.315-.047.315-.049.315-.051.313-.053.313-.055.313-.056.312-.059.311-.061.31-.062.31-.064.309-.067.308-.068.308-.07.307-.071.306-.074.306-.076.305-.077.304-.079.303-.081.303-.083.302-.084.301-.087.3-.088.3-.09.299-.092.298-.093.297-.096.297-.097.296-.099.294-.1.295-.103.293-.104.292-.106.292-.107.291-.11.29-.111.289-.112.288-.115.288-.116.286-.118.286-.119.285-.122.284-.122.283-.125.282-.126.281-.128.281-.13.279-.131.279-.133.277-.134.277-.136.276-.138.275-.139.273-.141.273-.143.272-.144.271-.145.27-.148.269-.148.268-.151.267-.152.266-.153.265-.155.264-.157.263-.158.262-.16.261-.161.26-.163.259-.164.258-.166.256-.167.256-.169.255-.17.253-.172.253-.173.251-.175.25-.176.249-.177.248-.179.247-.181.246-.182.245-.183.243-.185.243-.186.241-.188.24-.189.239-.19.238-.192.237-.193.235-.194.234-.196.234-.198.231-.198.231-.2.23-.202.228-.203.227-.204.226-.205.224-.207.224-.208.222-.209.221-.211.219-.212.219-.213.217-.214.216-.216.214-.217.214-.219.211-.219.211-.221.209-.222.208-.224.207-.224.206-.226.204-.227.202-.229.202-.229.2-.231.198-.232.198-.233.196-.234.194-.236.193-.236.192-.238.191-.239.189-.24.187-.241.186-.243.185-.243.184-.245.181-.246.181-.247.179-.248.177-.249.177-.25.174-.252.173-.252.172-.254.17-.254.169-.256.167-.257.166-.257.164-.259.163-.26.161-.261.16-.262.158-.263.157-.264.155-.265.153-.266.152-.267.151-.268.149-.269.147-.27.146-.271.144-.272.142-.273.141-.274.139-.274.138-.276.136-.277.135-.277.132-.279.132-.279.129-.281.128-.281.126-.282.125-.283.123-.284.121-.285.119-.286.118-.286.116-.288.115-.288.113-.289.111-.29.109-.291.108-.292.105-.292.104-.294.103-.294.101-.295.098-.295.097-.297.096-.297.093-.298.092-.299.09-.3.088-.3.087-.301.084-.302.083-.303.081-.303.079-.305.078-.304.075-.306.074-.306.072-.307.069-.308.069-.308.066-.309.064-.31.063-.311.06-.311.059-.311.056-.313.055-.313.053-.314.051-.314.049-.315.048-.316.045-.316.043-.317.041-.317.04-.318.037-.319.036-.319.033-.32.032-.32.029-.321.028-.322.025-.322.024-.323.021-.323.02-.323.017-.325.016-.324.013-.326.011-.326.01-.326.007-.327.005-.327.003-.328.001-.328-.001-.327-.003-.327-.005-.326-.007-.326-.01-.325-.011-.325-.013-.324-.016-.324-.017-.323-.02-.323-.021-.322-.024-.321-.025-.321-.028-.321-.029-.32-.032-.319-.033-.318-.036-.319-.037-.317-.04-.317-.041-.316-.043-.316-.045-.315-.048-.314-.049-.314-.051-.313-.053-.312-.055-.312-.056-.311-.059-.311-.06-.309-.063-.309-.064-.309-.066-.307-.069-.307-.069-.307-.072-.305-.074-.305-.075-.304-.078-.304-.079-.302-.081-.302-.083-.301-.084-.301-.087-.299-.088-.299-.09-.298-.092-.298-.093-.296-.096-.296-.097-.295-.098-.294-.101-.293-.103-.293-.104-.292-.105-.29-.108-.29-.109-.29-.111-.288-.113-.287-.115-.287-.116-.286-.118-.284-.119-.284-.121-.283-.123-.283-.125-.281-.126-.28-.128-.28-.129-.278-.132-.278-.132-.277-.135-.275-.136-.275-.138-.274-.139-.273-.141-.272-.142-.271-.144-.27-.146-.269-.147-.268-.149-.267-.151-.266-.152-.265-.153-.264-.155-.263-.157-.262-.158-.261-.16-.259-.161-.259-.163-.258-.164-.257-.166-.255-.167-.255-.169-.254-.17-.252-.172-.251-.173-.251-.174-.249-.177-.248-.177-.247-.179-.246-.181-.244-.181-.244-.184-.242-.185-.242-.186-.24-.187-.239-.189-.238-.191-.236-.192-.236-.193-.234-.194-.233-.196-.232-.198-.231-.198-.229-.2-.228-.202-.228-.202-.225-.204-.225-.206-.223-.207-.222-.208-.221-.209-.22-.211-.218-.211-.217-.214-.216-.214-.215-.216-.213-.217-.212-.219-.211-.219-.209-.221-.208-.222-.207-.224-.205-.224-.204-.226-.203-.227-.201-.228-.2-.23-.199-.231-.197-.231-.196-.234-.195-.234-.193-.235-.192-.237-.19-.238-.189-.239-.188-.24-.186-.241-.185-.243-.183-.243-.182-.245-.18-.246-.179-.247-.178-.248-.176-.249-.175-.25-.173-.251-.172-.253-.17-.253-.169-.255-.167-.256-.166-.256-.164-.258-.163-.259-.161-.26-.16-.261-.158-.262-.156-.263-.155-.264-.154-.265-.152-.266-.15-.267-.149-.268-.147-.269-.146-.27-.144-.271-.143-.272-.141-.273-.139-.273-.138-.275-.136-.276-.134-.277-.133-.277-.131-.279-.13-.279-.127-.281-.127-.281-.124-.282-.123-.283-.121-.284-.12-.285-.118-.286-.116-.286-.114-.288-.113-.288-.111-.289-.109-.29-.108-.291-.106-.292-.104-.292-.102-.293-.101-.295-.099-.294-.097-.296-.095-.297-.094-.297-.092-.298-.09-.299-.088-.3-.086-.3-.085-.301-.083-.302-.081-.303-.079-.303-.077-.304-.076-.305-.073-.306-.072-.306-.07-.307-.068-.308-.066-.308-.065-.309-.062-.31-.061-.31-.058-.311-.057-.312-.055-.313-.053-.313-.051-.313-.049-.315-.047-.315L.548 58l-.044-.317-.041-.317-.039-.317-.038-.318-.035-.319-.034-.319-.031-.32-.03-.32-.027-.321-.026-.322-.023-.322-.022-.322-.019-.324-.018-.323-.015-.325-.014-.324-.011-.326-.009-.325-.007-.327-.006-.327-.003-.327-.001-.328.001-.327.003-.328.006-.327.007-.326.009-.326.011-.325.014-.325.015-.324.018-.324.019-.323.022-.323.023-.322.026-.321.027-.321.03-.321.031-.319.034-.32.035-.318.038-.318.039-.318.041-.317.044-.316.045-.315.047-.315.049-.315.051-.314.053-.313.055-.312.057-.312.058-.311.061-.31.062-.31.065-.309.066-.309.068-.307.07-.307.072-.307.073-.305.076-.305.077-.304.079-.303.081-.303.083-.302.085-.301.086-.301.088-.299.09-.299.092-.298.094-.298.095-.296.097-.296.099-.295.101-.294.102-.293.104-.293.106-.291.108-.291.109-.29.111-.289.113-.289.114-.287.116-.287.118-.285.12-.285.121-.284.123-.283.124-.282.127-.282.127-.28.13-.28.131-.278.133-.278.134-.276.136-.276.138-.275.139-.274.141-.273.143-.272.144-.27.146-.27.147-.269.149-.268.15-.268.152-.266.154-.265.155-.264.156-.263.158-.261.16-.261.161-.26.163-.259.164-.258.166-.257.167-.255.169-.255.17-.253.172-.253.173-.251.175-.25.176-.25.178-.248.179-.247.18-.245.182-.245.183-.244.185-.242.186-.241.188-.241.189-.239.19-.237.192-.237.193-.235.195-.235.196-.233.197-.232.199-.23.2-.23.201-.228.203-.227.204-.226.205-.225.207-.223.208-.222.209-.221.211-.22.212-.218.213-.217.215-.216.216-.215.217-.213.218-.212.22-.21.221-.21.222-.208.223-.207.225-.205.225-.204.228-.203.228-.201.229-.2.231-.199.232-.197.233-.196.234-.195.236-.193.236-.192.238-.19.239-.189.24-.188.242-.186.242-.184.244-.184.244-.182.246-.18.247-.179.248-.178.249-.176.251-.175.251-.173.252-.171.254-.171.255-.168.255-.168.257-.165.258-.165.259-.162.259-.162.261-.159.262-.158.263-.157.264-.155.265-.154.266-.152.267-.15.268-.149.269-.147.27-.146.271-.144.272-.142.273-.141.274-.14.275-.137.275-.136.277-.135.278-.133.278-.131.28-.129.28-.128.281-.126.283-.125.283-.123.284-.121.284-.12.286-.118.287-.116.287-.114.288-.113.29-.111.29-.109.29-.108.292-.106.293-.104.293-.102.294-.101.295-.099.296-.097.296-.095.298-.094.298-.092.299-.09.299-.088.301-.086.301-.085.302-.083.302-.08.304-.08.304-.077.305-.075.305-.074.307-.072.307-.07.307-.068.309-.066.309-.064.309-.063.311-.06.311-.059.312-.057.312-.055.313-.053.314-.051.314-.049.315-.047.316-.045.316-.043.317-.042.317-.039.319-.038.318-.035.319-.034.32-.031.321-.03.321-.027.321-.026.322-.023.323-.022.323-.019.324-.018.324-.015.325-.013.325-.012.326-.009.326-.007.327-.005.327-.004.328-.001.328.001zm-.637 3l-.308.003-.308.005-.307.007-.307.009-.306.01-.306.013-.305.015-.305.016-.304.018-.304.021-.303.022-.303.024-.302.026-.301.027-.301.03-.3.032-.3.033-.3.035-.298.037-.298.039-.298.041-.297.042-.296.045-.296.046-.295.048-.294.05-.294.051-.293.054-.293.055-.292.057-.291.059-.291.06-.29.062-.289.064-.289.066-.288.068-.287.069-.287.071-.286.073-.285.074-.285.076-.284.078-.283.08-.283.081-.281.083-.281.084-.281.087-.279.088-.279.089-.278.092-.278.093-.276.094-.276.097-.275.097-.274.1-.274.101-.273.103-.271.104-.272.106-.27.108-.269.109-.269.111-.268.113-.267.114-.266.115-.266.117-.264.119-.264.12-.263.122-.262.124-.261.124-.26.127-.26.128-.258.129-.258.131-.256.133-.256.134-.255.136-.254.137-.253.138-.252.14-.251.142-.251.143-.249.144-.248.146-.248.147-.246.149-.246.15-.244.152-.244.153-.242.155-.242.156-.241.157-.239.159-.239.16-.237.162-.237.163-.235.164-.235.166-.233.167-.233.168-.231.17-.23.171-.23.173-.228.174-.227.175-.226.177-.225.178-.224.179-.222.18-.222.182-.22.183-.22.185-.218.185-.217.187-.216.189-.215.189-.214.191-.212.192-.212.193-.21.195-.209.196-.208.197-.207.198-.205.2-.205.2-.203.202-.202.203-.201.205-.199.205-.198.207-.197.208-.196.209-.195.21-.193.212-.192.212-.191.214-.19.215-.188.216-.187.217-.186.218-.184.22-.183.22-.182.222-.18.223-.18.223-.178.225-.176.226-.175.228-.174.228-.173.229-.171.23-.17.232-.168.232-.167.233-.166.235-.164.235-.163.237-.162.237-.16.239-.159.24-.157.24-.156.242-.155.242-.153.244-.152.244-.15.246-.149.246-.147.248-.146.248-.144.249-.143.251-.142.251-.14.252-.139.253-.137.254-.135.255-.134.256-.133.257-.131.257-.129.259-.128.259-.127.26-.125.261-.123.262-.122.263-.12.264-.119.264-.117.266-.116.266-.114.267-.112.268-.111.269-.109.269-.108.271-.106.271-.104.272-.103.272-.101.274-.1.274-.098.275-.096.276-.095.277-.093.277-.091.278-.089.279-.088.28-.087.28-.084.281-.083.282-.082.282-.079.283-.078.284-.076.285-.075.285-.072.286-.071.287-.07.287-.067.288-.066.289-.064.289-.062.29-.061.291-.058.291-.057.292-.055.293-.054.293-.051.294-.05.294-.048.295-.046.296-.045.296-.042.297-.041.298-.039.298-.037.299-.035.299-.034.3-.031.3-.03.301-.028.302-.025.302-.024.302-.023.303-.02.304-.018.304-.017.305-.014.305-.013.306-.01.306-.009.307-.007.307-.005.308-.003.309-.001.308.001.309.003.308.005.308.007.307.009.307.01.307.013.305.014.306.017.304.018.305.02.303.023.304.024.302.025.302.028.302.03.301.031.3.034.3.035.299.037.299.039.298.041.297.042.297.045.296.046.296.048.295.05.295.051.294.054.293.055.293.057.291.058.292.061.29.062.291.064.289.066.288.067.289.07.287.071.287.072.286.075.285.076.284.078.284.079.284.082.282.083.282.084.281.087.28.088.28.089.279.091.278.093.277.095.277.096.276.098.275.1.274.101.273.103.273.104.272.106.271.108.271.109.269.111.269.112.268.114.267.116.266.117.265.119.265.12.264.122.262.123.262.125.262.127.26.128.259.129.259.131.257.133.257.134.256.135.255.137.254.139.253.14.252.142.251.143.25.144.25.146.248.147.247.149.247.15.245.152.245.153.243.155.243.156.241.157.241.159.24.16.238.162.238.163.236.164.236.166.234.167.234.168.232.17.231.171.231.173.229.174.228.175.227.176.226.178.225.18.224.18.223.182.221.183.221.184.219.186.218.187.218.188.216.19.215.191.213.192.213.193.211.195.211.196.209.197.208.198.206.199.206.201.204.202.203.203.202.205.201.205.2.207.198.208.197.209.196.21.194.212.194.212.192.214.19.215.19.216.188.217.187.218.186.219.184.221.184.222.181.222.181.224.179.225.178.226.177.227.175.228.174.23.172.23.171.231.17.233.169.233.167.235.166.235.164.237.163.237.162.239.16.239.159.241.157.242.156.242.154.244.154.244.151.246.15.246.149.248.148.248.146.249.144.251.143.251.142.252.139.253.139.254.137.255.136.256.134.256.132.258.131.258.13.26.128.26.126.261.125.262.124.263.121.264.121.264.118.266.118.266.115.267.114.268.113.269.11.269.11.27.107.272.106.271.105.273.102.274.102.274.099.275.098.276.096.276.095.278.093.278.091.279.09.279.088.281.086.281.085.281.083.283.081.283.08.284.078.285.076.285.074.286.073.287.071.287.069.288.068.289.065.289.064.29.063.291.06.291.059.292.057.293.055.293.053.294.052.294.05.295.048.296.046.296.044.297.043.298.041.298.038.298.038.3.035.299.033.301.032.301.029.301.028.302.026.303.024.303.022.304.02.304.019.305.016.305.015.306.012.306.011.307.009.307.006.308.005.308.003.309.001.309-.001.308-.003.308-.005.307-.006.307-.009.306-.011.306-.012.305-.015.305-.016.304-.019.304-.02.303-.022.303-.024.302-.026.301-.028.301-.029.301-.032.3-.033.299-.035.298-.038.299-.038.297-.041.297-.043.296-.044.296-.046.295-.048.295-.05.293-.052.294-.053.292-.055.292-.057.292-.059.29-.06.29-.063.29-.064.288-.065.288-.068.288-.069.286-.071.286-.073.286-.074.284-.076.284-.078.283-.08.283-.081.282-.083.281-.085.28-.086.28-.088.278-.09.279-.091.277-.093.276-.095.276-.096.275-.098.275-.099.273-.102.273-.102.272-.105.271-.106.27-.107.27-.11.268-.11.268-.113.267-.114.267-.115.265-.118.265-.118.263-.121.263-.121.262-.124.261-.125.261-.126.259-.128.258-.13.258-.131.257-.132.256-.134.254-.136.254-.137.253-.138.252-.14.252-.142.25-.143.249-.144.249-.146.247-.148.247-.149.245-.15.245-.151.243-.153.243-.155.241-.156.241-.158.239-.158.239-.16.238-.162.236-.163.236-.164.234-.166.234-.167.232-.169.231-.17.231-.171.229-.172.228-.174.227-.175.226-.177.225-.178.224-.179.223-.181.221-.181.221-.184.219-.184.218-.186.218-.187.216-.188.215-.19.213-.19.213-.192.211-.194.21-.194.21-.196.207-.197.207-.198.206-.2.204-.201.203-.202.202-.203.201-.204.199-.206.199-.206.197-.208.196-.209.194-.211.193-.211.193-.213.19-.213.19-.215.188-.216.187-.217.186-.219.184-.219.183-.221.182-.221.181-.223.179-.224.178-.225.176-.226.176-.227.174-.228.172-.229.171-.23.17-.232.169-.232.167-.234.165-.234.165-.236.163-.236.161-.238.161-.238.158-.24.158-.241.156-.241.154-.242.153-.244.152-.245.15-.245.149-.247.147-.247.146-.248.145-.25.143-.25.141-.251.14-.252.139-.253.137-.254.135-.255.135-.256.132-.257.131-.257.13-.259.128-.259.126-.261.125-.261.123-.262.122-.262.12-.264.119-.265.117-.265.116-.266.114-.267.112-.268.111-.269.109-.27.108-.27.106-.271.104-.272.103-.273.101-.273.1-.274.098-.276.096-.275.095-.277.093-.277.091-.278.09-.279.088-.28.086-.28.085-.281.083-.282.081-.282.079-.284.078-.283.076-.285.075-.285.073-.286.071-.287.069-.287.067-.289.066-.288.064-.289.062-.291.061-.29.059-.292.057-.292.055-.292.053-.293.052-.294.05-.295.048-.295.046-.296.044-.296.043-.297.04-.297.039-.298.037-.299.036-.299.033-.3.031-.3.03-.301.028-.302.026-.302.024-.303.022-.303.02-.303.018-.305.017-.304.014-.306.013-.306.011-.306.008-.306.007-.308.005-.308.003-.308.001-.309-.001-.308-.003-.309-.005-.307-.007-.308-.008-.307-.011-.306-.013-.306-.014-.305-.017-.305-.018-.304-.02-.304-.022-.303-.024-.302-.026-.303-.028-.301-.03-.301-.031-.3-.033-.3-.036-.299-.037-.299-.039-.298-.04-.298-.043-.297-.044-.296-.046-.296-.048-.295-.05-.294-.052-.294-.053-.293-.055-.293-.057-.292-.059-.291-.061-.291-.062-.29-.064-.289-.066-.289-.067-.288-.069-.287-.071-.287-.073-.286-.075-.285-.076-.285-.078-.284-.079-.283-.081-.282-.083-.282-.085-.281-.086-.281-.088-.279-.09-.279-.091-.278-.093-.277-.095-.277-.096-.276-.098-.275-.1-.274-.101-.274-.103-.272-.104-.272-.106-.272-.108-.27-.109-.269-.111-.269-.112-.268-.114-.267-.116-.266-.117-.266-.119-.264-.12-.264-.122-.263-.123-.262-.125-.261-.126-.26-.128-.259-.13-.259-.131-.257-.132-.257-.135-.256-.135-.255-.137-.254-.139-.253-.14-.252-.141-.251-.143-.25-.145-.25-.146-.248-.147-.248-.149-.246-.15-.246-.152-.244-.153-.244-.154-.242-.156-.242-.158-.24-.158-.24-.161-.239-.161-.237-.163-.237-.165-.235-.165-.235-.167-.233-.169-.233-.17-.231-.171-.23-.172-.229-.174-.229-.176-.227-.176-.226-.178-.225-.179-.223-.181-.223-.182-.222-.183-.22-.184-.22-.186-.218-.187-.217-.188-.216-.19-.215-.19-.214-.193-.212-.193-.212-.194-.21-.196-.209-.197-.208-.199-.207-.199-.205-.201-.205-.202-.203-.203-.202-.204-.2-.206-.2-.207-.198-.207-.197-.21-.196-.21-.195-.211-.193-.213-.192-.214-.191-.214-.189-.216-.189-.218-.187-.218-.185-.219-.185-.221-.183-.221-.182-.223-.18-.224-.179-.225-.178-.226-.177-.227-.175-.228-.174-.229-.173-.231-.171-.231-.17-.232-.168-.234-.167-.234-.166-.236-.164-.236-.163-.238-.162-.239-.16-.239-.159-.241-.157-.241-.156-.243-.155-.243-.153-.245-.152-.245-.15-.247-.149-.247-.147-.249-.146-.249-.144-.25-.143-.252-.142-.252-.14-.253-.138-.254-.137-.254-.136-.256-.134-.257-.133-.258-.131-.258-.129-.259-.128-.261-.127-.261-.124-.262-.124-.263-.122-.263-.12-.265-.119-.265-.117-.267-.115-.267-.114-.267-.113-.269-.111-.27-.109-.27-.108-.271-.106-.272-.104-.273-.103-.273-.101-.275-.1-.275-.097-.276-.097-.276-.094-.277-.093-.279-.092-.278-.089-.28-.088-.28-.087-.281-.084-.282-.083-.283-.081-.283-.08-.284-.078-.284-.076-.286-.074-.286-.073-.286-.071-.288-.069-.288-.068-.288-.066-.29-.064-.29-.062-.29-.06-.292-.059-.292-.057-.292-.055-.294-.054-.293-.051-.295-.05-.295-.048-.296-.046-.296-.045-.297-.042-.297-.041-.298-.039-.299-.037-.299-.035-.3-.033-.301-.032-.301-.03-.301-.027-.302-.026-.303-.024-.303-.022-.304-.021-.304-.018-.305-.016-.305-.015-.306-.013-.306-.01-.307-.009-.307-.007-.308-.005-.308-.003-.309-.001-.309.001z" fill="#01e0db"/>
        <path d="M53.491 24.052l.64 1.51h2.659L80.262 65.67l-5.253 8.321H54.722l2.068 3.778h-.886l-2.167-3.778h-25.16l-1.134-2.314H25.67l-4.382-7.928L27 53.557l5.712-3.201 9.011-15.559-1.921-3.084 4.432-7.661h9.257zM33.826 65.67H49.09l-1.662-2.961h16.434L49.705 37.905 33.826 65.67z" fill="#01e0db"/>
    </g>
</svg>
