<svg viewBox="0 0 45 28" xmlns="http://www.w3.org/2000/svg" fill-rule="evenodd" clip-rule="evenodd" stroke-linejoin="round" stroke-miterlimit="1.41">
    <g fill="#262626" fill-rule="nonzero">
        <path d="M18.759 11.481a7.334 7.334 0 0 0 1.168-4.106C19.86 3.328 16.492.112 12.444.112h-11.3a.959.959 0 0 0-.959.959v24.851c0 .53.429.959.959.959h12.623c4.685 0 8.566-3.755 8.586-8.441a8.473 8.473 0 0 0-3.594-6.959zM5.143 5.07h7.398c1.34 0 2.43 1.09 2.43 2.43s-1.09 2.43-2.43 2.43H5.143V5.07zm8.734 16.853H5.143v-7.036h8.734a3.522 3.522 0 0 1 3.518 3.518 3.522 3.522 0 0 1-3.518 3.518zM44.073 16.678c0-5.787-4.561-10.494-10.167-10.494s-10.167 4.707-10.167 10.494S28.3 27.173 33.906 27.173c3.402 0 6.563-1.744 8.455-4.665.236-.364.451-.745.641-1.137a.43.43 0 0 0-.388-.617l-4.998-.012a.417.417 0 0 0-.294.121c-.944.918-2.101 1.352-3.416 1.352-2.484 0-4.566-1.858-5.084-4.334h14.256c.55 0 .995-.446.995-.995v-.208zm-10.167-5.537c1.819 0 3.422.997 4.354 2.503h-8.708c.932-1.506 2.535-2.503 4.354-2.503zM38.131 4.952h-9.018a.762.762 0 0 1-.762-.762V1.928c0-.421.341-.762.762-.762h9.018c.42 0 .762.341.762.762V4.19a.762.762 0 0 1-.762.762z"/>
    </g>
</svg>
