<svg viewBox="0 0 78 78" xmlns="http://www.w3.org/2000/svg" fill-rule="evenodd" clip-rule="evenodd" stroke-linejoin="round" stroke-miterlimit="1.41">
    <g fill="#262626" fill-rule="nonzero">
        <path d="M32.886 35.026a13.005 13.005 0 0 0 2.069-7.269c-.119-7.166-6.083-12.86-13.249-12.86H1.697c-.937 0-1.697.76-1.697 1.697v44.001c0 .937.76 1.697 1.697 1.697h22.35c8.296 0 15.168-6.648 15.201-14.944.021-5.084-2.5-9.591-6.362-12.322zM8.778 23.675h13.098a4.307 4.307 0 0 1 4.303 4.302 4.307 4.307 0 0 1-4.303 4.302H8.778v-8.604zm15.464 29.839H8.778V41.057h15.464a6.236 6.236 0 0 1 6.229 6.229 6.235 6.235 0 0 1-6.229 6.228zM77.706 44.228c0-10.246-8.075-18.581-18.001-18.581-9.927 0-18.002 8.335-18.002 18.581 0 10.245 8.076 18.581 18.002 18.581 6.023 0 11.619-3.088 14.97-8.26.418-.644.798-1.318 1.135-2.013a.763.763 0 0 0-.687-1.092l-8.849-.022a.75.75 0 0 0-.522.216c-1.671 1.625-3.719 2.393-6.047 2.393-4.398 0-8.085-3.289-9.002-7.674h25.241c.973 0 1.762-.789 1.762-1.762v-.367zm-18.001-9.803c3.22 0 6.059 1.765 7.709 4.431H51.995c1.65-2.666 4.489-4.431 7.71-4.431zM67.185 23.466H51.218a1.349 1.349 0 0 1-1.349-1.349v-4.006c0-.745.604-1.349 1.349-1.349h15.967c.745 0 1.348.604 1.348 1.349v4.006c0 .745-.603 1.349-1.348 1.349z"/>
    </g>
</svg>
