<svg viewBox="0 0 85 84" xmlns="http://www.w3.org/2000/svg" fill-rule="evenodd" clip-rule="evenodd" stroke-linejoin="round" stroke-miterlimit="1.41">
    <path d="M49.418.599a42.36 42.36 0 0 0-14.2 0l-1.445 9.411a33.461 33.461 0 0 0-11.439 5.508l-8.259-4.737a42.387 42.387 0 0 0-8.853 11.101l6.456 6.998a33.501 33.501 0 0 0-2.825 12.378L0 44.761a42.357 42.357 0 0 0 3.16 13.844l9.496-.685a33.48 33.48 0 0 0 7.916 9.926l-2.781 9.106a42.389 42.389 0 0 0 12.793 6.161l5.386-7.852c4.193.81 8.503.81 12.696 0l5.386 7.852a42.389 42.389 0 0 0 12.793-6.161l-2.781-9.106a33.464 33.464 0 0 0 7.916-9.926l9.496.685a42.357 42.357 0 0 0 3.16-13.844l-8.853-3.503a33.501 33.501 0 0 0-2.825-12.378l6.456-6.998a42.387 42.387 0 0 0-8.853-11.101l-8.259 4.737a33.461 33.461 0 0 0-11.439-5.508L49.418.599zm-7.1 29.07c7.018 0 12.716 5.698 12.716 12.716 0 7.018-5.698 12.715-12.716 12.715-7.018 0-12.715-5.697-12.715-12.715S35.3 29.669 42.318 29.669z" fill="#26a88b"/>
</svg>
