<svg viewBox="0 0 83 101" xmlns="http://www.w3.org/2000/svg" fill-rule="evenodd" clip-rule="evenodd" stroke-linejoin="round" stroke-miterlimit="1.41">
    <path d="M58.685 27.881L31.304.5H.5v78.721h58.185v-51.34zM31.304 5.121l22.761 22.76H31.304V5.121zm23.959 70.677H3.923V3.923h23.958v27.381h27.382v44.494z" fill="#262626" fill-rule="nonzero" stroke="#262626"/>
    <path d="M70.977 100.38h-13.77c.576.009 1.155-.175 1.595-.616l6.172-6.198a2.227 2.227 0 0 0 0-3.145 2.21 2.21 0 0 0-3.133 0l-2.615 2.625V81.22h-4.24v11.826l-2.615-2.625a2.21 2.21 0 0 0-3.133 0 2.23 2.23 0 0 0 0 3.145l6.173 6.198c.446.448 1.035.634 1.617.616H45.424c-7.639-.003-13.831-6.197-13.831-13.837 0-6.952 5.142-12.651 11.819-13.634 2.477-6.346 8.634-10.848 15.856-10.848 9.13 0 16.561 7.19 16.99 16.215 3.799 1.935 6.428 5.84 6.428 10.395 0 6.467-5.243 11.709-11.709 11.709z" fill="#26a88b"/>
</svg>
