<svg viewBox="0 0 33 40" xmlns="http://www.w3.org/2000/svg" xmlns:serif="http://www.serif.com/" fill-rule="evenodd" clip-rule="evenodd" stroke-linejoin="round" stroke-miterlimit="1.41">
    <path d="M23.327 31.678H.932c-.389-.028-.474-.133-.5-.5V.879c.027-.388.133-.474.5-.5 3.973 0 7.956-.256 11.921.004.206.041.218.081.288.143L23.68 11.064c.149.171.139.233.147.354v19.76c-.028.388-.134.474-.5.5zM10.97 2.696H2.749v26.665h18.76V13.235H11.47c-.388-.028-.473-.133-.5-.5V2.696zm2.318 8.222h7.053l-7.053-7.053v7.053z" fill="#262626"/>
    <path serif:id="Download Icon" d="M28.058 39.322h-5.3a.84.84 0 0 0 .614-.237l2.375-2.386a.856.856 0 0 0 0-1.21.851.851 0 0 0-1.206 0l-1.006 1.01v-4.552h-1.632v4.552l-1.007-1.01a.851.851 0 0 0-1.206 0 .858.858 0 0 0 0 1.21l2.376 2.386a.832.832 0 0 0 .623.237h-4.466a5.326 5.326 0 0 1-5.324-5.326c0-2.676 1.979-4.869 4.549-5.248a6.552 6.552 0 0 1 6.103-4.175c3.514 0 6.374 2.768 6.539 6.241 1.462.745 2.474 2.248 2.474 4.001a4.507 4.507 0 0 1-4.506 4.507z" fill="#26a88b"/>
</svg>
