<svg viewBox="0 0 71 71" xmlns="http://www.w3.org/2000/svg" fill-rule="evenodd" clip-rule="evenodd" stroke-linejoin="round" stroke-miterlimit="1.41">
    <path d="M66.017 18.487c-3.164-5.421-7.456-9.712-12.876-12.876C47.72 2.447 41.801.866 35.381.866c-6.419 0-12.339 1.582-17.759 4.745-5.421 3.163-9.713 7.455-12.877 12.876C1.582 23.908 0 29.828 0 36.246c0 7.71 2.249 14.643 6.749 20.8 4.499 6.158 10.312 10.419 17.437 12.784.829.154 1.443.046 1.843-.322a1.8 1.8 0 0 0 .598-1.381c0-.093-.007-.922-.023-2.488a405.329 405.329 0 0 1-.023-4.1l-1.06.184c-.675.123-1.528.176-2.557.161a19.372 19.372 0 0 1-3.201-.323c-1.106-.198-2.135-.659-3.087-1.381-.952-.721-1.627-1.666-2.027-2.832l-.46-1.061c-.307-.705-.791-1.489-1.451-2.349-.661-.86-1.329-1.443-2.004-1.75l-.323-.231a3.45 3.45 0 0 1-.599-.553 2.538 2.538 0 0 1-.414-.645c-.092-.216-.016-.392.23-.531s.691-.206 1.336-.206l.921.138c.615.123 1.375.491 2.281 1.105A7.44 7.44 0 0 1 16.4 53.66c.707 1.26 1.558 2.219 2.557 2.88.998.66 2.004.99 3.017.99 1.014 0 1.889-.077 2.626-.23a9.116 9.116 0 0 0 2.073-.691c.277-2.059 1.029-3.64 2.257-4.746-1.75-.184-3.324-.461-4.722-.829-1.397-.369-2.841-.968-4.33-1.798-1.49-.829-2.726-1.858-3.709-3.086-.982-1.228-1.789-2.841-2.418-4.837-.629-1.997-.944-4.3-.944-6.91 0-3.717 1.213-6.88 3.639-9.491-1.136-2.795-1.029-5.927.323-9.398.89-.276 2.211-.069 3.962.622 1.75.691 3.032 1.283 3.847 1.774.814.491 1.466.907 1.958 1.244a32.717 32.717 0 0 1 8.845-1.198c3.04 0 5.989.4 8.846 1.198l1.751-1.105c1.197-.738 2.611-1.414 4.237-2.028 1.628-.614 2.873-.783 3.733-.506 1.382 3.47 1.505 6.603.368 9.397 2.426 2.611 3.64 5.775 3.64 9.491 0 2.61-.316 4.921-.944 6.933-.63 2.012-1.443 3.624-2.441 4.837-.999 1.214-2.243 2.235-3.732 3.064-1.49.829-2.934 1.428-4.331 1.797-1.398.369-2.972.646-4.722.83 1.596 1.382 2.395 3.562 2.395 6.541v9.72c0 .552.192 1.013.576 1.382.384.368.99.476 1.82.322 7.126-2.365 12.938-6.626 17.437-12.784 4.499-6.158 6.749-13.091 6.749-20.8-.001-6.418-1.584-12.337-4.746-17.758z" fill="#262626" fill-rule="nonzero"/>
</svg>
