<svg viewBox="0 0 45 46" xmlns="http://www.w3.org/2000/svg" fill-rule="evenodd" clip-rule="evenodd" stroke-linejoin="round" stroke-miterlimit="1.41">
    <path d="M41.968 12.595a22.358 22.358 0 0 0-8.171-8.171c-3.441-2.008-7.196-3.011-11.271-3.011-4.073 0-7.83 1.003-11.27 3.011a22.354 22.354 0 0 0-8.172 8.171C1.077 16.036.073 19.792.073 23.865c0 4.893 1.428 9.293 4.283 13.2 2.855 3.908 6.544 6.612 11.066 8.113.526.098.916.029 1.169-.204.254-.234.38-.527.38-.877l-.015-1.579c-.01-.994-.014-1.861-.014-2.601l-.673.116c-.429.079-.969.112-1.622.102a12.36 12.36 0 0 1-2.032-.204 4.54 4.54 0 0 1-1.959-.877 3.705 3.705 0 0 1-1.286-1.797l-.293-.673c-.195-.448-.501-.946-.92-1.491-.42-.546-.843-.916-1.272-1.111l-.205-.146a2.16 2.16 0 0 1-.38-.352 1.604 1.604 0 0 1-.263-.409c-.058-.137-.01-.249.146-.337.156-.088.439-.13.848-.13l.585.087c.389.078.872.312 1.447.702a4.718 4.718 0 0 1 1.418 1.519c.448.8.989 1.409 1.622 1.828.634.419 1.272.628 1.915.628s1.199-.049 1.667-.145A5.874 5.874 0 0 0 17 36.788c.176-1.307.653-2.31 1.432-3.012a20.034 20.034 0 0 1-2.996-.526c-.887-.234-1.803-.614-2.748-1.141-.946-.526-1.73-1.179-2.354-1.958-.623-.78-1.135-1.804-1.534-3.07-.4-1.267-.6-2.729-.6-4.386 0-2.358.77-4.366 2.31-6.023-.721-1.773-.653-3.761.205-5.963.565-.176 1.403-.044 2.514.394 1.111.439 1.925.815 2.441 1.126.517.311.931.575 1.243.789a20.782 20.782 0 0 1 5.613-.76c1.93 0 3.801.254 5.614.76l1.111-.701c.76-.468 1.657-.897 2.689-1.287 1.033-.389 1.823-.497 2.369-.321.877 2.203.955 4.19.234 5.964 1.539 1.657 2.31 3.664 2.31 6.023 0 1.656-.201 3.123-.6 4.399-.399 1.277-.915 2.3-1.549 3.07-.633.77-1.423 1.418-2.368 1.944-.946.527-1.862.907-2.749 1.141-.887.234-1.885.41-2.996.527 1.013.876 1.52 2.26 1.52 4.151v6.168c0 .351.122.643.365.877.244.233.629.302 1.155.204 4.522-1.5 8.211-4.205 11.066-8.113 2.855-3.907 4.283-8.307 4.283-13.2-.001-4.072-1.005-7.828-3.012-11.269z" fill="#262626" fill-rule="nonzero"/>
</svg>
