<svg viewBox="0 0 102 102" xmlns="http://www.w3.org/2000/svg" xmlns:serif="http://www.serif.com/" fill-rule="evenodd" clip-rule="evenodd" stroke-linejoin="round" stroke-miterlimit="1.41">
    <g serif:id="js ico">
        <circle cx="51.22" cy="51.23" r="50.72" fill="#f0db4f"/>
        <g fill="#323330" fill-rule="nonzero">
            <path d="M35.536 31.902h7.773v24.454c0 3.198-.281 5.657-.843 7.379-.755 2.248-2.126 4.053-4.111 5.415-1.985 1.361-4.602 2.042-7.852 2.042-3.813 0-6.746-1.067-8.802-3.201-2.055-2.135-3.092-5.266-3.109-9.395l7.352-.843c.088 2.214.413 3.777.975 4.691.843 1.387 2.125 2.081 3.847 2.081 1.739 0 2.969-.496 3.689-1.489.72-.992 1.081-3.052 1.081-6.179V31.902zM49.634 57.964l7.589-.738c.457 2.547 1.383 4.418 2.78 5.613 1.397 1.194 3.281 1.792 5.652 1.792 2.512 0 4.405-.532 5.679-1.595 1.274-1.062 1.911-2.305 1.911-3.728 0-.914-.268-1.691-.804-2.332-.536-.642-1.472-1.199-2.807-1.674-.913-.316-2.995-.878-6.245-1.686-4.181-1.037-7.115-2.31-8.801-3.821-2.372-2.126-3.558-4.717-3.558-7.774 0-1.967.558-3.808 1.674-5.52 1.115-1.713 2.723-3.018 4.822-3.914 2.099-.896 4.633-1.344 7.602-1.344 4.849 0 8.499 1.063 10.949 3.189 2.451 2.126 3.738 4.963 3.861 8.511l-7.8.343c-.334-1.985-1.05-3.412-2.148-4.282-1.098-.87-2.745-1.304-4.941-1.304-2.266 0-4.04.465-5.323 1.396-.825.597-1.238 1.397-1.238 2.398 0 .914.386 1.695 1.159 2.345.984.826 3.373 1.687 7.168 2.583 3.794.896 6.601 1.823 8.419 2.78 1.818.957 3.241 2.266 4.269 3.926 1.028 1.66 1.542 3.711 1.542 6.153 0 2.214-.615 4.287-1.845 6.219-1.23 1.933-2.969 3.369-5.218 4.309-2.248.94-5.05 1.41-8.406 1.41-4.884 0-8.634-1.129-11.252-3.387-2.617-2.257-4.181-5.547-4.69-9.868z"/>
        </g>
    </g>
</svg>
