<svg viewBox="0 0 385 235" xmlns="http://www.w3.org/2000/svg" fill-rule="evenodd" clip-rule="evenodd" stroke-linejoin="round" stroke-miterlimit="1.41">
    <path d="M356.866 17.556C356.866 7.866 349 0 339.311 0H45.484c-9.689 0-17.555 7.866-17.555 17.556V209.42c0 9.689 7.866 17.556 17.555 17.556h293.827c9.689 0 17.555-7.867 17.555-17.556V17.556z" fill="#ededed"/>
    <path fill="#dedede" d="M0 217.22h384.8v9.75H0z"/>
    <path fill="#282c34" fill-opacity=".8" d="M40.54 17.56h303.72v191.86H40.54z"/>
    <circle cx="192.4" cy="9.57" r="2.66" fill="#313131"/>
    <ellipse cx="186.92" cy="9.57" rx=".9" ry=".89" fill="#313131"/>
    <path d="M14.186 226.976h361.743l-90.436 7.803H104.622l-90.436-7.803z" fill="#bfbfbf"/>
    <path fill="#ededed" d="M19.7 217.22h.25v1.14h-.25z"/>
    <path fill="#9b9b9b" d="M10.64 214.44h363.52v2.79H10.64z"/>
    <path fill="#282c34" d="M40.54 17.56H192.4v191.86H40.54z"/>
    <path fill="#c1c1c1" d="M40.54 17.56H192.4v6.83H40.54z"/>
    <circle cx="48.31" cy="20.97" r="1.78" fill="#b42f2f"/>
    <circle cx="54.18" cy="20.97" r="1.78" fill="#ffcc12"/>
    <circle cx="60.05" cy="20.97" r="1.78" fill="#31d151"/>
    <path d="M179.427 20.528a.444.444 0 0 0-.444-.445H88.091a.445.445 0 0 0-.445.445v.889c0 .246.199.445.445.445h90.892a.444.444 0 0 0 .444-.445v-.889z" fill="#6a6a6a"/>
    <g>
        <path d="M168.791 99.104c0-.964-.782-1.747-1.746-1.747H52.517c-.964 0-1.746.783-1.746 1.747v3.492c0 .964.782 1.747 1.746 1.747h114.528c.964 0 1.746-.783 1.746-1.747v-3.492z" fill="#3d4351"/>
        <path d="M42.239 24.389c-.988 0-1.79.802-1.79 1.791v181.45c0 .988.802 1.79 1.79 1.79h3.581a1.79 1.79 0 0 0 1.79-1.79V26.18c0-.989-.802-1.791-1.79-1.791h-3.581z" fill="#3d4351" fill-opacity=".2"/>
        <path d="M74.239 35.023c0-.929-.754-1.684-1.684-1.684H52.454c-.929 0-1.683.755-1.683 1.684v3.367c0 .929.754 1.684 1.683 1.684h20.101c.93 0 1.684-.755 1.684-1.684v-3.367zM124.653 35.274c0-.93-.755-1.684-1.684-1.684h-14.632c-.929 0-1.683.754-1.683 1.684v3.367c0 .929.754 1.683 1.683 1.683h14.632c.929 0 1.684-.754 1.684-1.683v-3.367z" fill="#c6629d"/>
        <path d="M160.266 35.274c0-.93-.754-1.684-1.683-1.684h-30.174c-.93 0-1.684.754-1.684 1.684v3.367c0 .929.754 1.683 1.684 1.683h30.174c.929 0 1.683-.754 1.683-1.683v-3.367z" fill="#8ac379"/>
        <path d="M104.581 35.274c0-.93-.754-1.684-1.683-1.684H78.794c-.929 0-1.683.754-1.683 1.684v3.367c0 .929.754 1.683 1.683 1.683h24.104c.929 0 1.683-.754 1.683-1.683v-3.367z" fill="#e06c60"/>
        <path d="M74.647 44.002c0-.929-.754-1.684-1.684-1.684H52.454c-.929 0-1.683.755-1.683 1.684v3.367c0 .929.754 1.684 1.683 1.684h20.509c.93 0 1.684-.755 1.684-1.684v-3.367zM114.228 44.253c0-.929-.754-1.684-1.684-1.684H97.913c-.93 0-1.684.755-1.684 1.684v3.367c0 .929.754 1.684 1.684 1.684h14.631c.93 0 1.684-.755 1.684-1.684v-3.367z" fill="#c6629d"/>
        <path d="M135.81 44.253c0-.929-.754-1.684-1.684-1.684h-15.343c-.929 0-1.683.755-1.683 1.684v3.367c0 .929.754 1.684 1.683 1.684h15.343c.93 0 1.684-.755 1.684-1.684v-3.367z" fill="#8ac379"/>
        <path d="M93.357 44.253c0-.929-.754-1.684-1.683-1.684H79.202c-.929 0-1.683.755-1.683 1.684v3.367c0 .929.754 1.684 1.683 1.684h12.472c.929 0 1.683-.755 1.683-1.684v-3.367z" fill="#e06c60"/>
        <g>
            <path d="M74.647 53.593c0-.929-.754-1.683-1.684-1.683H52.454c-.929 0-1.683.754-1.683 1.683v3.368c0 .929.754 1.683 1.683 1.683h20.509c.93 0 1.684-.754 1.684-1.683v-3.368zM113.82 53.844c0-.929-.754-1.684-1.684-1.684H97.504c-.929 0-1.683.755-1.683 1.684v3.367c0 .929.754 1.684 1.683 1.684h14.632c.93 0 1.684-.755 1.684-1.684v-3.367z" fill="#c6629d"/>
            <path d="M135.402 53.844c0-.929-.755-1.684-1.684-1.684h-15.343c-.929 0-1.683.755-1.683 1.684v3.367c0 .929.754 1.684 1.683 1.684h15.343c.929 0 1.684-.755 1.684-1.684v-3.367z" fill="#8ac379"/>
            <path d="M92.949 53.844c0-.929-.754-1.684-1.683-1.684H78.794c-.929 0-1.683.755-1.683 1.684v3.367c0 .929.754 1.684 1.683 1.684h12.472c.929 0 1.683-.755 1.683-1.684v-3.367z" fill="#e06c60"/>
        </g>
        <g>
            <path d="M74.647 62.981c0-.93-.754-1.684-1.684-1.684H52.454c-.929 0-1.683.754-1.683 1.684v3.367c0 .929.754 1.683 1.683 1.683h20.509c.93 0 1.684-.754 1.684-1.683v-3.367zM124.432 63.231c0-.929-.755-1.683-1.684-1.683h-14.632c-.929 0-1.683.754-1.683 1.683v3.368c0 .929.754 1.683 1.683 1.683h14.632c.929 0 1.684-.754 1.684-1.683v-3.368z" fill="#c6629d"/>
            <path d="M160.062 63.231c0-.929-.754-1.683-1.683-1.683h-30.241c-.929 0-1.683.754-1.683 1.683v3.368c0 .929.754 1.683 1.683 1.683h30.241c.929 0 1.683-.754 1.683-1.683v-3.368z" fill="#8ac379"/>
            <path d="M104.409 63.231c0-.929-.754-1.683-1.683-1.683H79.202c-.929 0-1.683.754-1.683 1.683v3.368c0 .929.754 1.683 1.683 1.683h23.524c.929 0 1.683-.754 1.683-1.683v-3.368z" fill="#e06c60"/>
        </g>
        <g>
            <path d="M74.647 72.929c0-.929-.754-1.684-1.684-1.684H52.454c-.929 0-1.683.755-1.683 1.684v3.367c0 .929.754 1.684 1.683 1.684h20.509c.93 0 1.684-.755 1.684-1.684v-3.367zM124.432 73.18c0-.929-.755-1.684-1.684-1.684h-14.632c-.929 0-1.683.755-1.683 1.684v3.367c0 .929.754 1.684 1.683 1.684h14.632c.929 0 1.684-.755 1.684-1.684V73.18z" fill="#c6629d"/>
            <path d="M209.431 73.18c0-.929-.754-1.684-1.683-1.684h-79.61c-.929 0-1.683.755-1.683 1.684v3.367c0 .929.754 1.684 1.683 1.684h79.61c.929 0 1.683-.755 1.683-1.684V73.18z" fill="#8ac379"/>
            <path d="M104.409 73.18c0-.929-.754-1.684-1.683-1.684H79.202c-.929 0-1.683.755-1.683 1.684v3.367c0 .929.754 1.684 1.683 1.684h23.524c.929 0 1.683-.755 1.683-1.684V73.18z" fill="#e06c60"/>
        </g>
        <g>
            <path d="M71.164 125.153c0-.929-.754-1.684-1.683-1.684H52.454c-.929 0-1.683.755-1.683 1.684v3.367c0 .929.754 1.684 1.683 1.684h17.027c.929 0 1.683-.755 1.683-1.684v-3.367z" fill="#c6629d"/>
            <path d="M92.913 125.153c0-.929-.754-1.684-1.684-1.684H74.203c-.929 0-1.684.755-1.684 1.684v3.367c0 .929.755 1.684 1.684 1.684h17.026c.93 0 1.684-.755 1.684-1.684v-3.367zM120.751 125.153c0-.929-.754-1.684-1.683-1.684h-17.027c-.929 0-1.683.755-1.683 1.684v3.367c0 .929.754 1.684 1.683 1.684h17.027c.929 0 1.683-.755 1.683-1.684v-3.367z" fill="#d19a5e"/>
        </g>
        <g>
            <path d="M71.164 134.567c0-.929-.754-1.683-1.683-1.683H52.454c-.929 0-1.683.754-1.683 1.683v3.367c0 .93.754 1.684 1.683 1.684h17.027c.929 0 1.683-.754 1.683-1.684v-3.367z" fill="#c6629d"/>
            <path d="M92.913 134.567c0-.929-.754-1.683-1.684-1.683H74.203c-.929 0-1.684.754-1.684 1.683v3.367c0 .93.755 1.684 1.684 1.684h17.026c.93 0 1.684-.754 1.684-1.684v-3.367z" fill="#d19a5e"/>
            <path d="M120.751 134.567c0-.929-.754-1.683-1.683-1.683H98.4c-.929 0-1.683.754-1.683 1.683v3.367c0 .93.754 1.684 1.683 1.684h20.668c.929 0 1.683-.754 1.683-1.684v-3.367z" fill="#4c9dd8"/>
        </g>
        <g>
            <path d="M71.164 143.611c0-.929-.754-1.683-1.683-1.683H52.454c-.929 0-1.683.754-1.683 1.683v3.368c0 .929.754 1.683 1.683 1.683h17.027c.929 0 1.683-.754 1.683-1.683v-3.368z" fill="#c6629d"/>
            <path d="M104.253 143.611c0-.929-.754-1.683-1.683-1.683H74.203c-.929 0-1.684.754-1.684 1.683v3.368c0 .929.755 1.683 1.684 1.683h28.367c.929 0 1.683-.754 1.683-1.683v-3.368z" fill="#d19a5e"/>
            <path d="M174.491 143.611c0-.929-.754-1.683-1.683-1.683h-56.71c-.93 0-1.684.754-1.684 1.683v3.368c0 .929.754 1.683 1.684 1.683h56.71c.929 0 1.683-.754 1.683-1.683v-3.368z" fill="#4c9dd8"/>
        </g>
    </g>
    <g>
        <path fill="#383838" d="M192.4 17.56h151.86v191.86H192.4z"/>
        <path fill="#262626" d="M192.4 17.56h151.86v6.83H192.4z"/>
        <path d="M199.785 19.808a.507.507 0 0 1 .907 0l1.269 2.538a.48.48 0 0 1-.431.697h-2.322a.642.642 0 0 1-.575-.93l1.152-2.305z" fill="#2a88fe"/>
        <g fill="#ededed">
            <path d="M216.989 20.62a.353.353 0 0 0-.352-.352h-6.728a.353.353 0 0 0-.352.352v.705c0 .194.158.352.352.352h6.728a.353.353 0 0 0 .352-.352v-.705zM229.523 20.62a.353.353 0 0 0-.352-.352h-6.728a.353.353 0 0 0-.352.352v.705c0 .194.158.352.352.352h6.728a.353.353 0 0 0 .352-.352v-.705z"/>
            <path d="M229.523 20.62a.353.353 0 0 0-.352-.352h-6.728a.353.353 0 0 0-.352.352v.705c0 .194.158.352.352.352h6.728a.353.353 0 0 0 .352-.352v-.705zM242.057 20.62a.353.353 0 0 0-.352-.352h-6.728a.352.352 0 0 0-.352.352v.705c0 .194.157.352.352.352h6.728a.353.353 0 0 0 .352-.352v-.705zM254.59 20.62a.352.352 0 0 0-.352-.352h-6.728a.353.353 0 0 0-.352.352v.705c0 .194.158.352.352.352h6.728a.352.352 0 0 0 .352-.352v-.705zM267.124 20.62a.353.353 0 0 0-.352-.352h-6.728a.353.353 0 0 0-.352.352v.705c0 .194.158.352.352.352h6.728a.353.353 0 0 0 .352-.352v-.705zM279.658 20.62a.353.353 0 0 0-.352-.352h-6.728a.353.353 0 0 0-.352.352v.705c0 .194.158.352.352.352h6.728a.353.353 0 0 0 .352-.352v-.705zM292.192 20.62a.353.353 0 0 0-.352-.352h-6.728a.352.352 0 0 0-.352.352v.705c0 .194.157.352.352.352h6.728a.353.353 0 0 0 .352-.352v-.705z"/>
        </g>
        <path fill="#313131" d="M192.4 24.39h151.86v4.14H192.4z"/>
        <path d="M303.669 26.441a.286.286 0 0 0-.285-.286H201.992a.286.286 0 0 0-.285.286v.57c0 .157.128.285.285.285h101.392a.286.286 0 0 0 .285-.285v-.57z" fill="#262626"/>
        <path fill="#2d2d2d" d="M192.4 28.53h151.86v4.14H192.4z"/>
        <path d="M285.944 30.383a.219.219 0 0 0-.219-.218h-77.586a.218.218 0 0 0-.218.218v.437c0 .121.097.218.218.218h77.586a.218.218 0 0 0 .219-.218v-.437z" fill="#ededed"/>
        <path fill="#262626" d="M192.4 32.67h6.65v176.75h-6.65z"/>
        <path d="M196.831 37.368a.555.555 0 0 0-.554-.554h-1.109a.554.554 0 0 0-.554.554v130.999c0 .306.248.554.554.554h1.109a.555.555 0 0 0 .554-.554V37.368z" fill="#313131"/>
        <path fill="#ede8d8" d="M207.03 68.71h137.23v78.02H207.03z"/>
        <path d="M263.806 99.302a8.427 8.427 0 0 0-8.423-8.423h-16.846a8.427 8.427 0 0 0-8.423 8.423v16.846a8.427 8.427 0 0 0 8.423 8.423h16.846a8.427 8.427 0 0 0 8.423-8.423V99.302z" fill="#26a88b"/>
        <path d="M296.513 102.627a5.1 5.1 0 0 0-5.098-5.098h-10.196a5.1 5.1 0 0 0-5.098 5.098v10.196a5.1 5.1 0 0 0 5.098 5.098h10.196a5.1 5.1 0 0 0 5.098-5.098v-10.196z" fill="#3fcdad"/>
        <path d="M321.171 104.639a3.087 3.087 0 0 0-3.086-3.085h-6.171a3.087 3.087 0 0 0-3.086 3.085v6.172a3.087 3.087 0 0 0 3.086 3.085h6.171a3.087 3.087 0 0 0 3.086-3.085v-6.172z" fill="#7dd2bf"/>
    </g>
    <path d="M40.537 209.42L344.258 17.556H40.537V209.42z" fill="#fff" fill-opacity=".09"/>
</svg>
