<svg viewBox="0 0 556 548" xmlns="http://www.w3.org/2000/svg" fill-rule="evenodd" clip-rule="evenodd" stroke-linejoin="round" stroke-miterlimit="1.41">
    <g fill-rule="nonzero">
        <path d="M349.436 0c1.956 31.711-15.179 96.56-51.405 194.548-62.797 170.594-94.02 269.318-93.669 296.17.201 11.729 5.224 17.028 15.069 15.9 7.522-.725 20.435-9.218 38.74-25.48l4.462-3.797 8.033 9.68c-39.588 39.229-69.129 59.445-88.623 60.647-15.595.962-24.066-9.474-25.412-31.308-1.042-16.895 2.893-40.88 11.805-71.956 8.911-31.076 30.758-96.738 65.54-196.985l31.558-91.178c19.068-54.662 28.329-86.412 27.784-95.25-.433-7.018-4.678-10.278-12.735-9.781-2.86.176-9.643 2.29-20.352 6.342-1.267.6-3.177 1.37-5.728 2.31l-4.596-11.066 5.704-2.7C299.52 26.168 330.795 10.803 349.436 0z" fill="url(#a)"/>
        <path d="M399.223 190.977l-91.31 216.695h-22.096l91.31-216.695h22.096zM417.819 219.784l19.09-19.62 118.781 99.161-118.781 99.161-19.09-19.443 96.333-79.365-96.333-79.894zM137.871 378.866l-19.09 19.62L0 299.325l118.781-99.161 19.09 19.443-96.333 79.364 96.333 79.895z" fill="#fff"/>
    </g>
    <defs>
        <linearGradient id="a" x2="1" gradientUnits="userSpaceOnUse" gradientTransform="rotate(-39.993 732.245 488.497) scale(1106.271)">
            <stop offset="0" stop-color="#30caa2"/>
            <stop offset="1" stop-color="#80e1c8"/>
        </linearGradient>
    </defs>
</svg>
