<svg viewBox="0 0 92 61" xmlns="http://www.w3.org/2000/svg" fill-rule="evenodd" clip-rule="evenodd" stroke-linejoin="round" stroke-miterlimit="1.41">
    <path d="M.5.5v59.147h90.995V.5H.5zm53.232 36.171c-2.047 2.047-4.777 3.185-7.734 3.185-2.958 0-5.687-1.138-7.735-3.185L6.642 5.05h78.484L53.732 36.671zm-25.251-6.597L5.05 53.505V6.642l23.431 23.432zm1.593 1.592l6.597 6.597a13.268 13.268 0 0 0 9.327 3.867c3.64 0 6.824-1.364 9.327-3.867l6.597-6.597 23.431 23.431H6.642l23.432-23.431zm33.44-1.592L86.946 6.642v47.09L63.514 30.074z" fill="#262626" fill-rule="nonzero" stroke="#262626"/>
</svg>
