<svg viewBox="0 0 59 39" xmlns="http://www.w3.org/2000/svg" fill-rule="evenodd" clip-rule="evenodd" stroke-linejoin="round" stroke-miterlimit="1.41">
    <path d="M57.533 38.107H1.038c-.421-.041-.464-.13-.5-.5V.886c.041-.421.13-.464.5-.5h56.495l.098.009c.362.11.38.265.402.491v36.721c-.041.421-.13.464-.5.5zM35.428 24.686c-3.247 3.2-8.906 3.338-12.286 0l-3.743-3.744L6.058 34.283h46.454l-13.34-13.341-3.744 3.744zm5.438-5.438L54.208 32.72V5.906L40.866 19.248zM4.363 32.587l13.34-13.341-13.34-13.34v26.681zM52.377 4.21H6.058c6.297 6.297 12.474 12.714 18.891 18.888 2.319 2.185 6.255 2.272 8.673 0l.113-.11L52.377 4.21z" fill="#262626"/>
</svg>
