<svg viewBox="0 0 102 102" xmlns="http://www.w3.org/2000/svg" fill-rule="evenodd" clip-rule="evenodd" stroke-linejoin="round" stroke-miterlimit="1.41">
    <circle cx="51.18" cy="50.99" r="50.72" fill="#83cd29"/>
    <path d="M64.733 32.633a.42.42 0 0 0-.421.42v10.713a.284.284 0 0 1-.14.252.292.292 0 0 1-.294 0l-1.75-1.008a.835.835 0 0 0-.84 0L54.3 47.043a.859.859 0 0 0-.42.742v8.066c0 .301.159.577.42.728l6.988 4.033a.835.835 0 0 0 .84 0l6.988-4.033a.839.839 0 0 0 .42-.728V35.742a.856.856 0 0 0-.434-.743l-4.159-2.324a.405.405 0 0 0-.21-.042zM19.781 42.702a.775.775 0 0 0-.378.098l-6.988 4.033a.834.834 0 0 0-.42.728l.014 10.825c0 .15.077.29.21.364a.41.41 0 0 0 .42 0l4.145-2.381a.856.856 0 0 0 .434-.728v-5.055c0-.302.159-.579.42-.729l1.764-1.022a.833.833 0 0 1 .421-.112c.144 0 .292.036.42.112l1.764 1.022c.262.15.42.427.42.729v5.055c0 .301.174.574.434.728l4.146 2.381a.41.41 0 0 0 .42 0 .423.423 0 0 0 .21-.364l.014-10.825a.832.832 0 0 0-.42-.728L20.243 42.8a.772.772 0 0 0-.378-.098h-.084zm62.792.098a.82.82 0 0 0-.42.112l-6.988 4.033a.836.836 0 0 0-.42.728v8.066c0 .303.171.578.434.728l6.932 3.949a.841.841 0 0 0 .826.014l4.202-2.339a.425.425 0 0 0 .224-.364.415.415 0 0 0-.21-.364l-7.03-4.033a.451.451 0 0 1-.224-.378v-2.521c0-.15.093-.288.224-.364l2.184-1.26a.42.42 0 0 1 .42 0l2.185 1.26c.13.076.21.214.21.364v1.989a.42.42 0 0 0 .63.364l4.187-2.437a.84.84 0 0 0 .42-.728v-1.946a.837.837 0 0 0-.42-.728l-6.946-4.034a.847.847 0 0 0-.42-.112v.001zM61.68 48.821c.036 0 .079.009.112.028l2.394 1.386a.218.218 0 0 1 .112.182v2.773a.214.214 0 0 1-.112.182l-2.394 1.387a.213.213 0 0 1-.21 0l-2.395-1.387a.216.216 0 0 1-.112-.182v-2.773c0-.075.047-.144.112-.182l2.395-1.386a.18.18 0 0 1 .098-.028z" fill="#404137"/>
    <path d="M40.772 42.758a.832.832 0 0 0-.42.112l-6.988 4.019a.86.86 0 0 0-.42.742v8.066c0 .302.159.577.42.728l6.988 4.033a.835.835 0 0 0 .84 0l6.988-4.033a.837.837 0 0 0 .42-.728v-8.066a.859.859 0 0 0-.42-.742l-6.988-4.019a.827.827 0 0 0-.42-.112zm41.787 7.198c-.028 0-.058 0-.084.013l-1.344.785a.163.163 0 0 0-.084.14v1.54c0 .058.034.111.084.14l1.344.77a.147.147 0 0 0 .154 0l1.345-.77a.165.165 0 0 0 .084-.14v-1.54a.165.165 0 0 0-.084-.14l-1.345-.785c-.025-.014-.042-.013-.07-.013z" fill="#696b5a"/>
</svg>
