<svg viewBox="0 0 102 102" xmlns="http://www.w3.org/2000/svg" xmlns:serif="http://www.serif.com/" fill-rule="evenodd" clip-rule="evenodd" stroke-linejoin="round" stroke-miterlimit="1.41">
    <g serif:id="ps ico">
        <circle cx="50.81" cy="50.91" r="50.72" fill="#31334b"/>
        <path d="M51.141.191l.327.004.327.005.327.007.325.009.326.012.324.013.325.015.323.018.324.019.322.022.322.023.322.026.321.027.32.03.32.031.319.034.319.035.318.038.317.039.317.042.317.043.315.045.315.047.314.049.314.051.313.053.313.055.311.057.312.059.31.06.31.063.309.064.308.066.308.068.307.07.306.072.306.074.305.075.304.077.303.08.303.08.302.083.301.085.3.086.3.088.299.09.298.092.297.094.297.095.295.097.295.099.295.101.293.102.292.104.292.106.291.108.29.109.289.111.288.113.288.114.286.116.286.118.285.12.284.121.283.123.282.125.281.126.281.128.279.129.279.131.277.133.277.135.276.136.275.137.273.14.273.141.272.142.271.144.27.146.269.147.268.149.267.15.266.152.265.154.264.155.263.157.262.158.261.159.26.162.259.162.258.165.256.165.256.168.255.168.253.171.252.171.252.173.25.175.249.176.248.178.247.179.246.18.245.182.243.184.243.184.241.186.24.188.239.189.238.19.237.192.235.193.234.195.233.196.232.197.231.199.23.2.228.201.227.203.226.204.224.205.224.207.222.208.221.21.219.21.219.212.217.213.216.215.214.216.213.217.212.218.211.22.209.221.208.222.207.223.206.225.204.226.202.227.202.228.2.23.198.23.198.232.196.233.194.235.193.235.192.237.191.237.189.239.187.241.186.241.185.242.183.244.182.245.181.245.179.247.177.248.177.25.174.25.173.251.172.253.17.253.169.255.167.255.166.257.164.258.163.259.161.26.16.261.158.261.157.263.155.264.153.265.152.266.151.268.149.268.147.269.146.27.144.27.142.272.141.273.139.274.138.275.136.276.135.276.132.278.131.278.13.28.128.28.126.282.125.282.123.283.121.284.119.285.118.285.116.287.115.287.113.289.111.289.109.29.107.291.106.291.104.293.103.293.1.294.099.295.097.296.096.296.093.298.092.298.09.299.088.299.087.301.084.301.083.302.081.303.079.303.078.304.075.305.074.305.071.307.07.307.068.307.067.309.064.309.062.31.061.31.059.311.056.312.055.312.053.313.051.314.049.315.048.315.045.315.043.316.041.317.04.318.037.318.036.318.033.32.032.319.029.321.028.321.025.321.024.322.021.323.02.323.017.324.016.324.013.325.011.325.01.326.007.326.005.327.003.328.001.327-.001.328-.003.327-.005.327-.007.327-.01.325-.011.326-.013.324-.016.325-.017.323-.02.324-.021.322-.024.322-.025.322-.028.321-.029.32-.032.32-.033.319-.036.319-.037.318-.04.317-.041.317-.043.317-.045.315-.048.315-.049.315-.051.313-.053.313-.055.313-.056.312-.059.311-.061.31-.062.31-.064.309-.067.308-.068.308-.07.307-.071.306-.074.306-.075.305-.078.304-.079.303-.081.303-.083.302-.084.301-.087.3-.088.3-.09.299-.092.298-.093.297-.096.297-.097.296-.099.294-.1.295-.103.293-.104.292-.106.292-.107.291-.109.29-.111.289-.113.288-.115.288-.116.286-.118.286-.119.285-.121.284-.123.283-.125.282-.126.281-.128.281-.13.279-.131.279-.132.277-.135.277-.136.276-.138.275-.139.273-.141.273-.142.272-.144.271-.146.27-.147.269-.149.268-.151.267-.152.266-.153.265-.155.264-.157.263-.158.262-.16.261-.161.26-.163.259-.164.258-.166.256-.167.256-.169.255-.17.253-.172.253-.173.251-.174.25-.177.249-.177.248-.179.247-.181.246-.182.245-.183.243-.185.243-.186.241-.187.24-.189.239-.191.238-.192.237-.193.235-.194.234-.196.234-.198.231-.198.231-.2.23-.202.228-.202.227-.204.226-.206.224-.207.224-.208.222-.209.221-.211.219-.212.219-.213.217-.214.216-.216.214-.217.214-.219.211-.219.211-.221.209-.222.208-.224.207-.224.206-.226.204-.227.202-.228.202-.23.2-.231.198-.232.198-.233.196-.234.194-.235.193-.237.192-.238.191-.239.189-.24.187-.241.186-.243.185-.243.184-.245.181-.246.181-.247.179-.248.177-.249.177-.25.174-.252.173-.252.172-.253.17-.255.169-.256.167-.256.166-.258.164-.259.163-.26.161-.261.16-.262.158-.263.157-.264.155-.265.153-.266.152-.267.151-.268.149-.269.147-.27.146-.271.144-.272.142-.273.141-.273.139-.275.138-.276.136-.277.135-.277.132-.279.132-.279.129-.281.128-.281.126-.282.125-.283.123-.284.121-.285.119-.286.118-.286.116-.288.115-.288.113-.289.111-.29.109-.291.108-.292.105-.292.104-.293.103-.295.101-.295.098-.295.097-.297.096-.297.093-.298.092-.299.09-.3.088-.3.087-.301.084-.302.083-.303.081-.303.079-.304.078-.305.075-.306.074-.306.072-.307.069-.308.069-.308.066-.309.064-.31.063-.31.06-.312.059-.311.056-.313.055-.313.053-.314.051-.314.049-.315.048-.315.045-.317.043-.317.041-.317.04-.318.037-.319.036-.319.033-.32.032-.32.029-.321.028-.322.025-.322.024-.322.021-.324.02-.323.017-.325.016-.324.013-.326.011-.325.01-.327.007-.327.005-.327.003-.328.001-.328-.001-.327-.003-.327-.005-.326-.007-.326-.01-.325-.011-.325-.013-.324-.016-.324-.017-.323-.02-.323-.021-.322-.024-.321-.025-.321-.028-.321-.029-.319-.032-.32-.033-.318-.036-.318-.037-.318-.04-.317-.041-.316-.043-.316-.045-.315-.048-.314-.049-.314-.051-.313-.053-.312-.055-.312-.056-.311-.059-.31-.06-.31-.063-.309-.064-.309-.066-.307-.069-.307-.069-.307-.072-.305-.074-.305-.075-.304-.078-.304-.079-.302-.081-.302-.083-.301-.084-.301-.087-.299-.088-.299-.09-.298-.092-.298-.093-.296-.096-.296-.097-.295-.098-.294-.101-.293-.103-.293-.104-.291-.105-.291-.108-.29-.109-.289-.111-.289-.113-.287-.115-.287-.116-.285-.118-.285-.119-.284-.121-.283-.123-.282-.125-.282-.126-.28-.128-.28-.129-.278-.132-.278-.132-.276-.135-.276-.136-.275-.138-.274-.139-.273-.141-.272-.142-.271-.144-.27-.146-.269-.147-.268-.149-.267-.151-.266-.152-.265-.153-.264-.155-.263-.157-.262-.158-.26-.16-.26-.161-.259-.163-.258-.164-.257-.166-.255-.167-.255-.169-.253-.17-.253-.172-.251-.173-.251-.174-.249-.177-.248-.177-.247-.179-.245-.181-.245-.181-.244-.184-.242-.185-.241-.186-.241-.187-.239-.189-.237-.191-.237-.192-.236-.193-.234-.194-.233-.196-.232-.198-.231-.198-.229-.2-.228-.202-.227-.202-.226-.204-.225-.206-.223-.207-.222-.208-.221-.209-.22-.211-.218-.211-.217-.214-.216-.214-.215-.216-.213-.217-.212-.219-.21-.219-.21-.221-.208-.222-.207-.224-.205-.224-.204-.226-.203-.227-.201-.228-.2-.23-.199-.231-.197-.231-.196-.234-.195-.234-.193-.235-.192-.237-.19-.238-.189-.239-.188-.24-.186-.241-.185-.243-.183-.243-.182-.245-.18-.246-.179-.247-.178-.248-.176-.249-.175-.25-.173-.251-.172-.253-.17-.253-.169-.255-.167-.256-.166-.256-.164-.258-.162-.259-.162-.26-.159-.261-.159-.262-.156-.263-.155-.264-.154-.265-.152-.266-.15-.267-.149-.268-.147-.269-.146-.27-.144-.271-.143-.272-.14-.273-.14-.273-.137-.275-.136-.276-.135-.277-.133-.277-.131-.279-.129-.279-.128-.281-.127-.281-.124-.282-.123-.283-.121-.284-.12-.285-.118-.286-.116-.286-.114-.288-.113-.288-.111-.289-.109-.29-.108-.291-.106-.292-.104-.292-.102-.293-.101-.295-.099-.294-.097-.296-.095-.297-.094-.297-.092-.298-.09-.299-.088-.3-.086-.3-.085-.301-.083-.302-.081-.303-.079-.303-.077-.304-.075-.305-.074-.306-.072-.306-.07-.307-.068-.308-.066-.308-.064-.309-.063-.31-.06-.31-.059-.311-.057-.312-.055-.313-.053-.313-.051-.313-.049-.315-.047-.315L.586 58l-.043-.317-.042-.317-.039-.317-.038-.318-.035-.319-.034-.319-.031-.32-.03-.32-.027-.321-.026-.322-.023-.322-.022-.322-.019-.324-.018-.323-.015-.325-.013-.324-.012-.326-.009-.325-.007-.327-.005-.327-.004-.327-.001-.328.001-.327.004-.328.005-.327.007-.326.009-.326.012-.325.013-.325.015-.324.018-.324.019-.323.022-.323.023-.322.026-.321.027-.321.03-.321.031-.319.034-.32.035-.318.038-.318.039-.318.042-.317.043-.316.045-.315.047-.315.049-.315.051-.314.053-.313.055-.312.057-.312.059-.311.06-.31.063-.31.064-.309.066-.309.068-.307.07-.307.072-.307.074-.305.075-.305.077-.304.079-.303.081-.303.083-.302.085-.301.086-.301.088-.299.09-.299.092-.298.094-.298.095-.296.097-.296.099-.295.101-.294.102-.293.104-.293.106-.291.108-.291.109-.29.111-.289.113-.289.114-.287.116-.287.118-.285.12-.285.121-.284.123-.283.124-.282.127-.282.128-.28.129-.28.131-.278.133-.278.135-.276.136-.276.137-.275.14-.274.14-.273.143-.272.144-.27.146-.27.147-.269.149-.268.15-.268.152-.266.154-.265.155-.264.156-.263.159-.261.159-.261.162-.26.162-.259.164-.258.166-.257.167-.255.169-.255.17-.253.172-.253.173-.251.175-.25.176-.25.178-.248.179-.247.18-.245.182-.245.183-.244.185-.242.186-.241.188-.241.189-.239.19-.237.192-.237.193-.235.195-.235.196-.233.197-.232.199-.23.2-.23.201-.228.203-.227.204-.226.205-.225.207-.223.208-.222.21-.221.21-.22.212-.218.213-.217.215-.216.216-.215.217-.213.218-.212.22-.21.221-.21.222-.208.223-.207.225-.205.226-.204.227-.203.228-.201.229-.2.231-.199.232-.197.233-.196.234-.195.236-.193.237-.192.237-.19.239-.189.241-.188.241-.186.242-.184.244-.184.245-.182.245-.18.247-.179.248-.178.249-.176.251-.175.251-.173.253-.171.253-.171.255-.168.255-.168.257-.165.258-.165.259-.162.26-.162.26-.159.262-.158.263-.157.264-.155.265-.154.266-.152.267-.15.268-.149.269-.147.27-.146.271-.144.272-.142.273-.141.274-.14.275-.137.276-.136.276-.135.278-.133.278-.131.28-.129.28-.128.282-.126.282-.125.283-.123.284-.121.285-.12.285-.118.287-.116.287-.114.289-.113.289-.111.29-.109.291-.108.291-.106.293-.104.293-.102.294-.101.295-.099.296-.097.296-.095.298-.094.298-.092.299-.09.299-.088.301-.086.301-.085.302-.083.302-.08.304-.08.304-.077.305-.075.305-.074.307-.072.307-.07.307-.068.309-.066.309-.064.31-.063.31-.06.311-.059.312-.057.312-.055.313-.053.314-.051.314-.049.315-.047.316-.045.316-.043.317-.042.318-.039.318-.038.318-.035.32-.034.319-.031.321-.03.321-.027.321-.026.322-.023.323-.022.323-.019.324-.018.324-.015.325-.013.325-.012.326-.009.326-.007.327-.005.327-.004.328-.001.328.001zm-.636 3l-.309.003-.308.005-.307.007-.307.009-.306.01-.306.013-.305.015-.305.016-.304.018-.304.021-.303.022-.302.024-.302.026-.302.027-.301.03-.3.032-.3.033-.299.035-.299.037-.298.039-.298.041-.297.042-.296.045-.296.046-.295.048-.294.05-.294.051-.293.054-.293.055-.292.057-.291.059-.291.06-.29.062-.289.064-.289.066-.288.068-.287.069-.287.071-.286.073-.285.074-.285.076-.284.078-.283.08-.282.081-.282.083-.281.084-.281.087-.279.088-.279.089-.278.092-.277.093-.277.094-.276.097-.275.097-.274.1-.274.101-.272.103-.272.104-.271.106-.271.108-.269.109-.269.111-.268.113-.267.114-.266.115-.266.117-.264.119-.264.12-.263.122-.262.124-.261.124-.26.127-.259.128-.259.129-.258.131-.256.133-.256.134-.255.136-.254.137-.253.138-.252.14-.251.142-.251.143-.249.144-.248.146-.248.147-.246.149-.246.15-.244.152-.244.153-.242.155-.242.156-.24.157-.24.159-.239.16-.237.162-.237.163-.235.164-.235.166-.233.167-.233.168-.231.17-.23.171-.229.173-.229.174-.227.175-.226.177-.225.178-.223.179-.223.18-.222.182-.22.183-.22.185-.218.185-.217.187-.216.189-.215.189-.214.191-.212.192-.212.193-.21.195-.209.196-.208.197-.207.198-.205.2-.205.2-.203.202-.202.203-.2.205-.2.205-.198.207-.197.208-.196.209-.195.21-.193.212-.192.212-.191.214-.189.215-.189.216-.187.217-.185.218-.185.22-.183.22-.182.222-.18.223-.18.223-.177.225-.177.226-.175.228-.174.228-.173.229-.171.23-.17.231-.168.233-.167.233-.166.235-.164.235-.163.237-.162.237-.16.239-.159.24-.157.24-.156.242-.155.242-.153.244-.152.244-.15.246-.149.246-.147.248-.146.248-.144.249-.143.251-.142.251-.14.252-.138.253-.137.254-.136.255-.134.256-.133.257-.131.257-.129.259-.128.259-.127.26-.125.261-.123.262-.122.263-.12.264-.119.264-.117.266-.115.266-.114.267-.113.268-.111.269-.109.269-.108.271-.106.271-.104.272-.103.272-.101.274-.1.274-.097.275-.097.276-.094.277-.093.277-.092.278-.089.279-.088.279-.087.281-.084.281-.083.282-.082.282-.079.283-.078.284-.076.285-.074.285-.073.286-.071.287-.069.287-.068.288-.066.289-.064.289-.062.29-.06.291-.059.291-.057.292-.055.293-.054.293-.051.294-.05.294-.048.295-.046.296-.045.296-.042.297-.041.298-.039.298-.037.299-.035.299-.033.3-.032.3-.03.301-.027.301-.026.303-.024.302-.022.303-.021.304-.018.304-.016.305-.015.305-.013.306-.01.306-.009.307-.007.307-.005.308-.003.309-.001.308.001.309.003.308.005.308.007.308.009.306.01.307.013.305.015.306.016.304.018.305.021.303.022.303.024.303.026.302.027.302.03.301.032.3.033.3.035.299.037.299.039.298.041.297.042.297.045.297.046.295.048.295.05.295.051.294.054.293.055.292.057.292.059.292.06.29.062.291.064.289.066.288.068.289.069.287.071.287.073.286.074.285.076.285.078.283.079.284.082.282.083.282.084.281.087.28.088.28.089.279.092.278.093.277.094.277.097.276.097.275.1.274.101.273.103.273.104.272.106.271.108.27.109.27.111.269.113.268.114.267.115.266.117.265.119.265.12.264.122.262.123.262.125.261.127.261.128.259.129.259.131.257.133.257.134.256.136.255.137.254.138.253.14.252.142.251.143.25.144.25.146.248.147.247.149.247.15.245.152.245.153.243.155.243.156.241.157.241.159.24.16.238.162.238.163.236.164.236.166.234.167.234.168.232.17.231.171.231.173.229.174.228.175.227.177.226.177.225.18.224.18.223.182.221.183.221.185.219.185.219.187.217.189.216.189.215.191.213.192.213.193.211.195.211.196.209.197.208.198.206.2.206.2.204.202.203.203.202.205.201.205.2.207.198.208.197.209.196.21.194.212.194.212.192.214.19.215.19.216.188.217.187.218.186.22.184.22.184.222.181.223.181.223.179.225.178.226.177.227.175.229.174.229.172.23.171.231.17.233.169.233.167.235.166.235.164.237.163.237.162.239.16.239.159.241.157.242.156.242.154.244.154.244.151.246.15.246.149.248.148.248.146.249.144.251.143.251.141.252.141.253.138.254.137.255.136.256.134.257.132.257.131.259.13.259.128.26.126.261.125.262.124.263.121.264.121.264.118.266.118.266.115.267.114.268.113.269.11.269.11.271.107.271.106.272.105.272.102.274.102.274.099.275.098.276.096.276.095.278.093.278.091.279.09.279.088.281.086.281.085.282.083.282.081.283.08.284.078.285.076.285.074.286.073.287.071.287.069.288.068.289.065.289.064.29.063.291.06.291.059.292.057.293.055.293.053.294.052.294.05.295.048.296.046.296.044.297.043.298.041.298.038.299.038.299.035.3.033.3.032.301.029.302.028.302.026.302.024.303.022.304.02.304.019.305.016.305.015.306.012.306.011.307.009.307.006.308.005.309.003.308.001.309-.001.308-.003.308-.005.307-.006.307-.009.307-.011.305-.012.306-.015.304-.016.305-.019.303-.02.303-.022.303-.024.302-.026.302-.028.301-.029.3-.032.3-.033.299-.035.299-.038.298-.038.297-.041.297-.043.296-.044.296-.046.295-.048.295-.05.294-.052.293-.053.292-.055.292-.057.292-.059.29-.06.29-.063.29-.064.288-.065.288-.068.288-.069.287-.071.286-.073.285-.074.284-.076.284-.078.284-.08.282-.081.282-.083.281-.085.28-.086.28-.088.279-.09.278-.091.277-.093.277-.095.275-.096.275-.098.275-.099.273-.102.273-.102.272-.105.271-.106.27-.107.27-.11.269-.11.268-.113.267-.114.266-.115.265-.118.265-.118.263-.121.263-.121.262-.124.261-.125.261-.126.259-.128.258-.13.258-.131.257-.132.256-.134.255-.136.253-.137.254-.138.252-.14.251-.142.25-.143.25-.144.248-.146.247-.148.247-.149.245-.15.245-.151.243-.154.243-.154.242-.156.24-.157.24-.159.238-.16.238-.162.236-.163.236-.164.234-.166.234-.167.232-.169.231-.17.231-.171.229-.172.228-.174.227-.175.226-.177.225-.178.224-.179.223-.181.221-.181.221-.184.219-.184.219-.186.217-.187.216-.188.215-.189.213-.191.213-.192.211-.194.211-.194.209-.196.208-.197.206-.198.206-.2.204-.201.203-.202.202-.203.201-.204.2-.206.198-.206.197-.208.196-.209.194-.211.194-.211.192-.213.19-.213.19-.215.188-.216.187-.217.186-.219.184-.219.184-.221.181-.221.181-.223.179-.224.178-.225.177-.226.175-.227.174-.228.172-.229.171-.231.17-.231.169-.232.167-.234.166-.234.164-.236.163-.236.162-.238.16-.238.158-.24.158-.24.156-.242.154-.243.154-.243.151-.245.15-.245.149-.247.148-.247.146-.248.144-.25.143-.25.141-.251.14-.252.139-.253.137-.254.136-.255.134-.256.132-.257.131-.257.13-.259.128-.259.126-.261.125-.261.123-.262.122-.262.121-.264.118-.265.117-.265.116-.266.114-.267.112-.268.111-.269.11-.27.107-.27.106-.271.105-.272.102-.273.102-.273.099-.274.098-.275.096-.276.095-.277.093-.277.091-.278.09-.279.088-.28.086-.28.085-.281.083-.282.081-.282.08-.284.078-.284.076-.284.074-.285.073-.286.071-.287.069-.287.067-.288.066-.289.064-.29.063-.29.06-.29.059-.292.057-.292.055-.292.053-.293.052-.294.05-.295.048-.295.046-.295.044-.297.043-.297.041-.297.038-.298.037-.299.036-.299.033-.3.032-.3.029-.301.028-.302.026-.302.024-.303.022-.303.02-.303.019-.305.016-.304.015-.306.012-.305.011-.307.009-.306.006-.308.005-.308.003-.308.001-.309-.001-.308-.003-.309-.005-.308-.006-.307-.009-.307-.011-.306-.012-.306-.015-.305-.016-.305-.019-.304-.02-.304-.022-.303-.024-.302-.026-.302-.028-.302-.029-.301-.032-.3-.033-.3-.036-.299-.037-.299-.038-.298-.041-.298-.043-.297-.044-.296-.046-.296-.048-.295-.05-.294-.052-.294-.053-.293-.055-.293-.057-.292-.059-.291-.06-.291-.063-.29-.064-.289-.066-.289-.067-.288-.069-.287-.071-.287-.073-.286-.074-.285-.076-.285-.078-.284-.08-.283-.081-.282-.083-.282-.085-.281-.086-.281-.088-.279-.09-.279-.091-.278-.093-.277-.095-.277-.096-.276-.098-.275-.099-.274-.102-.274-.102-.272-.105-.272-.106-.271-.107-.271-.11-.269-.111-.269-.112-.268-.114-.267-.116-.266-.117-.266-.118-.264-.121-.264-.122-.263-.123-.262-.125-.261-.126-.26-.128-.259-.13-.259-.131-.257-.132-.257-.134-.256-.136-.255-.137-.254-.139-.253-.14-.252-.141-.251-.143-.251-.144-.249-.146-.248-.148-.248-.149-.246-.15-.246-.151-.244-.154-.244-.154-.242-.156-.242-.158-.24-.158-.24-.16-.239-.162-.237-.163-.237-.164-.235-.166-.235-.167-.233-.169-.233-.17-.231-.171-.23-.172-.229-.174-.228-.175-.228-.177-.226-.178-.225-.179-.223-.181-.223-.181-.222-.184-.22-.184-.22-.186-.218-.187-.217-.188-.216-.19-.215-.19-.214-.192-.212-.194-.212-.194-.21-.196-.209-.197-.208-.199-.207-.199-.205-.201-.205-.202-.203-.203-.202-.204-.2-.206-.2-.206-.198-.208-.197-.209-.196-.211-.195-.211-.193-.213-.192-.213-.191-.215-.189-.216-.189-.217-.187-.219-.185-.219-.185-.221-.183-.221-.182-.223-.18-.224-.179-.225-.178-.226-.177-.227-.175-.228-.174-.229-.173-.231-.171-.231-.17-.232-.168-.234-.167-.234-.166-.236-.164-.236-.163-.238-.162-.238-.16-.24-.159-.241-.157-.241-.156-.243-.155-.243-.153-.245-.152-.245-.15-.247-.149-.247-.147-.249-.146-.249-.144-.25-.143-.251-.142-.252-.14-.254-.138-.253-.137-.255-.136-.256-.134-.257-.133-.258-.131-.258-.129-.259-.128-.261-.127-.261-.124-.262-.124-.263-.122-.263-.12-.265-.119-.265-.117-.266-.115-.267-.114-.268-.113-.269-.111-.27-.109-.27-.108-.271-.106-.272-.104-.273-.103-.273-.101-.274-.1-.276-.097-.275-.097-.277-.094-.277-.093-.278-.092-.279-.089-.28-.088-.28-.087-.281-.084-.282-.083-.282-.081-.284-.08-.284-.078-.284-.076-.285-.074-.287-.073-.286-.071-.287-.069-.289-.068-.288-.066-.29-.064-.29-.062-.29-.06-.292-.059-.292-.057-.292-.055-.293-.054-.294-.051-.295-.05-.295-.048-.296-.046-.296-.045-.297-.042-.297-.041-.298-.039-.299-.037-.299-.035-.3-.033-.3-.032-.301-.03-.302-.027-.302-.026-.303-.024-.303-.022-.303-.021-.305-.018-.304-.016-.306-.015-.305-.013-.307-.01-.307-.009-.307-.007-.308-.005-.308-.003-.309-.001-.308.001z" fill="#31c5f0"/>
        <g fill="#31c5f0" fill-rule="nonzero">
            <path d="M21.076 69.91V31.279h12.517c4.743 0 7.835.193 9.275.579 2.214.58 4.067 1.84 5.56 3.782 1.494 1.941 2.24 4.449 2.24 7.523 0 2.372-.43 4.366-1.291 5.982-.861 1.616-1.954 2.885-3.281 3.808-1.326.922-2.674 1.532-4.045 1.831-1.862.369-4.558.553-8.089.553h-5.086V69.91h-7.8zm7.8-32.096v10.962h4.269c3.074 0 5.129-.202 6.166-.606 1.036-.404 1.849-1.037 2.437-1.898.589-.86.883-1.862.883-3.004 0-1.405-.413-2.564-1.238-3.478-.826-.913-1.871-1.484-3.136-1.713-.931-.175-2.802-.263-5.613-.263h-3.768zM54.41 61.925l7.431-1.133c.317 1.441.958 2.534 1.924 3.281.966.747 2.319 1.12 4.058 1.12 1.915 0 3.356-.352 4.322-1.054.65-.492.975-1.151.975-1.977 0-.562-.176-1.027-.527-1.396-.369-.352-1.195-.677-2.477-.975-5.973-1.318-9.759-2.521-11.358-3.61-2.213-1.511-3.32-3.611-3.32-6.298 0-2.425.957-4.463 2.872-6.114 1.915-1.651 4.884-2.477 8.907-2.477 3.83 0 6.676.624 8.538 1.871 1.862 1.247 3.145 3.092 3.847 5.534l-6.983 1.291c-.299-1.089-.865-1.924-1.7-2.503-.834-.58-2.024-.87-3.57-.87-1.95 0-3.347.272-4.19.817-.562.386-.843.887-.843 1.502 0 .527.246.975.738 1.344.667.492 2.973 1.186 6.917 2.082 3.944.896 6.697 1.994 8.261 3.294 1.546 1.317 2.319 3.153 2.319 5.507 0 2.565-1.072 4.77-3.215 6.614-2.143 1.845-5.314 2.767-9.513 2.767-3.812 0-6.829-.773-9.052-2.319-2.222-1.546-3.676-3.645-4.361-6.298z"/>
        </g>
    </g>
</svg>
