<svg viewBox="0 0 103 103" xmlns="http://www.w3.org/2000/svg" xmlns:serif="http://www.serif.com/" fill-rule="evenodd" clip-rule="evenodd" stroke-linejoin="round" stroke-miterlimit="1.41">
    <g serif:id="react ico">
        <circle cx="51.73" cy="51.27" r="51" fill="#232323"/>
        <path d="M73.856 40.526a44.914 44.914 0 0 0-2.21-.696c.123-.501.237-1.003.342-1.508 1.673-8.121.579-14.663-3.157-16.817-3.581-2.066-9.439.088-15.355 5.236a46.146 46.146 0 0 0-1.709 1.569 41.871 41.871 0 0 0-1.138-1.051c-6.2-5.505-12.414-7.825-16.146-5.664-3.578 2.071-4.638 8.222-3.132 15.918.15.762.319 1.52.508 2.274-.88.25-1.729.516-2.541.799-7.269 2.534-11.911 6.506-11.911 10.626 0 4.255 4.983 8.523 12.554 11.11.614.209 1.233.403 1.857.581a44.41 44.41 0 0 0-.54 2.451c-1.436 7.562-.314 13.567 3.255 15.626 3.686 2.125 9.872-.059 15.896-5.325a38.93 38.93 0 0 0 1.433-1.321 43.77 43.77 0 0 0 1.856 1.694c5.835 5.021 11.597 7.048 15.163 4.984 3.683-2.131 4.879-8.582 3.325-16.431-.118-.6-.256-1.212-.411-1.835.434-.128.86-.261 1.276-.399 7.871-2.608 12.992-6.823 12.992-11.135 0-4.135-4.792-8.133-12.207-10.686z" fill="#53c1de" fill-rule="nonzero"/>
        <path d="M72.149 59.563c-.375.125-.761.245-1.153.361-.869-2.751-2.042-5.676-3.477-8.698 1.37-2.95 2.497-5.838 3.342-8.571.702.204 1.384.418 2.041.645 6.353 2.186 10.228 5.42 10.228 7.912 0 2.654-4.185 6.099-10.981 8.351zm-2.82 5.588c.687 3.47.785 6.608.33 9.061-.409 2.204-1.231 3.674-2.248 4.262-2.163 1.253-6.791-.375-11.78-4.669a42.134 42.134 0 0 1-1.727-1.574c1.935-2.116 3.868-4.576 5.755-7.308 3.319-.294 6.455-.776 9.299-1.433.139.565.264 1.119.371 1.661zM40.813 78.258c-2.114.746-3.797.768-4.815.181-2.166-1.249-3.066-6.071-1.838-12.538.146-.765.313-1.525.501-2.28 2.813.622 5.925 1.07 9.253 1.339 1.899 2.673 3.888 5.13 5.893 7.282a35.44 35.44 0 0 1-1.308 1.204c-2.664 2.329-5.333 3.981-7.686 4.812zM30.91 59.547c-3.348-1.144-6.113-2.631-8.008-4.254-1.702-1.458-2.562-2.906-2.562-4.081 0-2.5 3.727-5.689 9.943-7.856a42.825 42.825 0 0 1 2.363-.744c.86 2.795 1.987 5.716 3.347 8.671-1.378 2.999-2.521 5.967-3.388 8.794a35.752 35.752 0 0 1-1.695-.53zm3.32-22.597c-1.291-6.595-.434-11.569 1.723-12.817 2.297-1.33 7.375.566 12.729 5.319.342.304.685.622 1.03.951-1.995 2.142-3.966 4.581-5.849 7.238-3.229.299-6.32.78-9.161 1.424a42.491 42.491 0 0 1-.472-2.116v.001zm29.615 7.312a92.309 92.309 0 0 0-2.088-3.433c2.191.276 4.289.644 6.26 1.094a62.561 62.561 0 0 1-2.197 5.912 103.444 103.444 0 0 0-1.975-3.573zM51.768 32.499a62.962 62.962 0 0 1 4.04 4.878 86.13 86.13 0 0 0-8.115-.002 64.82 64.82 0 0 1 4.075-4.876zM39.613 44.282a89.013 89.013 0 0 0-1.938 3.551 64.598 64.598 0 0 1-2.181-5.941 66.362 66.362 0 0 1 6.224-1.069 87.086 87.086 0 0 0-2.105 3.459zm2.168 17.527a62.565 62.565 0 0 1-6.328-1.017 65.551 65.551 0 0 1 2.226-6.061 86.624 86.624 0 0 0 4.102 7.078zm10.068 8.322a65.956 65.956 0 0 1-4.131-4.943c1.315.051 2.655.078 4.017.078 1.399 0 2.783-.032 4.144-.093a62.226 62.226 0 0 1-4.03 4.958zm13.999-15.506a62.404 62.404 0 0 1 2.305 6.04c-1.99.454-4.14.82-6.404 1.092a104.08 104.08 0 0 0 2.108-3.494 94.157 94.157 0 0 0 1.991-3.638zm-4.532 2.173a96.059 96.059 0 0 1-3.294 5.314 88.134 88.134 0 0 1-6.287.221c-2.136 0-4.215-.067-6.216-.196a83.488 83.488 0 0 1-6.285-10.855 83.188 83.188 0 0 1 2.921-5.535v.001a82.153 82.153 0 0 1 3.329-5.3 83.257 83.257 0 0 1 12.514.002 87.903 87.903 0 0 1 3.308 5.282 94.94 94.94 0 0 1 2.96 5.509 88.614 88.614 0 0 1-2.95 5.557zm6.05-32.752c2.299 1.326 3.193 6.672 1.749 13.684-.095.457-.198.912-.309 1.365-2.848-.657-5.941-1.146-9.18-1.45-1.886-2.686-3.841-5.129-5.803-7.243a42.365 42.365 0 0 1 1.579-1.448c5.069-4.412 9.806-6.153 11.964-4.908z" fill="#232323" fill-rule="nonzero"/>
        <path d="M51.735 45.081a6.131 6.131 0 1 1 0 12.262 6.131 6.131 0 0 1 0-12.262" fill="#53c1de" fill-rule="nonzero"/>
    </g>
</svg>
