<svg viewBox="0 0 102 102" xmlns="http://www.w3.org/2000/svg" xmlns:serif="http://www.serif.com/" fill-rule="evenodd" clip-rule="evenodd" stroke-linejoin="round" stroke-miterlimit="1.41">
    <g serif:id="sass ico">
        <circle cx="50.78" cy="51.23" r="50.72" fill="#cf649a"/>
        <path d="M85.317 51.702c-2.809.016-5.242.69-7.282 1.695-.754-1.491-1.507-2.794-1.632-3.767-.142-1.13-.314-1.821-.142-3.17.173-1.35.958-3.265.958-3.422-.016-.141-.173-.832-1.79-.847-1.616-.016-3.013.313-3.17.737a18.012 18.012 0 0 0-.675 2.402c-.282 1.475-3.233 6.701-4.912 9.448-.55-1.067-1.021-2.009-1.115-2.763-.141-1.129-.314-1.82-.141-3.17.173-1.35.957-3.264.957-3.421-.015-.142-.172-.832-1.789-.848-1.616-.015-3.013.314-3.17.738-.157.424-.33 1.428-.675 2.401-.33.973-4.253 9.7-5.274 11.975a49.087 49.087 0 0 1-1.302 2.716c-.33.627-.016.047-.047.11l-.44.831v.016c-.22.393-.455.769-.565.769-.078 0-.235-1.051.031-2.495.581-3.03 1.994-7.754 1.978-7.926 0-.079.267-.911-.91-1.334-1.146-.424-1.554.282-1.648.282-.094 0-.173.251-.173.251s1.271-5.32-2.433-5.32c-2.322 0-5.524 2.527-7.109 4.834-1.005.549-3.139 1.711-5.4 2.951-.863.47-1.757.973-2.605 1.428l-.172-.189c-4.489-4.787-12.792-8.177-12.446-14.612.125-2.338.941-8.506 15.946-15.977 12.289-6.121 22.13-4.442 23.84-.706 2.433 5.336-5.258 15.255-18.033 16.683-4.866.55-7.424-1.334-8.067-2.04-.675-.738-.769-.769-1.02-.628-.409.22-.157.879 0 1.271.376.989 1.946 2.747 4.614 3.626 2.338.769 8.051 1.193 14.957-1.475 7.738-2.998 13.78-11.316 12.007-18.269-1.805-7.079-13.545-9.402-24.641-5.462-6.608 2.354-13.765 6.027-18.913 10.845-6.121 5.713-7.094 10.704-6.686 12.776 1.429 7.392 11.614 12.21 15.695 15.773-.204.11-.392.22-.565.314-2.04 1.004-9.809 5.069-11.755 9.37-2.198 4.865.345 8.365 2.04 8.836 5.242 1.46 10.61-1.161 13.513-5.477 2.888-4.316 2.543-9.92 1.209-12.478l-.048-.094 1.601-.942a97.598 97.598 0 0 1 2.951-1.664c-.502 1.366-.863 2.983-1.051 5.337-.22 2.762.91 6.34 2.401 7.753.659.612 1.444.628 1.93.628 1.727 0 2.512-1.429 3.375-3.139 1.067-2.088 2.009-4.505 2.009-4.505s-1.177 6.545 2.04 6.545c1.177 0 2.354-1.522 2.888-2.307v.016s.031-.047.094-.157c.066-.098.129-.197.188-.298v-.032c.471-.816 1.523-2.683 3.092-5.775 2.025-3.987 3.971-8.978 3.971-8.978s.189 1.224.769 3.233c.345 1.193 1.099 2.496 1.679 3.767-.47.659-.753 1.036-.753 1.036l.016.016a45.292 45.292 0 0 1-1.24 1.569c-1.601 1.915-3.516 4.097-3.767 4.725-.298.737-.235 1.286.346 1.726.423.314 1.177.377 1.977.314 1.444-.094 2.448-.455 2.951-.675a10.234 10.234 0 0 0 2.542-1.334c1.57-1.161 2.527-2.809 2.433-5.007-.047-1.208-.439-2.401-.926-3.531.141-.204.283-.408.424-.628 2.48-3.626 4.394-7.612 4.394-7.612s.189 1.224.769 3.233c.298 1.02.895 2.135 1.429 3.234-2.323 1.899-3.783 4.096-4.285 5.54-.926 2.668-.204 3.877 1.161 4.159.612.126 1.491-.157 2.15-.439a9.767 9.767 0 0 0 2.716-1.397c1.569-1.162 3.076-2.778 2.998-4.96-.048-1.004-.314-1.993-.675-2.935 1.977-.816 4.535-1.287 7.784-.894 6.985.816 8.366 5.179 8.099 7-.267 1.82-1.726 2.825-2.213 3.138-.487.299-.644.409-.596.628.062.33.282.314.706.252.58-.095 3.672-1.491 3.798-4.85.188-4.317-3.908-9.025-11.175-8.978zM31.452 69.861c-2.307 2.527-5.556 3.484-6.937 2.668-1.491-.863-.91-4.583 1.931-7.267 1.726-1.632 3.97-3.139 5.446-4.065.329-.204.831-.502 1.428-.863.094-.063.157-.094.157-.094.11-.063.235-.142.361-.22 1.051 3.83.047 7.188-2.386 9.841zm16.872-11.473c-.8 1.962-2.495 7-3.515 6.717-.879-.235-1.413-4.049-.173-7.816.628-1.899 1.962-4.159 2.746-5.038 1.272-1.413 2.653-1.884 2.998-1.303.408.754-1.554 6.216-2.056 7.44zm13.922 6.654c-.346.173-.66.299-.801.205-.11-.063.141-.299.141-.299s1.742-1.867 2.433-2.731c.392-.502.863-1.082 1.365-1.742v.189c.001 2.26-2.165 3.766-3.138 4.378zm10.735-2.448c-.251-.188-.22-.769.628-2.59.329-.722 1.083-1.93 2.385-3.076.157.471.252.926.236 1.35-.016 2.825-2.025 3.877-3.249 4.316z" fill="#fff" fill-rule="nonzero"/>
    </g>
</svg>
