<svg viewBox="0 0 152 422" xmlns="http://www.w3.org/2000/svg" xmlns:serif="http://www.serif.com/" fill-rule="evenodd" clip-rule="evenodd" stroke-linecap="square" stroke-miterlimit="1.5">
    <path d="M78.973 1.803a6.978 6.978 0 0 0-6.978 6.978v403.978a6.978 6.978 0 0 0 6.978 6.978h.001a6.978 6.978 0 0 0 6.978-6.978V8.781a6.978 6.978 0 0 0-6.978-6.978h-.001z" fill="url(#a)" stroke="#262626" stroke-width="2"/>
    <g fill="none" stroke="#262626" stroke-width="2">
        <path d="M46.631 296.846h27.573M78.402 296.846a2.1 2.1 0 0 1-4.198 0 2.1 2.1 0 0 1 4.198 0z"/>
    </g>
    <g fill="none" stroke="#262626" stroke-width="2">
        <path d="M131.561 272.085h-50.13M77.233 272.085a2.1 2.1 0 0 1 4.198 0 2.1 2.1 0 0 1-4.198 0z"/>
    </g>
    <g fill="none" stroke="#262626" stroke-width="2">
        <path d="M107.594 226.135H83.089M78.891 226.135a2.1 2.1 0 1 1 4.199 0 2.1 2.1 0 0 1-4.199 0z"/>
    </g>
    <g fill="none" stroke="#262626" stroke-width="2">
        <path d="M121.954 180.866H83.756M79.557 180.866a2.1 2.1 0 0 1 2.099-2.1c1.159 0 2.1.941 2.1 2.1a2.1 2.1 0 0 1-4.199 0z"/>
    </g>
    <g fill="none" stroke="#262626" stroke-width="2">
        <path d="M25.004 233.771h50.13M79.332 233.771a2.1 2.1 0 1 1-4.196-.002 2.1 2.1 0 0 1 4.196.002z"/>
    </g>
    <g fill="none" stroke="#262626" stroke-width="2">
        <path d="M27.994 101.568h50.129M82.322 101.568a2.1 2.1 0 0 1-4.199 0 2.1 2.1 0 0 1 4.199 0z"/>
    </g>
    <g fill="none" stroke="#262626" stroke-width="2">
        <path d="M41.31 144.67h34.714M80.222 144.67a2.1 2.1 0 1 1-4.199 0 2.1 2.1 0 0 1 4.199 0z"/>
    </g>
    <g serif:id="css ico">
        <circle cx="31.49" cy="233.77" r="14.71" fill="#40b1e0"/>
        <clipPath id="b">
            <path d="M31.49 214.18h20.65v42.4H31.49z"/>
        </clipPath>
        <g clip-path="url(#b)">
            <circle cx="31.49" cy="233.77" r="14.71" fill="#2aa9e0"/>
        </g>
        <path d="M24.945 226.768h13.088l-.184 2.588-5.304 2.368h5.102l-.587 7.599-5.397 1.45-5.488-1.45-.33-3.726h2.404l.221 2.037 3.193.606 2.901-.954.183-3.139H25.68l-.239-2.423 5.91-2.662h-6.222l-.184-2.294z" fill="#ebebeb"/>
    </g>
    <g serif:id="rwd ico">
        <ellipse cx="119.52" cy="180.88" rx="13.77" ry="13.79" fill="#6ec9c2"/>
        <clipPath id="c">
            <path d="M119.52 162.52h19.33v39.74h-19.33z"/>
        </clipPath>
        <g clip-path="url(#c)">
            <ellipse cx="119.52" cy="180.88" rx="13.77" ry="13.79" fill="#2ebfb4"/>
        </g>
        <path d="M125.136 181.687h-1.595l1.143 5.241-3.189.958-1.037-6.199h-4.066l.904 6.199-2.923-.958-1.196-13.05h12.676l-.717 7.809zm-1.79-5.252h-7.184v2.488h6.876l.308-2.488z" fill="#fff"/>
    </g>
    <g serif:id="js ico">
        <ellipse cx="39.83" cy="101.57" rx="17.39" ry="17.51" fill="#f0db4f"/>
        <text x="28.33" y="108.23" font-family="'Arial-BoldMT','Arial',sans-serif" font-weight="700" font-size="18.63" fill="#3f3023">
            JS
        </text>
    </g>
    <g serif:id="ps ico">
        <circle cx="126.69" cy="272.08" r="13.57" fill="#31334b"/>
        <path d="M126.868 258.513l.175.003.174.006.174.008.173.01.173.012.172.014.171.016.171.019.17.02.169.023.169.025.168.026.167.029.167.031.166.033.165.035.165.037.163.039.163.041.162.042.162.045.16.047.16.049.159.05.158.053.157.054.157.056.155.058.155.06.153.062.153.063.152.066.15.067.15.069.149.07.148.073.147.074.146.076.144.077.144.079.143.081.141.083.141.084.139.086.138.088.137.089.136.09.135.093.134.094.132.095.132.097.13.098.128.1.128.102.126.103.125.104.124.106.123.108.121.109.12.11.118.112.118.113.115.114.115.116.113.117.112.119.11.12.109.121.107.122.106.124.105.125.103.127.101.127.1.129.099.13.097.131.095.133.094.133.092.135.091.136.089.137.088.139.085.139.085.14.082.142.081.143.079.143.078.145.076.146.074.147.072.148.071.148.069.15.067.151.065.152.064.152.062.154.059.155.058.155.057.156.054.157.052.159.051.158.049.16.046.161.045.161.043.162.041.163.039.164.037.165.035.165.033.166.03.166.029.168.027.168.025.169.022.169.021.17.018.171.017.171.014.172.012.173.01.173.008.173.005.175.003.174.002.176-.002.175-.003.175-.005.174-.008.174-.01.173-.012.172-.014.172-.017.172-.018.17-.021.17-.022.17-.025.168-.027.169-.029.167-.03.167-.033.166-.035.165-.037.164-.039.164-.041.163-.043.162-.045.162-.046.16-.049.16-.051.159-.052.158-.054.157-.057.156-.058.156-.059.154-.062.154-.064.153-.065.151-.067.151-.069.15-.071.149-.072.148-.074.146-.076.146-.078.145-.079.144-.081.142-.082.142-.085.14-.085.14-.088.138-.089.137-.091.136-.092.135-.094.133-.095.133-.097.131-.099.13-.1.129-.101.128-.103.126-.105.125-.106.124-.107.122-.109.122-.11.119-.112.119-.113.117-.115.116-.115.115-.118.113-.118.111-.12.111-.121.108-.123.108-.124.106-.125.104-.126.103-.128.102-.128.1-.13.098-.132.097-.132.096-.134.094-.135.092-.136.091-.137.089-.138.087-.139.086-.141.084-.141.083-.143.081-.144.079-.144.078-.146.076-.147.074-.148.072-.149.071-.15.069-.15.067-.152.065-.153.063-.153.062-.155.06-.155.058-.157.056-.157.055-.158.052-.159.051-.16.048-.16.047-.162.045-.162.043-.163.041-.163.038-.165.037-.165.035-.166.033-.167.031-.167.029-.168.027-.169.024-.169.023-.17.021-.171.018-.171.016-.172.015-.173.012-.173.01-.174.007-.174.006-.175.003-.175.001-.175-.001-.175-.003-.174-.006-.174-.007-.173-.01-.173-.012-.172-.015-.171-.016-.171-.018-.17-.021-.169-.023-.169-.024-.168-.027-.167-.029-.167-.031-.166-.033-.165-.035-.165-.037-.163-.038-.163-.041-.163-.043-.161-.045-.161-.047-.159-.048-.159-.051-.158-.052-.157-.055-.157-.056-.155-.058-.155-.06-.153-.062-.153-.063-.152-.065-.151-.067-.149-.069-.149-.071-.148-.072-.147-.074-.146-.076-.144-.078-.144-.079-.143-.081-.141-.083-.141-.084-.139-.086-.138-.087-.137-.089-.136-.091-.135-.092-.134-.094-.132-.096-.132-.097-.13-.098-.128-.1-.128-.102-.126-.103-.125-.104-.124-.106-.123-.108-.121-.108-.12-.111-.118-.111-.118-.113-.115-.115-.115-.116-.113-.117-.112-.119-.11-.119-.109-.122-.107-.122-.106-.124-.105-.125-.103-.126-.101-.128-.1-.129-.099-.13-.097-.131-.095-.133-.094-.133-.092-.135-.091-.136-.089-.137-.088-.138-.086-.14-.084-.14-.082-.142-.081-.142-.08-.144-.077-.145-.076-.146-.074-.146-.072-.148-.071-.149-.069-.15-.067-.151-.065-.151-.064-.153-.062-.154-.059-.154-.059-.156-.056-.156-.054-.157-.052-.158-.051-.159-.049-.16-.046-.16-.045-.162-.043-.162-.041-.163-.039-.164-.037-.164-.035-.165-.033-.166-.031-.167-.028-.167-.027-.169-.025-.168-.023-.17-.02-.17-.019-.17-.016-.172-.014-.172-.012-.172-.01-.173-.008-.174-.005-.174-.004-.175-.001-.175.001-.176.004-.174.005-.175.008-.173.01-.173.012-.173.014-.172.016-.171.019-.171.02-.17.023-.169.025-.169.027-.168.028-.168.031-.166.033-.166.035-.165.037-.165.039-.164.041-.163.043-.162.045-.161.046-.161.049-.16.051-.158.052-.159.054-.157.056-.156.059-.155.059-.155.062-.154.064-.152.065-.152.067-.151.069-.15.071-.148.072-.148.074-.147.076-.146.077-.145.08-.143.081-.143.082-.142.084-.14.086-.139.088-.139.089-.137.091-.136.092-.135.094-.133.095-.133.097-.131.099-.13.1-.129.101-.127.103-.127.105-.125.106-.124.107-.122.109-.121.11-.12.112-.119.113-.117.115-.116.115-.114.118-.113.118-.112.12-.11.121-.109.123-.108.124-.106.125-.104.126-.103.128-.102.128-.1.13-.098.132-.097.132-.095.134-.094.135-.093.136-.09.137-.089.138-.088.139-.086.141-.084.141-.083.143-.081.144-.079.144-.077.146-.076.147-.074.148-.073.149-.07.149-.069.151-.067.152-.066.153-.063.153-.062.155-.06.155-.058.157-.056.157-.054.158-.053.159-.05.159-.049.161-.047.161-.045.163-.042.163-.041.163-.039.165-.037.165-.035.166-.033.167-.031.167-.029.168-.026.169-.025.169-.023.17-.02.171-.019.171-.016.172-.014.173-.012.173-.01.174-.008.174-.006.175-.003.175-.001.175.001zm-.313 3l-.136.003-.136.004-.137.006-.135.008-.133.009-.135.011-.133.013-.133.014-.132.016-.133.018-.132.019-.13.021-.129.022-.13.024-.131.026-.128.027-.127.029-.128.03-.126.032-.126.033-.126.035-.125.036-.123.038-.124.039-.122.041-.122.042-.123.044-.12.045-.12.047-.12.048-.12.05-.116.05-.117.052-.118.054-.116.055-.114.056-.116.058-.111.058-.112.06-.114.063-.111.063-.11.064-.109.065-.109.067-.108.069-.107.069-.105.071-.106.072-.104.073-.104.075-.102.075-.101.077-.101.078-.098.079-.099.08-.099.083-.096.082-.096.084-.094.084-.094.087-.092.087-.091.088-.091.09-.09.09-.087.091-.087.092-.087.095-.085.095-.084.095-.083.097-.081.097-.08.098-.08.101-.078.1-.076.101-.076.102-.074.104-.074.105-.071.103-.071.107-.07.107-.068.108-.067.109-.065.108-.065.112-.063.111-.061.11-.061.113-.059.115-.057.113-.057.115-.055.117-.053.115-.052.117-.052.12-.049.118-.048.118-.047.123-.045.12-.043.12-.042.122-.041.124-.04.124-.037.123-.036.124-.036.127-.033.126-.032.126-.03.127-.029.129-.027.128-.025.129-.024.129-.023.131-.021.131-.019.13-.017.132-.016.133-.015.133-.013.134-.011.134-.009.134-.008.136-.006.135-.004.136-.003.137-.001.138.001.137.003.137.004.136.006.135.008.136.009.134.011.134.013.134.015.133.016.133.017.132.019.13.021.132.023.13.024.129.025.129.027.128.029.129.03.127.032.126.033.126.036.127.036.124.037.124.04.124.041.123.042.122.043.12.045.121.047.122.048.119.049.118.052.119.052.117.053.115.055.117.057.116.057.113.059.114.061.113.061.111.063.111.065.111.065.108.067.109.068.108.07.107.071.107.071.103.074.106.074.103.076.102.076.101.078.101.08.1.08.098.081.097.083.097.084.096.085.094.087.095.087.092.087.091.09.091.091.089.091.088.092.088.094.086.094.084.096.084.096.083.099.082.099.081.098.078.101.078.101.077.102.075.104.075.104.073.106.073.105.07.107.069.108.069.109.067.11.066.109.063.11.063.115.063.112.06.111.058.116.058.114.056.116.055.118.055.117.052.116.05.12.05.12.048.12.046.122.046.121.043.12.042.124.041.124.039.123.038.125.036.126.035.126.034.126.031.128.03.127.029.128.027.131.026.13.024.129.022.13.021.132.019.133.018.132.016.133.015.133.012.135.011.133.01.135.007.137.006.136.005.136.002.138.001.137-.001.137-.002.136-.005.137-.006.134-.007.134-.01.135-.011.133-.012.133-.015.132-.016.133-.018.132-.019.13-.021.129-.022.13-.024.131-.026.128-.027.127-.029.128-.03.125-.031.126-.034.127-.035.125-.036.123-.038.124-.039.123-.041.121-.042.122-.044.121-.045.12-.046.12-.048.119-.05.117-.05.117-.053.118-.054.115-.054.116-.057.115-.058.11-.058.113-.06.115-.063.111-.063.108-.063.11-.066.109-.067.108-.069.106-.069.106-.07.106-.073.105-.074.102-.073.102-.076.102-.077.1-.078.1-.079.098-.08.099-.082.097-.083.094-.083.095-.085.094-.087.092-.086.09-.088.093-.091.089-.09.087-.091.088-.093.085-.093.086-.095.084-.096.082-.096.082-.098.08-.099.08-.099.078-.101.076-.101.076-.102.074-.103.074-.105.072-.105.07-.106.07-.107.068-.108.067-.108.065-.109.065-.111.063-.111.061-.111.061-.113.059-.114.058-.114.056-.115.055-.116.054-.118.052-.116.05-.117.05-.119.048-.12.046-.12.045-.12.044-.122.043-.124.041-.123.038-.121.038-.125.037-.125.034-.124.034-.127.032-.128.03-.126.028-.127.028-.13.025-.129.024-.129.023-.13.021-.132.019-.13.017-.133.016-.132.015-.133.013-.134.01-.133.01-.136.008-.135.006-.135.004-.136.003-.137.001-.137-.001-.138-.003-.137-.004-.136-.006-.135-.008-.134-.01-.137-.01-.133-.013-.134-.015-.133-.016-.132-.017-.133-.019-.13-.021-.131-.023-.131-.024-.129-.025-.129-.028-.13-.028-.127-.03-.126-.032-.128-.034-.127-.034-.123-.037-.126-.038-.125-.038-.121-.041-.123-.043-.124-.044-.122-.045-.12-.046-.119-.048-.12-.05-.119-.05-.117-.052-.118-.054-.117-.055-.116-.056-.114-.058-.114-.059-.115-.061-.113-.061-.11-.063-.111-.065-.112-.065-.109-.067-.108-.068-.108-.07-.107-.07-.105-.072-.106-.074-.104-.074-.104-.076-.102-.076-.101-.078-.1-.08-.1-.08-.099-.082-.098-.082-.096-.084-.095-.086-.096-.085-.093-.088-.093-.087-.091-.089-.09-.093-.091-.09-.088-.092-.085-.094-.088-.095-.085-.094-.082-.097-.083-.099-.083-.098-.08-.1-.079-.1-.078-.102-.077-.102-.076-.102-.073-.105-.073-.106-.073-.106-.071-.106-.069-.108-.069-.109-.067-.108-.065-.11-.063-.112-.064-.114-.063-.113-.06-.11-.058-.115-.058-.116-.056-.115-.055-.118-.054-.117-.052-.117-.051-.119-.049-.12-.048-.12-.047-.12-.045-.123-.044-.122-.042-.122-.04-.124-.04-.123-.038-.125-.036-.127-.035-.126-.033-.125-.032-.128-.03-.127-.029-.128-.027-.131-.026-.13-.024-.129-.022-.13-.021-.132-.019-.133-.018-.132-.016-.133-.014-.133-.013-.135-.011-.134-.009-.134-.008-.137-.006-.136-.004-.137-.003-.137-.001-.138.001z" fill="#31c5f0"/>
        <text x="117.69" y="277.17" font-family="'Arial-BoldMT','Arial',sans-serif" font-weight="700" font-size="14.44" fill="#31c5f0">
            Ps
        </text>
    </g>
    <g serif:id="affinity ico">
        <circle cx="46.49" cy="296.85" r="16.67" fill="#3554fe"/>
        <path d="M46.708 280.175l.215.004.214.007.214.009.212.013.212.014.211.018.211.02.209.023.209.025.209.028.207.03.206.033.206.035.205.038.203.041.203.043.203.045.201.048.2.05.199.053.198.055.198.057.196.06.195.062.194.064.193.067.192.069.191.071.19.074.189.076.187.078.187.08.185.083.184.084.183.087.181.089.181.091.179.093.178.095.176.098.175.099.174.101.173.104.171.105.17.108.168.109.167.112.166.113.164.115.163.118.161.119.16.121.158.123.157.124.155.127.154.128.152.131.15.131.149.134.147.136.146.137.144.139.142.14.141.143.139.144.137.145.135.148.134.148.132.151.13.152.129.154.126.155.125.157.123.158.121.16.119.161.117.163.115.164.114.165.111.167.11.169.107.17.106.171.103.172.102.174.099.175.097.177.096.178.093.179.091.18.089.182.086.183.085.184.082.185.081.186.078.188.076.189.073.189.071.191.069.192.067.193.065.195.062.195.059.196.058.197.055.198.053.2.05.2.048.201.045.202.043.203.04.204.038.205.036.205.033.207.03.207.028.208.025.209.023.21.02.21.017.211.015.212.012.213.01.213.006.214.004.215.002.215-.002.216-.004.214-.006.215-.01.213-.012.213-.015.211-.017.212-.02.21-.023.21-.025.209-.028.208-.03.207-.033.207-.036.205-.038.205-.04.204-.043.203-.045.202-.048.201-.05.2-.053.199-.055.199-.058.197-.059.196-.062.195-.065.194-.067.194-.069.192-.071.191-.073.189-.076.189-.078.188-.081.186-.082.185-.085.184-.086.183-.089.182-.091.18-.093.179-.096.178-.097.176-.099.176-.102.174-.103.172-.106.171-.107.17-.11.169-.111.167-.114.165-.115.164-.117.163-.119.161-.121.16-.123.158-.125.157-.126.155-.129.154-.13.152-.132.15-.134.149-.135.148-.137.145-.139.144-.141.142-.142.141-.144.139-.146.137-.147.136-.149.133-.15.132-.152.131-.154.128-.155.126-.157.125-.158.123-.16.121-.161.119-.163.117-.164.116-.166.113-.167.111-.168.11-.17.107-.171.106-.173.103-.174.102-.175.099-.176.098-.178.095-.179.093-.181.091-.181.089-.183.087-.184.084-.185.083-.187.08-.187.078-.189.076-.19.073-.191.072-.192.069-.193.066-.194.065-.195.062-.196.06-.198.057-.198.055-.199.053-.2.05-.201.048-.203.045-.203.043-.203.041-.205.037-.206.036-.206.033-.207.03-.209.028-.209.025-.209.023-.211.02-.211.017-.212.015-.212.012-.214.01-.214.007-.215.004-.215.001-.215-.001-.215-.004-.214-.007-.213-.01-.213-.012-.212-.015-.211-.017-.211-.02-.209-.023-.209-.025-.208-.028-.208-.03-.206-.033-.206-.036-.204-.037-.204-.041-.203-.043-.202-.045-.201-.048-.201-.05-.199-.053-.198-.055-.197-.057-.197-.06-.195-.062-.194-.065-.193-.066-.192-.069-.191-.072-.19-.073-.188-.076-.188-.078-.186-.08-.186-.083-.184-.084-.182-.087-.182-.089-.18-.091-.18-.093-.177-.095-.177-.098-.175-.099-.174-.102-.173-.103-.171-.106-.17-.107-.168-.11-.167-.111-.166-.113-.164-.116-.162-.117-.162-.119-.159-.121-.159-.123-.156-.125-.156-.126-.153-.128-.152-.131-.151-.132-.149-.133-.147-.136-.146-.137-.144-.139-.142-.141-.141-.142-.138-.144-.138-.145-.135-.148-.134-.149-.132-.15-.13-.152-.128-.154-.127-.155-.125-.157-.122-.158-.121-.16-.12-.161-.117-.163-.115-.164-.113-.165-.112-.167-.109-.169-.108-.17-.105-.171-.104-.172-.101-.174-.1-.176-.097-.176-.095-.178-.093-.179-.091-.18-.089-.182-.087-.183-.085-.184-.082-.185-.08-.186-.078-.188-.076-.189-.074-.189-.071-.191-.069-.192-.067-.194-.064-.194-.062-.195-.06-.196-.058-.197-.055-.199-.052-.199-.05-.2-.048-.201-.046-.202-.043-.203-.04-.204-.038-.205-.035-.205-.033-.207-.031-.207-.027-.208-.026-.209-.022-.21-.02-.21-.018-.212-.015-.211-.012-.213-.009-.213-.007-.215-.004-.214-.002-.216.002-.215.004-.215.007-.214.009-.213.012-.213.015-.212.018-.211.02-.21.022-.21.026-.209.027-.208.031-.207.033-.207.035-.205.038-.205.04-.204.043-.203.046-.202.048-.201.05-.2.052-.2.055-.198.058-.197.06-.196.062-.195.064-.195.067-.193.069-.192.071-.191.074-.189.076-.189.078-.188.08-.186.082-.185.085-.184.087-.183.089-.182.091-.18.093-.179.095-.178.097-.177.1-.175.101-.174.104-.172.105-.171.108-.17.109-.169.112-.167.113-.165.115-.164.117-.163.12-.161.121-.16.122-.158.125-.157.127-.155.128-.154.13-.152.132-.151.134-.148.135-.148.138-.145.138-.144.141-.143.142-.14.144-.139.146-.137.147-.136.149-.134.151-.131.152-.131.153-.128.156-.127.156-.124.159-.123.159-.121.162-.119.162-.118.164-.115.166-.113.167-.112.168-.109.17-.108.171-.105.173-.104.174-.101.175-.099.177-.098.177-.095.18-.093.18-.091.182-.089.182-.087.184-.084.186-.083.186-.08.188-.078.188-.076.19-.074.191-.071.192-.069.193-.067.194-.064.195-.062.197-.06.197-.057.198-.055.199-.053.201-.05.201-.048.202-.045.203-.043.204-.041.204-.038.206-.035.206-.033.208-.03.208-.028.209-.025.209-.023.211-.02.211-.018.212-.014.213-.013.213-.009.214-.007.215-.004.215-.001.215.001zm-.392 3l-.177.003-.176.006-.176.008-.174.01-.173.012-.174.014-.173.017-.172.018-.172.021-.17.023-.17.025-.169.027-.168.028-.168.032-.168.033-.165.035-.166.037-.165.039-.163.041-.163.043-.163.046-.162.046-.16.049-.16.051-.158.053-.158.055-.158.056-.156.058-.155.061-.155.062-.154.064-.152.065-.152.068-.151.069-.15.071-.149.073-.148.075-.145.076-.146.078-.145.08-.144.082-.143.083-.141.085-.141.086-.139.088-.138.09-.137.091-.136.094-.135.094-.133.096-.133.098-.13.099-.13.101-.13.103-.127.103-.126.106-.125.107-.124.109-.122.109-.121.111-.119.113-.118.114-.118.116-.115.117-.114.118-.113.119-.111.121-.11.123-.108.123-.107.125-.106.127-.103.126-.103.129-.101.131-.099.131-.098.132-.096.133-.094.135-.094.137-.091.136-.09.138-.088.14-.087.14-.084.141-.084.143-.081.144-.08.144-.078.146-.077.147-.074.148-.073.149-.071.149-.069.151-.068.152-.066.153-.064.154-.062.154-.06.155-.058.156-.057.158-.055.158-.052.159-.051.16-.049.16-.047.161-.045.163-.043.164-.041.162-.039.165-.037.166-.035.166-.034.167-.031.168-.029.168-.027.169-.025.171-.022.17-.021.171-.019.172-.016.172-.014.174-.013.175-.01.174-.007.175-.006.176-.003.177-.001.177.001.178.003.177.006.175.007.175.01.175.013.175.014.174.016.172.019.171.021.172.022.17.025.171.027.169.029.167.031.169.034.167.035.166.037.165.039.165.041.163.043.164.045.163.047.161.049.16.051.16.052.159.055.158.057.158.058.156.06.155.062.154.064.154.066.153.068.152.069.151.071.149.073.149.074.147.077.147.078.147.08.144.081.144.084.143.084.141.087.14.088.139.09.138.091.137.094.137.094.135.096.133.098.132.099.131.101.13.103.129.103.127.106.127.107.125.108.123.11.122.111.121.113.12.114.118.115.117.118.116.118.114.119.112.121.112.122.109.124.109.125.107.126.105.127.104.13.103.13.101.13.098.133.098.133.097.135.094.136.094.137.091.138.09.139.088.141.086.142.085.142.083.143.082.146.08.146.078.145.076.148.075.149.073.15.07.151.07.152.068.152.065.154.064.155.062.155.06.156.059.158.056.157.055.159.053.16.051.16.048.162.047.163.046.163.043.163.041.165.039.166.037.165.035.168.033.168.031.168.029.169.027.17.025.17.023.172.021.172.018.173.017.174.014.173.012.174.01.176.008.176.006.177.003.177.001.177-.001.177-.003.176-.006.176-.008.175-.01.173-.012.173-.014.173-.017.172-.018.172-.021.171-.023.169-.025.169-.027.168-.029.168-.031.168-.033.166-.035.165-.037.165-.039.164-.041.162-.043.163-.046.162-.047.16-.048.16-.051.159-.053.158-.055.157-.056.157-.059.154-.06.156-.062.154-.064.151-.065.152-.068.151-.07.15-.07.149-.073.148-.075.146-.076.146-.078.145-.08.143-.082.143-.083.142-.085.14-.086.139-.088.138-.09.137-.091.137-.094.134-.094.134-.097.132-.098.131-.098.13-.102.129-.102.127-.103.126-.106.126-.107.123-.109.122-.109.121-.111.12-.113.118-.114.117-.116.115-.117.115-.118.112-.12.111-.121.11-.122.108-.123.107-.125.106-.127.104-.127.102-.129.101-.13.099-.13.098-.133.097-.134.094-.135.093-.135.091-.137.09-.139.089-.139.086-.14.085-.142.083-.142.082-.144.08-.145.077-.146.077-.146.074-.148.074-.15.071-.149.069-.15.067-.152.066-.153.064-.153.062-.154.06-.156.059-.157.056-.157.055-.158.052-.159.051-.16.049-.161.047-.161.045-.162.043-.163.041-.164.039-.165.038-.166.035-.166.033-.166.031-.168.029-.168.027-.169.025-.17.023-.171.02-.172.019-.171.016-.173.015-.174.012-.173.01-.175.008-.176.005-.176.004-.177.001-.177-.001-.176-.004-.177-.005-.177-.008-.175-.01-.175-.012-.173-.015-.174-.016-.173-.019-.172-.02-.171-.023-.171-.025-.17-.027-.169-.029-.168-.031-.168-.033-.167-.035-.165-.038-.167-.039-.165-.041-.163-.043-.163-.045-.162-.047-.161-.049-.161-.051-.16-.052-.16-.055-.157-.056-.157-.059-.157-.06-.156-.062-.154-.064-.153-.066-.153-.067-.152-.069-.15-.071-.15-.074-.149-.074-.148-.077-.147-.077-.145-.08-.145-.082-.144-.083-.142-.085-.142-.086-.14-.089-.14-.09-.138-.091-.137-.093-.136-.094-.134-.097-.134-.098-.133-.099-.13-.101-.13-.102-.129-.104-.127-.106-.127-.107-.125-.108-.123-.11-.123-.111-.121-.112-.119-.115-.119-.115-.116-.117-.116-.118-.114-.12-.113-.121-.111-.122-.109-.123-.109-.126-.107-.126-.106-.127-.103-.129-.103-.13-.101-.131-.099-.132-.098-.134-.096-.134-.094-.137-.094-.137-.091-.138-.09-.139-.088-.14-.086-.142-.085-.143-.083-.144-.082-.144-.08-.146-.078-.146-.076-.148-.075-.149-.073-.15-.071-.151-.069-.152-.068-.151-.065-.154-.064-.156-.063-.154-.06-.156-.058-.158-.056-.159-.055-.158-.053-.16-.051-.16-.049-.161-.046-.164-.046-.163-.043-.163-.041-.165-.039-.165-.037-.166-.035-.168-.033-.168-.032-.168-.028-.169-.027-.169-.025-.171-.023-.172-.021-.172-.018-.173-.017-.173-.014-.173-.012-.175-.01-.176-.008-.176-.006-.176-.003-.178-.001-.177.001z" fill="#6bc7ff"/>
        <path d="M47.386 288.018l.21.496h.874l7.716 13.184-1.727 2.736H47.79l.68 1.241h-.291l-.712-1.241h-8.271l-.373-.761h-.582l-1.441-2.606 1.878-3.351 1.877-1.052 2.962-5.115-.631-1.013 1.457-2.518h3.043zm-6.465 13.68h5.018l-.546-.973h5.402l-4.654-8.154-5.22 9.127z" fill="#6bc7ff"/>
    </g>
    <g serif:id="webpack ico">
        <path d="M95.861 219.173l4.546 2.475-.253.146v8.78l.228.131-4.475 2.373a13.658 13.658 0 0 1-1.912-6.993c0-2.519.679-4.882 1.866-6.912zM119.672 219.202a13.643 13.643 0 0 1 1.85 6.883c0 2.549-.695 4.937-1.906 6.981l-4.474-2.365.22-.127v-8.78l-.233-.135 4.543-2.457z" fill="#adc8f2"/>
        <path d="M107.754 225.648l7.375-3.989.233.135v8.78l-.22.127-7.388-3.904v-.001l-7.372 3.909-.228-.131v-8.78l.253-.146 7.347 4z" fill="#6f95db"/>
        <path d="M100.382 230.705l7.376 4.259 7.384-4.263 4.474 2.365c-2.394 4.06-6.81 6.783-11.858 6.783-5.042 0-9.455-2.718-11.851-6.771l4.475-2.373zM95.861 219.173c2.383-4.097 6.821-6.851 11.897-6.851a13.75 13.75 0 0 1 11.914 6.88l-4.543 2.457-7.371-4.255-7.351 4.244 7.347 4-11.893-6.475z" fill="#adc8f2"/>
        <path d="M107.754 226.797l7.388 3.904-7.384 4.263-7.376-4.259 7.372-3.909v.001zM115.129 221.659l-7.375 3.989-7.347-4 7.351-4.244 7.371 4.255z" fill="#7ea0df"/>
    </g>
    <g serif:id="node ico">
        <circle cx="41.89" cy="144.67" r="13.19" fill="#a0d672"/>
        <path d="M45.415 139.898a.118.118 0 0 0-.055.014.112.112 0 0 0-.054.095v2.785a.075.075 0 0 1-.037.066.079.079 0 0 1-.076 0l-.455-.263a.22.22 0 0 0-.219 0l-1.816 1.049a.223.223 0 0 0-.11.193v2.097c0 .078.042.15.11.189l1.816 1.048c.068.04.151.04.219 0l1.816-1.048a.217.217 0 0 0 .109-.189v-5.228a.222.222 0 0 0-.112-.193l-1.082-.604a.101.101 0 0 0-.054-.011zm-11.686 2.617a.21.21 0 0 0-.098.026l-1.817 1.048a.218.218 0 0 0-.109.19l.004 2.814c0 .039.02.075.054.094.034.02.076.02.109 0l1.078-.619a.222.222 0 0 0 .113-.189v-1.314c0-.079.041-.15.109-.189l.459-.266a.212.212 0 0 1 .109-.029c.037 0 .076.009.109.029l.459.266c.068.039.109.11.109.189v1.314c0 .078.045.149.113.189l1.077.619a.109.109 0 1 0 .164-.094l.004-2.814a.218.218 0 0 0-.109-.19l-1.817-1.048a.21.21 0 0 0-.098-.026h-.022zm16.324.026a.218.218 0 0 0-.11.029l-1.816 1.048a.219.219 0 0 0-.109.19v2.097c0 .078.044.15.113.189l1.802 1.026a.218.218 0 0 0 .214.004l1.092-.608a.11.11 0 0 0 .059-.095.108.108 0 0 0-.055-.094l-1.827-1.049a.116.116 0 0 1-.059-.098v-.655c0-.039.025-.075.059-.095l.567-.328a.113.113 0 0 1 .11 0l.568.328a.11.11 0 0 1 .054.095v.517c0 .039.021.075.055.094.034.02.075.02.109 0l1.089-.633a.22.22 0 0 0 .109-.189v-.506a.22.22 0 0 0-.109-.19l-1.806-1.048a.212.212 0 0 0-.109-.029zm-5.432 1.565c.01 0 .021.003.029.007l.623.361c.017.01.029.028.029.047v.721c0 .02-.012.038-.029.047l-.623.361a.057.057 0 0 1-.054 0l-.623-.361a.055.055 0 0 1-.029-.047v-.721c0-.019.012-.037.029-.047l.623-.361a.055.055 0 0 1 .025-.007z" fill="#404137"/>
        <path d="M39.186 142.53a.212.212 0 0 0-.109.029l-1.817 1.045a.222.222 0 0 0-.109.193v2.097c0 .078.041.15.109.189l1.817 1.048c.068.04.15.04.218 0l1.817-1.048a.217.217 0 0 0 .109-.189v-2.097a.222.222 0 0 0-.109-.193l-1.817-1.045a.212.212 0 0 0-.109-.029zm10.863 1.871c-.007 0-.015 0-.022.004l-.349.204a.042.042 0 0 0-.022.036v.4c0 .015.009.029.022.037l.349.2a.036.036 0 0 0 .04 0l.35-.2a.045.045 0 0 0 .022-.037v-.4a.042.042 0 0 0-.022-.036l-.35-.204c-.006-.004-.011-.004-.018-.004z" fill="#6dab21"/>
    </g>
    <g fill="none" stroke="#262626" stroke-width="2">
        <path d="M130.631 369.643H80.502M76.303 369.643a2.1 2.1 0 0 1 2.099-2.1c1.159 0 2.1.941 2.1 2.1a2.1 2.1 0 0 1-4.199 0z"/>
    </g>
    <g fill="none" stroke="#262626" stroke-width="2">
        <path d="M24.645 334.236h50.13M78.973 334.236a2.1 2.1 0 1 1-4.2-.002 2.1 2.1 0 0 1 4.2.002z"/>
    </g>
    <g fill="none" stroke="#262626" stroke-width="2">
        <path d="M26.174 56.161h50.129M80.502 56.161a2.1 2.1 0 1 1-2.1-2.1c1.159 0 2.1.941 2.1 2.1z"/>
    </g>
    <g fill="none" stroke="#262626" stroke-width="2">
        <path d="M49.492 19.48h28.577M82.268 19.48a2.1 2.1 0 0 1-4.199 0 2.1 2.1 0 0 1 4.199 0z"/>
    </g>
    <g fill="none" stroke="#262626" stroke-width="2">
        <path d="M134.55 46.512H84.421M80.222 46.512a2.1 2.1 0 0 1 4.199 0 2.1 2.1 0 0 1-4.199 0z"/>
    </g>
    <g serif:id="Sass ico">
        <circle cx="135.72" cy="369.22" r="15.92" fill="#de5078"/>
        <clipPath id="d">
            <path d="M125.61 361.63h20.21v15.16h-20.21z"/>
        </clipPath>
        <g clip-path="url(#d)">
            <path d="M143.003 370.345a4.158 4.158 0 0 0-1.831.426c-.19-.375-.38-.703-.411-.947-.036-.285-.079-.458-.036-.798.044-.339.241-.821.241-.861-.004-.035-.043-.209-.45-.213-.406-.004-.758.079-.797.186a4.36 4.36 0 0 0-.17.604c-.071.371-.813 1.686-1.236 2.377-.138-.269-.257-.506-.28-.695-.036-.285-.079-.458-.036-.798.044-.339.241-.821.241-.861-.004-.035-.043-.209-.45-.213-.407-.004-.758.079-.797.186-.04.106-.083.359-.17.604-.083.245-1.07 2.44-1.327 3.012-.13.292-.245.525-.328.683-.082.158-.003.012-.011.028l-.111.209v.004c-.055.099-.114.194-.142.194-.02 0-.059-.265.008-.628.146-.762.501-1.95.497-1.994 0-.02.067-.229-.229-.335-.288-.107-.391.071-.414.071-.024 0-.044.063-.044.063s.32-1.339-.612-1.339c-.584 0-1.389.636-1.788 1.216-.253.139-.79.431-1.358.743-.217.118-.442.244-.656.359l-.043-.048c-1.129-1.204-3.218-2.056-3.131-3.675.032-.588.237-2.14 4.011-4.019 3.092-1.54 5.567-1.118 5.997-.178.612 1.342-1.322 3.838-4.536 4.197-1.224.138-1.867-.336-2.029-.513-.17-.186-.194-.194-.257-.158-.102.055-.039.221 0 .319.095.249.49.691 1.161.912.588.194 2.025.3 3.763-.371 1.946-.754 3.466-2.846 3.02-4.595-.454-1.781-3.407-2.365-6.199-1.374-1.662.592-3.462 1.516-4.757 2.728-1.54 1.437-1.785 2.693-1.682 3.214.359 1.859 2.921 3.071 3.948 3.967l-.142.079c-.513.253-2.468 1.276-2.957 2.357-.553 1.224.087 2.105.513 2.223 1.319.367 2.669-.292 3.399-1.378.727-1.085.64-2.495.304-3.138l-.012-.024.403-.237c.261-.154.517-.296.742-.418-.126.343-.217.75-.264 1.342-.055.695.229 1.595.604 1.95.166.154.363.158.486.158.434 0 .631-.359.848-.789.269-.526.506-1.134.506-1.134s-.296 1.647.513 1.647c.296 0 .592-.383.726-.581v.004s.008-.011.024-.039a1.57 1.57 0 0 0 .048-.075v-.008c.118-.205.382-.675.777-1.453.51-1.003.999-2.258.999-2.258s.048.308.194.813c.086.3.276.628.422.948-.118.165-.189.26-.189.26l.003.004a10.22 10.22 0 0 1-.311.395c-.403.482-.885 1.031-.948 1.188-.075.186-.059.324.087.435.107.079.296.094.497.079.364-.024.616-.115.743-.17a2.57 2.57 0 0 0 .639-.336c.395-.292.636-.706.612-1.259-.012-.304-.11-.604-.233-.888a16.577 16.577 0 0 0 1.212-2.073s.048.308.194.813c.075.257.225.537.359.813-.584.478-.951 1.031-1.078 1.394-.233.671-.051.975.292 1.046.154.032.375-.039.541-.11.206-.067.454-.182.683-.352.395-.292.774-.698.754-1.247a2.38 2.38 0 0 0-.169-.738c.497-.206 1.141-.324 1.958-.225 1.757.205 2.104 1.302 2.037 1.76-.067.458-.434.711-.557.79-.122.075-.161.103-.15.158.016.083.071.079.178.063.146-.024.924-.375.955-1.22.048-1.086-.983-2.27-2.811-2.258zm-13.549 4.568c-.581.635-1.398.876-1.746.671-.375-.217-.229-1.153.486-1.828.434-.411.999-.79 1.37-1.023l.359-.217c.024-.016.04-.024.04-.024.027-.015.059-.035.091-.055.264.964.012 1.808-.6 2.476zm4.244-2.886c-.202.493-.628 1.76-.885 1.689-.221-.059-.355-1.018-.043-1.966.158-.478.493-1.046.691-1.267.32-.355.667-.474.754-.328.103.19-.391 1.564-.517 1.872zm3.502 1.674c-.087.043-.166.075-.202.051-.027-.016.036-.075.036-.075s.438-.47.612-.687c.099-.126.217-.272.343-.438v.047c0 .569-.544.948-.789 1.102zm2.7-.616c-.063-.048-.055-.194.158-.652.083-.181.273-.485.6-.774.04.119.063.233.059.34-.003.711-.509.975-.817 1.086z" fill="#fff" fill-rule="nonzero"/>
        </g>
    </g>
    <g serif:id="html5 ico">
        <circle cx="22.33" cy="56.16" r="22.33" fill="#f47944"/>
        <clipPath id="e">
            <path d="M22.33 26.42h31.34v64.37H22.33z"/>
        </clipPath>
        <g clip-path="url(#e)">
            <circle cx="22.33" cy="56.16" r="22.33" fill="#f16529"/>
        </g>
        <path d="M31.581 49.049l.385-3.844H12.691l.988 11.642h13.234l-.384 4.997-4.321 1.154-4.191-1.154-.384-3.13h-3.954l.604 6.096 7.925 2.306 7.836-2.306 1.153-11.807H17.249l-.51-3.954h14.842z" fill="#ebebeb"/>
    </g>
    <g serif:id="bootstrap ico">
        <circle cx="31.13" cy="334.24" r="10.9" fill="#9353be"/>
        <text x="26.02" y="339.14" font-family="'Arial-BoldMT','Arial',sans-serif" font-weight="700" font-size="13.71" fill="#fff">
            B
        </text>
    </g>
    <g serif:id="ai ico">
        <circle cx="127.53" cy="46.51" r="19.78" fill="#3f3023"/>
        <path d="M127.663 26.732l.127.001.128.002.127.003.127.004.127.004.127.005.126.006.126.007.126.008.126.008.126.009.125.01.125.011.125.011.125.013.125.013.124.014.124.014.124.016.123.016.124.017.123.017.123.019.122.019.122.02.123.02.121.022.122.022.121.023.121.023.121.025.121.025.12.026.12.026.12.027.119.028.119.029.119.03.119.03.118.031.118.031.118.032.117.033.118.034.116.035.117.035.116.035.116.037.116.037.115.038.115.039.229.079.228.082.227.084.225.087.224.09.222.093.221.095.22.098.218.1.217.103.216.106.214.108.212.11.211.113.21.116.207.118.207.12.205.123.203.125.201.128.2.129.198.133.197.134.194.137.193.139.192.141.189.144.188.146.186.148.184.15.182.152.181.155.178.156.177.159.175.16.172.163.171.165.169.167.167.169.165.17.162.173.161.175.159.177.156.178.155.181.152.182.15.184.148.186.146.188.144.189.141.191.139.194.137.194.134.197.132.198.13.2.128.201.125.203.123.205.12.206.118.208.115.21.114.211.11.212.108.214.106.216.103.216.1.219.098.22.095.221.092.222.09.224.088.225.084.227.082.228.079.229.039.115.038.115.037.116.036.116.036.116.035.116.035.117.033.117.033.118.033.118.031.118.031.118.03.119.03.119.028.119.028.119.028.12.026.12.026.12.025.121.025.12.023.122.023.121.022.121.022.122.02.122.02.123.019.122.019.123.017.123.017.124.016.123.016.124.014.124.014.124.013.125.012.125.012.124.011.126.01.125.009.126.008.125.008.127.007.126.006.126.005.127.004.127.004.127.003.127.002.128.001.127v.256l-.001.128-.002.127-.003.127-.004.127-.004.127-.005.127-.006.126-.007.127-.008.126-.008.125-.009.126-.01.125-.011.126-.012.125-.012.124-.013.125-.014.124-.014.124-.016.124-.016.123-.017.124-.017.123-.019.123-.019.122-.02.123-.02.122-.022.122-.022.121-.023.122-.023.121-.025.12-.025.121-.026.12-.026.12-.028.12-.028.119-.028.12-.03.118-.03.119-.031.118-.031.118-.033.118-.033.118-.033.117-.035.117-.035.116-.036.116-.036.116-.037.116-.038.115-.039.115-.079.229-.082.228-.084.227-.088.225-.09.224-.092.222-.095.222-.098.219-.1.219-.103.217-.106.215-.108.214-.11.212-.114.211-.115.21-.118.208-.12.206-.123.205-.125.203-.128.201-.13.2-.132.198-.134.197-.137.195-.139.193-.141.191-.144.189-.146.188-.148.186-.15.184-.152.183-.155.18-.156.178-.159.177-.161.175-.162.173-.165.17-.167.169-.169.167-.171.165-.172.163-.175.16-.177.159-.178.157-.181.154-.182.152-.184.15-.186.148-.188.146-.189.144-.192.141-.193.139-.194.137-.197.134-.198.133-.2.129-.201.128-.203.125-.205.123-.207.12-.207.118-.21.116-.211.113-.212.11-.214.108-.216.106-.217.103-.218.1-.22.098-.221.095-.222.093-.224.09-.225.087-.227.084-.228.082-.229.08-.115.038-.115.038-.116.037-.116.037-.116.035-.117.036-.116.034-.118.034-.117.033-.118.032-.118.031-.118.031-.119.031-.119.029-.119.029-.119.028-.12.027-.12.026-.12.026-.121.025-.121.025-.121.023-.121.023-.122.022-.121.022-.123.02-.122.02-.122.019-.123.019-.123.017-.124.017-.123.017-.124.015-.124.014-.124.014-.125.013-.125.013-.125.011-.125.011-.125.01-.126.009-.126.008-.126.008-.126.007-.126.006-.127.005-.127.004-.127.004-.127.003-.128.002-.127.001-.128.001-.128-.001-.128-.001-.127-.002-.127-.003-.127-.004-.127-.004-.127-.005-.126-.006-.127-.007-.126-.008-.126-.008-.125-.009-.126-.01-.125-.011-.125-.011-.124-.013-.125-.013-.124-.014-.124-.014-.124-.015-.124-.017-.123-.017-.123-.017-.123-.019-.122-.019-.123-.02-.122-.02-.122-.022-.121-.022-.122-.023-.121-.023-.121-.025-.12-.025-.12-.026-.12-.026-.12-.027-.119-.028-.12-.029-.119-.029-.118-.031-.118-.031-.119-.031-.117-.032-.118-.033-.117-.034-.117-.034-.116-.036-.117-.035-.116-.037-.115-.037-.115-.038-.116-.038-.229-.08-.227-.082-.227-.084-.225-.087-.224-.09-.223-.093-.221-.095-.219-.098-.219-.1-.217-.103-.215-.106-.214-.108-.213-.11-.21-.113-.21-.116-.208-.118-.206-.12-.205-.123-.203-.125-.201-.128-.2-.129-.198-.133-.197-.134-.195-.137-.193-.139-.191-.141-.19-.144-.187-.146-.186-.148-.184-.15-.183-.152-.18-.154-.179-.157-.176-.159-.175-.16-.173-.163-.171-.165-.168-.167-.167-.169-.165-.17-.163-.173-.16-.175-.159-.177-.157-.178-.154-.18-.152-.183-.151-.184-.148-.186-.145-.188-.144-.189-.141-.191-.139-.193-.137-.195-.135-.197-.132-.198-.13-.2-.127-.201-.125-.203-.123-.205-.12-.206-.118-.208-.116-.21-.113-.211-.11-.212-.108-.214-.106-.215-.103-.217-.1-.219-.098-.219-.095-.222-.093-.222-.09-.224-.087-.225-.085-.227-.081-.228-.08-.229-.038-.115-.038-.115-.037-.116-.037-.116-.036-.116-.035-.116-.034-.117-.034-.117-.033-.118-.032-.118-.032-.118-.03-.118-.031-.119-.029-.118-.029-.12-.028-.119-.027-.12-.027-.12-.025-.12-.025-.121-.025-.12-.023-.121-.023-.122-.022-.121-.022-.122-.021-.122-.019-.123-.02-.122-.018-.123-.018-.123-.016-.124-.017-.123-.015-.124-.015-.124-.013-.124-.013-.125-.013-.124-.011-.125-.011-.126-.01-.125-.009-.126-.009-.125-.007-.126-.007-.127-.006-.126-.005-.127-.005-.127-.003-.127-.003-.127-.002-.127-.001-.128-.001-.128.001-.128.001-.127.002-.128.003-.127.003-.127.005-.127.005-.127.006-.126.007-.126.007-.127.009-.125.009-.126.01-.125.011-.126.011-.124.013-.125.013-.125.013-.124.015-.124.015-.124.017-.123.016-.124.018-.123.018-.123.02-.122.019-.123.021-.122.022-.122.022-.121.023-.121.023-.122.025-.12.025-.121.025-.12.027-.12.027-.12.028-.119.029-.119.029-.119.031-.119.03-.118.032-.118.032-.118.033-.118.034-.117.034-.117.035-.116.036-.116.037-.116.037-.116.038-.115.038-.115.08-.229.081-.228.085-.227.087-.225.09-.224.093-.222.095-.221.098-.22.1-.219.103-.216.106-.216.108-.214.11-.212.113-.211.116-.21.118-.208.12-.206.123-.205.125-.203.127-.201.13-.2.132-.198.135-.197.137-.194.139-.194.141-.191.144-.189.145-.188.148-.186.151-.184.152-.182.154-.181.157-.178.159-.177.16-.175.163-.173.165-.17.167-.169.168-.167.171-.165.173-.163.175-.16.176-.159.179-.156.18-.155.183-.152.184-.15.186-.148.187-.146.19-.144.191-.141.193-.139.195-.137.197-.134.198-.133.2-.129.201-.128.203-.125.205-.123.206-.12.208-.118.21-.116.21-.113.213-.11.214-.108.215-.106.217-.103.219-.1.219-.098.221-.095.223-.093.224-.09.225-.087.227-.084.227-.082.229-.079.116-.039.115-.038.115-.037.116-.037.117-.035.116-.035.117-.035.117-.034.118-.033.117-.032.119-.031.118-.031.118-.03.119-.03.12-.029.119-.028.12-.027.12-.026.12-.026.12-.025.121-.025.121-.023.122-.023.121-.022.122-.022.122-.02.123-.02.122-.019.123-.019.123-.017.123-.017.124-.016.124-.016.124-.014.124-.014.125-.013.124-.013.125-.011.125-.011.126-.01.125-.009.126-.008.126-.008.127-.007.126-.006.127-.005.127-.004.127-.004.127-.003.127-.002.128-.001h.256zm-.237 3l-.109.001-.108.002-.109.002-.107.003-.108.004-.108.004-.107.005-.107.006-.107.007-.107.007-.108.008-.106.008-.106.009-.105.01-.107.01-.106.011-.105.012-.106.013-.104.012-.105.014-.105.015-.103.014-.105.016-.104.016-.104.017-.103.018-.104.018-.103.019-.103.019-.102.02-.102.021-.102.021-.103.022-.102.022-.1.023-.101.024-.101.024-.101.025-.102.026-.099.026-.1.027-.1.027-.1.028-.098.028-.098.029-.101.031-.099.03-.097.031-.098.031-.098.032-.092.031-.199.069-.194.07-.191.071-.191.074-.189.076-.189.079-.188.08-.186.083-.185.085-.184.088-.183.089-.181.092-.18.093-.179.096-.177.098-.177.1-.175.103-.173.103-.173.107-.171.108-.169.11-.169.112-.167.115-.165.116-.163.117-.163.121-.161.121-.159.124-.159.126-.155.127-.155.13-.154.131-.151.132-.15.135-.149.138-.147.138-.144.139-.144.142-.142.144-.14.145-.138.147-.136.148-.135.15-.133.152-.131.153-.13.155-.128.156-.125.158-.124.159-.122.161-.119.163-.118.163-.117.166-.114.167-.112.168-.11.17-.109.171-.106.171-.104.175-.102.174-.1.176-.098.179-.096.179-.093.179-.092.182-.09.182-.087.184-.085.186-.083.186-.08.187-.079.189-.076.189-.074.191-.072.192-.069.193-.069.198-.031.093-.032.098-.031.098-.031.099-.031.099-.029.097-.03.1-.028.098-.028.1-.028.101-.026.099-.027.101-.025.1-.025.1-.024.1-.024.102-.023.103-.023.101-.021.1-.021.102-.021.104-.02.104-.02.103-.018.101-.018.104-.018.103-.017.104-.016.103-.016.105-.015.106-.014.103-.013.104-.014.105-.012.106-.012.106-.011.105-.01.105-.01.107-.009.107-.009.106-.007.107-.008.106-.006.107-.006.108-.005.107-.004.108-.004.108-.003.108-.003.108-.001.108-.001.111-.001.107.001.108.001.11.001.108.003.108.003.108.004.108.004.108.005.107.006.108.006.107.008.107.007.106.009.106.009.107.01.106.01.106.011.105.012.106.012.106.014.105.013.104.014.103.016.107.015.104.016.103.017.104.018.103.018.104.018.101.02.103.02.104.021.104.021.102.021.1.023.101.023.103.024.102.024.1.025.101.026.099.026.101.026.099.028.101.028.1.028.098.03.1.029.097.031.099.031.099.031.098.032.098.031.093.069.198.069.193.072.192.074.19.076.191.079.189.08.186.083.186.086.186.086.184.09.182.092.182.093.179.096.179.098.179.1.176.102.174.104.175.106.172.109.171.11.169.112.168.115.168.116.165.118.164.119.162.122.161.124.159.125.158.128.156.13.155.131.154.133.151.135.15.136.148.138.147.14.146.142.143.143.141.146.141.146.138.149.136.15.135.151.133.154.131.155.13.156.127.158.126.159.124.161.121.162.12.165.119.165.116.166.114.169.112.169.11.171.108.172.106.174.105.176.102.176.1.177.098.179.096.18.094.181.091.183.089.184.088.185.085.186.083.188.08.188.079.19.076.191.074.192.072.193.069.198.069.094.031.097.032.097.031.099.031.099.031.098.029.1.03.1.028.098.028.099.027.101.027.101.026.1.026.1.024.102.025.101.024.1.023.103.022.102.022.102.021.102.021.102.02.103.019.103.019.104.018.103.018.104.017.104.016.103.015.105.015.105.015.105.014.106.013.103.012.106.012.106.011.107.01.105.01.106.009.107.009.107.007.106.007.107.007.108.006.107.005.108.004.109.004.106.003.109.002.11.002.107.001.109.001.109-.001.107-.001.11-.002.108-.002.107-.003.109-.004.107-.004.108-.005.108-.006.107-.007.106-.007.107-.007.107-.009.106-.009.105-.01.107-.01.106-.011.106-.012.103-.012.105-.013.106-.014.105-.015.104-.015.103-.015.105-.016.104-.017.103-.018.104-.018.103-.019.102-.019.103-.02.102-.021.102-.021.102-.022.102-.022.101-.023.101-.024.102-.025.1-.024.1-.026.101-.026.101-.027.099-.027.099-.028.099-.028.099-.03.099-.029.099-.031.099-.031.097-.031.096-.032.094-.031.199-.069.193-.069.192-.072.191-.074.19-.076.188-.079.187-.08.187-.083.184-.085.184-.088.183-.089.181-.091.181-.094.179-.096.177-.098.176-.1.175-.102.174-.105.173-.106.17-.108.17-.11.168-.112.167-.114.165-.116.164-.119.163-.12.161-.121.159-.124.158-.126.157-.128.154-.129.153-.131.152-.133.15-.135.148-.136.147-.138.145-.141.144-.141.141-.143.141-.146.138-.147.136-.148.135-.15.133-.151.131-.154.13-.155.127-.156.125-.158.125-.159.121-.161.12-.162.118-.164.116-.165.115-.168.112-.168.11-.169.108-.171.106-.172.105-.174.102-.175.1-.177.098-.178.096-.179.093-.179.092-.182.089-.182.087-.184.086-.185.083-.187.08-.187.078-.188.077-.191.074-.19.071-.192.07-.193.068-.199.031-.092.033-.098.031-.098.031-.099.031-.099.029-.097.029-.098.028-.1.029-.1.027-.101.027-.1.026-.098.025-.101.026-.103.024-.098.023-.102.024-.103.022-.1.022-.101.021-.104.021-.102.02-.103.019-.104.019-.103.018-.102.018-.103.016-.103.017-.104.015-.106.015-.105.015-.103.013-.104.013-.105.013-.106.012-.106.011-.105.01-.106.01-.106.009-.107.008-.106.008-.106.007-.107.007-.107.005-.108.006-.107.004-.108.004-.108.003-.108.002-.108.002-.108.001-.109v-.218l-.001-.109-.002-.108-.002-.108-.003-.108-.004-.108-.004-.108-.006-.107-.005-.108-.007-.107-.007-.106-.008-.107-.008-.106-.009-.107-.01-.107-.01-.105-.011-.105-.012-.106-.013-.106-.013-.105-.013-.104-.015-.103-.015-.105-.015-.106-.017-.104-.016-.103-.018-.103-.018-.102-.019-.103-.019-.104-.02-.103-.021-.102-.021-.104-.022-.101-.022-.1-.024-.103-.023-.102-.024-.099-.026-.101-.025-.101-.026-.099-.027-.1-.027-.101-.029-.1-.028-.1-.029-.098-.029-.097-.031-.099-.031-.099-.032-.098-.032-.098-.03-.092-.069-.199-.07-.193-.071-.192-.074-.191-.076-.189-.079-.189-.08-.187-.084-.187-.085-.185-.087-.184-.089-.182-.092-.182-.093-.179-.096-.179-.098-.178-.1-.177-.103-.175-.104-.174-.106-.171-.108-.171-.11-.17-.112-.168-.115-.167-.116-.166-.118-.163-.12-.163-.121-.16-.125-.16-.125-.158-.127-.156-.13-.155-.131-.153-.133-.152-.135-.15-.136-.148-.138-.147-.14-.145-.143-.144-.143-.142-.145-.139-.146-.138-.149-.138-.151-.135-.15-.132-.154-.131-.154-.129-.157-.128-.158-.126-.159-.124-.161-.121-.163-.121-.163-.117-.166-.116-.167-.115-.168-.112-.17-.11-.17-.108-.173-.107-.173-.103-.175-.103-.177-.1-.177-.098-.179-.096-.181-.093-.181-.092-.183-.089-.184-.088-.184-.085-.187-.083-.187-.08-.189-.079-.19-.076-.19-.074-.192-.071-.193-.07-.199-.069-.092-.031-.098-.032-.098-.031-.097-.031-.099-.03-.101-.031-.098-.029-.098-.028-.1-.028-.101-.027-.099-.027-.1-.026-.101-.026-.101-.025-.101-.024-.101-.024-.101-.023-.101-.022-.103-.022-.102-.021-.102-.021-.103-.02-.102-.019-.103-.019-.104-.018-.103-.018-.104-.017-.105-.016-.104-.016-.103-.014-.105-.015-.106-.014-.104-.012-.106-.013-.104-.012-.106-.011-.107-.01-.105-.01-.106-.009-.106-.008-.108-.008-.108-.007-.106-.007-.107-.006-.108-.005-.107-.004-.108-.004-.108-.003-.108-.002-.108-.002-.109-.001h-.218z" fill="#f1702d"/>
        <text serif:id="t" x="116.78" y="53.92" font-family="'Arial-BoldMT','Arial',sans-serif" font-weight="700" font-size="21.05" fill="#f1702d">
            Ai
        </text>
    </g>
    <g serif:id="git ico">
        <circle cx="49.49" cy="19.48" r="16.8" fill="#f93333" stroke="#ebebeb" stroke-linecap="butt" stroke-linejoin="round" stroke-miterlimit="1.41"/>
        <path d="M60.32 18.478l-9.826-9.826a1.45 1.45 0 0 0-2.05 0l-2.04 2.041 2.588 2.588a1.72 1.72 0 0 1 2.18 2.194l2.495 2.495a1.724 1.724 0 0 1 1.782 2.848 1.725 1.725 0 0 1-2.815-1.875l-2.327-2.327v6.122a1.726 1.726 0 1 1-1.983 2.766 1.726 1.726 0 0 1 .565-2.816v-6.179a1.724 1.724 0 0 1-.936-2.262l-2.551-2.552-6.738 6.737a1.45 1.45 0 0 0 0 2.05l9.826 9.826a1.45 1.45 0 0 0 2.05 0l9.78-9.78a1.45 1.45 0 0 0 0-2.05z" fill="#fff" fill-rule="nonzero"/>
    </g>
    <defs>
        <linearGradient id="a" x2="1" gradientUnits="userSpaceOnUse" gradientTransform="matrix(0 -417.934 13.9567 0 78.973 419.737)">
            <stop offset="0" stop-color="#f15757"/>
            <stop offset=".15" stop-color="#cf649a"/>
            <stop offset=".3" stop-color="#2635fe"/>
            <stop offset=".45" stop-color="#75dbff"/>
            <stop offset=".6" stop-color="#2ebfb4"/>
            <stop offset=".75" stop-color="#ffef1c"/>
            <stop offset=".9" stop-color="#ef7500"/>
            <stop offset="1" stop-color="#ff0404"/>
        </linearGradient>
    </defs>
</svg>
