<svg viewBox="0 0 752 272" xmlns="http://www.w3.org/2000/svg" fill-rule="evenodd" clip-rule="evenodd" stroke-linecap="square" stroke-miterlimit="1.5">
    <path d="M749.93 141.365a12.49 12.49 0 0 0-12.49-12.49H14.293a12.487 12.487 0 0 0-12.49 12.49v.004a12.49 12.49 0 0 0 12.49 12.49H737.44a12.487 12.487 0 0 0 12.49-12.49v-.004z" fill="url(#a)" stroke="#262626" stroke-width="2"/>
    <g fill="none" stroke="#262626" stroke-width="2">
        <path d="M91.474 233.837v-89.734"/>
        <circle cx="91.47" cy="140.34" r="3.76"/>
    </g>
    <g fill="none" stroke="#262626" stroke-width="2">
        <path d="M154.855 44.117v89.734"/>
        <circle cx="154.85" cy="137.61" r="3.76"/>
    </g>
    <g fill="none" stroke="#262626" stroke-width="2">
        <path d="M652.626 46.852v89.735"/>
        <circle cx="652.63" cy="140.34" r="3.76"/>
    </g>
    <g fill="none" stroke="#262626" stroke-width="2">
        <path d="M718.287 88.594v51.155"/>
        <circle cx="718.29" cy="143.51" r="3.76"/>
    </g>
    <g fill="none" stroke="#262626" stroke-width="2">
        <path d="M221.784 83.473v49.356"/>
        <circle cx="221.78" cy="136.59" r="3.76"/>
    </g>
    <g fill="none" stroke="#262626" stroke-width="2">
        <path d="M266.109 235.502v-89.735"/>
        <circle cx="266.11" cy="142.01" r="3.76"/>
    </g>
    <g fill="none" stroke="#262626" stroke-width="2">
        <path d="M348.361 192.6v-43.865"/>
        <circle cx="348.36" cy="144.98" r="3.76"/>
    </g>
    <g fill="none" stroke="#262626" stroke-width="2">
        <path d="M669.898 240.854v-89.735"/>
        <circle cx="669.9" cy="147.36" r="3.76"/>
    </g>
    <g fill="none" stroke="#262626" stroke-width="2">
        <path d="M429.396 218.306v-68.378"/>
        <circle cx="429.4" cy="146.17" r="3.76"/>
    </g>
    <g fill="none" stroke="#262626" stroke-width="2">
        <path d="M334.694 44.759v89.735"/>
        <circle cx="334.69" cy="138.25" r="3.76"/>
    </g>
    <g fill="none" stroke="#262626" stroke-width="2">
        <path d="M571.344 50.111v89.734"/>
        <circle cx="571.34" cy="143.6" r="3.76"/>
    </g>
    <g fill="none" stroke="#262626" stroke-width="2">
        <path d="M494.189 73.948v62.139"/>
        <circle cx="494.19" cy="139.84" r="3.76"/>
    </g>
    <circle cx="92.24" cy="242.94" r="28.5" fill="#de5078"/>
    <clipPath id="b">
        <path d="M74.15 229.37h36.19v27.14H74.15z"/>
    </clipPath>
    <g clip-path="url(#b)">
        <path d="M105.285 244.96a7.454 7.454 0 0 0-3.279.763c-.34-.671-.679-1.258-.735-1.696-.064-.509-.142-.82-.064-1.428.078-.607.431-1.47.431-1.54-.007-.064-.078-.375-.805-.382-.728-.007-1.357.141-1.428.332a8.077 8.077 0 0 0-.304 1.082c-.127.664-1.456 3.017-2.212 4.254-.247-.481-.459-.905-.502-1.244-.063-.509-.141-.82-.063-1.427.077-.608.431-1.47.431-1.541-.007-.064-.078-.375-.806-.382-.728-.007-1.357.142-1.428.332-.07.191-.148.644-.303 1.082-.149.438-1.916 4.367-2.375 5.392-.233.523-.438.94-.587 1.223-.148.282-.007.021-.021.049l-.198.375v.007c-.099.177-.205.346-.254.346-.036 0-.106-.473.014-1.123.261-1.365.897-3.492.89-3.569 0-.036.12-.41-.41-.601-.515-.191-.699.127-.742.127-.042 0-.077.113-.077.113s.572-2.396-1.096-2.396c-1.046 0-2.488 1.138-3.201 2.177-.453.247-1.414.77-2.431 1.329-.389.212-.792.438-1.174.643l-.077-.085c-2.022-2.156-5.76-3.682-5.605-6.58.057-1.053.424-3.83 7.181-7.194 5.533-2.757 9.965-2 10.735-.318 1.095 2.403-2.368 6.869-8.12 7.512-2.191.248-3.343-.6-3.633-.919-.304-.332-.346-.346-.459-.282-.184.099-.071.396 0 .572.169.446.876 1.237 2.077 1.633 1.053.346 3.626.537 6.736-.665 3.484-1.349 6.205-5.095 5.406-8.226-.813-3.187-6.099-4.233-11.096-2.459-2.975 1.06-6.198 2.714-8.516 4.883-2.756 2.573-3.194 4.82-3.01 5.753.643 3.329 5.229 5.498 7.067 7.103-.092.049-.177.099-.255.141-.918.452-4.417 2.283-5.293 4.219-.989 2.191.156 3.767.919 3.979 2.36.657 4.777-.523 6.085-2.466 1.3-1.944 1.145-4.467.544-5.619l-.021-.042.721-.424c.466-.276.925-.53 1.328-.75-.226.615-.389 1.343-.473 2.403-.099 1.244.41 2.856 1.081 3.492.297.275.65.282.869.282.778 0 1.131-.643 1.52-1.413.48-.94.904-2.028.904-2.028s-.53 2.947.919 2.947c.53 0 1.06-.686 1.301-1.039v.007s.014-.021.042-.071c.03-.044.058-.089.085-.134v-.014c.212-.368.685-1.209 1.392-2.601.912-1.795 1.788-4.043 1.788-4.043s.085.552.346 1.456c.156.538.495 1.124.757 1.696-.212.297-.34.467-.34.467l.007.007c-.169.226-.36.467-.558.707-.721.862-1.583 1.844-1.696 2.127-.134.332-.106.58.155.778.191.141.53.169.891.141a3.99 3.99 0 0 0 1.329-.304 4.576 4.576 0 0 0 1.144-.601c.707-.523 1.138-1.265 1.096-2.254-.021-.544-.198-1.082-.417-1.59.064-.092.127-.184.191-.283 1.116-1.633 1.979-3.428 1.979-3.428s.084.552.346 1.456c.134.46.403.961.643 1.456-1.046.855-1.703 1.845-1.929 2.495-.417 1.201-.092 1.746.523 1.873.275.056.671-.071.968-.198.367-.12.813-.325 1.223-.629.706-.523 1.385-1.251 1.349-2.233-.021-.453-.141-.898-.304-1.322.891-.368 2.043-.58 3.506-.403 3.145.368 3.767 2.332 3.647 3.152-.12.82-.778 1.272-.997 1.414-.219.134-.29.183-.268.282.028.149.127.142.318.113.261-.042 1.653-.671 1.71-2.183.085-1.944-1.76-4.064-5.032-4.043zm-24.255 8.177c-1.039 1.138-2.502 1.569-3.124 1.201-.671-.388-.41-2.063.869-3.272.778-.735 1.788-1.413 2.453-1.83.148-.092.374-.226.643-.389.042-.028.071-.043.071-.043.049-.028.106-.063.162-.098.474 1.724.021 3.236-1.074 4.431zm7.597-5.166c-.36.883-1.123 3.152-1.583 3.024-.396-.106-.636-1.823-.078-3.519.283-.855.884-1.873 1.237-2.269.573-.636 1.195-.848 1.35-.586.184.339-.7 2.798-.926 3.35zm6.269 2.996c-.156.078-.297.134-.36.092-.05-.028.063-.134.063-.134s.785-.841 1.096-1.23c.176-.226.388-.488.614-.784v.084c0 1.018-.975 1.696-1.413 1.972zm4.834-1.102c-.113-.085-.099-.347.283-1.167.148-.325.487-.869 1.074-1.385.071.212.113.417.106.608-.007 1.272-.912 1.746-1.463 1.944z" fill="#fff" fill-rule="nonzero"/>
    </g>
    <circle cx="652.63" cy="39.97" r="39.97" fill="#f47944"/>
    <clipPath id="c">
        <path d="M652.63-13.27h56.11v115.22h-56.11z"/>
    </clipPath>
    <g clip-path="url(#c)">
        <circle cx="652.63" cy="39.97" r="39.97" fill="#f16529"/>
    </g>
    <path d="M669.19 27.239l.688-6.881h-34.504l1.77 20.839h23.69l-.688 8.946-7.735 2.064-7.501-2.064-.689-5.603h-7.077l1.081 10.911 14.186 4.129 14.026-4.129 2.064-21.135h-24.968l-.912-7.077h26.569z" fill="#ebebeb"/>
    <circle cx="334.69" cy="56.37" r="26.33" fill="#40b1e0"/>
    <clipPath id="d">
        <path d="M334.69 21.3h36.96v75.9h-36.96z"/>
    </clipPath>
    <g clip-path="url(#d)">
        <circle cx="334.69" cy="56.37" r="26.33" fill="#2aa9e0"/>
    </g>
    <path d="M322.98 43.832h23.427l-.328 4.633-9.496 4.239h9.134l-1.051 13.603-9.66 2.596-9.825-2.596-.591-6.67h4.304l.394 3.647 5.718 1.084 5.191-1.708.329-5.619h-16.232l-.427-4.337 10.58-4.765h-11.139l-.328-4.107z" fill="#ebebeb"/>
    <circle cx="429.4" cy="213.94" r="24.68" fill="#6ec9c2"/>
    <clipPath id="e">
        <path d="M429.4 181.07h34.64v71.14H429.4z"/>
    </clipPath>
    <g clip-path="url(#e)">
        <circle cx="429.4" cy="213.94" r="24.68" fill="#2ebfb4"/>
    </g>
    <path d="M439.47 215.38h-2.858l2.048 9.383-5.715 1.715-1.858-11.098H423.8l1.62 11.098-5.239-1.715-2.144-23.362h22.719l-1.286 13.979zm-3.207-9.402h-12.876v4.455h12.323l.553-4.455z" fill="#fff"/>
    <g>
        <ellipse cx="571.34" cy="71.31" rx="31.12" ry="31.34" fill="#f0db4f"/>
        <text x="550.76" y="83.23" font-family="'Arial-BoldMT','Arial',sans-serif" font-weight="700" font-size="33.34" fill="#3f3023">
            J<tspan x="569.17" y="83.23">S</tspan>
        </text>
    </g>
    <g>
        <circle cx="154.85" cy="55.73" r="19.52" fill="#9353be"/>
        <text x="145.7" y="64.51" font-family="'Arial-BoldMT','Arial',sans-serif" font-weight="700" font-size="24.54" fill="#fff">
            B
        </text>
    </g>
    <g>
        <circle cx="266.11" cy="226.79" r="24.3" fill="#31334b"/>
        <path d="M266.266 202.493l.157.001.156.003.157.003.156.005.156.005.155.007.155.007.155.008.155.01.155.01.154.011.154.012.154.014.153.014.154.015.153.016.152.017.152.018.153.019.151.02.152.02.151.022.151.023.15.023.151.024.15.026.149.026.15.027.149.028.148.029.149.03.148.031.148.032.147.032.147.034.147.034.146.036.146.036.146.037.145.038.145.038.145.04.144.041.144.041.143.042.144.043.142.044.143.045.142.046.142.046.141.048.141.048.14.049.14.05.14.051.139.051.139.053.139.053.138.054.138.055.137.055.137.057.136.057.136.058.136.059.135.059.135.061.134.061.134.062.133.063.133.064.133.064.132.065.132.066.131.067.13.067.131.069.129.069.13.07.129.07.128.071.128.072.127.073.127.074.127.074.126.075.125.076.125.076.125.078.124.077.123.079.123.08.123.08.122.081.121.081.121.082.12.083.12.084.12.084.118.085.119.086.117.087.118.087.116.088.116.088.116.089.115.09.115.091.113.091.114.092.113.092.112.093.112.094.111.095.11.095.11.096.109.096.109.097.108.098.108.098.107.1.106.099.106.1.105.101.105.102.104.102.103.103.103.103.102.104.102.105.101.105.1.106.1.106.099.107.098.108.098.108.097.109.096.109.096.11.095.111.095.111.094.111.093.113.092.112.092.114.092.114.09.114.09.115.089.116.089.116.087.116.088.118.086.117.086.119.085.119.084.119.084.12.083.12.082.121.082.122.08.121.081.123.079.123.079.123.078.124.077.125.076.125.076.125.075.126.074.127.074.127.073.127.072.128.071.128.071.129.069.13.069.129.069.131.067.13.067.132.066.131.065.132.064.133.064.133.063.133.062.134.061.134.061.135.059.135.059.136.058.136.057.136.057.137.056.138.054.137.054.138.054.139.052.139.052.139.05.14.05.14.049.14.048.141.048.142.046.141.046.142.045.143.044.142.043.144.042.143.041.144.041.144.04.145.038.145.038.145.037.146.037.146.035.146.034.147.034.147.032.148.032.147.031.148.03.149.029.148.028.149.027.15.026.149.026.15.024.151.024.15.022.151.022.151.021.152.019.152.019.152.018.152.017.153.016.153.015.153.014.153.014.154.012.154.011.154.01.155.01.155.008.155.008.155.006.156.005.155.005.157.003.156.003.156.001.157.001.157-.001.157-.001.157-.003.157-.003.156-.005.156-.005.156-.006.155-.008.156-.008.155-.01.155-.01.154-.011.154-.012.154-.014.154-.014.154-.015.153-.016.153-.017.152-.018.153-.019.152-.019.152-.021.151-.022.151-.022.151-.024.151-.024.15-.026.15-.026.15-.027.149-.028.149-.029.149-.03.148-.031.148-.032.148-.032.147-.034.147-.034.147-.035.146-.037.146-.037.146-.038.145-.038.145-.04.145-.041.144-.041.144-.042.144-.043.143-.044.143-.045.142-.046.142-.046.142-.048.141-.048.141-.049.14-.05.141-.05.139-.052.14-.052.139-.054.138-.054.138-.054.138-.056.137-.057.137-.057.136-.058.136-.059.136-.059.135-.061.135-.061.134-.062.134-.063.134-.064.133-.064.132-.065.132-.066.132-.067.131-.067.131-.069.13-.069.13-.069.129-.071.129-.071.128-.072.128-.073.128-.074.127-.074.126-.075.126-.076.125-.076.125-.077.125-.078.124-.079.123-.079.123-.081.123-.08.122-.082.121-.082.121-.083.121-.084.119-.084.12-.085.119-.086.118-.086.118-.088.117-.087.117-.089.116-.089.115-.09.115-.09.115-.092.114-.092.113-.092.113-.093.112-.094.112-.095.111-.095.11-.096.11-.096.11-.097.108-.098.109-.098.107-.099.107-.1.107-.1.105-.101.106-.102.104-.102.104-.103.104-.103.102-.104.102-.105.102-.105.101-.106.1-.106.1-.107.099-.108.098-.108.098-.109.097-.109.097-.11.095-.11.096-.111.094-.112.094-.112.093-.113.093-.114.092-.113.091-.115.09-.115.09-.116.089-.116.089-.116.088-.118.087-.117.086-.119.086-.118.085-.12.084-.12.084-.12.083-.121.082-.121.082-.122.081-.123.08-.123.079-.123.079-.124.078-.125.077-.125.077-.125.075-.126.075-.127.075-.127.073-.127.073-.128.072-.128.071-.129.071-.13.07-.129.069-.131.068-.13.067-.131.067-.132.066-.132.065-.133.065-.133.063-.133.063-.134.062-.134.061-.135.061-.135.06-.136.058-.136.058-.136.058-.137.056-.137.056-.138.055-.138.054-.139.053-.139.052-.139.052-.14.05-.14.05-.14.049-.141.049-.141.047-.142.046-.142.046-.143.045-.142.044-.144.043-.143.042-.144.042-.144.04-.145.04-.145.039-.145.038-.146.037-.146.036-.146.035-.147.034-.147.034-.147.033-.148.031-.148.031-.149.03-.148.029-.149.028-.15.027-.149.027-.15.025-.151.024-.15.024-.151.022-.151.022-.152.021-.151.02-.153.019-.152.017-.152.017-.153.016-.154.016-.153.014-.154.013-.154.012-.154.011-.155.011-.155.009-.155.008-.155.008-.155.006-.156.006-.156.004-.157.004-.156.002-.157.002h-.314l-.157-.002-.156-.002-.157-.004-.156-.004-.156-.006-.155-.006-.156-.008-.155-.008-.154-.009-.155-.011-.154-.011-.154-.012-.154-.013-.153-.014-.154-.016-.153-.016-.152-.017-.153-.017-.152-.019-.151-.02-.152-.021-.151-.022-.151-.022-.151-.024-.15-.024-.15-.025-.149-.027-.15-.027-.149-.028-.149-.029-.148-.03-.148-.031-.148-.031-.147-.033-.147-.034-.147-.034-.146-.035-.146-.036-.146-.037-.145-.038-.145-.039-.145-.04-.144-.04-.144-.042-.144-.042-.143-.043-.143-.044-.142-.045-.142-.046-.142-.046-.141-.047-.141-.049-.14-.049-.14-.05-.14-.05-.139-.052-.139-.052-.139-.053-.138-.054-.138-.055-.137-.056-.137-.056-.136-.058-.136-.058-.136-.058-.135-.06-.135-.061-.134-.061-.134-.062-.133-.063-.133-.063-.133-.065-.132-.065-.132-.066-.131-.067-.131-.067-.13-.068-.13-.069-.129-.07-.129-.071-.128-.071-.128-.072-.127-.073-.127-.073-.127-.075-.126-.075-.125-.075-.125-.077-.125-.077-.124-.078-.123-.079-.123-.079-.123-.08-.122-.081-.121-.082-.121-.082-.12-.083-.12-.084-.12-.084-.119-.085-.118-.086-.118-.086-.117-.087-.116-.088-.117-.089-.115-.089-.115-.09-.115-.09-.114-.091-.113-.092-.113-.093-.112-.093-.112-.094-.111-.094-.11-.096-.11-.095-.109-.097-.109-.097-.108-.098-.108-.098-.107-.099-.106-.1-.106-.1-.105-.101-.105-.102-.104-.102-.103-.102-.103-.104-.102-.104-.102-.104-.101-.106-.1-.105-.1-.107-.099-.107-.098-.107-.098-.109-.097-.108-.096-.11-.096-.11-.095-.11-.095-.111-.094-.112-.093-.112-.093-.113-.091-.113-.092-.114-.09-.115-.09-.115-.089-.115-.089-.116-.088-.117-.087-.117-.086-.118-.086-.118-.085-.119-.084-.12-.084-.119-.083-.121-.082-.121-.082-.121-.081-.122-.08-.123-.079-.123-.079-.123-.078-.124-.077-.125-.076-.125-.076-.125-.075-.126-.074-.126-.074-.127-.073-.128-.072-.128-.071-.128-.071-.129-.069-.129-.07-.13-.068-.13-.067-.131-.067-.131-.066-.132-.065-.132-.065-.132-.063-.133-.063-.134-.062-.134-.061-.134-.061-.135-.059-.135-.059-.136-.058-.136-.058-.136-.056-.137-.056-.137-.055-.138-.054-.138-.053-.138-.052-.139-.052-.14-.05-.139-.05-.141-.049-.14-.048-.141-.048-.141-.046-.142-.046-.142-.045-.142-.044-.143-.043-.143-.042-.144-.042-.144-.04-.144-.04-.145-.039-.145-.037-.145-.037-.146-.037-.146-.035-.146-.034-.147-.034-.147-.032-.147-.032-.148-.031-.148-.03-.148-.029-.149-.028-.149-.027-.149-.026-.15-.026-.15-.024-.15-.024-.151-.022-.151-.022-.151-.021-.151-.02-.152-.018-.152-.018-.153-.017-.152-.016-.153-.015-.153-.015-.154-.013-.154-.012-.154-.011-.154-.011-.154-.009-.155-.008-.155-.008-.156-.006-.155-.005-.156-.005-.156-.003-.156-.003-.157-.001-.157-.001-.157.001-.157.001-.157.003-.156.003-.156.005-.157.005-.155.006-.156.008-.155.008-.155.009-.155.011-.155.011-.154.012-.154.013-.154.015-.153.015-.153.016-.153.017-.153.018-.152.018-.152.02-.152.021-.152.022-.151.022-.151.024-.15.024-.151.026-.15.026-.149.027-.15.028-.149.029-.148.03-.149.031-.148.032-.147.032-.148.034-.147.034-.147.035-.146.037-.146.037-.146.037-.145.039-.145.04-.145.04-.144.042-.144.042-.143.043-.144.044-.142.045-.143.046-.142.046-.141.048-.142.048-.141.049-.14.05-.14.05-.14.052-.139.052-.139.053-.139.054-.138.055-.137.056-.138.056-.137.058-.136.058-.136.059-.136.059-.135.061-.135.061-.134.062-.134.063-.133.063-.133.065-.133.065-.132.066-.131.067-.132.067-.13.068-.131.07-.129.069-.13.071-.129.071-.128.072-.128.073-.127.074-.127.074-.127.075-.126.076-.125.076-.125.077-.125.078-.124.079-.123.079-.123.08-.123.081-.121.082-.122.082-.121.083-.12.084-.12.084-.119.085-.119.086-.119.086-.117.087-.118.088-.116.089-.116.089-.116.09-.115.09-.114.092-.114.091-.114.093-.112.093-.113.094-.111.095-.111.095-.111.096-.11.096-.109.097-.109.098-.108.098-.108.099-.107.1-.106.1-.106.101-.105.102-.105.102-.104.103-.103.103-.103.104-.102.105-.102.105-.101.106-.1.106-.099.107-.1.108-.098.108-.098.109-.097.109-.096.11-.096.11-.095.111-.095.112-.094.112-.093.113-.092.113-.092.114-.091.115-.091.115-.09.115-.089.117-.088.116-.088.117-.087.118-.087.118-.086.119-.085.12-.084.12-.084.12-.083.121-.082.121-.081.122-.081.123-.08.123-.08.123-.079.124-.077.125-.078.125-.076.125-.076.126-.075.127-.074.127-.074.127-.073.128-.072.128-.071.129-.07.129-.07.13-.069.13-.069.131-.067.131-.067.132-.066.132-.065.133-.064.133-.064.133-.063.134-.062.134-.061.135-.061.135-.059.136-.059.136-.058.136-.057.137-.057.137-.055.138-.055.138-.054.139-.053.139-.053.139-.051.14-.051.14-.05.14-.049.141-.048.141-.048.142-.046.142-.046.142-.045.143-.044.143-.043.144-.042.144-.041.144-.041.145-.04.145-.038.145-.038.146-.037.146-.036.146-.036.147-.034.147-.034.147-.032.148-.032.148-.031.148-.03.149-.029.149-.028.15-.027.149-.026.15-.026.15-.024.151-.023.151-.023.151-.022.152-.02.151-.02.152-.019.153-.018.152-.017.153-.016.154-.015.153-.014.154-.014.154-.012.154-.011.155-.01.154-.01.155-.008.156-.007.155-.007.156-.005.156-.005.157-.003.156-.003.157-.001.157-.001.157.001zm-.295 3l-.138.001-.138.002-.135.003-.139.004-.137.005-.136.006-.138.006-.134.007-.135.009-.137.009-.136.01-.135.01-.134.012-.134.012-.135.014-.135.014-.133.014-.134.016-.132.017-.134.017-.133.018-.131.019-.133.02-.132.021-.132.021-.131.022-.132.023-.13.024-.131.025-.13.025-.13.026-.129.027-.129.028-.13.029-.129.029-.128.03-.129.031-.127.032-.127.032-.128.033-.128.034-.126.035-.125.035-.127.037-.126.037-.125.038-.124.038-.125.039-.125.04-.123.04-.125.042-.124.043-.123.043-.122.043-.121.044-.122.045-.123.047-.121.046-.12.047-.122.049-.12.048-.119.049-.121.051-.118.05-.118.052-.119.052-.119.054-.117.053-.116.054-.118.055-.117.056-.116.057-.116.057-.114.057-.115.059-.115.059-.114.06-.114.06-.112.061-.114.062-.113.063-.112.063-.112.064-.111.064-.11.065-.111.066-.111.067-.108.066-.11.068-.109.069-.108.068-.107.07-.108.07-.107.071-.106.071-.106.073-.106.073-.105.073-.104.074-.105.074-.104.076-.103.076-.103.076-.102.077-.102.078-.102.078-.1.079-.1.079-.1.08-.1.081-.099.081-.098.082-.098.082-.098.083-.097.084-.096.083-.096.085-.096.085-.094.086-.095.086-.094.087-.094.088-.092.088-.092.088-.092.09-.092.089-.09.09-.09.09-.09.092-.09.093-.088.092-.087.092-.087.093-.088.094-.086.095-.086.094-.085.096-.085.096-.083.096-.084.098-.083.097-.082.098-.083.099-.081.098-.08.099-.08.101-.079.1-.079.101-.079.101-.077.102-.077.102-.077.104-.076.103-.074.103-.075.104-.075.106-.073.105-.073.105-.072.106-.071.106-.071.107-.07.107-.07.109-.069.108-.068.109-.068.109-.067.109-.066.11-.066.111-.065.11-.065.112-.063.111-.063.112-.063.113-.062.113-.061.113-.06.114-.06.114-.059.115-.059.115-.058.115-.057.116-.056.115-.056.117-.055.117-.054.117-.054.118-.053.118-.052.119-.052.118-.051.12-.05.119-.049.119-.049.121-.048.121-.047.12-.047.122-.046.121-.045.122-.044.123-.044.122-.043.123-.042.123-.041.124-.041.125-.04.124-.039.125-.039.124-.038.126-.037.126-.036.125-.035.127-.035.127-.034.126-.033.127-.033.128-.031.128-.031.128-.03.128-.03.129-.028.129-.028.13-.027.129-.026.13-.026.131-.024.13-.024.131-.023.131-.022.131-.022.132-.02.132-.02.132-.019.133-.018.132-.018.134-.016.133-.016.133-.015.134-.014.134-.013.135-.012.134-.012.135-.011.135-.01.135-.009.136-.008.136-.007.136-.007.136-.005.137-.005.137-.004.137-.003.137-.002.137-.001.138-.001.138.001.138.001.138.002.137.003.138.004.137.005.137.005.136.007.137.007.135.008.137.009.135.01.135.011.136.012.135.012.134.013.134.014.134.015.134.016.134.016.133.018.133.018.133.019.132.02.132.02.132.022.133.022.13.023.131.024.132.024.13.026.13.026.13.027.129.028.13.028.129.03.129.03.129.031.127.031.128.033.128.033.127.034.127.035.127.035.126.036.126.037.126.038.125.039.125.039.124.04.125.041.124.041.124.042.123.043.123.044.123.044.122.045.122.046.122.047.121.047.121.048.12.049.121.049.119.05.12.051.119.052.119.052.118.053.119.054.117.054.117.055.117.056.117.056.115.057.116.058.116.059.115.059.114.06.115.06.113.061.113.062.113.063.113.063.112.063.111.065.112.065.111.066.11.066.11.067.109.068.109.068.11.069.108.07.108.07.107.071.107.071.106.072.106.073.106.073.105.075.105.075.105.074.102.076.104.077.103.077.102.077.102.079.102.079.101.079.1.079.099.081.1.082.099.082.099.082.097.083.098.084.097.083.096.085.096.085.096.086.095.086.094.088.095.087.093.087.092.088.092.09.093.09.091.09.09.09.09.092.09.091.089.093.089.093.088.093.087.094.087.095.087.094.085.096.085.096.085.096.083.097.084.098.084.098.082.098.081.099.081.1.081.1.08.1.08.1.078.102.079.102.077.102.077.103.077.103.076.104.075.105.075.104.074.105.073.106.073.106.072.106.071.107.071.108.071.107.069.108.069.109.068.109.068.109.066.111.067.111.067.111.065.11.063.112.065.112.063.113.062.113.062.113.061.115.061.113.06.113.058.117.059.115.058.115.057.116.056.117.056.118.055.116.055.117.053.119.053.119.053.118.051.118.05.121.051.119.049.12.049.122.048.12.047.121.047.123.046.122.045.121.044.122.044.123.043.124.042.125.042.123.04.125.04.125.04.124.038.125.038.126.037.127.036.125.035.126.035.128.034.128.033.127.033.127.031.129.031.128.03.129.03.13.028.129.028.129.027.13.026.13.026.131.024.13.024.132.023.131.022.132.022.132.02.133.02.131.019.132.018.135.018.133.016.133.016.133.015.135.014.135.013.134.013.134.011.135.011.136.01.137.009.135.008.134.007.138.007.136.005.137.005.139.004.135.003.138.002.138.002h.276l.138-.002.138-.002.135-.003.139-.004.136-.005.137-.005.137-.007.135-.007.135-.008.137-.009.136-.01.135-.011.134-.011.134-.013.135-.013.135-.014.133-.015.133-.016.133-.016.135-.018.132-.018.131-.019.133-.02.132-.02.132-.022.131-.022.131-.023.131-.024.131-.024.13-.026.13-.026.129-.027.129-.028.13-.028.129-.03.128-.03.129-.031.127-.031.127-.033.128-.033.128-.034.126-.035.125-.035.127-.036.126-.037.125-.038.124-.038.125-.04.125-.04.123-.04.125-.042.123-.042.123-.043.123-.044.121-.044.122-.045.123-.046.121-.047.12-.047.122-.048.12-.049.119-.049.12-.051.119-.05.118-.051.119-.053.119-.053.117-.053.116-.054.117-.056.118-.056.116-.056.115-.057.115-.058.117-.059.113-.058.113-.06.115-.061.113-.061.113-.062.113-.062.112-.063.112-.065.11-.063.111-.065.111-.067.111-.067.109-.066.108-.068.11-.068.108-.069.107-.069.108-.071.107-.071.106-.071.106-.072.106-.073.105-.073.104-.074.105-.075.104-.075.103-.076.103-.077.102-.077.102-.077.101-.079.101-.078.1-.08.1-.08.1-.081.099-.081.098-.081.098-.082.098-.084.097-.084.096-.083.096-.085.096-.085.094-.085.095-.087.094-.087.093-.087.093-.088.092-.089.092-.089.092-.09.09-.09.09-.09.089-.091.09-.093.089-.092.087-.092.087-.093.088-.095.086-.094.086-.095.085-.096.085-.096.084-.096.083-.097.083-.097.082-.098.082-.099.081-.099.082-.1.079-.099.079-.1.079-.101.078-.102.078-.102.077-.102.077-.103.076-.104.074-.102.075-.105.075-.105.073-.105.072-.106.073-.106.071-.106.071-.107.07-.107.07-.108.069-.108.068-.11.068-.109.067-.109.066-.11.066-.11.065-.111.065-.112.063-.111.063-.112.063-.113.062-.113.061-.113.06-.113.06-.115.059-.114.059-.115.058-.116.057-.116.056-.115.056-.117.055-.117.054-.117.054-.117.053-.119.052-.118.052-.119.051-.119.05-.12.049-.119.049-.121.048-.12.047-.121.047-.121.046-.122.045-.122.044-.122.044-.123.043-.123.042-.123.041-.124.041-.124.04-.125.039-.124.039-.125.038-.126.037-.125.036-.126.035-.126.035-.127.034-.127.033-.127.033-.128.031-.128.031-.127.03-.129.03-.129.028-.129.028-.13.027-.129.026-.13.025-.13.025-.13.024-.132.023-.131.022-.131.022-.132.02-.131.02-.133.019-.132.018-.133.017-.133.017-.133.016-.134.015-.134.014-.134.013-.134.012-.134.012-.135.011-.136.009-.135.009-.135.009-.137.007-.135.006-.137.006-.136.005-.137.004-.137.003-.138.002-.137.001-.138.001-.138-.001-.138-.001-.138-.002-.137-.003-.137-.004-.137-.005-.137-.006-.137-.006-.136-.007-.136-.009-.136-.009-.136-.009-.135-.011-.135-.012-.135-.012-.134-.013-.135-.014-.134-.015-.134-.016-.133-.017-.133-.017-.134-.018-.132-.019-.133-.02-.132-.02-.132-.022-.132-.022-.131-.023-.131-.024-.131-.025-.13-.025-.131-.026-.13-.027-.129-.028-.13-.028-.129-.03-.129-.03-.128-.031-.128-.031-.128-.033-.128-.033-.127-.034-.126-.035-.127-.035-.127-.036-.125-.037-.126-.038-.126-.039-.124-.039-.125-.04-.124-.041-.125-.041-.124-.042-.123-.043-.123-.044-.122-.044-.123-.045-.122-.046-.121-.047-.122-.047-.12-.048-.121-.049-.121-.049-.119-.05-.119-.051-.12-.052-.118-.052-.119-.053-.118-.054-.118-.054-.117-.055-.117-.056-.116-.056-.116-.057-.116-.058-.115-.059-.115-.059-.115-.06-.114-.06-.114-.061-.113-.062-.113-.063-.113-.063-.112-.063-.111-.065-.112-.065-.11-.066-.111-.066-.11-.067-.109-.068-.109-.068-.109-.069-.108-.07-.109-.07-.107-.071-.107-.071-.106-.073-.106-.072-.105-.073-.105-.075-.106-.075-.104-.074-.103-.076-.103-.077-.104-.077-.102-.078-.102-.078-.101-.079-.101-.079-.1-.08-.101-.081-.099-.08-.098-.083-.099-.082-.098-.083-.097-.083-.098-.084-.096-.085-.096-.085-.096-.086-.094-.086-.095-.088-.094-.087-.093-.087-.092-.089-.092-.09-.093-.089-.092-.09-.09-.09-.09-.092-.089-.092-.09-.092-.088-.092-.088-.094-.088-.094-.087-.095-.086-.094-.086-.096-.085-.096-.085-.096-.083-.097-.084-.098-.083-.098-.082-.098-.082-.099-.081-.1-.081-.1-.08-.1-.079-.101-.079-.101-.078-.102-.078-.102-.077-.103-.076-.103-.076-.104-.076-.105-.074-.104-.074-.105-.073-.106-.073-.106-.072-.106-.072-.107-.071-.108-.07-.107-.07-.108-.068-.11-.069-.109-.068-.108-.066-.111-.067-.111-.066-.11-.065-.111-.064-.112-.064-.112-.063-.113-.063-.114-.062-.112-.061-.114-.06-.114-.06-.115-.059-.115-.059-.114-.057-.116-.057-.116-.057-.118-.056-.117-.055-.116-.054-.117-.053-.119-.054-.119-.052-.118-.052-.119-.05-.12-.051-.119-.049-.12-.048-.122-.049-.12-.047-.121-.046-.123-.047-.122-.045-.121-.044-.123-.043-.123-.043-.123-.043-.125-.042-.123-.04-.125-.04-.125-.039-.124-.038-.125-.038-.126-.037-.127-.037-.125-.035-.126-.035-.128-.034-.128-.033-.127-.032-.127-.032-.129-.031-.128-.03-.129-.029-.13-.029-.129-.028-.129-.027-.13-.026-.13-.025-.131-.025-.131-.024-.131-.023-.131-.022-.132-.021-.132-.021-.133-.02-.131-.019-.133-.018-.134-.017-.132-.017-.134-.016-.133-.014-.135-.014-.135-.014-.134-.012-.134-.012-.135-.01-.136-.01-.137-.009-.135-.009-.135-.007-.137-.006-.137-.006-.136-.005-.139-.004-.135-.003-.138-.002-.138-.001-.138-.001-.138.001z" fill="#31c5f0"/>
        <text x="249.98" y="235.89" font-family="'Arial-BoldMT','Arial',sans-serif" font-weight="700" font-size="25.85" fill="#31c5f0">
            Ps
        </text>
    </g>
    <g>
        <circle cx="669.9" cy="228.29" r="35.41" fill="#3f3023"/>
        <path d="M670.127 192.888l.228.002.228.003.228.005.228.007.227.008.226.009.227.011.226.012.225.014.226.015.224.016.225.018.224.019.224.021.223.022.223.023.222.025.222.026.222.028.221.028.221.031.22.031.22.033.22.034.219.036.218.037.218.038.218.04.217.041.217.042.216.044.216.045.215.046.215.047.214.049.214.05.213.052.213.052.213.054.211.056.212.056.21.058.211.059.209.06.21.062.208.063.208.064.208.065.207.067.206.068.206.069.206.07.204.071.205.073.203.074.203.075.203.076.201.078.202.079.2.079.2.082.2.082.199.083.198.085.198.086.197.087.196.088.196.089.195.09.194.092.194.093.193.094.193.095.192.096.191.097.19.098.19.1.189.1.189.102.188.103.187.104.186.105.186.106.185.107.184.108.184.11.183.11.182.112.181.112.181.114.18.114.179.116.178.117.178.118.177.119.176.119.176.121.175.122.174.123.173.124.172.125.172.126.171.127.17.128.169.129.168.13.168.131.167.132.166.133.165.134.164.135.164.135.163.137.162.138.161.139.16.139.159.141.159.141.157.143.157.143.156.145.155.145.154.146.154.147.152.148.152.149.15.15.15.15.149.152.148.152.147.154.146.154.145.155.145.156.143.157.143.157.141.159.141.159.139.16.139.161.138.162.137.163.135.164.135.164.134.165.133.166.132.167.131.168.13.168.129.169.128.17.127.171.126.172.125.172.124.173.123.174.122.175.121.176.12.176.118.177.118.178.117.178.116.179.114.18.114.181.112.181.112.183.11.182.11.184.108.184.107.185.106.186.105.186.104.188.103.187.102.189.1.189.1.19.098.19.097.191.096.192.095.193.094.193.093.194.092.194.09.195.089.196.088.196.087.197.086.198.085.198.083.199.082.2.082.2.079.2.079.202.078.201.076.203.075.203.074.204.073.204.071.204.07.206.069.206.068.206.067.207.065.208.064.208.063.208.062.21.06.209.059.211.058.21.056.212.056.211.054.213.052.213.052.213.05.214.049.214.047.215.046.215.045.216.044.216.042.217.041.217.04.218.038.218.037.218.036.219.034.22.033.22.031.22.031.221.028.221.028.222.026.222.025.222.023.223.022.223.021.224.019.224.018.225.016.224.015.226.014.225.012.226.011.227.009.226.008.227.007.228.005.228.003.228.002.228.001.229-.001.229-.002.229-.003.228-.005.228-.007.227-.008.227-.009.227-.011.226-.012.226-.014.226-.015.225-.016.225-.018.224-.019.224-.021.224-.022.223-.023.223-.025.223-.026.222-.028.221-.028.222-.031.22-.031.221-.033.22-.034.219-.036.219-.037.219-.038.218-.04.217-.041.218-.042.216-.044.216-.045.216-.046.216-.047.214-.049.215-.05.213-.052.214-.052.213-.054.212-.056.212-.056.211-.058.211-.059.21-.06.21-.062.209-.063.209-.064.208-.065.207-.067.207-.068.207-.069.206-.07.205-.071.205-.073.204-.074.204-.075.203-.076.202-.078.202-.079.201-.079.201-.082.2-.082.199-.083.199-.085.198-.086.198-.087.197-.088.196-.089.196-.09.195-.092.195-.093.193-.094.194-.095.192-.096.192-.097.191-.098.191-.1.19-.1.189-.102.188-.103.188-.104.187-.105.186-.106.186-.107.185-.108.184-.11.184-.11.183-.112.182-.112.182-.114.18-.114.18-.116.179-.117.179-.118.178-.118.177-.12.176-.121.175-.122.175-.123.174-.124.173-.125.173-.126.171-.127.171-.128.17-.129.169-.13.169-.131.167-.132.167-.133.166-.134.165-.135.165-.135.163-.137.163-.138.162-.139.161-.139.16-.141.16-.141.158-.143.158-.143.157-.145.156-.145.155-.146.154-.147.153-.148.153-.149.151-.15.151-.15.15-.152.148-.152.148-.154.147-.154.147-.155.145-.156.144-.157.144-.157.142-.159.142-.159.14-.16.14-.161.138-.162.138-.163.137-.164.136-.164.135-.165.134-.166.132-.167.132-.168.131-.168.13-.169.129-.17.128-.171.127-.172.126-.172.125-.173.124-.174.123-.175.122-.176.121-.176.12-.177.119-.178.118-.178.116-.179.116-.18.115-.181.113-.181.113-.182.111-.183.111-.184.109-.184.108-.185.108-.186.106-.186.105-.187.104-.188.102-.189.102-.189.101-.19.099-.19.098-.191.098-.192.096-.193.095-.193.094-.194.092-.194.092-.195.09-.196.09-.196.088-.197.087-.198.086-.198.084-.199.084-.2.082-.2.081-.2.08-.202.079-.201.077-.203.076-.203.076-.203.073-.205.073-.204.072-.206.07-.206.069-.206.068-.207.066-.208.066-.208.064-.208.062-.21.062-.209.06-.211.059-.21.058-.212.057-.211.055-.213.054-.213.053-.213.051-.214.05-.214.049-.215.048-.215.046-.216.045-.216.043-.217.043-.217.04-.218.04-.218.038-.218.037-.219.036-.22.034-.22.033-.22.032-.221.03-.221.029-.222.027-.222.026-.222.025-.223.024-.223.022-.224.02-.224.019-.225.018-.224.017-.226.015-.225.013-.226.012-.227.011-.226.01-.227.007-.228.007-.228.005-.228.004-.228.002-.229.001-.229-.001-.229-.002-.228-.004-.228-.005-.227-.007-.227-.007-.227-.01-.226-.011-.226-.012-.226-.013-.225-.015-.225-.017-.224-.018-.224-.019-.224-.02-.223-.022-.223-.024-.223-.025-.222-.026-.221-.027-.222-.029-.22-.03-.221-.032-.22-.033-.219-.034-.219-.036-.219-.037-.218-.038-.217-.04-.217-.04-.217-.043-.216-.043-.216-.045-.216-.046-.214-.048-.215-.049-.213-.05-.214-.051-.213-.053-.212-.054-.212-.055-.211-.057-.211-.058-.21-.059-.21-.06-.209-.062-.209-.062-.208-.064-.207-.066-.207-.066-.207-.068-.206-.069-.205-.07-.205-.072-.204-.073-.204-.073-.203-.076-.202-.076-.202-.077-.201-.079-.201-.08-.2-.081-.199-.082-.199-.084-.198-.084-.198-.086-.197-.087-.196-.088-.196-.09-.195-.09-.195-.092-.193-.092-.194-.094-.192-.095-.192-.096-.191-.098-.191-.098-.189-.099-.19-.101-.188-.102-.188-.102-.187-.104-.186-.105-.186-.106-.185-.108-.184-.108-.184-.109-.183-.111-.182-.111-.181-.113-.181-.113-.18-.115-.179-.116-.179-.116-.178-.118-.177-.119-.176-.12-.175-.121-.175-.122-.174-.123-.173-.124-.173-.125-.171-.126-.171-.127-.17-.128-.169-.129-.169-.13-.167-.131-.167-.132-.166-.132-.165-.134-.165-.135-.163-.136-.163-.137-.162-.138-.161-.138-.16-.14-.16-.14-.158-.142-.158-.142-.157-.144-.156-.144-.155-.145-.154-.147-.153-.147-.153-.148-.151-.148-.151-.15-.15-.151-.148-.151-.148-.153-.147-.153-.147-.154-.145-.155-.144-.156-.144-.157-.142-.158-.141-.158-.141-.16-.14-.16-.138-.161-.138-.162-.137-.163-.136-.163-.135-.165-.134-.165-.132-.166-.132-.167-.131-.167-.13-.169-.129-.169-.128-.17-.127-.171-.126-.171-.125-.173-.124-.173-.123-.174-.122-.175-.121-.175-.12-.176-.119-.177-.118-.178-.116-.179-.116-.179-.115-.18-.113-.18-.113-.182-.111-.182-.111-.183-.109-.184-.108-.184-.108-.185-.106-.186-.105-.186-.104-.187-.102-.188-.102-.188-.101-.189-.099-.19-.098-.191-.098-.191-.096-.192-.095-.192-.094-.194-.092-.193-.092-.195-.09-.195-.09-.196-.088-.196-.087-.197-.086-.198-.084-.198-.084-.199-.082-.199-.081-.2-.08-.201-.079-.201-.077-.202-.076-.202-.076-.203-.073-.204-.073-.204-.072-.205-.07-.205-.069-.206-.068-.207-.066-.207-.066-.207-.064-.208-.062-.209-.062-.209-.06-.21-.059-.21-.058-.211-.057-.211-.055-.212-.054-.212-.053-.213-.051-.214-.05-.213-.049-.215-.048-.214-.046-.216-.045-.216-.043-.216-.043-.216-.04-.218-.04-.217-.038-.218-.037-.219-.036-.219-.034-.219-.033-.22-.032-.221-.03-.22-.029-.222-.027-.221-.026-.222-.025-.223-.024-.223-.022-.223-.02-.224-.019-.224-.018-.224-.017-.225-.015-.225-.013-.226-.012-.226-.011-.226-.01-.227-.007-.227-.007-.227-.005-.228-.004-.228-.002-.229-.001-.229.001-.229.002-.228.004-.228.005-.228.007-.228.007-.227.01-.226.011-.227.012-.226.013-.225.015-.226.017-.224.018-.225.019-.224.02-.224.022-.223.024-.223.025-.222.026-.222.027-.222.029-.221.03-.221.032-.22.033-.22.034-.22.036-.219.037-.218.038-.218.04-.218.04-.217.043-.217.043-.216.045-.216.046-.215.048-.215.049-.214.05-.214.051-.213.053-.213.054-.213.055-.211.057-.212.058-.21.059-.211.06-.209.062-.21.062-.208.064-.208.066-.208.066-.207.068-.206.069-.206.07-.206.072-.204.073-.204.073-.204.076-.203.076-.203.077-.201.079-.202.08-.2.081-.2.082-.2.084-.199.084-.198.086-.198.087-.197.088-.196.09-.196.09-.195.092-.194.092-.194.094-.193.095-.193.096-.192.098-.191.098-.19.099-.19.101-.189.102-.189.102-.187.104-.188.105-.186.106-.186.108-.185.108-.184.109-.184.111-.182.111-.183.113-.181.113-.181.115-.18.116-.179.116-.178.118-.178.119-.177.12-.176.121-.176.122-.175.123-.174.124-.173.125-.172.126-.172.127-.171.128-.17.129-.169.13-.168.131-.168.132-.167.132-.166.134-.165.135-.164.136-.164.137-.163.138-.162.138-.161.14-.16.141-.159.141-.159.142-.157.144-.157.144-.156.145-.155.147-.154.147-.154.148-.152.148-.152.15-.15.151-.15.151-.149.153-.148.153-.147.154-.146.155-.145.156-.145.157-.143.158-.143.158-.141.16-.141.16-.139.161-.139.162-.138.163-.137.163-.135.165-.135.165-.134.166-.133.167-.132.167-.131.169-.13.169-.129.17-.128.171-.127.171-.126.173-.125.173-.124.174-.123.175-.122.175-.121.176-.119.177-.119.178-.118.179-.117.179-.116.18-.114.181-.114.181-.112.182-.112.183-.11.184-.11.184-.108.185-.107.186-.106.186-.105.187-.104.188-.103.188-.102.19-.1.189-.1.191-.098.191-.097.192-.096.192-.095.194-.094.193-.093.195-.092.195-.09.196-.089.196-.088.197-.087.198-.086.198-.085.199-.083.199-.082.2-.082.201-.079.201-.079.202-.078.202-.076.203-.075.204-.074.204-.073.205-.071.205-.07.206-.069.207-.068.207-.067.207-.065.208-.064.209-.063.209-.062.21-.06.21-.059.211-.058.211-.056.212-.056.212-.054.213-.052.214-.052.213-.05.215-.049.214-.047.216-.046.216-.045.216-.044.217-.042.217-.041.217-.04.218-.038.219-.037.219-.036.219-.034.22-.033.221-.031.22-.031.222-.028.221-.028.222-.026.223-.025.223-.023.223-.022.224-.021.224-.019.224-.018.225-.016.225-.015.226-.014.226-.012.226-.011.227-.009.227-.008.227-.007.228-.005.228-.003.229-.002.229-.001.229.001zm-.439 3l-.209.002-.21.003-.209.004-.207.006-.209.008-.208.008-.207.01-.207.011-.207.013-.206.013-.205.016-.207.016-.205.017-.204.019-.205.02-.204.022-.204.023-.202.023-.203.026-.203.026-.202.028-.202.029-.2.03-.201.031-.201.033-.2.034-.2.035-.199.036-.198.037-.199.039-.197.04-.198.041-.197.042-.196.044-.196.044-.195.046-.196.047-.194.048-.195.05-.194.05-.193.052-.193.053-.192.054-.191.055-.192.056-.191.058-.19.058-.19.06-.189.061-.189.062-.188.063-.188.064-.187.066-.187.066-.187.068-.185.069-.185.069-.185.071-.184.072-.184.073-.182.074-.183.076-.182.076-.181.077-.18.079-.181.08-.18.08-.179.082-.178.082-.178.084-.178.085-.177.086-.176.087-.175.088-.175.089-.174.09-.174.091-.173.092-.173.093-.171.094-.172.095-.17.096-.17.098-.169.097-.169.099-.168.101-.168.101-.167.102-.165.103-.166.104-.164.105-.164.105-.164.107-.163.108-.162.109-.161.11-.161.11-.16.112-.159.113-.158.113-.158.115-.158.115-.156.116-.155.117-.156.119-.154.119-.153.12-.153.12-.152.122-.151.123-.151.123-.15.125-.149.125-.148.126-.147.127-.148.128-.146.129-.145.13-.144.13-.143.131-.143.132-.142.134-.142.133-.14.135-.139.135-.139.137-.139.137-.137.138-.136.139-.135.139-.135.141-.134.141-.133.142-.132.143-.131.143-.131.145-.13.145-.129.146-.127.147-.127.147-.126.148-.126.15-.124.149-.123.151-.123.151-.122.152-.121.153-.12.154-.119.154-.118.155-.117.156-.117.156-.115.157-.114.158-.114.158-.112.16-.112.159-.111.161-.109.162-.109.162-.108.162-.107.164-.106.164-.105.164-.104.166-.103.166-.102.167-.101.167-.1.168-.099.169-.098.169-.097.17-.096.171-.095.171-.094.172-.093.172-.093.173-.091.174-.09.175-.089.174-.087.176-.088.176-.085.177-.085.177-.084.178-.083.179-.081.178-.081.18-.08.181-.078.18-.077.182-.077.182-.075.182-.074.183-.073.183-.072.185-.071.184-.07.185-.069.186-.067.187-.067.186-.065.188-.064.187-.063.188-.063.189-.06.189-.06.191-.059.19-.057.19-.057.192-.055.192-.054.192-.053.193-.051.193-.051.194-.049.194-.048.195-.047.195-.046.195-.045.197-.043.196-.043.197-.041.197-.04.198-.038.198-.038.199-.036.199-.035.2-.034.199-.032.201-.032.201-.03.201-.029.201-.027.202-.027.203-.025.203-.024.203-.023.204-.021.204-.02.204-.019.204-.018.206-.016.206-.015.205-.014.207-.012.206-.011.207-.01.208-.009.207-.007.209-.006.208-.005.209-.003.209-.002.21-.001.209.001.21.002.209.003.21.005.208.006.209.007.208.009.208.01.207.011.207.012.207.014.206.015.206.016.206.018.205.019.204.02.205.021.204.023.203.024.204.025.203.027.202.027.202.029.202.03.201.032.201.032.2.034.2.035.2.036.199.038.199.038.198.04.197.041.198.043.197.043.196.045.196.046.196.047.195.048.195.049.194.051.194.051.192.053.194.054.192.055.191.057.192.057.191.059.19.06.19.06.189.062.189.064.188.064.188.065.187.067.187.067.186.069.186.07.185.071.185.072.184.073.184.074.183.075.182.077.182.077.181.078.181.08.18.081.18.081.179.083.178.084.178.085.178.085.176.088.177.087.175.089.175.091.174.09.174.092.173.094.172.094.173.095.17.096.171.097.17.098.17.099.168.1.168.101.168.102.166.103.166.104.166.105.164.106.165.107.163.108.163.109.162.109.161.111.161.112.16.112.159.114.159.114.157.116.157.116.157.117.156.118.155.12.154.119.153.121.153.122.152.122.151.124.151.124.15.125.149.127.148.127.148.127.146.129.146.13.146.131.144.131.143.132.144.133.141.134.141.134.141.136.14.137.139.136.137.139.138.139.136.139.135.14.135.142.134.141.133.144.132.143.132.145.13.144.129.146.129.148.129.147.126.148.126.149.126.15.124.151.124.151.122.152.122.153.121.153.12.155.119.154.118.156.117.157.117.157.115.158.114.158.114.159.112.16.112.161.111.162.11.161.108.163.108.164.107.164.106.164.105.165.103.167.104.167.102.167.101.167.1.17.099.169.098.17.097.17.096.172.095.171.094.173.093.173.093.174.091.174.09.175.089.175.088.176.086.177.086.178.085.178.084.178.083.179.081.18.081.18.08.181.078.181.077.182.077.183.075.182.074.184.073.184.072.185.071.185.07.186.069.186.067.187.067.187.065.188.064.188.063.189.062.189.061.19.06.19.059.192.057.191.057.191.055.192.054.193.053.193.051.194.051.195.049.194.048.196.047.195.046.195.045.197.043.198.043.197.041.197.04.199.038.198.038.199.036.2.035.2.034.201.032.201.032.2.03.202.029.202.027.202.027.203.025.204.024.203.023.204.021.205.02.204.019.206.018.205.016.206.015.207.014.206.012.207.011.207.01.209.009.207.007.208.006.21.005.208.003.21.002.21.001.21-.001.209-.002.209-.003.209-.005.209-.006.207-.007.208-.009.208-.01.207-.011.206-.012.207-.014.206-.015.205-.016.205-.018.205-.019.204-.02.204-.021.204-.023.204-.024.202-.025.203-.027.202-.027.201-.029.201-.03.201-.032.201-.032.2-.034.199-.035.199-.036.199-.038.198-.038.198-.04.197-.041.197-.043.197-.043.196-.045.195-.046.195-.047.195-.048.194-.049.194-.051.193-.051.193-.053.192-.054.192-.055.191-.057.191-.057.191-.059.189-.06.19-.061.189-.062.188-.063.188-.064.187-.065.187-.067.186-.067.186-.069.185-.07.184-.071.185-.072.183-.073.183-.074.182-.075.182-.077.182-.077.181-.079.18-.079.18-.081.178-.081.179-.083.177-.084.178-.085.177-.086.176-.086.175-.088.175-.089.175-.09.174-.092.173-.091.172-.094.172-.094.171-.095.171-.096.169-.097.17-.098.169-.099.168-.1.167-.101.167-.102.166-.104.165-.103.165-.105.164-.106.164-.107.163-.108.161-.108.162-.11.161-.111.159-.112.159-.112.159-.114.158-.114.157-.115.157-.117.155-.117.155-.118.155-.119.153-.12.153-.121.152-.122.151-.122.151-.124.149-.124.149-.125.149-.127.147-.126.147-.129.146-.129.145-.129.144-.13.144-.132.143-.132.142-.133.141-.134.141-.134.139-.136.139-.136.138-.138.137-.137.137-.139.135-.14.135-.141.134-.141.132-.141.133-.144.131-.143.13-.144.13-.146.129-.146.128-.146.127-.148.126-.148.125-.149.125-.15.123-.151.123-.151.122-.152.121-.153.119-.153.119-.154.119-.155.117-.156.116-.157.115-.157.115-.158.113-.158.113-.159.112-.16.11-.161.11-.161.109-.162.108-.163.106-.163.106-.164.105-.165.104-.166.103-.166.102-.166.101-.168.1-.168.1-.168.098-.17.097-.17.096-.171.095-.17.094-.172.093-.173.092-.173.091-.174.09-.174.089-.175.088-.175.087-.177.086-.177.085-.177.084-.178.082-.178.082-.179.081-.18.079-.18.079-.181.077-.181.077-.182.075-.183.074-.182.073-.184.072-.184.071-.185.07-.185.068-.186.068-.186.066-.187.066-.187.064-.188.063-.188.062-.189.061-.189.06-.19.058-.19.058-.191.056-.191.055-.192.054-.192.053-.193.052-.194.05-.193.05-.194.048-.195.047-.195.046-.196.044-.196.044-.196.042-.197.041-.198.04-.197.039-.198.037-.199.037-.2.035-.199.033-.2.033-.2.031-.201.03-.201.029-.202.028-.202.026-.202.026-.203.024-.204.022-.203.022-.204.02-.205.019-.204.017-.205.016-.206.016-.206.013-.206.013-.207.011-.207.01-.207.008-.208.008-.208.006-.208.004-.209.003-.21.002-.209.001-.21-.001-.21-.002-.209-.003-.209-.004-.209-.006-.208-.008-.208-.008-.209-.01-.207-.011-.207-.013-.206-.013-.206-.016-.206-.016-.206-.017-.206-.019-.204-.02-.204-.022-.204-.022-.204-.024-.203-.026-.203-.026-.203-.028-.201-.029-.202-.03-.202-.031-.2-.033-.201-.033-.199-.035-.2-.037-.199-.037-.199-.039-.198-.04-.198-.041-.197-.042-.197-.044-.197-.044-.196-.046-.195-.047-.195-.048-.195-.05-.194-.05-.194-.052-.193-.053-.193-.054-.192-.055-.192-.056-.191-.058-.191-.058-.19-.06-.19-.061-.19-.062-.189-.063-.188-.064-.187-.066-.188-.066-.187-.068-.186-.068-.186-.07-.185-.071-.184-.072-.185-.073-.183-.074-.183-.076-.182-.076-.182-.077-.182-.079-.181-.079-.18-.081-.179-.082-.179-.082-.179-.084-.178-.085-.177-.086-.177-.087-.176-.088-.176-.089-.175-.09-.173-.091-.174-.092-.174-.093-.172-.094-.172-.095-.171-.096-.171-.097-.17-.098-.169-.1-.169-.1-.168-.1-.167-.103-.167-.103-.166-.104-.166-.105-.164-.105-.164-.108-.164-.107-.162-.109-.162-.11-.162-.111-.161-.111-.159-.113-.16-.113-.158-.115-.158-.115-.157-.116-.156-.118-.156-.118-.155-.119-.154-.12-.154-.12-.153-.122-.152-.123-.151-.123-.151-.125-.149-.125-.15-.126-.148-.127-.147-.128-.147-.129-.146-.13-.145-.13-.144-.131-.144-.133-.143-.132-.142-.134-.141-.135-.141-.135-.139-.137-.139-.137-.138-.138-.137-.139-.137-.139-.135-.141-.135-.141-.133-.142-.134-.143-.132-.143-.131-.145-.13-.145-.13-.146-.129-.147-.128-.148-.127-.148-.126-.148-.125-.15-.124-.151-.124-.151-.123-.152-.122-.153-.12-.153-.12-.155-.119-.155-.119-.155-.117-.157-.116-.157-.115-.158-.115-.159-.113-.159-.113-.16-.112-.16-.11-.161-.11-.163-.109-.162-.108-.164-.106-.164-.106-.165-.105-.165-.104-.166-.103-.167-.102-.167-.102-.168-.1-.169-.099-.169-.098-.17-.097-.171-.096-.171-.095-.172-.094-.172-.093-.173-.092-.174-.091-.175-.09-.175-.089-.175-.088-.176-.087-.177-.086-.178-.085-.177-.084-.179-.082-.178-.082-.18-.08-.181-.08-.18-.079-.181-.077-.183-.076-.182-.076-.183-.074-.183-.073-.185-.072-.185-.071-.184-.069-.185-.069-.187-.068-.187-.066-.187-.066-.188-.064-.189-.063-.188-.062-.189-.061-.191-.06-.19-.058-.19-.058-.192-.056-.192-.055-.192-.054-.193-.053-.193-.052-.194-.05-.194-.05-.195-.048-.195-.047-.195-.046-.197-.044-.196-.044-.196-.042-.198-.041-.198-.04-.198-.039-.199-.037-.199-.036-.199-.035-.2-.034-.201-.033-.201-.031-.201-.03-.201-.029-.202-.028-.203-.026-.203-.026-.202-.023-.205-.023-.204-.022-.204-.02-.205-.019-.204-.017-.207-.016-.205-.016-.206-.013-.207-.013-.208-.011-.207-.01-.207-.008-.209-.008-.208-.006-.209-.004-.209-.003-.209-.002-.21-.001-.21.001z" fill="#f1702d"/>
        <g font-family="'Arial-BoldMT','Arial',sans-serif" font-weight="700" font-size="125">
            <text x="344.18" y="309.11" fill="none" transform="matrix(.3014 0 0 .3014 546.901 148.39)">
                Ai
            </text>
            <text x="344.18" y="309.11" fill="#f1702d" transform="matrix(.3014 0 0 .3014 546.901 148.39)">
                Ai
            </text>
        </g>
    </g>
    <g>
        <circle cx="221.78" cy="83.23" r="29.84" fill="#3554fe"/>
        <path d="M221.977 53.381l.192.002.193.003.192.004.191.006.192.006.191.008.191.009.19.011.19.011.19.013.19.014.189.015.189.016.188.017.189.019.187.019.188.021.187.022.187.023.186.025.186.025.186.027.185.028.185.029.185.03.184.031.184.032.184.033.183.035.182.036.183.036.181.038.182.039.181.04.181.041.18.043.18.043.179.044.179.046.178.046.179.048.177.049.177.049.177.051.177.052.175.053.176.054.175.055.174.056.174.057.174.059.173.059.172.06.173.061.171.063.171.063.171.064.17.066.17.066.169.067.169.069.168.069.167.07.167.072.167.072.166.073.165.075.165.075.165.076.164.077.163.078.163.08.162.08.162.081.161.082.161.082.16.084.159.085.159.086.158.086.158.088.157.089.157.089.156.09.155.092.155.092.154.093.153.094.153.095.152.095.152.097.151.098.151.098.15.099.149.1.148.101.148.102.147.103.147.104.146.104.145.106.145.106.144.107.143.108.143.108.142.11.141.11.141.112.14.112.139.113.139.113.137.115.138.115.136.116.136.117.135.118.134.118.134.119.133.121.132.12.131.122.131.122.13.124.129.124.129.124.127.126.127.126.127.127.125.128.125.128.124.129.123.13.122.131.122.132.121.132.12.133.119.133.119.135.117.135.117.135.116.137.116.137.114.138.114.138.113.14.112.14.111.14.11.142.11.142.109.142.108.144.107.143.106.145.105.145.105.146.103.147.103.147.102.148.101.149.1.149.099.15.099.15.097.151.097.152.096.152.095.153.094.154.093.154.092.155.091.155.09.156.09.156.088.158.088.157.087.159.085.158.085.16.084.16.083.16.082.162.081.161.08.162.079.163.078.164.077.164.077.164.075.165.074.165.073.167.073.166.071.167.07.168.07.168.068.169.067.169.067.169.065.17.064.171.064.171.062.172.061.172.061.173.059.173.058.173.057.174.056.175.055.175.054.175.053.176.052.176.051.177.05.177.048.178.048.178.047.178.045.179.045.18.043.18.042.18.041.181.04.181.039.181.038.182.037.182.036.183.034.183.033.183.033.184.031.184.03.185.029.185.028.185.026.186.026.186.024.187.023.186.022.188.021.187.02.188.018.188.018.189.016.188.015.19.014.189.012.19.012.19.01.191.009.191.008.191.007.191.005.192.004.192.004.192.001.193.001.193-.001.192-.001.193-.004.192-.004.192-.005.192-.007.192-.008.191-.009.19-.01.191-.012.19-.012.19-.014.189-.015.19-.016.189-.018.188-.018.188-.02.188-.021.188-.022.187-.023.187-.024.186-.026.186-.026.186-.028.185-.029.185-.03.185-.031.184-.033.184-.033.183-.034.183-.036.183-.037.182-.038.182-.039.182-.04.181-.041.18-.042.18-.043.18-.045.18-.045.179-.047.178-.048.178-.048.178-.05.177-.051.177-.052.176-.053.176-.054.175-.055.175-.056.175-.057.174-.058.173-.059.174-.061.172-.061.172-.062.172-.064.171-.064.171-.065.17-.067.169-.067.17-.068.168-.07.168-.07.168-.071.167-.073.167-.073.166-.074.165-.075.165-.077.165-.077.163-.078.164-.079.163-.08.162-.081.162-.082.161-.083.16-.084.16-.085.16-.085.159-.087.158-.088.158-.088.157-.09.156-.09.156-.091.156-.092.154-.093.154-.094.154-.095.153-.096.152-.097.152-.097.151-.099.15-.099.15-.1.149-.101.149-.102.148-.103.147-.103.147-.105.146-.105.145-.106.145-.107.144-.108.143-.109.143-.11.142-.11.141-.111.141-.112.139-.113.14-.114.138-.114.138-.116.137-.116.137-.117.135-.117.136-.119.134-.119.133-.12.133-.121.133-.122.131-.122.131-.123.13-.124.129-.125.128-.125.128-.127.127-.127.126-.127.126-.129.125-.129.123-.13.124-.131.122-.131.122-.132.121-.133.12-.134.119-.134.118-.135.118-.136.117-.136.116-.138.115-.137.115-.139.114-.139.112-.14.113-.141.111-.141.11-.142.11-.143.108-.143.108-.144.107-.145.106-.145.106-.146.104-.147.104-.147.103-.148.102-.148.101-.149.1-.15.099-.151.099-.151.097-.152.097-.152.096-.153.094-.153.094-.154.093-.155.093-.155.091-.156.09-.157.09-.157.088-.158.088-.158.086-.159.086-.159.085-.16.084-.161.083-.161.082-.162.081-.162.08-.163.079-.163.078-.164.077-.165.076-.165.076-.165.074-.166.073-.167.072-.167.072-.167.07-.168.069-.169.069-.169.067-.17.066-.17.066-.171.064-.171.063-.171.063-.173.061-.172.06-.173.059-.174.059-.174.057-.174.056-.175.055-.176.054-.175.053-.177.052-.177.051-.177.049-.177.049-.179.048-.178.046-.179.046-.179.044-.18.044-.18.042-.181.041-.181.04-.182.039-.181.038-.183.037-.182.035-.183.035-.184.033-.184.032-.184.032-.185.03-.185.029-.185.027-.186.027-.186.025-.186.025-.187.023-.187.022-.188.021-.187.019-.189.019-.188.017-.189.017-.189.015-.19.013-.19.013-.19.012-.19.01-.191.009-.191.008-.192.006-.191.006-.192.004-.193.003-.192.002-.193.001-.193-.001-.193-.002-.192-.003-.192-.004-.192-.006-.191-.006-.191-.008-.191-.009-.19-.01-.191-.012-.189-.013-.19-.013-.189-.015-.189-.017-.189-.017-.188-.019-.188-.019-.187-.021-.187-.022-.187-.023-.187-.025-.186-.025-.185-.027-.186-.027-.185-.029-.184-.03-.185-.032-.183-.032-.184-.033-.183-.035-.183-.035-.182-.037-.182-.038-.181-.039-.181-.04-.181-.041-.18-.042-.18-.044-.179-.044-.179-.046-.179-.046-.178-.048-.177-.049-.178-.049-.176-.051-.177-.052-.176-.053-.175-.054-.175-.055-.174-.056-.175-.057-.173-.059-.173-.059-.173-.06-.172-.061-.171-.063-.172-.063-.17-.064-.17-.066-.17-.066-.169-.067-.169-.069-.168-.069-.168-.07-.167-.072-.166-.072-.166-.073-.166-.074-.165-.076-.164-.076-.164-.077-.163-.078-.163-.079-.162-.08-.162-.081-.161-.082-.161-.083-.16-.084-.159-.085-.159-.086-.158-.086-.158-.088-.157-.088-.157-.09-.156-.09-.155-.091-.155-.093-.154-.093-.154-.094-.152-.094-.153-.096-.151-.097-.152-.097-.15-.099-.15-.099-.149-.1-.149-.101-.147-.102-.148-.103-.146-.104-.146-.104-.146-.106-.144-.106-.144-.107-.144-.108-.142-.108-.142-.11-.141-.11-.141-.111-.14-.113-.139-.112-.139-.114-.138-.115-.137-.115-.136-.116-.136-.117-.135-.118-.134-.118-.134-.119-.133-.12-.132-.121-.132-.122-.13-.122-.13-.124-.129-.123-.129-.125-.128-.126-.127-.126-.126-.127-.125-.128-.125-.128-.124-.129-.123-.13-.123-.131-.121-.131-.121-.133-.12-.133-.12-.133-.118-.134-.118-.136-.117-.135-.116-.137-.115-.137-.115-.138-.113-.138-.113-.14-.112-.139-.111-.141-.111-.141-.109-.142-.109-.143-.108-.143-.107-.144-.106-.145-.105-.145-.105-.146-.104-.147-.102-.147-.102-.148-.101-.149-.1-.149-.1-.15-.098-.15-.098-.151-.096-.152-.096-.152-.095-.153-.094-.154-.093-.154-.092-.154-.091-.156-.091-.156-.089-.156-.089-.157-.087-.158-.087-.158-.086-.159-.084-.16-.084-.16-.083-.16-.082-.161-.081-.162-.08-.162-.079-.163-.078-.164-.078-.163-.076-.165-.075-.165-.074-.165-.074-.166-.072-.167-.071-.167-.071-.168-.069-.168-.068-.168-.068-.17-.066-.169-.065-.17-.065-.171-.063-.171-.062-.172-.062-.172-.06-.172-.059-.174-.058-.173-.057-.174-.056-.175-.056-.175-.054-.175-.052-.176-.052-.176-.051-.177-.05-.177-.049-.178-.047-.178-.047-.178-.045-.179-.045-.18-.043-.18-.042-.18-.042-.18-.04-.181-.039-.182-.037-.182-.037-.182-.036-.183-.034-.183-.034-.183-.032-.184-.031-.184-.03-.185-.029-.185-.028-.185-.026-.186-.026-.186-.024-.186-.023-.187-.022-.187-.021-.188-.02-.188-.019-.188-.017-.188-.016-.189-.015-.19-.014-.189-.013-.19-.011-.19-.01-.191-.009-.19-.008-.191-.007-.192-.005-.192-.005-.192-.003-.192-.002-.193v-.385l.002-.193.003-.192.005-.192.005-.192.007-.191.008-.191.009-.191.01-.191.011-.19.013-.19.014-.189.015-.19.016-.188.017-.189.019-.188.02-.188.021-.187.022-.188.023-.186.024-.187.026-.186.026-.186.028-.185.029-.185.03-.185.031-.184.032-.184.034-.183.034-.183.036-.183.037-.182.037-.182.039-.181.04-.181.042-.181.042-.18.043-.18.045-.18.045-.179.047-.178.047-.178.049-.178.05-.177.051-.177.052-.176.052-.176.054-.175.056-.175.056-.175.057-.174.058-.173.059-.173.06-.173.062-.172.062-.172.063-.171.065-.171.065-.17.066-.169.068-.169.068-.169.069-.168.071-.168.071-.167.072-.166.074-.167.074-.165.075-.165.076-.164.078-.164.078-.164.079-.163.08-.162.081-.161.082-.162.083-.16.084-.16.084-.16.086-.158.087-.159.087-.157.089-.158.089-.156.091-.156.091-.155.092-.155.093-.154.094-.154.095-.153.096-.152.096-.152.098-.151.098-.15.1-.15.1-.149.101-.149.102-.148.102-.147.104-.147.105-.146.105-.145.106-.145.107-.143.108-.144.109-.142.109-.142.111-.142.111-.14.112-.14.113-.14.113-.138.115-.138.115-.137.116-.137.117-.135.118-.135.118-.135.12-.133.12-.133.121-.132.121-.132.123-.131.123-.13.124-.129.125-.128.125-.128.126-.127.127-.126.128-.126.129-.124.129-.124.13-.124.13-.122.132-.122.132-.12.133-.121.134-.119.134-.118.135-.118.136-.117.136-.116.137-.115.138-.115.139-.113.139-.113.14-.112.141-.112.141-.11.142-.11.142-.108.144-.108.144-.107.144-.106.146-.106.146-.104.146-.104.148-.103.147-.102.149-.101.149-.1.15-.099.15-.098.152-.098.151-.097.153-.095.152-.095.154-.094.154-.093.155-.092.155-.092.156-.09.157-.089.157-.089.158-.088.158-.086.159-.086.159-.085.16-.084.161-.082.161-.082.162-.081.162-.08.163-.08.163-.078.164-.077.164-.076.165-.075.166-.075.166-.073.166-.072.167-.072.168-.07.168-.069.169-.069.169-.067.17-.066.17-.066.17-.064.172-.063.171-.063.172-.061.173-.06.173-.059.173-.059.175-.057.174-.056.175-.055.175-.054.176-.053.177-.052.176-.051.178-.049.177-.049.178-.048.179-.046.179-.046.179-.044.18-.043.18-.043.181-.041.181-.04.181-.039.182-.038.182-.036.183-.036.183-.035.184-.033.183-.032.185-.031.184-.03.185-.029.186-.028.185-.027.186-.025.187-.025.187-.023.187-.022.187-.021.188-.019.188-.019.189-.017.189-.016.189-.015.19-.014.189-.013.191-.011.19-.011.191-.009.191-.008.191-.006.192-.006.192-.004.192-.003.193-.002.193-.001.193.001zm-.366 3l-.175.002-.173.002-.173.004-.173.005-.172.006-.172.007-.172.009-.172.009-.171.01-.171.011-.17.013-.169.013-.171.015-.171.016-.168.016-.169.018-.169.019-.169.02-.168.021-.167.021-.166.023-.169.024-.167.025-.165.026-.166.027-.166.028-.165.029-.164.03-.164.031-.166.032-.165.034-.163.033-.162.035-.162.036-.163.037-.163.038-.162.039-.16.04-.16.041-.162.042-.159.042-.159.044-.161.045-.159.046-.158.046-.157.048-.158.049-.157.049-.158.051-.156.051-.156.052-.156.053-.154.054-.154.055-.156.057-.153.057-.154.057-.152.059-.152.059-.152.061-.153.062-.152.062-.148.063-.151.064-.151.066-.147.065-.15.067-.148.068-.149.068-.148.07-.146.07-.145.07-.146.073-.147.073-.144.073-.144.075-.144.075-.143.076-.144.078-.142.078-.142.078-.142.081-.14.079-.14.081-.14.083-.139.083-.138.083-.139.085-.137.085-.137.086-.137.087-.136.088-.135.088-.134.09-.136.091-.133.09-.132.091-.134.094-.132.093-.131.093-.131.095-.13.096-.128.095-.13.098-.129.098-.126.098-.128.1-.128.101-.126.1-.124.101-.124.102-.125.104-.124.104-.123.104-.121.105-.122.107-.121.106-.121.108-.12.108-.118.108-.118.109-.118.111-.118.112-.115.11-.115.112-.116.113-.115.115-.113.114-.113.114-.112.116-.111.116-.112.118-.11.118-.109.117-.109.12-.109.12-.107.12-.106.12-.106.122-.105.122-.105.123-.104.124-.103.124-.102.125-.102.124-.1.126-.101.128-.099.127-.099.127-.097.129-.098.129-.096.129-.095.13-.096.132-.094.131-.092.131-.093.132-.092.134-.091.134-.09.134-.089.135-.089.135-.087.136-.087.136-.086.137-.086.138-.085.138-.083.139-.083.139-.082.14-.081.14-.081.141-.079.141-.079.142-.078.142-.077.143-.077.144-.075.144-.074.143-.074.145-.073.146-.072.146-.071.147-.07.146-.069.147-.069.148-.068.149-.067.148-.066.15-.064.149-.064.15-.064.151-.062.152-.061.151-.061.152-.06.152-.058.153-.058.154-.057.153-.056.155-.055.154-.054.156-.054.155-.052.156-.051.157-.051.156-.049.157-.049.158-.047.158-.047.159-.046.159-.044.158-.044.16-.043.16-.042.161-.041.161-.04.161-.038.161-.039.163-.036.162-.036.162-.035.163-.035.164-.033.164-.031.164-.032.165-.03.164-.029.166-.028.165-.027.166-.026.167-.025.166-.023.167-.023.168-.022.167-.021.169-.02.168-.019.168-.017.169-.017.17-.016.17-.014.169-.014.171-.012.17-.012.171-.01.171-.009.172-.008.172-.007.172-.007.172-.004.173-.004.173-.003.173-.002.174v.347l.002.174.003.173.004.173.004.173.007.172.007.172.008.172.009.172.01.171.012.171.012.171.014.17.014.17.016.169.017.17.017.169.019.168.02.169.021.168.022.167.023.168.023.167.025.166.026.167.027.166.028.165.029.166.03.165.032.164.031.164.033.164.035.164.035.163.036.162.036.163.039.162.038.162.04.161.041.16.042.161.043.16.044.16.044.159.046.158.047.159.047.158.049.158.049.157.051.157.051.156.052.156.054.155.054.156.055.155.056.154.057.153.058.154.058.153.06.152.061.153.061.151.062.151.063.151.064.149.066.151.066.149.066.148.068.149.069.148.069.147.07.147.071.147.072.145.073.146.074.145.074.144.075.143.077.144.077.143.078.142.079.142.079.141.081.141.081.141.082.14.083.139.083.138.085.138.085.138.087.137.087.137.087.135.089.135.089.135.09.134.091.134.092.134.093.132.092.131.094.132.096.131.095.131.096.128.098.13.097.128.099.127.099.128.1.126.101.127.102.125.102.125.103.123.104.124.105.123.104.122.107.121.107.122.106.119.109.12.109.12.109.118.11.117.112.118.111.116.112.116.113.114.113.114.115.115.115.112.116.112.116.112.117.111.118.111.118.109.118.108.12.108.121.108.121.107.122.106.121.105.123.104.124.104.125.104.124.102.124.101.126.1.128.101.128.1.126.098.129.098.13.098.128.095.13.096.131.095.131.093.132.093.134.094.132.091.133.091.136.091.134.089.135.088.136.088.137.087.137.086.137.085.139.085.138.084.139.082.139.082.141.082.141.08.141.08.142.078.142.078.144.078.143.076.144.075.144.075.144.073.147.074.146.072.145.07.146.07.148.07.149.069.148.067.15.068.147.065.151.065.151.064.148.063.152.062.153.062.152.061.152.059.152.059.154.058.153.056.154.056.155.055.157.055.155.053.155.052.156.052.158.05.157.05.158.048.157.048.158.046.159.046.16.045.16.044.161.043.158.041.162.041.162.04.16.039.163.038.163.037.161.036.163.035.164.034.164.033.164.032.166.031.165.03.164.029.166.028.164.027.167.026.168.025.168.024.166.023.167.022.168.02.169.02.169.019.169.018.168.016.171.016.171.015.169.013.17.013.171.011.171.01.172.01.172.008.172.007.172.006.173.005.173.004.173.002.174.002.174.001.174-.001.174-.002.173-.002.173-.004.172-.005.173-.006.172-.007.171-.008.173-.01.171-.01.17-.011.17-.013.17-.013.171-.015.17-.016.169-.016.168-.018.17-.019.168-.02.169-.02.167-.022.166-.023.167-.024.169-.025.166-.026.165-.027.166-.028.164-.029.165-.03.166-.031.164-.032.163-.033.165-.034.163-.035.161-.036.163-.037.163-.038.16-.039.162-.04.162-.041.158-.041.161-.043.16-.044.16-.045.159-.046.158-.046.157-.048.158-.048.157-.05.157-.05.157-.052.155-.052.155-.053.157-.055.154-.055.154-.056.154-.056.153-.058.153-.059.152-.059.152-.061.152-.062.152-.062.149-.063.151-.064.151-.065.147-.065.149-.068.149-.067.149-.069.147-.07.146-.07.146-.07.146-.072.147-.074.144-.073.144-.075.144-.075.142-.076.144-.078.143-.078.141-.078.142-.08.14-.08.141-.082.14-.082.139-.082.138-.084.139-.085.137-.085.137-.086.137-.087.136-.088.135-.088.134-.089.136-.091.133-.091.132-.091.134-.094.132-.093.13-.093.131-.095.13-.096.129-.095.13-.098.128-.098.127-.098.128-.1.128-.101.125-.1.125-.101.124-.102.125-.104.124-.104.122-.104.122-.105.122-.106.121-.107.12-.108.12-.108.119-.108.118-.109.117-.111.118-.111.116-.112.116-.112.114-.112.115-.115.114-.114.112-.114.113-.116.111-.116.112-.118.11-.117.109-.118.109-.12.109-.12.106-.119.107-.122.107-.121.104-.122.105-.123.104-.124.103-.123.102-.125.101-.125.101-.127.101-.126.099-.128.098-.127.098-.129.097-.129.096-.128.096-.131.095-.131.094-.132.093-.131.092-.132.093-.134.09-.133.09-.135.09-.135.089-.135.087-.135.087-.137.086-.137.086-.138.084-.138.084-.138.082-.139.083-.14.081-.141.081-.141.079-.141.079-.142.078-.142.077-.143.076-.144.076-.144.074-.143.074-.145.072-.146.072-.145.072-.148.07-.146.069-.147.069-.148.068-.149.066-.148.066-.149.065-.151.064-.149.063-.151.063-.151.061-.152.061-.152.059-.152.059-.153.058-.154.057-.153.056-.154.055-.155.054-.155.053-.156.053-.156.051-.156.05-.157.05-.157.048-.158.048-.158.047-.159.045-.158.045-.159.044-.16.043-.16.042-.161.04-.16.04-.161.039-.162.038-.162.037-.162.036-.163.035-.163.034-.164.033-.164.032-.164.031-.164.03-.165.029-.166.028-.165.027-.166.026-.167.025-.166.024-.167.023-.168.022-.167.021-.168.02-.169.018-.168.018-.169.017-.17.015-.169.015-.17.014-.171.012-.17.011-.171.011-.171.009-.172.008-.171.007-.173.006-.172.005-.173.004-.173.003-.173.001-.174.001-.174-.001-.173-.001-.174-.003-.173-.004-.173-.005-.173-.006-.172-.007-.172-.008-.172-.009-.172-.011-.171-.011-.171-.012-.17-.014-.171-.015-.17-.015-.169-.017-.17-.018-.169-.018-.168-.02-.169-.021-.168-.022-.167-.023-.168-.024-.167-.025-.166-.026-.167-.027-.166-.028-.165-.029-.166-.03-.164-.031-.165-.032-.164-.033-.164-.034-.164-.035-.163-.036-.162-.037-.162-.038-.163-.039-.161-.04-.161-.04-.161-.042-.161-.043-.16-.044-.16-.045-.158-.045-.159-.047-.159-.048-.158-.048-.158-.05-.157-.05-.156-.051-.157-.053-.156-.053-.155-.054-.155-.055-.155L247 74l-.057-.153-.058-.154-.059-.153-.059-.152-.061-.152-.061-.151-.063-.152-.063-.151-.064-.15-.065-.149-.066-.149-.066-.149-.068-.149-.069-.148-.069-.147-.07-.146-.072-.147-.072-.146-.072-.146-.074-.145-.074-.143-.076-.144-.076-.144-.077-.143-.078-.142-.079-.142-.079-.141-.081-.141-.081-.14-.083-.141-.082-.138-.084-.139-.084-.138-.086-.138-.086-.137-.087-.136-.087-.136-.089-.135-.09-.135-.09-.134-.09-.134-.093-.133-.092-.133-.093-.131-.094-.131-.095-.132-.096-.13-.096-.129-.097-.129-.098-.129-.098-.127-.099-.127-.101-.128-.101-.126-.101-.124-.102-.125-.103-.124-.104-.124-.105-.123-.105-.122-.106-.122-.106-.12-.107-.12-.109-.12-.109-.12-.109-.117-.11-.118-.112-.118-.111-.116-.113-.116-.112-.114-.114-.114-.115-.115-.115-.113-.115-.112-.116-.11-.118-.112-.117-.111-.118-.109-.119-.108-.12-.108-.12-.108-.121-.106-.122-.107-.122-.105-.122-.104-.124-.104-.125-.104-.124-.102-.125-.101-.125-.1-.128-.101-.128-.1-.127-.098-.128-.098-.13-.098-.129-.095-.13-.096-.131-.095-.13-.093-.132-.093-.134-.094-.132-.091-.133-.09-.136-.091-.134-.09-.135-.088-.136-.088-.137-.087-.137-.086-.137-.085-.139-.085-.138-.083-.139-.083-.141-.083-.14-.081-.139-.08-.143-.08-.141-.078-.143-.078-.144-.078-.142-.076-.144-.075-.144-.075-.144-.073-.147-.073-.146-.073-.146-.07-.146-.07-.147-.07-.149-.068-.149-.068-.149-.067-.147-.065-.151-.066-.151-.064-.149-.063-.152-.062-.152-.062-.152-.061-.152-.059-.153-.059-.153-.057-.154-.057-.155-.057-.155-.055-.153-.054-.156-.053-.156-.052-.157-.051-.157-.051-.157-.049-.158-.049-.157-.048-.158-.046-.159-.046-.162-.045-.158-.044-.16-.042-.161-.042-.16-.041-.161-.04-.161-.039-.163-.038-.163-.037-.163-.036-.161-.035-.163-.033-.165-.034-.166-.032-.164-.031-.164-.03-.165-.029-.166-.028-.166-.027-.165-.026-.167-.025-.169-.024-.166-.023-.167-.021-.169-.021-.168-.02-.17-.019-.168-.018-.169-.016-.17-.016-.171-.015-.17-.013-.17-.013-.17-.011-.171-.01-.173-.009-.171-.009-.172-.007-.173-.006-.172-.005-.173-.004-.173-.002-.176-.002-.172-.001-.173.001z" fill="#6bc7ff"/>
        <path d="M223.382 67.421l.377.889h1.564l13.812 23.6-3.092 4.897h-11.937l1.217 2.223h-.521l-1.275-2.223h-14.805l-.667-1.362h-1.043l-2.579-4.665 3.361-5.997 3.361-1.883 5.302-9.156-1.13-1.815 2.608-4.508h5.447zM211.81 91.91h8.982l-.978-1.742h9.67l-8.33-14.595-9.344 16.337z" fill="#6bc7ff"/>
    </g>
    <g>
        <circle cx="718.29" cy="88.59" r="30.08" fill="#f93333" stroke="#ebebeb" stroke-linecap="butt" stroke-linejoin="round" stroke-miterlimit="1.41"/>
        <path d="M737.67 86.8l-17.59-17.588a2.593 2.593 0 0 0-3.669 0l-3.652 3.653 4.633 4.632a3.08 3.08 0 0 1 3.902 3.929l4.465 4.465a3.087 3.087 0 1 1-1.177 5.099 3.088 3.088 0 0 1-.671-3.358l-4.166-4.164v10.959a3.087 3.087 0 1 1-2.538-.09V83.276a3.088 3.088 0 0 1-1.676-4.049l-4.567-4.568-12.061 12.06a2.596 2.596 0 0 0 0 3.67l17.59 17.589a2.595 2.595 0 0 0 3.669 0L737.67 90.47a2.596 2.596 0 0 0 0-3.67z" fill="#fff" fill-rule="nonzero"/>
    </g>
    <g>
        <path d="M327.072 180.424l8.138 4.43-.453.261v15.718l.408.235-8.01 4.247a24.447 24.447 0 0 1-3.423-12.517c0-4.511 1.215-8.74 3.34-12.374zM369.695 180.475a24.435 24.435 0 0 1 3.311 12.323c0 4.563-1.243 8.838-3.411 12.496l-8.009-4.233.394-.228v-15.718l-.417-.241 8.132-4.399z" fill="#adc8f2"/>
        <path d="M348.361 192.015l13.202-7.141.417.241v15.718l-.394.228-13.225-6.99-13.196 6.997-.408-.235v-15.718l.453-.261 13.151 7.161z" fill="#6f95db"/>
        <path d="M335.165 201.068l13.204 7.623 13.217-7.63 8.009 4.233c-4.286 7.267-12.192 12.141-21.226 12.141-9.026 0-16.926-4.865-21.214-12.12l8.01-4.247zM327.072 180.424c4.265-7.333 12.21-12.263 21.297-12.263 9.109 0 17.07 4.955 21.326 12.314l-8.132 4.399-13.194-7.617-13.159 7.597 13.151 7.161-21.289-11.591z" fill="#adc8f2"/>
        <path d="M348.361 194.071l13.225 6.99-13.217 7.63-13.204-7.623 13.196-6.997zM361.563 184.874l-13.202 7.141-13.151-7.161 13.159-7.597 13.194 7.617z" fill="#7ea0df"/>
    </g>
    <g>
        <circle cx="494.19" cy="74.99" r="23.6" fill="#a0d672"/>
        <path d="M500.497 66.445a.195.195 0 0 0-.195.195v4.986a.133.133 0 0 1-.065.117.14.14 0 0 1-.137 0l-.815-.469a.39.39 0 0 0-.391 0l-3.252 1.876a.402.402 0 0 0-.195.346v3.753a.39.39 0 0 0 .195.339l3.252 1.877c.122.07.27.07.391 0l3.252-1.877a.39.39 0 0 0 .195-.339v-9.357a.397.397 0 0 0-.202-.346l-1.935-1.082a.184.184 0 0 0-.098-.019zm-20.918 4.685a.379.379 0 0 0-.176.046l-3.252 1.877a.389.389 0 0 0-.195.339l.006 5.037c0 .07.036.135.098.169.06.036.135.036.196 0l1.928-1.108a.394.394 0 0 0 .202-.338v-2.353a.39.39 0 0 1 .196-.339l.821-.475a.38.38 0 0 1 .196-.053c.067 0 .135.017.195.053l.821.475a.39.39 0 0 1 .196.339v2.353c0 .14.08.267.202.338l1.929 1.108a.19.19 0 0 0 .195 0 .195.195 0 0 0 .098-.169l.006-5.037a.386.386 0 0 0-.195-.339l-3.252-1.877a.375.375 0 0 0-.176-.046h-.039zm29.22.046a.388.388 0 0 0-.195.052l-3.252 1.877a.39.39 0 0 0-.195.339v3.753c0 .141.079.269.202.339l3.225 1.838a.391.391 0 0 0 .385.006l1.955-1.088a.192.192 0 1 0 .006-.339l-3.271-1.877a.21.21 0 0 1-.104-.176v-1.173a.2.2 0 0 1 .104-.169l1.017-.587a.194.194 0 0 1 .195 0l1.017.587c.06.035.097.099.097.169v.926a.196.196 0 0 0 .294.169l1.948-1.134a.392.392 0 0 0 .196-.339v-.905a.392.392 0 0 0-.196-.339l-3.232-1.877a.391.391 0 0 0-.196-.052zm-9.722 2.802c.017 0 .037.004.052.013l1.114.645c.03.018.052.05.052.085v1.29a.1.1 0 0 1-.052.085l-1.114.645a.1.1 0 0 1-.098 0l-1.114-.645a.1.1 0 0 1-.052-.085v-1.29a.1.1 0 0 1 .052-.085l1.114-.645a.084.084 0 0 1 .046-.013z" fill="#404137"/>
        <path d="M489.347 71.156a.39.39 0 0 0-.195.052l-3.252 1.871a.4.4 0 0 0-.195.345v3.754c0 .14.074.268.195.339l3.252 1.876a.385.385 0 0 0 .391 0l3.252-1.876a.392.392 0 0 0 .195-.339v-3.754a.4.4 0 0 0-.195-.345l-3.252-1.871a.391.391 0 0 0-.196-.052zm19.446 3.35c-.013 0-.028 0-.039.006l-.626.365a.077.077 0 0 0-.039.065v.717c0 .027.016.052.039.065l.626.359a.07.07 0 0 0 .071 0l.626-.359a.076.076 0 0 0 .039-.065v-.717a.077.077 0 0 0-.039-.065l-.626-.365c-.011-.006-.019-.006-.032-.006z" fill="#6dab21"/>
    </g>
    <defs>
        <linearGradient id="a" x2="1" gradientUnits="userSpaceOnUse" gradientTransform="matrix(748.127 0 0 24.9834 1.803 141.367)">
            <stop offset="0" stop-color="#f15757"/>
            <stop offset=".15" stop-color="#cf649a"/>
            <stop offset=".3" stop-color="#2635fe"/>
            <stop offset=".45" stop-color="#75dbff"/>
            <stop offset=".6" stop-color="#2ebfb4"/>
            <stop offset=".75" stop-color="#ffef1c"/>
            <stop offset=".9" stop-color="#ef7500"/>
            <stop offset="1" stop-color="#ff0404"/>
        </linearGradient>
    </defs>
</svg>
