<svg viewBox="0 0 102 102" xmlns="http://www.w3.org/2000/svg" xmlns:serif="http://www.serif.com/" fill-rule="evenodd" clip-rule="evenodd" stroke-linejoin="round" stroke-miterlimit="1.41">
    <clipPath id="a">
        <path serif:id="webpack ico" d="M.1.27h101.44v101.44H.1z"/>
    </clipPath>
    <g clip-path="url(#a)">
        <path d="M6.975 25.515l16.753 9.121-.932.538v32.357l.839.484-16.49 8.744C2.667 69.216.098 60.4.098 50.99c0-9.286 2.501-17.993 6.877-25.475zM94.722 25.621c4.34 7.463 6.816 16.129 6.816 25.369 0 9.393-2.559 18.194-7.021 25.725L78.028 68l.812-.469V35.174l-.86-.497 16.742-9.056z" fill="#adc8f2"/>
        <path d="M50.803 49.378L77.98 34.677l.86.497v32.357l-.812.469-27.225-14.39-27.168 14.405-.839-.484V35.174l.932-.538 27.075 14.742z" fill="#6f95db"/>
        <path d="M23.635 68.015l27.183 15.694L78.028 68l16.489 8.715c-8.825 14.961-25.099 24.995-43.699 24.995-18.582 0-34.844-10.015-43.673-24.951l16.49-8.744zM6.975 25.515C15.755 10.42 32.111.27 50.818.27c18.753 0 35.143 10.2 43.904 25.351L77.98 34.677 50.818 18.995l-27.09 15.641 27.075 14.742L6.975 25.515z" fill="#adc8f2"/>
        <path d="M50.803 53.61L78.028 68l-27.21 15.709-27.183-15.694L50.803 53.61zM77.98 34.677L50.803 49.378 23.728 34.636l27.09-15.641L77.98 34.677z" fill="#7ea0df"/>
    </g>
</svg>
