<?xml version="1.0" encoding="UTF-8" standalone="no"?><!DOCTYPE svg PUBLIC "-//W3C//DTD SVG 1.1//EN" "http://www.w3.org/Graphics/SVG/1.1/DTD/svg11.dtd"><svg width="100%" height="100%" viewBox="0 0 120 212" version="1.1" xmlns="http://www.w3.org/2000/svg" xmlns:xlink="http://www.w3.org/1999/xlink" xml:space="preserve" xmlns:serif="http://www.serif.com/" style="fill-rule:evenodd;clip-rule:evenodd;stroke-linecap:round;stroke-linejoin:round;stroke-miterlimit:1.5;"><g><g><path d="M85.804,103.343c0,-23.678 -19.224,-42.902 -42.902,-42.902c-23.678,0 -42.902,19.224 -42.902,42.902l0,65.424c0,23.678 19.224,42.902 42.902,42.902c23.678,0 42.902,-19.224 42.902,-42.902l0,-65.424Z" style="fill:#b8504f;"/><circle cx="18.52" cy="23.454" r="7.058" style="fill:#1a1a1a;"/><path d="M49.834,211.37l0,-24.341l11.083,0l0,21.146c-3.437,1.642 -7.165,2.744 -11.083,3.195Z" style="fill:#292929;"/><path d="M60.917,208.175l-0.161,0.076l-0.162,0.076l-0.162,0.075l-0.163,0.074l-0.163,0.074l-0.163,0.072l-0.164,0.072l-0.164,0.071l-0.165,0.07l-0.165,0.07l-0.166,0.068l-0.165,0.068l-0.167,0.067l-0.166,0.066l-0.167,0.065l-0.168,0.065l-0.168,0.063l-0.168,0.063l-0.168,0.062l-0.169,0.061l-0.17,0.06l-0.169,0.06l-0.171,0.058l-0.17,0.058l-0.171,0.057l-0.171,0.056l-0.172,0.055l-0.172,0.054l-0.172,0.053l-0.173,0.053l-0.173,0.052l-0.173,0.05l-0.174,0.05l-0.174,0.049l-0.174,0.048l-0.175,0.048l-0.175,0.046l-0.176,0.046l-0.175,0.044l-0.177,0.044l-0.176,0.043l-0.177,0.042l-0.177,0.041l-0.177,0.04l-0.178,0.039l-0.178,0.038l-0.179,0.038l-0.178,0.036l-0.18,0.036l-0.179,0.035l-0.18,0.033l-0.18,0.033l-0.18,0.032l-0.181,0.031l-0.18,0.03l-0.182,0.029l-0.181,0.029l-0.182,0.027l-0.182,0.026l-0.182,0.026l-0.183,0.024l-0.183,0.023l-0.183,0.023l-0.184,0.022l0,-24.341l11.083,0l0,21.146Zm-8.083,-18.146l0,17.794l0.123,-0.028l0.162,-0.037l0.161,-0.038l0.161,-0.04l0.161,-0.04l0.161,-0.04l0.16,-0.042l0.16,-0.042l0.16,-0.044l0.159,-0.043l0.16,-0.045l0.158,-0.046l0.159,-0.046l0.157,-0.047l0.158,-0.048l0.158,-0.049l0.157,-0.05l0.157,-0.05l0.156,-0.051l0.157,-0.053l0.156,-0.052l0.155,-0.054l0.156,-0.054l0.154,-0.055l0.155,-0.056l0.154,-0.057l0.154,-0.057l0.153,-0.058l0.153,-0.059l0.153,-0.06l0.153,-0.06l0.152,-0.061l0.09,-0.037l0,-16.195l-5.083,0Z" style="fill:#292929;fill-opacity:0;"/><path d="M25.405,209.702l0,-22.673l11.083,0l0,24.605c-3.87,-0.069 -7.593,-0.737 -11.083,-1.932Z" style="fill:#1a1a1a;"/><path d="M36.488,211.634l-0.181,-0.004l-0.181,-0.005l-0.181,-0.005l-0.181,-0.006l-0.18,-0.007l-0.18,-0.009l-0.18,-0.008l-0.18,-0.01l-0.18,-0.011l-0.179,-0.011l-0.179,-0.013l-0.179,-0.013l-0.178,-0.014l-0.179,-0.015l-0.178,-0.016l-0.177,-0.016l-0.178,-0.018l-0.177,-0.018l-0.177,-0.019l-0.177,-0.02l-0.177,-0.021l-0.176,-0.022l-0.176,-0.023l-0.176,-0.023l-0.176,-0.024l-0.175,-0.025l-0.175,-0.026l-0.175,-0.027l-0.174,-0.027l-0.174,-0.029l-0.174,-0.029l-0.174,-0.03l-0.173,-0.031l-0.173,-0.032l-0.173,-0.032l-0.173,-0.034l-0.172,-0.034l-0.172,-0.035l-0.172,-0.036l-0.171,-0.036l-0.171,-0.038l-0.171,-0.038l-0.17,-0.039l-0.17,-0.04l-0.17,-0.04l-0.17,-0.042l-0.169,-0.042l-0.169,-0.043l-0.169,-0.044l-0.168,-0.045l-0.168,-0.045l-0.168,-0.046l-0.167,-0.047l-0.167,-0.048l-0.167,-0.049l-0.166,-0.049l-0.167,-0.05l-0.165,-0.051l-0.166,-0.052l-0.165,-0.053l-0.165,-0.053l-0.164,-0.054l-0.164,-0.055l-0.164,-0.055l0,-22.673l11.083,0l0,24.605Zm-8.083,-21.605l0,17.456l0.099,0.027l0.154,0.04l0.155,0.041l0.155,0.039l0.155,0.039l0.155,0.038l0.156,0.037l0.155,0.037l0.156,0.035l0.157,0.035l0.157,0.035l0.157,0.033l0.157,0.033l0.158,0.032l0.158,0.031l0.158,0.031l0.158,0.03l0.159,0.029l0.159,0.028l0.159,0.028l0.16,0.027l0.159,0.025l0.16,0.026l0.16,0.024l0.161,0.024l0.161,0.023l0.161,0.022l0.161,0.022l0.162,0.02l0.162,0.02l0.162,0.019l0.162,0.019l0.075,0.008l0,-18.413l-5.083,0Z" style="fill:#1a1a1a;fill-opacity:0;"/><path d="M61.545,31.055c0,-5.594 -4.541,-10.136 -10.135,-10.136l-20.271,0c-5.594,0 -10.135,4.542 -10.135,10.136l0,35.86c0,5.594 4.541,10.135 10.135,10.135l20.271,0c5.594,0 10.135,-4.541 10.135,-10.135l0,-35.86Z" style="fill:#f2d1b5;"/><path d="M60.694,49.682l3.276,-28.763c0,0 0.013,-0.011 0.037,-0.032c3.063,-2.633 3.819,-7.071 1.802,-10.57c-2.017,-3.498 -6.238,-5.066 -10.05,-3.735c-12.195,4.366 -17.887,5.339 -25.396,1.591c-0.062,0.125 -2.305,-6.231 -2.305,-6.231c0,0 -0.129,-0.592 0.157,-1.228c0.15,-0.334 -8.189,-3.773 -10.058,8.125c-0.45,2.883 -0.37,5.824 0.238,8.679c0.949,4.49 2.659,12.525 2.659,12.525c0,0 0.13,-0.216 0.345,-0.573c2.018,-3.35 6.026,-4.938 9.79,-3.881c2.354,0.663 5.617,1.182 10.086,1.229c25.344,0.267 6.075,22.864 19.419,22.864Z" style="fill:#1a1a1a;"/><circle cx="29.266" cy="40.467" r="1.68" style="fill:#292929;"/><circle cx="44.195" cy="40.467" r="1.68" style="fill:#292929;"/><path d="M27.586,63.695c-1.102,1.333 7.37,-7.947 18.29,0" style="fill:none;stroke:#bc7b55;stroke-width:3px;"/><ellipse cx="58.814" cy="49.206" rx="4.274" ry="7.058" style="fill:#f2d1b5;"/><rect x="36.683" y="77.05" width="8.548" height="16.261" style="fill:#f2d1b5;"/><rect x="36.683" y="77.05" width="8.548" height="2.372" style="fill:#bc7b55;"/><path d="M20.943,175.456l-9.269,0c0,0 0,5.294 0,9.052c0,0.974 0.489,1.908 1.358,2.597c0.869,0.689 2.048,1.076 3.277,1.076c0,0 0,0 0,0c1.229,0 2.408,-0.387 3.277,-1.076c0.869,-0.689 1.357,-1.623 1.357,-2.597c0,-3.758 0,-9.052 0,-9.052Z" style="fill:#f2d1b5;"/><path d="M20.943,103.886c0,0 -2.545,0 -4.968,0c-2.375,0 -4.301,1.926 -4.301,4.302c0,15.455 0,67.268 0,67.268l9.269,0l0,-71.57Z" style="fill:#1a1a1a;"/><path d="M45.23,83.023c14.079,1.14 25.008,10.57 25.008,21.989l0,77.85l-49.295,0c0,0 -5.403,-43.625 -9.089,-73.394c-0.853,-6.884 2.051,-13.729 7.978,-18.807c4.547,-3.896 10.54,-6.467 17.049,-7.377c-0.356,0.867 -17.192,42.408 -7.691,92.172l16.04,0l0,-92.433Z" style="fill:#292929;"/><rect x="60.969" y="103.886" width="9.269" height="71.57" style="fill:#292929;"/><path d="M70.238,175.456l0,9.052c0,0.974 -0.488,1.908 -1.357,2.597c-0.339,0.269 -0.726,0.492 -1.135,0.64l0.12,-0.194c0.166,-0.403 0.26,-0.949 0.26,-1.519l0,-5.297l-1.775,0l0,5.297c0,0.57 0.093,1.116 0.26,1.519l0.287,0.466c-0.408,0.113 -0.847,0.164 -1.294,0.164c0,0 0,0 0,0c-1.229,0 -2.408,-0.387 -3.277,-1.076c-0.869,-0.689 -1.358,-1.623 -1.358,-2.597l0,-9.052l9.269,0Z" style="fill:#f2d1b5;"/><path d="M60.969,182.705l-5.769,-0.886l-34.257,0l0,1.935c0,0 0.188,5.346 10.196,5.346c5.408,0 29.83,0 29.83,0l0,-6.395Z" style="fill:#292929;"/><path d="M60.969,182.705l0,6.395l-29.83,0l-0.233,-0.001l-0.229,-0.003l-0.225,-0.004l-0.223,-0.007l-0.218,-0.009l-0.215,-0.01l-0.212,-0.012l-0.209,-0.014l-0.205,-0.015l-0.201,-0.018l-0.199,-0.018l-0.195,-0.021l-0.191,-0.022l-0.189,-0.024l-0.185,-0.025l-0.182,-0.027l-0.179,-0.028l-0.176,-0.029l-0.173,-0.031l-0.17,-0.033l-0.166,-0.033l-0.164,-0.035l-0.161,-0.037l-0.157,-0.037l-0.155,-0.039l-0.152,-0.04l-0.149,-0.041l-0.146,-0.042l-0.143,-0.044l-0.14,-0.044l-0.138,-0.046l-0.135,-0.046l-0.132,-0.048l-0.13,-0.048l-0.127,-0.049l-0.124,-0.051l-0.122,-0.051l-0.119,-0.052l-0.116,-0.052l-0.114,-0.054l-0.112,-0.054l-0.109,-0.055l-0.107,-0.056l-0.104,-0.056l-0.102,-0.057l-0.099,-0.057l-0.097,-0.058l-0.095,-0.059l-0.093,-0.058l-0.09,-0.06l-0.088,-0.06l-0.086,-0.06l-0.084,-0.061l-0.081,-0.061l-0.08,-0.061l-0.077,-0.061l-0.075,-0.062l-0.074,-0.062l-0.071,-0.062l-0.07,-0.063l-0.067,-0.062l-0.065,-0.063l-0.064,-0.062l-0.062,-0.063l-0.06,-0.063l-0.058,-0.062l-0.056,-0.063l-0.055,-0.062l-0.053,-0.063l-0.051,-0.062l-0.049,-0.062l-0.048,-0.062l-0.047,-0.061l-0.044,-0.062l-0.043,-0.061l-0.042,-0.06l-0.04,-0.06l-0.039,-0.06l-0.037,-0.06l-0.036,-0.059l-0.034,-0.058l-0.033,-0.058l-0.032,-0.058l-0.03,-0.056l-0.029,-0.057l-0.028,-0.055l-0.026,-0.055l-0.026,-0.054l-0.047,-0.107l-0.043,-0.103l-0.038,-0.099l-0.035,-0.096l-0.031,-0.092l-0.027,-0.088l-0.024,-0.083l-0.02,-0.079l-0.018,-0.074l-0.015,-0.069l-0.013,-0.063l-0.01,-0.058l-0.008,-0.052l-0.007,-0.045l-0.008,-0.072l-0.004,-0.045l-0.001,-0.015l0,-1.935l34.257,0l5.769,0.886Zm-39.026,0.114l0,0.898l0.005,0.042l0.004,0.025l0.005,0.032l0.007,0.04l0.009,0.045l0.011,0.049l0.012,0.053l0.016,0.058l0.018,0.064l0.02,0.066l0.024,0.07l0.026,0.073l0.03,0.078l0.034,0.08l0.038,0.086l0.018,0.04l0.022,0.043l0.022,0.045l0.022,0.043l0.024,0.045l0.026,0.046l0.026,0.046l0.027,0.047l0.029,0.047l0.029,0.047l0.031,0.048l0.033,0.049l0.033,0.049l0.035,0.049l0.036,0.05l0.038,0.049l0.039,0.051l0.04,0.05l0.042,0.051l0.043,0.051l0.045,0.051l0.046,0.052l0.048,0.051l0.05,0.052l0.051,0.052l0.053,0.052l0.054,0.052l0.056,0.052l0.059,0.053l0.06,0.052l0.061,0.052l0.064,0.052l0.066,0.053l0.067,0.052l0.07,0.052l0.072,0.052l0.073,0.051l0.076,0.052l0.078,0.051l0.08,0.051l0.082,0.051l0.085,0.051l0.087,0.05l0.089,0.05l0.092,0.049l0.094,0.049l0.096,0.049l0.1,0.048l0.101,0.047l0.104,0.047l0.107,0.047l0.109,0.046l0.112,0.045l0.114,0.044l0.118,0.044l0.12,0.043l0.123,0.043l0.125,0.041l0.129,0.041l0.131,0.04l0.134,0.039l0.138,0.038l0.14,0.036l0.143,0.036l0.147,0.035l0.149,0.034l0.153,0.033l0.155,0.031l0.159,0.03l0.162,0.03l0.165,0.027l0.169,0.027l0.172,0.025l0.175,0.024l0.178,0.022l0.182,0.021l0.185,0.02l0.189,0.017l0.192,0.017l0.195,0.015l0.199,0.013l0.203,0.011l0.206,0.01l0.21,0.008l0.213,0.007l0.217,0.004l0.221,0.003l0.226,0.001l28.828,0l0,-4.537l-4.846,-0.744l-33.18,0Z" style="fill:#292929;fill-opacity:0;"/><path d="M68.126,180.735l0,5.297c0,0.57 -0.094,1.116 -0.26,1.519l-0.12,0.194l-0.368,0.156l-0.163,0.039l-0.317,0.077l-0.287,-0.466c-0.167,-0.403 -0.26,-0.949 -0.26,-1.519l0,-5.297l1.775,0Z" style="fill:#f3e1d3;"/><path d="M44.195,175.456l-15.005,0c-9.501,-49.764 7.335,-91.305 7.691,-92.172c1.944,-0.294 3.958,-0.423 5.991,-0.391c0.001,0 0.001,0 0.002,0l1.443,0.08l-0.122,0.05l0,92.433Z" style="fill:#fff;"/><path d="M45.23,83.023l0,92.433l-1.775,0l0,-92.433l0.209,-0.05l1.566,0.05Z" style="fill:#adadad;"/><path d="M42.943,82.585c0,-0.241 -0.196,-0.437 -0.438,-0.437l-3.261,0c-0.242,0 -0.438,0.196 -0.438,0.437l0,0.876c0,0.241 0.196,0.438 0.438,0.438l3.261,0c0.242,0 0.438,-0.197 0.438,-0.438l0,-0.876Z" style="fill:#e06c60;"/><path d="M41.843,84.517c-2.375,14.665 -3.663,32.341 -3.41,60.547l-3.131,8.699l-3.13,-8.699c-0.515,-28.56 2.733,-46.688 7.256,-60.547l2.415,0Z" style="fill:#e06c60;"/><path d="M41.843,84.517l-2.415,0l0.189,-0.618l2.319,0l-0.093,0.618Z" style="fill:#c84335;"/><path d="M60.969,103.928l0,81.498l-10.67,0c0,0 -5.069,0.148 -5.069,-4.082c0,-4.23 0,-77.963 0,-77.963l15.739,0l0,0.547Z" style="fill:#292929;"/><path d="M60.969,185.426l-10.67,0l-0.057,0.001l-0.069,-0.001l-0.092,-0.002l-0.115,-0.004l-0.135,-0.008l-0.075,-0.005l-0.079,-0.007l-0.083,-0.008l-0.087,-0.009l-0.091,-0.01l-0.094,-0.012l-0.098,-0.014l-0.101,-0.016l-0.103,-0.017l-0.106,-0.019l-0.109,-0.022l-0.11,-0.023l-0.112,-0.026l-0.114,-0.028l-0.115,-0.031l-0.117,-0.033l-0.117,-0.036l-0.118,-0.038l-0.119,-0.042l-0.119,-0.045l-0.118,-0.047l-0.06,-0.025l-0.059,-0.026l-0.059,-0.027l-0.059,-0.027l-0.059,-0.029l-0.058,-0.029l-0.059,-0.03l-0.058,-0.031l-0.057,-0.032l-0.058,-0.033l-0.057,-0.033l-0.057,-0.035l-0.056,-0.036l-0.056,-0.036l-0.056,-0.038l-0.054,-0.039l-0.055,-0.039l-0.054,-0.041l-0.053,-0.041l-0.053,-0.043l-0.052,-0.044l-0.051,-0.045l-0.051,-0.046l-0.05,-0.047l-0.049,-0.048l-0.049,-0.049l-0.047,-0.05l-0.047,-0.052l-0.046,-0.053l-0.045,-0.054l-0.044,-0.055l-0.043,-0.056l-0.042,-0.057l-0.041,-0.059l-0.04,-0.06l-0.039,-0.061l-0.038,-0.063l-0.037,-0.063l-0.036,-0.065l-0.034,-0.067l-0.033,-0.067l-0.032,-0.069l-0.031,-0.071l-0.029,-0.071l-0.028,-0.074l-0.027,-0.074l-0.025,-0.076l-0.024,-0.077l-0.023,-0.079l-0.02,-0.08l-0.02,-0.081l-0.018,-0.083l-0.016,-0.085l-0.015,-0.086l-0.013,-0.087l-0.011,-0.089l-0.01,-0.091l-0.008,-0.092l-0.007,-0.094l-0.004,-0.095l-0.003,-0.096l-0.001,-0.099l0,-77.963l15.739,0l0,82.045Zm-13.739,-80.045l0,75.954l0.001,0.069l0.002,0.059l0.002,0.057l0.004,0.054l0.004,0.052l0.006,0.049l0.006,0.048l0.007,0.047l0.008,0.045l0.008,0.042l0.009,0.041l0.009,0.039l0.01,0.039l0.01,0.036l0.011,0.034l0.012,0.035l0.011,0.032l0.012,0.031l0.012,0.031l0.013,0.029l0.013,0.028l0.013,0.026l0.014,0.027l0.014,0.026l0.016,0.026l0.015,0.026l0.014,0.022l0.016,0.024l0.017,0.024l0.016,0.022l0.017,0.022l0.019,0.023l0.018,0.022l0.019,0.022l0.02,0.022l0.019,0.021l0.021,0.021l0.022,0.021l0.022,0.021l0.022,0.02l0.024,0.021l0.025,0.02l0.024,0.02l0.026,0.021l0.026,0.019l0.027,0.02l0.029,0.02l0.028,0.019l0.029,0.019l0.03,0.019l0.032,0.019l0.031,0.019l0.031,0.018l0.033,0.018l0.035,0.018l0.033,0.018l0.034,0.016l0.035,0.017l0.036,0.017l0.036,0.017l0.038,0.016l0.032,0.014l0.08,0.032l0.078,0.029l0.078,0.027l0.08,0.026l0.081,0.025l0.08,0.023l0.081,0.022l0.08,0.02l0.081,0.018l0.08,0.017l0.079,0.016l0.079,0.014l0.075,0.013l0.075,0.011l0.073,0.01l0.07,0.009l0.068,0.008l0.065,0.007l0.061,0.006l0.058,0.004l0.051,0.004l0.103,0.006l0.079,0.003l0.06,0.002l0.035,0l0.044,-0.001l0.011,0l8.676,0l0,-78.045l-11.739,0Z" style="fill:#1c1c1c;"/><rect x="45.23" y="93.311" width="15.739" height="11.705" style="fill:#292929;"/></g><g><circle cx="85.804" cy="129.428" r="34.061" style="fill:#fff;"/><path d="M85.804,125.257l11.73,-11.73l4.17,4.171l-11.729,11.73l11.729,11.729l-4.17,4.171l-11.73,-11.73l-11.73,11.73l-4.17,-4.171l11.729,-11.729l-11.729,-11.73l4.17,-4.171l11.73,11.73Z" style="fill:#a82626;"/></g></g></svg>