<?xml version="1.0" encoding="UTF-8" standalone="no"?><!DOCTYPE svg PUBLIC "-//W3C//DTD SVG 1.1//EN" "http://www.w3.org/Graphics/SVG/1.1/DTD/svg11.dtd"><svg width="100%" height="100%" viewBox="0 0 78 78" version="1.1" xmlns="http://www.w3.org/2000/svg" xmlns:xlink="http://www.w3.org/1999/xlink" xml:space="preserve" style="fill-rule:evenodd;clip-rule:evenodd;stroke-linejoin:round;stroke-miterlimit:1.41421;"><g><path d="M32.886,35.026c1.345,-2.094 2.113,-4.591 2.069,-7.269c-0.119,-7.166 -6.083,-12.86 -13.249,-12.86l-20.009,0c-0.937,0 -1.697,0.76 -1.697,1.697l0,44.001c0,0.937 0.76,1.697 1.697,1.697l22.35,0c8.296,0 15.168,-6.648 15.201,-14.944c0.021,-5.084 -2.5,-9.591 -6.362,-12.322Zm-24.108,-11.351l13.098,0c2.373,0 4.303,1.93 4.303,4.302c0,2.372 -1.93,4.302 -4.303,4.302l-13.098,0l0,-8.604Zm15.464,29.839l-15.464,0l0,-12.457l15.464,0c3.435,0 6.229,2.794 6.229,6.229c0,3.434 -2.794,6.228 -6.229,6.228Z" style="fill:#262626;fill-rule:nonzero;"/><path d="M77.706,44.228c0,-10.246 -8.075,-18.581 -18.001,-18.581c-9.927,0 -18.002,8.335 -18.002,18.581c0,10.245 8.076,18.581 18.002,18.581c6.023,0 11.619,-3.088 14.97,-8.26c0.418,-0.644 0.798,-1.318 1.135,-2.013c0.244,-0.504 -0.127,-1.09 -0.687,-1.092l-8.849,-0.022c-0.196,0 -0.382,0.08 -0.522,0.216c-1.671,1.625 -3.719,2.393 -6.047,2.393c-4.398,0 -8.085,-3.289 -9.002,-7.674l25.241,0c0.973,0 1.762,-0.789 1.762,-1.762l0,-0.367Zm-18.001,-9.803c3.22,0 6.059,1.765 7.709,4.431l-15.419,0c1.65,-2.666 4.489,-4.431 7.71,-4.431Z" style="fill:#262626;fill-rule:nonzero;"/><path d="M67.185,23.466l-15.967,0c-0.745,0 -1.349,-0.604 -1.349,-1.349l0,-4.006c0,-0.745 0.604,-1.349 1.349,-1.349l15.967,0c0.745,0 1.348,0.604 1.348,1.349l0,4.006c0,0.745 -0.603,1.349 -1.348,1.349Z" style="fill:#262626;fill-rule:nonzero;"/></g></svg>