<?xml version="1.0" encoding="UTF-8" standalone="no"?><!DOCTYPE svg PUBLIC "-//W3C//DTD SVG 1.1//EN" "http://www.w3.org/Graphics/SVG/1.1/DTD/svg11.dtd"><svg width="100%" height="100%" viewBox="0 0 45 28" version="1.1" xmlns="http://www.w3.org/2000/svg" xmlns:xlink="http://www.w3.org/1999/xlink" xml:space="preserve" xmlns:serif="http://www.serif.com/" style="fill-rule:evenodd;clip-rule:evenodd;stroke-linejoin:round;stroke-miterlimit:1.41421;"><g><g><path d="M18.759,11.481c0.76,-1.183 1.194,-2.593 1.168,-4.106c-0.067,-4.047 -3.435,-7.263 -7.483,-7.263l-11.3,0c-0.53,0 -0.959,0.429 -0.959,0.959l0,24.851c0,0.53 0.429,0.959 0.959,0.959l12.623,0c4.685,0 8.566,-3.755 8.586,-8.441c0.011,-2.871 -1.413,-5.417 -3.594,-6.959Zm-13.616,-6.411l7.398,0c1.34,0 2.43,1.09 2.43,2.43c0,1.34 -1.09,2.43 -2.43,2.43l-7.398,0l0,-4.86Zm8.734,16.853l-8.734,0l0,-7.036l8.734,0c1.94,0 3.518,1.579 3.518,3.518c0,1.94 -1.578,3.518 -3.518,3.518Z" style="fill:#262626;fill-rule:nonzero;"/><path d="M44.073,16.678c0,-5.787 -4.561,-10.494 -10.167,-10.494c-5.606,0 -10.167,4.707 -10.167,10.494c0,5.787 4.561,10.495 10.167,10.495c3.402,0 6.563,-1.744 8.455,-4.665c0.236,-0.364 0.451,-0.745 0.641,-1.137c0.138,-0.285 -0.071,-0.616 -0.388,-0.617l-4.998,-0.012c-0.11,-0.001 -0.215,0.044 -0.294,0.121c-0.944,0.918 -2.101,1.352 -3.416,1.352c-2.484,0 -4.566,-1.858 -5.084,-4.334l14.256,0c0.55,0 0.995,-0.446 0.995,-0.995l0,-0.208Zm-10.167,-5.537c1.819,0 3.422,0.997 4.354,2.503l-8.708,0c0.932,-1.506 2.535,-2.503 4.354,-2.503Z" style="fill:#262626;fill-rule:nonzero;"/><path d="M38.131,4.952l-9.018,0c-0.421,0 -0.762,-0.341 -0.762,-0.762l0,-2.262c0,-0.421 0.341,-0.762 0.762,-0.762l9.018,0c0.42,0 0.762,0.341 0.762,0.762l0,2.262c0,0.421 -0.342,0.762 -0.762,0.762Z" style="fill:#262626;fill-rule:nonzero;"/></g></g></svg>