<?xml version="1.0" encoding="UTF-8" standalone="no"?><!DOCTYPE svg PUBLIC "-//W3C//DTD SVG 1.1//EN" "http://www.w3.org/Graphics/SVG/1.1/DTD/svg11.dtd"><svg width="100%" height="100%" viewBox="0 0 85 84" version="1.1" xmlns="http://www.w3.org/2000/svg" xmlns:xlink="http://www.w3.org/1999/xlink" xml:space="preserve" style="fill-rule:evenodd;clip-rule:evenodd;stroke-linejoin:round;stroke-miterlimit:1.41421;"><path d="M49.418,0.599c-4.7,-0.799 -9.5,-0.799 -14.2,0l-1.445,9.411c-4.13,1.089 -8.012,2.959 -11.439,5.508l-8.259,-4.737c-3.554,3.176 -6.547,6.929 -8.853,11.101l6.456,6.998c-1.722,3.908 -2.681,8.11 -2.825,12.378l-8.853,3.503c0.267,4.76 1.335,9.44 3.16,13.844l9.496,-0.685c1.982,3.783 4.668,7.153 7.916,9.926l-2.781,9.106c3.888,2.759 8.213,4.841 12.793,6.161l5.386,-7.852c4.193,0.81 8.503,0.81 12.696,0l5.386,7.852c4.58,-1.32 8.905,-3.402 12.793,-6.161l-2.781,-9.106c3.248,-2.773 5.935,-6.143 7.916,-9.926l9.496,0.685c1.825,-4.404 2.893,-9.084 3.16,-13.844l-8.853,-3.503c-0.144,-4.268 -1.103,-8.47 -2.825,-12.378l6.456,-6.998c-2.306,-4.172 -5.299,-7.925 -8.853,-11.101l-8.259,4.737c-3.427,-2.549 -7.309,-4.419 -11.439,-5.508l-1.445,-9.411Zm-7.1,29.07c7.018,0 12.716,5.698 12.716,12.716c0,7.018 -5.698,12.715 -12.716,12.715c-7.018,0 -12.715,-5.697 -12.715,-12.715c0,-7.018 5.697,-12.716 12.715,-12.716Z" style="fill:#26a88b;"/></svg>