<?xml version="1.0" encoding="UTF-8" standalone="no"?><!DOCTYPE svg PUBLIC "-//W3C//DTD SVG 1.1//EN" "http://www.w3.org/Graphics/SVG/1.1/DTD/svg11.dtd"><svg width="100%" height="100%" viewBox="0 0 83 101" version="1.1" xmlns="http://www.w3.org/2000/svg" xmlns:xlink="http://www.w3.org/1999/xlink" xml:space="preserve" style="fill-rule:evenodd;clip-rule:evenodd;stroke-linejoin:round;stroke-miterlimit:1.41421;"><path id="New-Document" d="M58.685,27.881l-27.381,-27.381l-30.804,0l0,78.721l58.185,0l0,-51.34Zm-27.381,-22.76l22.761,22.76l-22.761,0l0,-22.76Zm23.959,70.677l-51.34,0l0,-71.875l23.958,0l0,27.381l27.382,0l0,44.494Z" style="fill:#262626;fill-rule:nonzero;stroke:#262626;stroke-width:1px;"/><path id="Download-Icon" d="M70.977,100.38c-0.002,0 -0.004,0 -0.007,0l0,0l-13.763,0c0.576,0.009 1.155,-0.175 1.595,-0.616l6.172,-6.198c0.867,-0.867 0.867,-2.276 0,-3.145c-0.865,-0.868 -2.266,-0.868 -3.133,0l-2.615,2.625l0,-11.826l-4.24,0l0,11.826l-2.615,-2.625c-0.865,-0.868 -2.268,-0.868 -3.133,0c-0.865,0.869 -0.865,2.278 0,3.145l6.173,6.198c0.446,0.448 1.035,0.634 1.617,0.616l-11.604,0l0,0c-7.639,-0.003 -13.831,-6.197 -13.831,-13.837c0,-6.952 5.142,-12.651 11.819,-13.634c2.477,-6.346 8.634,-10.848 15.856,-10.848c9.13,0 16.561,7.19 16.99,16.215c3.799,1.935 6.428,5.84 6.428,10.395c0,6.467 -5.243,11.709 -11.709,11.709Z" style="fill:#26a88b;"/></svg>