<?xml version="1.0" encoding="UTF-8" standalone="no"?><!DOCTYPE svg PUBLIC "-//W3C//DTD SVG 1.1//EN" "http://www.w3.org/Graphics/SVG/1.1/DTD/svg11.dtd"><svg width="100%" height="100%" viewBox="0 0 33 40" version="1.1" xmlns="http://www.w3.org/2000/svg" xmlns:xlink="http://www.w3.org/1999/xlink" xml:space="preserve" xmlns:serif="http://www.serif.com/" style="fill-rule:evenodd;clip-rule:evenodd;stroke-linejoin:round;stroke-miterlimit:1.41421;"><g><path d="M23.327,31.678l-22.395,0c-0.389,-0.028 -0.474,-0.133 -0.5,-0.5l0,-30.299c0.027,-0.388 0.133,-0.474 0.5,-0.5c3.973,0 7.956,-0.256 11.921,0.004c0.206,0.041 0.218,0.081 0.288,0.143l10.539,10.538c0.149,0.171 0.139,0.233 0.147,0.354l0,19.76c-0.028,0.388 -0.134,0.474 -0.5,0.5Zm-12.357,-28.982l-8.221,0l0,26.665l18.76,0l0,-16.126l-10.039,0c-0.388,-0.028 -0.473,-0.133 -0.5,-0.5l0,-10.039Zm2.318,8.222l7.053,0l-7.053,-7.053c0,2.351 0,4.702 0,7.053Z" style="fill:#262626;"/><g><path id="Download-Icon" serif:id="Download Icon" d="M28.058,39.322c-0.001,0 -0.002,0 -0.003,0l0,0l-5.297,0c0.222,0.003 0.444,-0.068 0.614,-0.237l2.375,-2.386c0.334,-0.334 0.334,-0.876 0,-1.21c-0.333,-0.334 -0.872,-0.334 -1.206,0l-1.006,1.01l0,-4.552l-1.632,0l0,4.552l-1.007,-1.01c-0.333,-0.334 -0.873,-0.334 -1.206,0c-0.333,0.334 -0.333,0.876 0,1.21l2.376,2.386c0.172,0.172 0.399,0.244 0.623,0.237l-4.466,0l0,0c-2.941,-0.001 -5.324,-2.385 -5.324,-5.326c0,-2.676 1.979,-4.869 4.549,-5.248c0.953,-2.442 3.323,-4.175 6.103,-4.175c3.514,0 6.374,2.768 6.539,6.241c1.462,0.745 2.474,2.248 2.474,4.001c0,2.489 -2.018,4.507 -4.506,4.507Z" style="fill:#26a88b;"/></g></g></svg>