<?xml version="1.0" encoding="UTF-8" standalone="no"?><!DOCTYPE svg PUBLIC "-//W3C//DTD SVG 1.1//EN" "http://www.w3.org/Graphics/SVG/1.1/DTD/svg11.dtd"><svg width="100%" height="100%" viewBox="0 0 103 103" version="1.1" xmlns="http://www.w3.org/2000/svg" xmlns:xlink="http://www.w3.org/1999/xlink" xml:space="preserve" xmlns:serif="http://www.serif.com/" style="fill-rule:evenodd;clip-rule:evenodd;stroke-linejoin:round;stroke-miterlimit:1.41421;"><g id="git-ico" serif:id="git ico"><circle cx="51.626" cy="51.467" r="50.72" style="fill:#f05133;"/><path d="M84.312,48.442l-29.662,-29.66c-1.707,-1.708 -4.478,-1.708 -6.187,0l-6.159,6.161l7.813,7.812c1.816,-0.614 3.898,-0.202 5.345,1.246c1.455,1.456 1.863,3.556 1.234,5.378l7.531,7.53c1.822,-0.628 3.924,-0.221 5.379,1.236c2.033,2.033 2.033,5.327 0,7.362c-2.035,2.034 -5.329,2.034 -7.365,0c-1.529,-1.53 -1.907,-3.778 -1.132,-5.662l-7.023,-7.023l0,18.481c0.495,0.246 0.963,0.573 1.376,0.985c2.033,2.033 2.033,5.328 0,7.363c-2.034,2.033 -5.33,2.033 -7.362,0c-2.033,-2.036 -2.033,-5.33 0,-7.363c0.503,-0.502 1.085,-0.882 1.706,-1.136l0,-18.653c-0.621,-0.255 -1.202,-0.631 -1.706,-1.137c-1.54,-1.539 -1.91,-3.8 -1.121,-5.691l-7.701,-7.703l-20.339,20.337c-1.709,1.71 -1.709,4.48 0,6.188l29.662,29.661c1.708,1.708 4.478,1.708 6.188,0l29.523,-29.523c1.708,-1.709 1.708,-4.48 0,-6.189Z" style="fill:#fff;fill-rule:nonzero;"/></g></svg>