<?xml version="1.0" encoding="UTF-8" standalone="no"?><!DOCTYPE svg PUBLIC "-//W3C//DTD SVG 1.1//EN" "http://www.w3.org/Graphics/SVG/1.1/DTD/svg11.dtd"><svg width="100%" height="100%" viewBox="0 0 71 71" version="1.1" xmlns="http://www.w3.org/2000/svg" xmlns:xlink="http://www.w3.org/1999/xlink" xml:space="preserve" style="fill-rule:evenodd;clip-rule:evenodd;stroke-linejoin:round;stroke-miterlimit:1.41421;"><path d="M66.017,18.487c-3.164,-5.421 -7.456,-9.712 -12.876,-12.876c-5.421,-3.164 -11.34,-4.745 -17.76,-4.745c-6.419,0 -12.339,1.582 -17.759,4.745c-5.421,3.163 -9.713,7.455 -12.877,12.876c-3.163,5.421 -4.745,11.341 -4.745,17.759c0,7.71 2.249,14.643 6.749,20.8c4.499,6.158 10.312,10.419 17.437,12.784c0.829,0.154 1.443,0.046 1.843,-0.322c0.399,-0.368 0.598,-0.829 0.598,-1.381c0,-0.093 -0.007,-0.922 -0.023,-2.488c-0.016,-1.567 -0.023,-2.934 -0.023,-4.1l-1.06,0.184c-0.675,0.123 -1.528,0.176 -2.557,0.161c-1.028,-0.014 -2.096,-0.122 -3.201,-0.323c-1.106,-0.198 -2.135,-0.659 -3.087,-1.381c-0.952,-0.721 -1.627,-1.666 -2.027,-2.832l-0.46,-1.061c-0.307,-0.705 -0.791,-1.489 -1.451,-2.349c-0.661,-0.86 -1.329,-1.443 -2.004,-1.75l-0.323,-0.231c-0.215,-0.154 -0.414,-0.339 -0.599,-0.553c-0.184,-0.215 -0.322,-0.43 -0.414,-0.645c-0.092,-0.216 -0.016,-0.392 0.23,-0.531c0.246,-0.139 0.691,-0.206 1.336,-0.206l0.921,0.138c0.615,0.123 1.375,0.491 2.281,1.105c0.906,0.614 1.65,1.413 2.234,2.395c0.707,1.26 1.558,2.219 2.557,2.88c0.998,0.66 2.004,0.99 3.017,0.99c1.014,0 1.889,-0.077 2.626,-0.23c0.737,-0.153 1.428,-0.384 2.073,-0.691c0.277,-2.059 1.029,-3.64 2.257,-4.746c-1.75,-0.184 -3.324,-0.461 -4.722,-0.829c-1.397,-0.369 -2.841,-0.968 -4.33,-1.798c-1.49,-0.829 -2.726,-1.858 -3.709,-3.086c-0.982,-1.228 -1.789,-2.841 -2.418,-4.837c-0.629,-1.997 -0.944,-4.3 -0.944,-6.91c0,-3.717 1.213,-6.88 3.639,-9.491c-1.136,-2.795 -1.029,-5.927 0.323,-9.398c0.89,-0.276 2.211,-0.069 3.962,0.622c1.75,0.691 3.032,1.283 3.847,1.774c0.814,0.491 1.466,0.907 1.958,1.244c2.856,-0.798 5.805,-1.198 8.845,-1.198c3.04,0 5.989,0.4 8.846,1.198l1.751,-1.105c1.197,-0.738 2.611,-1.414 4.237,-2.028c1.628,-0.614 2.873,-0.783 3.733,-0.506c1.382,3.47 1.505,6.603 0.368,9.397c2.426,2.611 3.64,5.775 3.64,9.491c0,2.61 -0.316,4.921 -0.944,6.933c-0.63,2.012 -1.443,3.624 -2.441,4.837c-0.999,1.214 -2.243,2.235 -3.732,3.064c-1.49,0.829 -2.934,1.428 -4.331,1.797c-1.398,0.369 -2.972,0.646 -4.722,0.83c1.596,1.382 2.395,3.562 2.395,6.541l0,9.72c0,0.552 0.192,1.013 0.576,1.382c0.384,0.368 0.99,0.476 1.82,0.322c7.126,-2.365 12.938,-6.626 17.437,-12.784c4.499,-6.158 6.749,-13.091 6.749,-20.8c-0.001,-6.418 -1.584,-12.337 -4.746,-17.758Z" style="fill:#262626;fill-rule:nonzero;"/></svg>