<?xml version="1.0" encoding="UTF-8" standalone="no"?><!DOCTYPE svg PUBLIC "-//W3C//DTD SVG 1.1//EN" "http://www.w3.org/Graphics/SVG/1.1/DTD/svg11.dtd"><svg width="100%" height="100%" viewBox="0 0 45 46" version="1.1" xmlns="http://www.w3.org/2000/svg" xmlns:xlink="http://www.w3.org/1999/xlink" xml:space="preserve" xmlns:serif="http://www.serif.com/" style="fill-rule:evenodd;clip-rule:evenodd;stroke-linejoin:round;stroke-miterlimit:1.41421;"><path d="M41.968,12.595c-2.008,-3.44 -4.731,-6.163 -8.171,-8.171c-3.441,-2.008 -7.196,-3.011 -11.271,-3.011c-4.073,0 -7.83,1.003 -11.27,3.011c-3.44,2.007 -6.164,4.731 -8.172,8.171c-2.007,3.441 -3.011,7.197 -3.011,11.27c0,4.893 1.428,9.293 4.283,13.2c2.855,3.908 6.544,6.612 11.066,8.113c0.526,0.098 0.916,0.029 1.169,-0.204c0.254,-0.234 0.38,-0.527 0.38,-0.877c0,-0.059 -0.005,-0.585 -0.015,-1.579c-0.01,-0.994 -0.014,-1.861 -0.014,-2.601l-0.673,0.116c-0.429,0.079 -0.969,0.112 -1.622,0.102c-0.653,-0.009 -1.331,-0.077 -2.032,-0.204c-0.702,-0.126 -1.355,-0.419 -1.959,-0.877c-0.604,-0.458 -1.033,-1.057 -1.286,-1.797l-0.293,-0.673c-0.195,-0.448 -0.501,-0.946 -0.92,-1.491c-0.42,-0.546 -0.843,-0.916 -1.272,-1.111l-0.205,-0.146c-0.136,-0.098 -0.263,-0.215 -0.38,-0.352c-0.117,-0.136 -0.204,-0.272 -0.263,-0.409c-0.058,-0.137 -0.01,-0.249 0.146,-0.337c0.156,-0.088 0.439,-0.13 0.848,-0.13l0.585,0.087c0.389,0.078 0.872,0.312 1.447,0.702c0.575,0.389 1.047,0.896 1.418,1.519c0.448,0.8 0.989,1.409 1.622,1.828c0.634,0.419 1.272,0.628 1.915,0.628c0.643,0 1.199,-0.049 1.667,-0.145c0.467,-0.098 0.906,-0.245 1.315,-0.439c0.176,-1.307 0.653,-2.31 1.432,-3.012c-1.11,-0.117 -2.109,-0.292 -2.996,-0.526c-0.887,-0.234 -1.803,-0.614 -2.748,-1.141c-0.946,-0.526 -1.73,-1.179 -2.354,-1.958c-0.623,-0.78 -1.135,-1.804 -1.534,-3.07c-0.4,-1.267 -0.6,-2.729 -0.6,-4.386c0,-2.358 0.77,-4.366 2.31,-6.023c-0.721,-1.773 -0.653,-3.761 0.205,-5.963c0.565,-0.176 1.403,-0.044 2.514,0.394c1.111,0.439 1.925,0.815 2.441,1.126c0.517,0.311 0.931,0.575 1.243,0.789c1.813,-0.506 3.684,-0.76 5.613,-0.76c1.93,0 3.801,0.254 5.614,0.76l1.111,-0.701c0.76,-0.468 1.657,-0.897 2.689,-1.287c1.033,-0.389 1.823,-0.497 2.369,-0.321c0.877,2.203 0.955,4.19 0.234,5.964c1.539,1.657 2.31,3.664 2.31,6.023c0,1.656 -0.201,3.123 -0.6,4.399c-0.399,1.277 -0.915,2.3 -1.549,3.07c-0.633,0.77 -1.423,1.418 -2.368,1.944c-0.946,0.527 -1.862,0.907 -2.749,1.141c-0.887,0.234 -1.885,0.41 -2.996,0.527c1.013,0.876 1.52,2.26 1.52,4.151l0,6.168c0,0.351 0.122,0.643 0.365,0.877c0.244,0.233 0.629,0.302 1.155,0.204c4.522,-1.5 8.211,-4.205 11.066,-8.113c2.855,-3.907 4.283,-8.307 4.283,-13.2c-0.001,-4.072 -1.005,-7.828 -3.012,-11.269Z" style="fill:#262626;fill-rule:nonzero;"/></svg>