<?xml version="1.0" encoding="UTF-8" standalone="no"?><!DOCTYPE svg PUBLIC "-//W3C//DTD SVG 1.1//EN" "http://www.w3.org/Graphics/SVG/1.1/DTD/svg11.dtd"><svg width="100%" height="100%" viewBox="0 0 120 212" version="1.1" xmlns="http://www.w3.org/2000/svg" xmlns:xlink="http://www.w3.org/1999/xlink" xml:space="preserve" xmlns:serif="http://www.serif.com/" style="fill-rule:evenodd;clip-rule:evenodd;stroke-linejoin:round;stroke-miterlimit:1.41421;"><g id="good"><g><g><path d="M119.872,102.839c0,-23.678 -19.224,-42.902 -42.902,-42.902c-23.679,0 -42.902,19.224 -42.902,42.902l0,65.424c0,23.678 19.223,42.902 42.902,42.902c23.678,0 42.902,-19.224 42.902,-42.902l0,-65.424Z" style="fill:#8ac379;"/><path d="M64.316,12.337c0,-3.335 -2.707,-6.043 -6.042,-6.043c-3.335,0 -6.042,2.708 -6.042,6.043l0,25.416c0,3.334 2.707,6.042 6.042,6.042c3.335,0 6.042,-2.708 6.042,-6.042l0,-25.416Z" style="fill:#623b1f;"/><path d="M94.732,84.891c0.712,0.425 1.407,0.887 2.091,1.367c0.844,0.593 1.671,1.218 2.481,1.869c2.287,1.837 4.443,3.884 6.421,6.129c2.707,3.07 5.086,6.525 6.931,10.324c1.369,2.82 2.438,5.824 3.137,8.941c0.501,2.235 0.811,4.524 0.926,6.826c0.081,1.632 0.064,3.27 -0.047,4.899c-0.084,1.244 -0.222,2.482 -0.41,3.711c-0.134,0.877 -0.294,1.748 -0.478,2.614c-1.191,5.608 -3.375,10.901 -6.081,15.78c-0.391,0.706 -0.794,1.404 -1.207,2.095c-0.591,0.987 -1.202,1.958 -1.832,2.913c-0.783,1.189 -1.594,2.353 -2.429,3.496c-1.094,1.497 -2.228,2.956 -3.395,4.381c-1.498,1.828 -3.051,3.596 -4.642,5.321l-0.257,0.278l-7.55,-8.868c0.241,-0.259 0.48,-0.519 0.719,-0.779c1.547,-1.699 3.054,-3.444 4.497,-5.255c1.106,-1.388 2.177,-2.813 3.2,-4.28c0.774,-1.11 1.521,-2.243 2.234,-3.404c0.569,-0.925 1.117,-1.867 1.638,-2.826c0.411,-0.756 0.806,-1.523 1.182,-2.301c0.259,-0.535 0.508,-1.075 0.748,-1.621c1.615,-3.67 2.804,-7.625 3.146,-11.718c0.055,-0.662 0.089,-1.327 0.098,-1.991c0.013,-0.92 -0.019,-1.84 -0.099,-2.755c-0.114,-1.318 -0.327,-2.623 -0.633,-3.901c-0.474,-1.974 -1.171,-3.874 -2.042,-5.667c-1.354,-2.788 -3.116,-5.312 -5.102,-7.565c-1.509,-1.712 -3.152,-3.275 -4.892,-4.684c-0.608,-0.493 -1.228,-0.966 -1.861,-1.418c-0.481,-0.342 -0.969,-0.674 -1.469,-0.98c-0.031,-0.019 -0.062,-0.037 -0.093,-0.056l-0.01,-0.006l5.028,-10.899c0.017,0.01 0.034,0.02 0.052,0.03Z" style="fill:#121212;fill-rule:nonzero;"/><path d="M67.486,210.494l0,-25.099l-10.156,0l0,21.805c3.149,1.693 6.565,2.83 10.156,3.294Z" style="fill:#292929;"/><path d="M89.873,208.94l0,-23.545l-10.156,0l0,25.672c3.546,-0.071 6.958,-0.895 10.156,-2.127Z" style="fill:#1a1a1a;"/><path d="M56.754,23.395c0,-5.126 4.162,-9.288 9.288,-9.288l18.576,0c5.126,0 9.288,4.162 9.288,9.288l0,39.304c0,5.126 -4.162,9.288 -9.288,9.288l-18.576,0c-5.126,0 -9.288,-4.162 -9.288,-9.288l0,-39.304Z" style="fill:#f2d1b5;"/><ellipse cx="86.335" cy="34.264" rx="1.54" ry="1.733" style="fill:#292929;"/><ellipse cx="72.653" cy="34.264" rx="1.54" ry="1.733" style="fill:#292929;"/><ellipse cx="57.281" cy="43.275" rx="3.917" ry="7.278" style="fill:#f2d1b5;"/><path d="M62.191,13l0,-4.356c0,-2.127 0.751,-4.167 2.088,-5.671c1.337,-1.504 3.16,-2.128 5.04,-2.349c6.237,-0.734 14.663,-0.925 20.518,0c2.399,0.379 4.746,0.962 6.459,2.675c1.713,1.713 2.675,4.036 2.675,6.459c0,0 0,0 0,0c0,2.724 -0.961,5.337 -2.674,7.263c-0.027,0.032 -0.056,0.063 -0.084,0.094l-2.307,15.237c0,0 -0.993,-4.112 -1.681,-6.962c-0.763,-3.164 -3.316,-5.36 -6.23,-5.36c0,0 0,0 0,0l-23.804,0c-5.614,0.801 -5.437,5.797 -5.437,5.797l-1.861,-2.176l0.873,-5.686l1.738,-0.227l-0.207,-2.862l4.894,-1.876Z" style="fill:#623b1f;"/><rect x="71.705" y="71.987" width="7.833" height="16.768" style="fill:#f2d1b5;"/><rect x="71.705" y="71.987" width="7.833" height="2.446" style="fill:#bc7b55;"/><path d="M76.359,173.461l0.235,0l9.741,-0.16c3.699,-50.437 -6.705,-93.991 -6.979,-94.886c5.015,0.94 13.301,3.591 16.804,7.608c4.566,5.236 5.952,12.245 6.146,19.393c0.889,32.725 -6.389,71.495 -7.049,75.682l-37.927,0l0,-7.637l19.029,0l0,0Z" style="fill:#1f1f1f;"/><path d="M72.653,173.549l13.682,0c8.706,-51.363 -6.653,-94.238 -6.979,-95.133c-1.781,-0.304 -3.627,-0.437 -5.49,-0.404c0,0 -0.001,0 -0.001,0l-1.323,0.083l0.111,0.052l0,95.402Z" style="fill:#e5e5e6;"/><path d="M71.317,78.147l0,95.402l2.015,0l0,-95.402l-0.238,-0.053l-1.777,0.053Z" style="fill:#e5e5e6;"/><path d="M71.705,88.755l0,84.706c-1.335,1.478 -4.638,1.408 -4.645,1.407l-9.779,0l0,-75.729c0,0 0,0 0,-0.001c0,-0.676 0.059,-1.344 0.173,-1.998c0.709,-10.076 4.559,-17.995 14.251,-19.046l0,10.661Z" style="fill:#292929;"/><path d="M57.33,180.132l5.451,-0.11l32.656,0l0,1.995c0,0 -0.179,5.513 -9.719,5.513c-5.156,0 -28.437,0 -28.437,0l0.049,-7.398Z" style="fill:#292929;"/><path d="M94.705,4.766c0,-0.482 -0.391,-0.873 -0.873,-0.873l-24.87,0c-0.482,0 -0.873,0.391 -0.873,0.873l0,1.747c0,0.482 0.391,0.873 0.873,0.873l24.87,0c0.482,0 0.873,-0.391 0.873,-0.873l0,-1.747Z" style="fill:#85502a;"/><path d="M89.369,54.095l-19.304,0c0,0 0,0 0,0c0,1.992 0.791,3.901 2.199,5.309c1.408,1.408 3.317,2.199 5.309,2.199c1.408,0 2.88,0 4.288,0c1.991,0 3.901,-0.791 5.309,-2.199c1.408,-1.408 2.199,-3.317 2.199,-5.309c0,0 0,0 0,0Z" style="fill:#fff;"/><path d="M53.891,156.145l-1.256,-1.447c-1.038,-1.236 -2.047,-2.503 -3.022,-3.803c-0.722,-0.964 -1.425,-1.947 -2.106,-2.949c-0.474,-0.698 -0.937,-1.406 -1.387,-2.124c-0.382,-0.608 -0.755,-1.223 -1.118,-1.845c-2.568,-4.404 -4.661,-9.204 -5.845,-14.315c-0.207,-0.895 -0.386,-1.798 -0.535,-2.707c-0.196,-1.196 -0.339,-2.403 -0.425,-3.616c-0.122,-1.699 -0.131,-3.408 -0.024,-5.109c0.147,-2.336 0.514,-4.654 1.09,-6.904c0.82,-3.207 2.06,-6.266 3.612,-9.107c2.153,-3.943 4.89,-7.459 7.938,-10.555c2.374,-2.412 4.943,-4.581 7.642,-6.512c0.936,-0.669 1.887,-1.309 2.855,-1.916c0.779,-0.488 1.568,-0.957 2.374,-1.388l0.056,-0.029c1.535,3.711 3.069,7.422 4.604,11.134c-0.102,0.053 -0.202,0.109 -0.302,0.165c-0.119,0.066 -0.236,0.133 -0.354,0.201c-1.59,0.928 -3.126,1.975 -4.608,3.106c-1.8,1.374 -3.522,2.882 -5.129,4.532c-2.206,2.268 -4.211,4.82 -5.778,7.691c-0.972,1.78 -1.771,3.684 -2.318,5.682c-0.35,1.277 -0.596,2.589 -0.727,3.917c-0.091,0.912 -0.128,1.83 -0.113,2.747c0.01,0.61 0.043,1.22 0.097,1.828c0.332,3.697 1.463,7.254 2.982,10.535c0.25,0.541 0.511,1.075 0.782,1.602c0.323,0.629 0.659,1.249 1.008,1.86c0.455,0.798 0.932,1.582 1.425,2.353c0.632,0.986 1.292,1.95 1.974,2.893c0.924,1.277 1.89,2.516 2.887,3.721l1.154,1.348l-0.014,0.002l-7.419,9.009Z" style="fill:#292929;"/><path d="M61.324,147.134c0.89,1.049 1.803,2.057 2.734,3.043c1.234,1.307 2.499,2.577 3.788,3.815c0,0 0.001,0.001 0.001,0.001c0.946,0.908 1.074,2.377 0.299,3.436c-1.189,1.622 -2.906,3.966 -4.12,5.622c-0.371,0.507 -0.942,0.828 -1.567,0.883c-0.625,0.054 -1.243,-0.164 -1.695,-0.598c0,-0.001 -0.001,-0.001 -0.001,-0.001c-1.333,-1.281 -2.643,-2.592 -3.923,-3.94c-1.005,-1.057 -1.991,-2.135 -2.949,-3.25l7.419,-9.009l0.014,-0.002Z" style="fill:#f2d1b5;"/></g></g><g><circle cx="34.068" cy="129.83" r="34.068" style="fill:#fff;"/><path d="M57.591,118.71l-25.727,32.523l-0.012,0.001l-21.336,-21.241l4.233,-4.252l16.576,16.502l21.56,-27.256l4.706,3.723Z" style="fill:#26a88b;"/></g></g></svg>