<?xml version="1.0" encoding="UTF-8" standalone="no"?><!DOCTYPE svg PUBLIC "-//W3C//DTD SVG 1.1//EN" "http://www.w3.org/Graphics/SVG/1.1/DTD/svg11.dtd"><svg width="100%" height="100%" viewBox="0 0 103 103" version="1.1" xmlns="http://www.w3.org/2000/svg" xmlns:xlink="http://www.w3.org/1999/xlink" xml:space="preserve" xmlns:serif="http://www.serif.com/" style="fill-rule:evenodd;clip-rule:evenodd;stroke-miterlimit:10;"><circle cx="51.816" cy="51.27" r="51" style="fill:#d04548;"/><path d="M36.77,50.87c-0.046,0.067 -0.126,0.276 -0.245,0.63c-0.118,0.354 -0.262,0.796 -0.43,1.328c-0.169,0.532 -0.352,1.129 -0.548,1.787c-0.197,0.659 -0.4,1.332 -0.606,2.018c-0.209,0.687 -0.408,1.358 -0.599,2.019c-0.192,0.658 -0.364,1.255 -0.515,1.787c-0.151,0.532 -0.277,0.978 -0.379,1.34c-0.101,0.359 -0.163,0.572 -0.186,0.639c-0.055,0.212 -0.145,0.449 -0.269,0.71c-0.125,0.26 -0.27,0.505 -0.439,0.738c-0.168,0.234 -0.354,0.427 -0.556,0.58c-0.203,0.153 -0.412,0.23 -0.624,0.23c-0.36,0 -0.622,-0.121 -0.785,-0.36c-0.163,-0.239 -0.245,-0.679 -0.245,-1.318l0,-0.28c0,-0.094 0.006,-0.193 0.017,-0.298c0.012,-0.213 0.096,-0.613 0.253,-1.2c0.157,-0.586 0.346,-1.248 0.564,-1.989c0.219,-0.74 0.456,-1.504 0.709,-2.298c0.252,-0.792 0.48,-1.502 0.683,-2.128c-0.597,0.666 -1.242,1.328 -1.941,1.988c-0.696,0.661 -1.412,1.252 -2.141,1.778c-0.731,0.526 -1.468,0.957 -2.211,1.288c-0.742,0.333 -1.456,0.5 -2.141,0.5c-0.787,0 -1.464,-0.175 -2.032,-0.519c-0.569,-0.346 -1.038,-0.8 -1.409,-1.359c-0.371,-0.559 -0.647,-1.192 -0.827,-1.898c-0.179,-0.706 -0.269,-1.413 -0.269,-2.119l0,-0.26c0,-0.08 0.005,-0.159 0.017,-0.239c0.067,-1.279 0.25,-2.591 0.547,-3.937c0.299,-1.345 0.689,-2.685 1.173,-4.015c0.484,-1.332 1.043,-2.633 1.679,-3.906c0.635,-1.272 1.326,-2.474 2.074,-3.605c0.748,-1.131 1.542,-2.174 2.386,-3.127c0.844,-0.953 1.709,-1.772 2.597,-2.457c0.888,-0.685 1.786,-1.221 2.691,-1.608c0.905,-0.386 1.803,-0.58 2.691,-0.58c1.024,0 2.013,0.28 2.968,0.839c0.955,0.558 1.849,1.466 2.681,2.717c0.191,0.28 0.312,0.563 0.362,0.85c0.049,0.287 0.076,0.557 0.076,0.809c0,0.599 -0.143,1.072 -0.43,1.418c-0.287,0.347 -0.628,0.519 -1.02,0.519c-0.36,0 -0.695,-0.189 -1.003,-0.57c-0.31,-0.379 -0.655,-0.923 -1.037,-1.629c-0.36,-0.639 -0.756,-1.102 -1.189,-1.389c-0.432,-0.287 -0.903,-0.429 -1.408,-0.429c-0.787,0 -1.629,0.327 -2.523,0.98c-0.893,0.652 -1.779,1.516 -2.656,2.587c-0.876,1.072 -1.718,2.297 -2.522,3.676c-0.804,1.378 -1.516,2.791 -2.134,4.236c-0.618,1.444 -1.11,2.87 -1.475,4.275c-0.366,1.404 -0.548,2.667 -0.548,3.787c0,0.373 0.025,0.756 0.077,1.148c0.052,0.393 0.145,0.75 0.287,1.07c0.14,0.32 0.331,0.584 0.574,0.788c0.241,0.207 0.547,0.31 0.919,0.31c0.415,0 0.888,-0.139 1.416,-0.419c0.528,-0.279 1.077,-0.645 1.644,-1.098c0.568,-0.454 1.138,-0.967 1.712,-1.539c0.575,-0.572 1.108,-1.152 1.602,-1.737c0.494,-0.586 0.934,-1.149 1.315,-1.688c0.383,-0.54 0.67,-1.009 0.859,-1.409l1.569,-4.694c0.192,-0.505 0.442,-0.865 0.751,-1.079c0.31,-0.213 0.627,-0.32 0.953,-0.32c0.157,0 0.313,0.027 0.472,0.08c0.157,0.054 0.299,0.136 0.421,0.251c0.125,0.113 0.222,0.26 0.295,0.44c0.073,0.18 0.109,0.391 0.109,0.63c0,0.639 -0.055,1.238 -0.168,1.799c-0.113,0.56 -0.257,1.106 -0.431,1.638c-0.174,0.532 -0.367,1.07 -0.582,1.607c-0.21,0.536 -0.419,1.099 -0.62,1.686Zm21.269,3.916c-0.495,0.666 -1.071,1.315 -1.728,1.948c-0.658,0.633 -1.336,1.196 -2.032,1.688c-0.697,0.492 -1.384,0.888 -2.057,1.188c-0.676,0.301 -1.283,0.45 -1.822,0.45c-0.54,0 -0.978,-0.18 -1.317,-0.54c-0.337,-0.359 -0.505,-0.972 -0.505,-1.839c0,-0.612 0.09,-1.326 0.27,-2.137c-0.293,0.52 -0.659,1.046 -1.097,1.578c-0.438,0.532 -0.939,1.019 -1.502,1.459c-0.563,0.44 -1.192,0.796 -1.889,1.068c-0.696,0.273 -1.456,0.409 -2.277,0.409c-0.371,0 -0.729,-0.046 -1.072,-0.14c-0.342,-0.093 -0.643,-0.252 -0.901,-0.478c-0.259,-0.226 -0.467,-0.528 -0.624,-0.909c-0.157,-0.379 -0.236,-0.855 -0.236,-1.428c0,-0.013 0.023,-0.216 0.067,-0.608c0.044,-0.393 0.188,-1.013 0.431,-1.858c0.241,-0.846 0.616,-1.941 1.121,-3.286c0.508,-1.346 1.221,-2.976 2.142,-4.896c0.235,-0.505 0.509,-0.868 0.817,-1.088c0.31,-0.221 0.643,-0.33 1.003,-0.33c0.157,0 0.319,0.023 0.49,0.069c0.168,0.048 0.325,0.121 0.472,0.22c0.146,0.1 0.265,0.226 0.355,0.379c0.089,0.153 0.135,0.329 0.135,0.53c0,0.134 -0.017,0.261 -0.051,0.379c-0.056,0.228 -0.176,0.523 -0.364,0.89c-0.186,0.368 -0.402,0.787 -0.649,1.259c-0.247,0.473 -0.509,0.982 -0.784,1.529c-0.276,0.546 -0.532,1.112 -0.768,1.698c-0.235,0.585 -0.438,1.183 -0.606,1.787c-0.169,0.607 -0.264,1.196 -0.287,1.769c0,0.239 0.055,0.459 0.168,0.66c0.113,0.199 0.299,0.3 0.557,0.3c0.731,0 1.428,-0.239 2.092,-0.719c0.664,-0.479 1.276,-1.076 1.839,-1.788c0.562,-0.712 1.071,-1.477 1.527,-2.298c0.455,-0.819 0.836,-1.567 1.139,-2.247c0.214,-0.453 0.401,-0.939 0.564,-1.458c0.163,-0.519 0.341,-0.999 0.532,-1.439c0.191,-0.44 0.41,-0.806 0.658,-1.099c0.247,-0.292 0.557,-0.44 0.929,-0.44c0.403,0 0.725,0.153 0.96,0.46c0.236,0.306 0.354,0.673 0.354,1.098c0,0.239 -0.074,0.57 -0.227,0.989c-0.154,0.419 -0.343,0.9 -0.575,1.439c-0.229,0.54 -0.48,1.116 -0.75,1.729c-0.27,0.612 -0.52,1.236 -0.75,1.867c-0.231,0.634 -0.421,1.252 -0.574,1.859c-0.151,0.606 -0.228,1.169 -0.228,1.687c0,0.481 0.247,0.72 0.743,0.72c0.348,0 0.781,-0.121 1.299,-0.36c0.519,-0.239 1.06,-0.576 1.629,-1.008c0.568,-0.433 1.135,-0.942 1.703,-1.529c0.568,-0.586 1.072,-1.219 1.51,-1.899l0.166,2.716Z" style="fill:#fff;fill-rule:nonzero;stroke:#fff;stroke-width:0.26px;"/><path d="M58.564,53.787c-0.125,0.306 -0.245,0.662 -0.364,1.07c-0.119,0.405 -0.176,0.769 -0.176,1.089c0,0.199 0.034,0.359 0.101,0.48c0.067,0.12 0.198,0.18 0.389,0.18c0.235,0 0.53,-0.083 0.886,-0.251c0.354,-0.166 0.737,-0.387 1.146,-0.66c0.412,-0.272 0.839,-0.586 1.282,-0.94c0.444,-0.352 0.887,-0.719 1.325,-1.098c0.438,-0.381 0.857,-0.76 1.257,-1.139c0.4,-0.381 0.756,-0.729 1.072,-1.049c0.09,-0.093 0.197,-0.16 0.319,-0.199c0.123,-0.04 0.23,-0.059 0.32,-0.059c0.224,0 0.411,0.094 0.557,0.279c0.145,0.186 0.218,0.433 0.218,0.739c0,0.279 -0.078,0.593 -0.235,0.94c-0.157,0.346 -0.433,0.687 -0.827,1.018c-0.72,0.786 -1.445,1.531 -2.176,2.237c-0.731,0.706 -1.458,1.328 -2.184,1.868c-0.725,0.539 -1.444,0.968 -2.158,1.29c-0.714,0.319 -1.409,0.478 -2.084,0.478c-0.461,0 -0.846,-0.073 -1.156,-0.22c-0.31,-0.147 -0.557,-0.346 -0.743,-0.599c-0.185,-0.253 -0.317,-0.553 -0.396,-0.9c-0.078,-0.346 -0.118,-0.711 -0.118,-1.098c0,-0.653 0.082,-1.322 0.245,-2.007c0.162,-0.686 0.355,-1.315 0.581,-1.887c0.395,-1.04 0.793,-2.071 1.198,-3.097c0.404,-1.026 0.775,-1.965 1.114,-2.817l5.11,-12.887c0.203,-0.518 0.474,-0.886 0.819,-1.098c0.342,-0.213 0.689,-0.32 1.037,-0.32c0.348,0 0.666,0.113 0.953,0.339c0.287,0.226 0.431,0.593 0.431,1.098c0,0.24 -0.048,0.494 -0.144,0.76c-0.096,0.266 -0.216,0.553 -0.362,0.859c-0.281,0.626 -0.616,1.392 -1.002,2.297c-0.389,0.905 -0.804,1.891 -1.248,2.957c-0.444,1.066 -0.9,2.174 -1.367,3.326c-0.467,1.152 -0.922,2.273 -1.366,3.366c-0.444,1.093 -0.859,2.128 -1.248,3.106c-0.392,0.98 -0.727,1.829 -1.006,2.549Z" style="fill:#fff;fill-rule:nonzero;stroke:#fff;stroke-width:0.26px;"/><path d="M82.464,50.17c0.157,-0.107 0.304,-0.193 0.438,-0.26c0.134,-0.067 0.264,-0.1 0.389,-0.1c0.247,0 0.432,0.111 0.557,0.329c0.124,0.22 0.185,0.49 0.185,0.81c0,0.346 -0.074,0.698 -0.227,1.058c-0.152,0.36 -0.379,0.658 -0.684,0.9c-1.203,1.065 -2.277,2.038 -3.22,2.916c-0.946,0.878 -1.836,1.634 -2.674,2.268c-0.838,0.633 -1.655,1.121 -2.453,1.468c-0.798,0.346 -1.654,0.518 -2.565,0.518c-0.855,0 -1.515,-0.187 -1.982,-0.559c-0.467,-0.373 -0.701,-0.886 -0.701,-1.538l0,-0.149c0,-0.046 0.006,-0.104 0.018,-0.171c0.044,-0.4 0.22,-0.859 0.522,-1.378c0.304,-0.518 0.67,-1.058 1.097,-1.619c0.426,-0.56 0.882,-1.125 1.366,-1.697c0.484,-0.572 0.93,-1.116 1.341,-1.629c0.41,-0.513 0.751,-0.981 1.02,-1.408c0.27,-0.427 0.406,-0.771 0.406,-1.039c0,-0.161 -0.057,-0.287 -0.168,-0.379c-0.113,-0.094 -0.299,-0.14 -0.557,-0.14c-0.45,0 -0.913,0.117 -1.391,0.35c-0.479,0.234 -0.951,0.546 -1.417,0.938c-0.466,0.392 -0.922,0.842 -1.366,1.349c-0.444,0.507 -0.859,1.032 -1.248,1.579c-0.388,0.547 -0.742,1.095 -1.062,1.648c-0.319,0.553 -0.593,1.062 -0.817,1.529c-0.067,0.147 -0.163,0.354 -0.287,0.62c-0.124,0.266 -0.258,0.566 -0.404,0.899c-0.147,0.333 -0.3,0.676 -0.465,1.028c-0.162,0.354 -0.312,0.687 -0.446,0.999c-0.136,0.314 -0.256,0.591 -0.363,0.84c-0.107,0.247 -0.184,0.415 -0.228,0.509c-0.057,0.121 -0.149,0.346 -0.279,0.679c-0.131,0.333 -0.278,0.722 -0.448,1.17c-0.169,0.446 -0.347,0.914 -0.53,1.408c-0.186,0.494 -0.36,0.959 -0.523,1.399c-0.162,0.44 -0.306,0.825 -0.43,1.158c-0.125,0.333 -0.203,0.559 -0.238,0.679c-0.113,0.347 -0.245,0.672 -0.396,0.98c-0.151,0.306 -0.325,0.576 -0.522,0.81c-0.197,0.233 -0.421,0.419 -0.676,0.558c-0.252,0.14 -0.538,0.209 -0.851,0.209c-0.406,0 -0.739,-0.098 -1.005,-0.289c-0.264,-0.193 -0.396,-0.563 -0.396,-1.108c0,-0.266 0.034,-0.54 0.101,-0.819c0.067,-0.28 0.153,-0.557 0.253,-0.829c0.101,-0.273 0.205,-0.539 0.312,-0.798c0.107,-0.26 0.205,-0.509 0.294,-0.75c0.607,-1.332 1.227,-2.668 1.857,-4.005c0.629,-1.34 1.234,-2.664 1.812,-3.977c0.58,-1.311 1.116,-2.601 1.611,-3.866c0.494,-1.265 0.906,-2.478 1.231,-3.636c0.09,-0.239 0.214,-0.58 0.371,-1.02c0.157,-0.44 0.337,-0.872 0.54,-1.299c0.203,-0.427 0.43,-0.796 0.683,-1.108c0.253,-0.314 0.526,-0.469 0.817,-0.469c0.45,0 0.775,0.103 0.978,0.31c0.203,0.207 0.304,0.509 0.304,0.909c0,0.08 -0.011,0.207 -0.034,0.379c-0.023,0.172 -0.052,0.356 -0.084,0.549c-0.035,0.193 -0.071,0.377 -0.109,0.549c-0.041,0.173 -0.077,0.299 -0.109,0.379c0.415,-0.453 0.865,-0.901 1.349,-1.349c0.484,-0.446 0.983,-0.85 1.502,-1.209c0.517,-0.36 1.045,-0.653 1.585,-0.881c0.539,-0.226 1.079,-0.338 1.619,-0.338c0.371,0 0.738,0.053 1.104,0.16c0.365,0.107 0.691,0.262 0.978,0.469c0.287,0.207 0.52,0.467 0.7,0.779c0.18,0.314 0.27,0.676 0.27,1.089c0,0.547 -0.138,1.129 -0.413,1.749c-0.276,0.62 -0.622,1.242 -1.038,1.868c-0.417,0.626 -0.867,1.236 -1.349,1.827c-0.484,0.594 -0.936,1.133 -1.359,1.619c-0.421,0.487 -0.775,0.9 -1.062,1.239c-0.287,0.34 -0.436,0.57 -0.447,0.689c0,0.16 0.051,0.289 0.151,0.39c0.099,0.101 0.27,0.149 0.507,0.149c0.191,0 0.473,-0.107 0.844,-0.319c0.371,-0.213 0.892,-0.582 1.559,-1.108c0.668,-0.527 1.518,-1.233 2.548,-2.119c1.029,-0.884 2.298,-2 3.804,-3.345Z" style="fill:#fff;fill-rule:nonzero;stroke:#fff;stroke-width:0.26px;"/></svg>