<?xml version="1.0" encoding="UTF-8" standalone="no"?><!DOCTYPE svg PUBLIC "-//W3C//DTD SVG 1.1//EN" "http://www.w3.org/Graphics/SVG/1.1/DTD/svg11.dtd"><svg width="100%" height="100%" viewBox="0 0 102 102" version="1.1" xmlns="http://www.w3.org/2000/svg" xmlns:xlink="http://www.w3.org/1999/xlink" xml:space="preserve" xmlns:serif="http://www.serif.com/" style="fill-rule:evenodd;clip-rule:evenodd;stroke-linejoin:round;stroke-miterlimit:1.41421;"><g id="js-ico" serif:id="js ico"><circle cx="51.222" cy="51.231" r="50.72" style="fill:#f0db4f;"/><g><path d="M35.536,31.902l7.773,0l0,24.454c0,3.198 -0.281,5.657 -0.843,7.379c-0.755,2.248 -2.126,4.053 -4.111,5.415c-1.985,1.361 -4.602,2.042 -7.852,2.042c-3.813,0 -6.746,-1.067 -8.802,-3.201c-2.055,-2.135 -3.092,-5.266 -3.109,-9.395l7.352,-0.843c0.088,2.214 0.413,3.777 0.975,4.691c0.843,1.387 2.125,2.081 3.847,2.081c1.739,0 2.969,-0.496 3.689,-1.489c0.72,-0.992 1.081,-3.052 1.081,-6.179l0,-24.955Z" style="fill:#323330;fill-rule:nonzero;"/><path d="M49.634,57.964l7.589,-0.738c0.457,2.547 1.383,4.418 2.78,5.613c1.397,1.194 3.281,1.792 5.652,1.792c2.512,0 4.405,-0.532 5.679,-1.595c1.274,-1.062 1.911,-2.305 1.911,-3.728c0,-0.914 -0.268,-1.691 -0.804,-2.332c-0.536,-0.642 -1.472,-1.199 -2.807,-1.674c-0.913,-0.316 -2.995,-0.878 -6.245,-1.686c-4.181,-1.037 -7.115,-2.31 -8.801,-3.821c-2.372,-2.126 -3.558,-4.717 -3.558,-7.774c0,-1.967 0.558,-3.808 1.674,-5.52c1.115,-1.713 2.723,-3.018 4.822,-3.914c2.099,-0.896 4.633,-1.344 7.602,-1.344c4.849,0 8.499,1.063 10.949,3.189c2.451,2.126 3.738,4.963 3.861,8.511l-7.8,0.343c-0.334,-1.985 -1.05,-3.412 -2.148,-4.282c-1.098,-0.87 -2.745,-1.304 -4.941,-1.304c-2.266,0 -4.04,0.465 -5.323,1.396c-0.825,0.597 -1.238,1.397 -1.238,2.398c0,0.914 0.386,1.695 1.159,2.345c0.984,0.826 3.373,1.687 7.168,2.583c3.794,0.896 6.601,1.823 8.419,2.78c1.818,0.957 3.241,2.266 4.269,3.926c1.028,1.66 1.542,3.711 1.542,6.153c0,2.214 -0.615,4.287 -1.845,6.219c-1.23,1.933 -2.969,3.369 -5.218,4.309c-2.248,0.94 -5.05,1.41 -8.406,1.41c-4.884,0 -8.634,-1.129 -11.252,-3.387c-2.617,-2.257 -4.181,-5.547 -4.69,-9.868Z" style="fill:#323330;fill-rule:nonzero;"/></g></g></svg>