<?xml version="1.0" encoding="UTF-8" standalone="no"?><!DOCTYPE svg PUBLIC "-//W3C//DTD SVG 1.1//EN" "http://www.w3.org/Graphics/SVG/1.1/DTD/svg11.dtd"><svg width="100%" height="100%" viewBox="0 0 385 235" version="1.1" xmlns="http://www.w3.org/2000/svg" xmlns:xlink="http://www.w3.org/1999/xlink" xml:space="preserve" style="fill-rule:evenodd;clip-rule:evenodd;stroke-linejoin:round;stroke-miterlimit:1.41421;"><g id="Flat-laptop"><path d="M356.866,17.556c0,-9.69 -7.866,-17.556 -17.555,-17.556l-293.827,0c-9.689,0 -17.555,7.866 -17.555,17.556l0,191.864c0,9.689 7.866,17.556 17.555,17.556l293.827,0c9.689,0 17.555,-7.867 17.555,-17.556l0,-191.864Z" style="fill:#ededed;"/><rect x="0" y="217.223" width="384.795" height="9.753" style="fill:#dedede;"/><rect x="40.537" y="17.556" width="303.721" height="191.864" style="fill:#282c34;fill-opacity:0.8;"/><circle cx="192.398" cy="9.567" r="2.66" style="fill:#313131;"/><ellipse cx="186.918" cy="9.567" rx="0.898" ry="0.889" style="fill:#313131;"/><path d="M14.186,226.976l361.743,0l-90.436,7.803l-180.871,0l-90.436,-7.803Z" style="fill:#bfbfbf;"/><rect x="19.701" y="217.223" width="0.248" height="1.141" style="fill:#ededed;"/><rect x="10.639" y="214.436" width="363.516" height="2.787" style="fill:#9b9b9b;"/><rect x="40.537" y="17.556" width="151.86" height="191.864" style="fill:#282c34;"/><g id="Dev"><g><rect id="v" x="40.537" y="17.556" width="151.86" height="6.833" style="fill:#c1c1c1;"/><circle cx="48.31" cy="20.972" r="1.779" style="fill:#b42f2f;"/><circle cx="54.181" cy="20.972" r="1.779" style="fill:#ffcc12;"/><circle cx="60.051" cy="20.972" r="1.779" style="fill:#31d151;"/><path d="M179.427,20.528c0,-0.246 -0.199,-0.445 -0.444,-0.445l-90.892,0c-0.246,0 -0.445,0.199 -0.445,0.445l0,0.889c0,0.246 0.199,0.445 0.445,0.445l90.892,0c0.245,0 0.444,-0.199 0.444,-0.445l0,-0.889Z" style="fill:#6a6a6a;"/></g><g><path d="M168.791,99.104c0,-0.964 -0.782,-1.747 -1.746,-1.747l-114.528,0c-0.964,0 -1.746,0.783 -1.746,1.747l0,3.492c0,0.964 0.782,1.747 1.746,1.747l114.528,0c0.964,0 1.746,-0.783 1.746,-1.747l0,-3.492Z" style="fill:#3d4351;"/><path d="M42.239,24.389c-0.988,0 -1.79,0.802 -1.79,1.791l0,181.45c0,0.988 0.802,1.79 1.79,1.79l3.581,0c0.988,0 1.79,-0.802 1.79,-1.79l0,-181.45c0,-0.989 -0.802,-1.791 -1.79,-1.791l-3.581,0Z" style="fill:#3d4351;fill-opacity:0.2;"/><g><path d="M74.239,35.023c0,-0.929 -0.754,-1.684 -1.684,-1.684l-20.101,0c-0.929,0 -1.683,0.755 -1.683,1.684l0,3.367c0,0.929 0.754,1.684 1.683,1.684l20.101,0c0.93,0 1.684,-0.755 1.684,-1.684l0,-3.367Z" style="fill:#c6629d;"/><path d="M124.653,35.274c0,-0.93 -0.755,-1.684 -1.684,-1.684l-14.632,0c-0.929,0 -1.683,0.754 -1.683,1.684l0,3.367c0,0.929 0.754,1.683 1.683,1.683l14.632,0c0.929,0 1.684,-0.754 1.684,-1.683l0,-3.367Z" style="fill:#c6629d;"/><path d="M160.266,35.274c0,-0.93 -0.754,-1.684 -1.683,-1.684l-30.174,0c-0.93,0 -1.684,0.754 -1.684,1.684l0,3.367c0,0.929 0.754,1.683 1.684,1.683l30.174,0c0.929,0 1.683,-0.754 1.683,-1.683l0,-3.367Z" style="fill:#8ac379;"/><path d="M104.581,35.274c0,-0.93 -0.754,-1.684 -1.683,-1.684l-24.104,0c-0.929,0 -1.683,0.754 -1.683,1.684l0,3.367c0,0.929 0.754,1.683 1.683,1.683l24.104,0c0.929,0 1.683,-0.754 1.683,-1.683l0,-3.367Z" style="fill:#e06c60;"/></g><g><path d="M74.647,44.002c0,-0.929 -0.754,-1.684 -1.684,-1.684l-20.509,0c-0.929,0 -1.683,0.755 -1.683,1.684l0,3.367c0,0.929 0.754,1.684 1.683,1.684l20.509,0c0.93,0 1.684,-0.755 1.684,-1.684l0,-3.367Z" style="fill:#c6629d;"/><path d="M114.228,44.253c0,-0.929 -0.754,-1.684 -1.684,-1.684l-14.631,0c-0.93,0 -1.684,0.755 -1.684,1.684l0,3.367c0,0.929 0.754,1.684 1.684,1.684l14.631,0c0.93,0 1.684,-0.755 1.684,-1.684l0,-3.367Z" style="fill:#c6629d;"/><path d="M135.81,44.253c0,-0.929 -0.754,-1.684 -1.684,-1.684l-15.343,0c-0.929,0 -1.683,0.755 -1.683,1.684l0,3.367c0,0.929 0.754,1.684 1.683,1.684l15.343,0c0.93,0 1.684,-0.755 1.684,-1.684l0,-3.367Z" style="fill:#8ac379;"/><path d="M93.357,44.253c0,-0.929 -0.754,-1.684 -1.683,-1.684l-12.472,0c-0.929,0 -1.683,0.755 -1.683,1.684l0,3.367c0,0.929 0.754,1.684 1.683,1.684l12.472,0c0.929,0 1.683,-0.755 1.683,-1.684l0,-3.367Z" style="fill:#e06c60;"/></g><g><path d="M74.647,53.593c0,-0.929 -0.754,-1.683 -1.684,-1.683l-20.509,0c-0.929,0 -1.683,0.754 -1.683,1.683l0,3.368c0,0.929 0.754,1.683 1.683,1.683l20.509,0c0.93,0 1.684,-0.754 1.684,-1.683l0,-3.368Z" style="fill:#c6629d;"/><path d="M113.82,53.844c0,-0.929 -0.754,-1.684 -1.684,-1.684l-14.632,0c-0.929,0 -1.683,0.755 -1.683,1.684l0,3.367c0,0.929 0.754,1.684 1.683,1.684l14.632,0c0.93,0 1.684,-0.755 1.684,-1.684l0,-3.367Z" style="fill:#c6629d;"/><path d="M135.402,53.844c0,-0.929 -0.755,-1.684 -1.684,-1.684l-15.343,0c-0.929,0 -1.683,0.755 -1.683,1.684l0,3.367c0,0.929 0.754,1.684 1.683,1.684l15.343,0c0.929,0 1.684,-0.755 1.684,-1.684l0,-3.367Z" style="fill:#8ac379;"/><path d="M92.949,53.844c0,-0.929 -0.754,-1.684 -1.683,-1.684l-12.472,0c-0.929,0 -1.683,0.755 -1.683,1.684l0,3.367c0,0.929 0.754,1.684 1.683,1.684l12.472,0c0.929,0 1.683,-0.755 1.683,-1.684l0,-3.367Z" style="fill:#e06c60;"/></g><g><path d="M74.647,62.981c0,-0.93 -0.754,-1.684 -1.684,-1.684l-20.509,0c-0.929,0 -1.683,0.754 -1.683,1.684l0,3.367c0,0.929 0.754,1.683 1.683,1.683l20.509,0c0.93,0 1.684,-0.754 1.684,-1.683l0,-3.367Z" style="fill:#c6629d;"/><path d="M124.432,63.231c0,-0.929 -0.755,-1.683 -1.684,-1.683l-14.632,0c-0.929,0 -1.683,0.754 -1.683,1.683l0,3.368c0,0.929 0.754,1.683 1.683,1.683l14.632,0c0.929,0 1.684,-0.754 1.684,-1.683l0,-3.368Z" style="fill:#c6629d;"/><path d="M160.062,63.231c0,-0.929 -0.754,-1.683 -1.683,-1.683l-30.241,0c-0.929,0 -1.683,0.754 -1.683,1.683l0,3.368c0,0.929 0.754,1.683 1.683,1.683l30.241,0c0.929,0 1.683,-0.754 1.683,-1.683l0,-3.368Z" style="fill:#8ac379;"/><path d="M104.409,63.231c0,-0.929 -0.754,-1.683 -1.683,-1.683l-23.524,0c-0.929,0 -1.683,0.754 -1.683,1.683l0,3.368c0,0.929 0.754,1.683 1.683,1.683l23.524,0c0.929,0 1.683,-0.754 1.683,-1.683l0,-3.368Z" style="fill:#e06c60;"/></g><g><path d="M74.647,72.929c0,-0.929 -0.754,-1.684 -1.684,-1.684l-20.509,0c-0.929,0 -1.683,0.755 -1.683,1.684l0,3.367c0,0.929 0.754,1.684 1.683,1.684l20.509,0c0.93,0 1.684,-0.755 1.684,-1.684l0,-3.367Z" style="fill:#c6629d;"/><path d="M124.432,73.18c0,-0.929 -0.755,-1.684 -1.684,-1.684l-14.632,0c-0.929,0 -1.683,0.755 -1.683,1.684l0,3.367c0,0.929 0.754,1.684 1.683,1.684l14.632,0c0.929,0 1.684,-0.755 1.684,-1.684l0,-3.367Z" style="fill:#c6629d;"/><path d="M209.431,73.18c0,-0.929 -0.754,-1.684 -1.683,-1.684l-79.61,0c-0.929,0 -1.683,0.755 -1.683,1.684l0,3.367c0,0.929 0.754,1.684 1.683,1.684l79.61,0c0.929,0 1.683,-0.755 1.683,-1.684l0,-3.367Z" style="fill:#8ac379;"/><path d="M104.409,73.18c0,-0.929 -0.754,-1.684 -1.683,-1.684l-23.524,0c-0.929,0 -1.683,0.755 -1.683,1.684l0,3.367c0,0.929 0.754,1.684 1.683,1.684l23.524,0c0.929,0 1.683,-0.755 1.683,-1.684l0,-3.367Z" style="fill:#e06c60;"/></g><g><path d="M71.164,125.153c0,-0.929 -0.754,-1.684 -1.683,-1.684l-17.027,0c-0.929,0 -1.683,0.755 -1.683,1.684l0,3.367c0,0.929 0.754,1.684 1.683,1.684l17.027,0c0.929,0 1.683,-0.755 1.683,-1.684l0,-3.367Z" style="fill:#c6629d;"/><path d="M92.913,125.153c0,-0.929 -0.754,-1.684 -1.684,-1.684l-17.026,0c-0.929,0 -1.684,0.755 -1.684,1.684l0,3.367c0,0.929 0.755,1.684 1.684,1.684l17.026,0c0.93,0 1.684,-0.755 1.684,-1.684l0,-3.367Z" style="fill:#d19a5e;"/><path d="M120.751,125.153c0,-0.929 -0.754,-1.684 -1.683,-1.684l-17.027,0c-0.929,0 -1.683,0.755 -1.683,1.684l0,3.367c0,0.929 0.754,1.684 1.683,1.684l17.027,0c0.929,0 1.683,-0.755 1.683,-1.684l0,-3.367Z" style="fill:#d19a5e;"/></g><g><path d="M71.164,134.567c0,-0.929 -0.754,-1.683 -1.683,-1.683l-17.027,0c-0.929,0 -1.683,0.754 -1.683,1.683l0,3.367c0,0.93 0.754,1.684 1.683,1.684l17.027,0c0.929,0 1.683,-0.754 1.683,-1.684l0,-3.367Z" style="fill:#c6629d;"/><path d="M92.913,134.567c0,-0.929 -0.754,-1.683 -1.684,-1.683l-17.026,0c-0.929,0 -1.684,0.754 -1.684,1.683l0,3.367c0,0.93 0.755,1.684 1.684,1.684l17.026,0c0.93,0 1.684,-0.754 1.684,-1.684l0,-3.367Z" style="fill:#d19a5e;"/><path d="M120.751,134.567c0,-0.929 -0.754,-1.683 -1.683,-1.683l-20.668,0c-0.929,0 -1.683,0.754 -1.683,1.683l0,3.367c0,0.93 0.754,1.684 1.683,1.684l20.668,0c0.929,0 1.683,-0.754 1.683,-1.684l0,-3.367Z" style="fill:#4c9dd8;"/></g><g><path d="M71.164,143.611c0,-0.929 -0.754,-1.683 -1.683,-1.683l-17.027,0c-0.929,0 -1.683,0.754 -1.683,1.683l0,3.368c0,0.929 0.754,1.683 1.683,1.683l17.027,0c0.929,0 1.683,-0.754 1.683,-1.683l0,-3.368Z" style="fill:#c6629d;"/><path d="M104.253,143.611c0,-0.929 -0.754,-1.683 -1.683,-1.683l-28.367,0c-0.929,0 -1.684,0.754 -1.684,1.683l0,3.368c0,0.929 0.755,1.683 1.684,1.683l28.367,0c0.929,0 1.683,-0.754 1.683,-1.683l0,-3.368Z" style="fill:#d19a5e;"/><path d="M174.491,143.611c0,-0.929 -0.754,-1.683 -1.683,-1.683l-56.71,0c-0.93,0 -1.684,0.754 -1.684,1.683l0,3.368c0,0.929 0.754,1.683 1.684,1.683l56.71,0c0.929,0 1.683,-0.754 1.683,-1.683l0,-3.368Z" style="fill:#4c9dd8;"/></g></g></g><g id="Designer"><rect x="192.398" y="17.556" width="151.86" height="191.864" style="fill:#383838;"/><rect id="v1" x="192.398" y="17.556" width="151.86" height="6.833" style="fill:#262626;"/><g><path d="M199.785,19.808c0.086,-0.172 0.262,-0.28 0.453,-0.28c0.192,0 0.368,0.108 0.454,0.28c0.382,0.764 0.92,1.841 1.269,2.538c0.075,0.15 0.067,0.327 -0.021,0.469c-0.088,0.142 -0.243,0.228 -0.41,0.228c-0.656,0 -1.601,0 -2.322,0c-0.223,0 -0.43,-0.115 -0.547,-0.305c-0.117,-0.189 -0.128,-0.426 -0.028,-0.625c0.344,-0.689 0.811,-1.622 1.152,-2.305Z" style="fill:#2a88fe;"/><g><g><path d="M216.989,20.62c0,-0.194 -0.158,-0.352 -0.352,-0.352l-6.728,0c-0.194,0 -0.352,0.158 -0.352,0.352l0,0.705c0,0.194 0.158,0.352 0.352,0.352l6.728,0c0.194,0 0.352,-0.158 0.352,-0.352l0,-0.705Z" style="fill:#ededed;"/><path d="M229.523,20.62c0,-0.194 -0.158,-0.352 -0.352,-0.352l-6.728,0c-0.194,0 -0.352,0.158 -0.352,0.352l0,0.705c0,0.194 0.158,0.352 0.352,0.352l6.728,0c0.194,0 0.352,-0.158 0.352,-0.352l0,-0.705Z" style="fill:#ededed;"/><path d="M229.523,20.62c0,-0.194 -0.158,-0.352 -0.352,-0.352l-6.728,0c-0.194,0 -0.352,0.158 -0.352,0.352l0,0.705c0,0.194 0.158,0.352 0.352,0.352l6.728,0c0.194,0 0.352,-0.158 0.352,-0.352l0,-0.705Z" style="fill:#ededed;"/><path d="M242.057,20.62c0,-0.194 -0.158,-0.352 -0.352,-0.352l-6.728,0c-0.195,0 -0.352,0.158 -0.352,0.352l0,0.705c0,0.194 0.157,0.352 0.352,0.352l6.728,0c0.194,0 0.352,-0.158 0.352,-0.352l0,-0.705Z" style="fill:#ededed;"/><path d="M254.59,20.62c0,-0.194 -0.157,-0.352 -0.352,-0.352l-6.728,0c-0.194,0 -0.352,0.158 -0.352,0.352l0,0.705c0,0.194 0.158,0.352 0.352,0.352l6.728,0c0.195,0 0.352,-0.158 0.352,-0.352l0,-0.705Z" style="fill:#ededed;"/><path d="M267.124,20.62c0,-0.194 -0.158,-0.352 -0.352,-0.352l-6.728,0c-0.194,0 -0.352,0.158 -0.352,0.352l0,0.705c0,0.194 0.158,0.352 0.352,0.352l6.728,0c0.194,0 0.352,-0.158 0.352,-0.352l0,-0.705Z" style="fill:#ededed;"/><path d="M279.658,20.62c0,-0.194 -0.158,-0.352 -0.352,-0.352l-6.728,0c-0.194,0 -0.352,0.158 -0.352,0.352l0,0.705c0,0.194 0.158,0.352 0.352,0.352l6.728,0c0.194,0 0.352,-0.158 0.352,-0.352l0,-0.705Z" style="fill:#ededed;"/><path d="M292.192,20.62c0,-0.194 -0.158,-0.352 -0.352,-0.352l-6.728,0c-0.195,0 -0.352,0.158 -0.352,0.352l0,0.705c0,0.194 0.157,0.352 0.352,0.352l6.728,0c0.194,0 0.352,-0.158 0.352,-0.352l0,-0.705Z" style="fill:#ededed;"/></g></g></g><g><rect x="192.398" y="24.389" width="151.86" height="4.142" style="fill:#313131;"/><path d="M303.669,26.441c0,-0.158 -0.128,-0.286 -0.285,-0.286l-101.392,0c-0.157,0 -0.285,0.128 -0.285,0.286l0,0.57c0,0.157 0.128,0.285 0.285,0.285l101.392,0c0.157,0 0.285,-0.128 0.285,-0.285l0,-0.57Z" style="fill:#262626;"/></g><g><rect x="192.398" y="28.531" width="151.86" height="4.142" style="fill:#2d2d2d;"/><path d="M285.944,30.383c0,-0.12 -0.098,-0.218 -0.219,-0.218l-77.586,0c-0.121,0 -0.218,0.098 -0.218,0.218l0,0.437c0,0.121 0.097,0.218 0.218,0.218l77.586,0c0.121,0 0.219,-0.097 0.219,-0.218l0,-0.437Z" style="fill:#ededed;"/></g><g id="v2"><rect x="192.398" y="32.672" width="6.65" height="176.748" style="fill:#262626;"/></g><path d="M196.831,37.368c0,-0.306 -0.249,-0.554 -0.554,-0.554l-1.109,0c-0.306,0 -0.554,0.248 -0.554,0.554l0,130.999c0,0.306 0.248,0.554 0.554,0.554l1.109,0c0.305,0 0.554,-0.248 0.554,-0.554l0,-130.999Z" style="fill:#313131;"/><rect x="207.027" y="68.713" width="137.231" height="78.023" style="fill:#ede8d8;"/><path d="M263.806,99.302c0,-4.649 -3.774,-8.423 -8.423,-8.423l-16.846,0c-4.649,0 -8.423,3.774 -8.423,8.423l0,16.846c0,4.649 3.774,8.423 8.423,8.423l16.846,0c4.649,0 8.423,-3.774 8.423,-8.423l0,-16.846Z" style="fill:#26a88b;"/><path d="M296.513,102.627c0,-2.814 -2.284,-5.098 -5.098,-5.098l-10.196,0c-2.814,0 -5.098,2.284 -5.098,5.098l0,10.196c0,2.814 2.284,5.098 5.098,5.098l10.196,0c2.814,0 5.098,-2.284 5.098,-5.098l0,-10.196Z" style="fill:#3fcdad;"/><path d="M321.171,104.639c0,-1.703 -1.383,-3.085 -3.086,-3.085l-6.171,0c-1.703,0 -3.086,1.382 -3.086,3.085l0,6.172c0,1.703 1.383,3.085 3.086,3.085l6.171,0c1.703,0 3.086,-1.382 3.086,-3.085l0,-6.172Z" style="fill:#7dd2bf;"/></g><path d="M40.537,209.42l303.721,-191.864l-303.721,0l0,191.864Z" style="fill:#fff;fill-opacity:0.0901961;"/></g></svg>