<?xml version="1.0" encoding="UTF-8" standalone="no"?><!DOCTYPE svg PUBLIC "-//W3C//DTD SVG 1.1//EN" "http://www.w3.org/Graphics/SVG/1.1/DTD/svg11.dtd"><svg width="100%" height="100%" viewBox="0 0 556 548" version="1.1" xmlns="http://www.w3.org/2000/svg" xmlns:xlink="http://www.w3.org/1999/xlink" xml:space="preserve" xmlns:serif="http://www.serif.com/" style="fill-rule:evenodd;clip-rule:evenodd;stroke-linejoin:round;stroke-miterlimit:1.41421;"><g id="logo"><path id="letter" d="M349.436,0c1.956,31.711 -15.179,96.56 -51.405,194.548c-62.797,170.594 -94.02,269.318 -93.669,296.17c0.201,11.729 5.224,17.028 15.069,15.9c7.522,-0.725 20.435,-9.218 38.74,-25.48l4.462,-3.797l8.033,9.68c-39.588,39.229 -69.129,59.445 -88.623,60.647c-15.595,0.962 -24.066,-9.474 -25.412,-31.308c-1.042,-16.895 2.893,-40.88 11.805,-71.956c8.911,-31.076 30.758,-96.738 65.54,-196.985l31.558,-91.178c19.068,-54.662 28.329,-86.412 27.784,-95.25c-0.433,-7.018 -4.678,-10.278 -12.735,-9.781c-2.86,0.176 -9.643,2.29 -20.352,6.342c-1.267,0.6 -3.177,1.37 -5.728,2.31l-4.596,-11.066l5.704,-2.7c43.909,-19.928 75.184,-35.293 93.825,-46.096Z" style="fill:url(#_Linear1);fill-rule:nonzero;"/><path id="slash" d="M399.223,190.977l-91.31,216.695l-22.096,0l91.31,-216.695l22.096,0Z" style="fill:#fff;fill-rule:nonzero;"/><path id="end-tag" d="M417.819,219.784l19.09,-19.62l118.781,99.161l-118.781,99.161l-19.09,-19.443l96.333,-79.365l-96.333,-79.894Z" style="fill:#fff;fill-rule:nonzero;"/><path id="start-tag" d="M137.871,378.866l-19.09,19.62l-118.781,-99.161l118.781,-99.161l19.09,19.443l-96.333,79.364l96.333,79.895Z" style="fill:#fff;fill-rule:nonzero;"/></g><defs><linearGradient id="_Linear1" x1="0" y1="0" x2="1" y2="0" gradientUnits="userSpaceOnUse" gradientTransform="matrix(847.535,-710.999,710.999,847.535,-142.698,584.863)"><stop offset="0" style="stop-color:#30caa2;stop-opacity:1"/><stop offset="1" style="stop-color:#80e1c8;stop-opacity:1"/></linearGradient></defs></svg>