<?xml version="1.0" encoding="UTF-8" standalone="no"?><!DOCTYPE svg PUBLIC "-//W3C//DTD SVG 1.1//EN" "http://www.w3.org/Graphics/SVG/1.1/DTD/svg11.dtd"><svg width="100%" height="100%" viewBox="0 0 92 61" version="1.1" xmlns="http://www.w3.org/2000/svg" xmlns:xlink="http://www.w3.org/1999/xlink" xml:space="preserve" style="fill-rule:evenodd;clip-rule:evenodd;stroke-linejoin:round;stroke-miterlimit:1.41421;"><path id="Mail" d="M0.5,0.5l0,59.147l90.995,0l0,-59.147l-90.995,0Zm53.232,36.171c-2.047,2.047 -4.777,3.185 -7.734,3.185c-2.958,0 -5.687,-1.138 -7.735,-3.185l-31.621,-31.621l78.484,0l-31.394,31.621Zm-25.251,-6.597l-23.431,23.431l0,-46.863l23.431,23.432Zm1.593,1.592l6.597,6.597c2.502,2.503 5.914,3.867 9.327,3.867c3.64,0 6.824,-1.364 9.327,-3.867l6.597,-6.597l23.431,23.431l-78.711,0l23.432,-23.431Zm33.44,-1.592l23.432,-23.432l0,47.09l-23.432,-23.658Z" style="fill:#262626;fill-rule:nonzero;stroke:#262626;stroke-width:1px;"/></svg>