<?xml version="1.0" encoding="UTF-8" standalone="no"?><!DOCTYPE svg PUBLIC "-//W3C//DTD SVG 1.1//EN" "http://www.w3.org/Graphics/SVG/1.1/DTD/svg11.dtd"><svg width="100%" height="100%" viewBox="0 0 59 39" version="1.1" xmlns="http://www.w3.org/2000/svg" xmlns:xlink="http://www.w3.org/1999/xlink" xml:space="preserve" xmlns:serif="http://www.serif.com/" style="fill-rule:evenodd;clip-rule:evenodd;stroke-linejoin:round;stroke-miterlimit:1.41421;"><path d="M57.533,38.107l-56.495,0c-0.421,-0.041 -0.464,-0.13 -0.5,-0.5l0,-36.721c0.041,-0.421 0.13,-0.464 0.5,-0.5l56.495,0c0.033,0.003 0.065,0.006 0.098,0.009c0.362,0.11 0.38,0.265 0.402,0.491l0,36.721c-0.041,0.421 -0.13,0.464 -0.5,0.5Zm-22.105,-13.421c-3.247,3.2 -8.906,3.338 -12.286,0l-3.743,-3.744l-13.341,13.341l46.454,0l-13.34,-13.341c-1.248,1.248 -2.496,2.496 -3.744,3.744Zm5.438,-5.438l13.342,13.472l0,-26.814c-4.447,4.447 -8.894,8.895 -13.342,13.342Zm-36.503,13.339l13.34,-13.341l-13.34,-13.34c0,8.894 0,17.787 0,26.681Zm48.014,-28.377l-46.319,0c6.297,6.297 12.474,12.714 18.891,18.888c2.319,2.185 6.255,2.272 8.673,0l0.113,-0.11l18.642,-18.778Z" style="fill:#262626;"/></svg>