<?xml version="1.0" encoding="UTF-8" standalone="no"?><!DOCTYPE svg PUBLIC "-//W3C//DTD SVG 1.1//EN" "http://www.w3.org/Graphics/SVG/1.1/DTD/svg11.dtd"><svg width="100%" height="100%" viewBox="0 0 102 102" version="1.1" xmlns="http://www.w3.org/2000/svg" xmlns:xlink="http://www.w3.org/1999/xlink" xml:space="preserve" xmlns:serif="http://www.serif.com/" style="fill-rule:evenodd;clip-rule:evenodd;stroke-linejoin:round;stroke-miterlimit:1.41421;"><g><circle cx="51.177" cy="50.99" r="50.72" style="fill:#83cd29;"/><path id="path22" d="M64.733,32.633c-0.073,0.001 -0.146,0.018 -0.21,0.056c-0.129,0.076 -0.211,0.215 -0.211,0.364l0,10.713c0,0.105 -0.049,0.199 -0.14,0.252c-0.091,0.053 -0.202,0.053 -0.294,0l-1.75,-1.008c-0.261,-0.151 -0.579,-0.151 -0.84,0l-6.988,4.033c-0.261,0.15 -0.42,0.44 -0.42,0.742l0,8.066c0,0.301 0.159,0.577 0.42,0.728l6.988,4.033c0.261,0.151 0.579,0.151 0.84,0l6.988,-4.033c0.261,-0.151 0.42,-0.427 0.42,-0.728l0,-20.109c0,-0.306 -0.167,-0.593 -0.434,-0.743l-4.159,-2.324c-0.066,-0.037 -0.138,-0.043 -0.21,-0.042l0,0Zm-44.952,10.069c-0.134,0.005 -0.259,0.028 -0.378,0.098l-6.988,4.033c-0.261,0.15 -0.42,0.424 -0.42,0.728l0.014,10.825c0,0.15 0.077,0.29 0.21,0.364c0.129,0.077 0.29,0.077 0.42,0l4.145,-2.381c0.262,-0.156 0.434,-0.427 0.434,-0.728l0,-5.055c0,-0.302 0.159,-0.579 0.42,-0.729l1.764,-1.022c0.132,-0.076 0.274,-0.112 0.421,-0.112c0.144,0 0.292,0.036 0.42,0.112l1.764,1.022c0.262,0.15 0.42,0.427 0.42,0.729l0,5.055c0,0.301 0.174,0.574 0.434,0.728l4.146,2.381c0.13,0.077 0.291,0.077 0.42,0c0.128,-0.074 0.21,-0.214 0.21,-0.364l0.014,-10.825c0,-0.304 -0.158,-0.578 -0.42,-0.728l-6.988,-4.033c-0.118,-0.07 -0.244,-0.093 -0.378,-0.098l-0.084,0l0,0Zm62.792,0.098c-0.146,-0.001 -0.289,0.036 -0.42,0.112l-6.988,4.033c-0.261,0.15 -0.42,0.426 -0.42,0.728l0,8.066c0,0.303 0.171,0.578 0.434,0.728l6.932,3.949c0.256,0.146 0.569,0.157 0.826,0.014l4.202,-2.339c0.133,-0.073 0.223,-0.212 0.224,-0.364c0.001,-0.152 -0.079,-0.288 -0.21,-0.364l-7.03,-4.033c-0.132,-0.075 -0.224,-0.227 -0.224,-0.378l0,-2.521c0,-0.15 0.093,-0.288 0.224,-0.364l2.184,-1.26c0.13,-0.075 0.29,-0.075 0.42,0l2.185,1.26c0.13,0.076 0.21,0.214 0.21,0.364l0,1.989c0,0.151 0.08,0.289 0.21,0.364c0.131,0.076 0.29,0.076 0.42,0l4.187,-2.437c0.26,-0.151 0.42,-0.427 0.42,-0.728l0,-1.946c0,-0.301 -0.159,-0.578 -0.42,-0.728l-6.946,-4.034c-0.13,-0.075 -0.274,-0.111 -0.42,-0.112l0,0.001Zm-20.893,6.021c0.036,0 0.079,0.009 0.112,0.028l2.394,1.386c0.065,0.038 0.112,0.107 0.112,0.182l0,2.773c0,0.075 -0.046,0.145 -0.112,0.182l-2.394,1.387c-0.065,0.037 -0.145,0.037 -0.21,0l-2.395,-1.387c-0.065,-0.037 -0.112,-0.107 -0.112,-0.182l0,-2.773c0,-0.075 0.047,-0.144 0.112,-0.182l2.395,-1.386c0.032,-0.019 0.061,-0.028 0.098,-0.028l0,0Z" style="fill:#404137;"/><path id="path28" d="M40.772,42.758c-0.145,0 -0.289,0.036 -0.42,0.112l-6.988,4.019c-0.261,0.15 -0.42,0.441 -0.42,0.742l0,8.066c0,0.302 0.159,0.577 0.42,0.728l6.988,4.033c0.261,0.151 0.579,0.151 0.84,0l6.988,-4.033c0.261,-0.151 0.42,-0.426 0.42,-0.728l0,-8.066c0,-0.302 -0.159,-0.592 -0.42,-0.742l-6.988,-4.019c-0.13,-0.076 -0.274,-0.112 -0.42,-0.112Zm41.787,7.198c-0.028,0 -0.058,0 -0.084,0.013l-1.344,0.785c-0.05,0.028 -0.084,0.082 -0.084,0.14l0,1.54c0,0.058 0.034,0.111 0.084,0.14l1.344,0.77c0.051,0.029 0.105,0.029 0.154,0l1.345,-0.77c0.05,-0.029 0.084,-0.082 0.084,-0.14l0,-1.54c0,-0.058 -0.034,-0.111 -0.084,-0.14l-1.345,-0.785c-0.025,-0.014 -0.042,-0.013 -0.07,-0.013Z" style="fill:#696b5a;"/></g></svg>