<?xml version="1.0" encoding="UTF-8" standalone="no"?><!DOCTYPE svg PUBLIC "-//W3C//DTD SVG 1.1//EN" "http://www.w3.org/Graphics/SVG/1.1/DTD/svg11.dtd"><svg width="100%" height="100%" viewBox="0 0 102 102" version="1.1" xmlns="http://www.w3.org/2000/svg" xmlns:xlink="http://www.w3.org/1999/xlink" xml:space="preserve" xmlns:serif="http://www.serif.com/" style="fill-rule:evenodd;clip-rule:evenodd;stroke-linejoin:round;stroke-miterlimit:1.41421;"><g id="ps-ico" serif:id="ps ico"><g><circle cx="50.813" cy="50.91" r="50.72" style="fill:#31334b;"/><path d="M51.141,0.191l0.327,0.004l0.327,0.005l0.327,0.007l0.325,0.009l0.326,0.012l0.324,0.013l0.325,0.015l0.323,0.018l0.324,0.019l0.322,0.022l0.322,0.023l0.322,0.026l0.321,0.027l0.32,0.03l0.32,0.031l0.319,0.034l0.319,0.035l0.318,0.038l0.317,0.039l0.317,0.042l0.317,0.043l0.315,0.045l0.315,0.047l0.314,0.049l0.314,0.051l0.313,0.053l0.313,0.055l0.311,0.057l0.312,0.059l0.31,0.06l0.31,0.063l0.309,0.064l0.308,0.066l0.308,0.068l0.307,0.07l0.306,0.072l0.306,0.074l0.305,0.075l0.304,0.077l0.303,0.08l0.303,0.08l0.302,0.083l0.301,0.085l0.3,0.086l0.3,0.088l0.299,0.09l0.298,0.092l0.297,0.094l0.297,0.095l0.295,0.097l0.295,0.099l0.295,0.101l0.293,0.102l0.292,0.104l0.292,0.106l0.291,0.108l0.29,0.109l0.289,0.111l0.288,0.113l0.288,0.114l0.286,0.116l0.286,0.118l0.285,0.12l0.284,0.121l0.283,0.123l0.282,0.125l0.281,0.126l0.281,0.128l0.279,0.129l0.279,0.131l0.277,0.133l0.277,0.135l0.276,0.136l0.275,0.137l0.273,0.14l0.273,0.141l0.272,0.142l0.271,0.144l0.27,0.146l0.269,0.147l0.268,0.149l0.267,0.15l0.266,0.152l0.265,0.154l0.264,0.155l0.263,0.157l0.262,0.158l0.261,0.159l0.26,0.162l0.259,0.162l0.258,0.165l0.256,0.165l0.256,0.168l0.255,0.168l0.253,0.171l0.252,0.171l0.252,0.173l0.25,0.175l0.249,0.176l0.248,0.178l0.247,0.179l0.246,0.18l0.245,0.182l0.243,0.184l0.243,0.184l0.241,0.186l0.24,0.188l0.239,0.189l0.238,0.19l0.237,0.192l0.235,0.193l0.234,0.195l0.233,0.196l0.232,0.197l0.231,0.199l0.23,0.2l0.228,0.201l0.227,0.203l0.226,0.204l0.224,0.205l0.224,0.207l0.222,0.208l0.221,0.21l0.219,0.21l0.219,0.212l0.217,0.213l0.216,0.215l0.214,0.216l0.213,0.217l0.212,0.218l0.211,0.22l0.209,0.221l0.208,0.222l0.207,0.223l0.206,0.225l0.204,0.226l0.202,0.227l0.202,0.228l0.2,0.23l0.198,0.23l0.198,0.232l0.196,0.233l0.194,0.235l0.193,0.235l0.192,0.237l0.191,0.237l0.189,0.239l0.187,0.241l0.186,0.241l0.185,0.242l0.183,0.244l0.182,0.245l0.181,0.245l0.179,0.247l0.177,0.248l0.177,0.25l0.174,0.25l0.173,0.251l0.172,0.253l0.17,0.253l0.169,0.255l0.167,0.255l0.166,0.257l0.164,0.258l0.163,0.259l0.161,0.26l0.16,0.261l0.158,0.261l0.157,0.263l0.155,0.264l0.153,0.265l0.152,0.266l0.151,0.268l0.149,0.268l0.147,0.269l0.146,0.27l0.144,0.27l0.142,0.272l0.141,0.273l0.139,0.274l0.138,0.275l0.136,0.276l0.135,0.276l0.132,0.278l0.131,0.278l0.13,0.28l0.128,0.28l0.126,0.282l0.125,0.282l0.123,0.283l0.121,0.284l0.119,0.285l0.118,0.285l0.116,0.287l0.115,0.287l0.113,0.289l0.111,0.289l0.109,0.29l0.107,0.291l0.106,0.291l0.104,0.293l0.103,0.293l0.1,0.294l0.099,0.295l0.097,0.296l0.096,0.296l0.093,0.298l0.092,0.298l0.09,0.299l0.088,0.299l0.087,0.301l0.084,0.301l0.083,0.302l0.081,0.303l0.079,0.303l0.078,0.304l0.075,0.305l0.074,0.305l0.071,0.307l0.07,0.307l0.068,0.307l0.067,0.309l0.064,0.309l0.062,0.31l0.061,0.31l0.059,0.311l0.056,0.312l0.055,0.312l0.053,0.313l0.051,0.314l0.049,0.315l0.048,0.315l0.045,0.315l0.043,0.316l0.041,0.317l0.04,0.318l0.037,0.318l0.036,0.318l0.033,0.32l0.032,0.319l0.029,0.321l0.028,0.321l0.025,0.321l0.024,0.322l0.021,0.323l0.02,0.323l0.017,0.324l0.016,0.324l0.013,0.325l0.011,0.325l0.01,0.326l0.007,0.326l0.005,0.327l0.003,0.328l0.001,0.327l-0.001,0.328l-0.003,0.327l-0.005,0.327l-0.007,0.327l-0.01,0.325l-0.011,0.326l-0.013,0.324l-0.016,0.325l-0.017,0.323l-0.02,0.324l-0.021,0.322l-0.024,0.322l-0.025,0.322l-0.028,0.321l-0.029,0.32l-0.032,0.32l-0.033,0.319l-0.036,0.319l-0.037,0.318l-0.04,0.317l-0.041,0.317l-0.043,0.317l-0.045,0.315l-0.048,0.315l-0.049,0.315l-0.051,0.313l-0.053,0.313l-0.055,0.313l-0.056,0.312l-0.059,0.311l-0.061,0.31l-0.062,0.31l-0.064,0.309l-0.067,0.308l-0.068,0.308l-0.07,0.307l-0.071,0.306l-0.074,0.306l-0.075,0.305l-0.078,0.304l-0.079,0.303l-0.081,0.303l-0.083,0.302l-0.084,0.301l-0.087,0.3l-0.088,0.3l-0.09,0.299l-0.092,0.298l-0.093,0.297l-0.096,0.297l-0.097,0.296l-0.099,0.294l-0.1,0.295l-0.103,0.293l-0.104,0.292l-0.106,0.292l-0.107,0.291l-0.109,0.29l-0.111,0.289l-0.113,0.288l-0.115,0.288l-0.116,0.286l-0.118,0.286l-0.119,0.285l-0.121,0.284l-0.123,0.283l-0.125,0.282l-0.126,0.281l-0.128,0.281l-0.13,0.279l-0.131,0.279l-0.132,0.277l-0.135,0.277l-0.136,0.276l-0.138,0.275l-0.139,0.273l-0.141,0.273l-0.142,0.272l-0.144,0.271l-0.146,0.27l-0.147,0.269l-0.149,0.268l-0.151,0.267l-0.152,0.266l-0.153,0.265l-0.155,0.264l-0.157,0.263l-0.158,0.262l-0.16,0.261l-0.161,0.26l-0.163,0.259l-0.164,0.258l-0.166,0.256l-0.167,0.256l-0.169,0.255l-0.17,0.253l-0.172,0.253l-0.173,0.251l-0.174,0.25l-0.177,0.249l-0.177,0.248l-0.179,0.247l-0.181,0.246l-0.182,0.245l-0.183,0.243l-0.185,0.243l-0.186,0.241l-0.187,0.24l-0.189,0.239l-0.191,0.238l-0.192,0.237l-0.193,0.235l-0.194,0.234l-0.196,0.234l-0.198,0.231l-0.198,0.231l-0.2,0.23l-0.202,0.228l-0.202,0.227l-0.204,0.226l-0.206,0.224l-0.207,0.224l-0.208,0.222l-0.209,0.221l-0.211,0.219l-0.212,0.219l-0.213,0.217l-0.214,0.216l-0.216,0.214l-0.217,0.214l-0.219,0.211l-0.219,0.211l-0.221,0.209l-0.222,0.208l-0.224,0.207l-0.224,0.206l-0.226,0.204l-0.227,0.202l-0.228,0.202l-0.23,0.2l-0.231,0.198l-0.232,0.198l-0.233,0.196l-0.234,0.194l-0.235,0.193l-0.237,0.192l-0.238,0.191l-0.239,0.189l-0.24,0.187l-0.241,0.186l-0.243,0.185l-0.243,0.184l-0.245,0.181l-0.246,0.181l-0.247,0.179l-0.248,0.177l-0.249,0.177l-0.25,0.174l-0.252,0.173l-0.252,0.172l-0.253,0.17l-0.255,0.169l-0.256,0.167l-0.256,0.166l-0.258,0.164l-0.259,0.163l-0.26,0.161l-0.261,0.16l-0.262,0.158l-0.263,0.157l-0.264,0.155l-0.265,0.153l-0.266,0.152l-0.267,0.151l-0.268,0.149l-0.269,0.147l-0.27,0.146l-0.271,0.144l-0.272,0.142l-0.273,0.141l-0.273,0.139l-0.275,0.138l-0.276,0.136l-0.277,0.135l-0.277,0.132l-0.279,0.132l-0.279,0.129l-0.281,0.128l-0.281,0.126l-0.282,0.125l-0.283,0.123l-0.284,0.121l-0.285,0.119l-0.286,0.118l-0.286,0.116l-0.288,0.115l-0.288,0.113l-0.289,0.111l-0.29,0.109l-0.291,0.108l-0.292,0.105l-0.292,0.104l-0.293,0.103l-0.295,0.101l-0.295,0.098l-0.295,0.097l-0.297,0.096l-0.297,0.093l-0.298,0.092l-0.299,0.09l-0.3,0.088l-0.3,0.087l-0.301,0.084l-0.302,0.083l-0.303,0.081l-0.303,0.079l-0.304,0.078l-0.305,0.075l-0.306,0.074l-0.306,0.072l-0.307,0.069l-0.308,0.069l-0.308,0.066l-0.309,0.064l-0.31,0.063l-0.31,0.06l-0.312,0.059l-0.311,0.056l-0.313,0.055l-0.313,0.053l-0.314,0.051l-0.314,0.049l-0.315,0.048l-0.315,0.045l-0.317,0.043l-0.317,0.041l-0.317,0.04l-0.318,0.037l-0.319,0.036l-0.319,0.033l-0.32,0.032l-0.32,0.029l-0.321,0.028l-0.322,0.025l-0.322,0.024l-0.322,0.021l-0.324,0.02l-0.323,0.017l-0.325,0.016l-0.324,0.013l-0.326,0.011l-0.325,0.01l-0.327,0.007l-0.327,0.005l-0.327,0.003l-0.328,0.001l-0.328,-0.001l-0.327,-0.003l-0.327,-0.005l-0.326,-0.007l-0.326,-0.01l-0.325,-0.011l-0.325,-0.013l-0.324,-0.016l-0.324,-0.017l-0.323,-0.02l-0.323,-0.021l-0.322,-0.024l-0.321,-0.025l-0.321,-0.028l-0.321,-0.029l-0.319,-0.032l-0.32,-0.033l-0.318,-0.036l-0.318,-0.037l-0.318,-0.04l-0.317,-0.041l-0.316,-0.043l-0.316,-0.045l-0.315,-0.048l-0.314,-0.049l-0.314,-0.051l-0.313,-0.053l-0.312,-0.055l-0.312,-0.056l-0.311,-0.059l-0.31,-0.06l-0.31,-0.063l-0.309,-0.064l-0.309,-0.066l-0.307,-0.069l-0.307,-0.069l-0.307,-0.072l-0.305,-0.074l-0.305,-0.075l-0.304,-0.078l-0.304,-0.079l-0.302,-0.081l-0.302,-0.083l-0.301,-0.084l-0.301,-0.087l-0.299,-0.088l-0.299,-0.09l-0.298,-0.092l-0.298,-0.093l-0.296,-0.096l-0.296,-0.097l-0.295,-0.098l-0.294,-0.101l-0.293,-0.103l-0.293,-0.104l-0.291,-0.105l-0.291,-0.108l-0.29,-0.109l-0.289,-0.111l-0.289,-0.113l-0.287,-0.115l-0.287,-0.116l-0.285,-0.118l-0.285,-0.119l-0.284,-0.121l-0.283,-0.123l-0.282,-0.125l-0.282,-0.126l-0.28,-0.128l-0.28,-0.129l-0.278,-0.132l-0.278,-0.132l-0.276,-0.135l-0.276,-0.136l-0.275,-0.138l-0.274,-0.139l-0.273,-0.141l-0.272,-0.142l-0.271,-0.144l-0.27,-0.146l-0.269,-0.147l-0.268,-0.149l-0.267,-0.151l-0.266,-0.152l-0.265,-0.153l-0.264,-0.155l-0.263,-0.157l-0.262,-0.158l-0.26,-0.16l-0.26,-0.161l-0.259,-0.163l-0.258,-0.164l-0.257,-0.166l-0.255,-0.167l-0.255,-0.169l-0.253,-0.17l-0.253,-0.172l-0.251,-0.173l-0.251,-0.174l-0.249,-0.177l-0.248,-0.177l-0.247,-0.179l-0.245,-0.181l-0.245,-0.181l-0.244,-0.184l-0.242,-0.185l-0.241,-0.186l-0.241,-0.187l-0.239,-0.189l-0.237,-0.191l-0.237,-0.192l-0.236,-0.193l-0.234,-0.194l-0.233,-0.196l-0.232,-0.198l-0.231,-0.198l-0.229,-0.2l-0.228,-0.202l-0.227,-0.202l-0.226,-0.204l-0.225,-0.206l-0.223,-0.207l-0.222,-0.208l-0.221,-0.209l-0.22,-0.211l-0.218,-0.211l-0.217,-0.214l-0.216,-0.214l-0.215,-0.216l-0.213,-0.217l-0.212,-0.219l-0.21,-0.219l-0.21,-0.221l-0.208,-0.222l-0.207,-0.224l-0.205,-0.224l-0.204,-0.226l-0.203,-0.227l-0.201,-0.228l-0.2,-0.23l-0.199,-0.231l-0.197,-0.231l-0.196,-0.234l-0.195,-0.234l-0.193,-0.235l-0.192,-0.237l-0.19,-0.238l-0.189,-0.239l-0.188,-0.24l-0.186,-0.241l-0.185,-0.243l-0.183,-0.243l-0.182,-0.245l-0.18,-0.246l-0.179,-0.247l-0.178,-0.248l-0.176,-0.249l-0.175,-0.25l-0.173,-0.251l-0.172,-0.253l-0.17,-0.253l-0.169,-0.255l-0.167,-0.256l-0.166,-0.256l-0.164,-0.258l-0.162,-0.259l-0.162,-0.26l-0.159,-0.261l-0.159,-0.262l-0.156,-0.263l-0.155,-0.264l-0.154,-0.265l-0.152,-0.266l-0.15,-0.267l-0.149,-0.268l-0.147,-0.269l-0.146,-0.27l-0.144,-0.271l-0.143,-0.272l-0.14,-0.273l-0.14,-0.273l-0.137,-0.275l-0.136,-0.276l-0.135,-0.277l-0.133,-0.277l-0.131,-0.279l-0.129,-0.279l-0.128,-0.281l-0.127,-0.281l-0.124,-0.282l-0.123,-0.283l-0.121,-0.284l-0.12,-0.285l-0.118,-0.286l-0.116,-0.286l-0.114,-0.288l-0.113,-0.288l-0.111,-0.289l-0.109,-0.29l-0.108,-0.291l-0.106,-0.292l-0.104,-0.292l-0.102,-0.293l-0.101,-0.295l-0.099,-0.294l-0.097,-0.296l-0.095,-0.297l-0.094,-0.297l-0.092,-0.298l-0.09,-0.299l-0.088,-0.3l-0.086,-0.3l-0.085,-0.301l-0.083,-0.302l-0.081,-0.303l-0.079,-0.303l-0.077,-0.304l-0.075,-0.305l-0.074,-0.306l-0.072,-0.306l-0.07,-0.307l-0.068,-0.308l-0.066,-0.308l-0.064,-0.309l-0.063,-0.31l-0.06,-0.31l-0.059,-0.311l-0.057,-0.312l-0.055,-0.313l-0.053,-0.313l-0.051,-0.313l-0.049,-0.315l-0.047,-0.315l-0.045,-0.315l-0.043,-0.317l-0.042,-0.317l-0.039,-0.317l-0.038,-0.318l-0.035,-0.319l-0.034,-0.319l-0.031,-0.32l-0.03,-0.32l-0.027,-0.321l-0.026,-0.322l-0.023,-0.322l-0.022,-0.322l-0.019,-0.324l-0.018,-0.323l-0.015,-0.325l-0.013,-0.324l-0.012,-0.326l-0.009,-0.325l-0.007,-0.327l-0.005,-0.327l-0.004,-0.327l-0.001,-0.328l0.001,-0.327l0.004,-0.328l0.005,-0.327l0.007,-0.326l0.009,-0.326l0.012,-0.325l0.013,-0.325l0.015,-0.324l0.018,-0.324l0.019,-0.323l0.022,-0.323l0.023,-0.322l0.026,-0.321l0.027,-0.321l0.03,-0.321l0.031,-0.319l0.034,-0.32l0.035,-0.318l0.038,-0.318l0.039,-0.318l0.042,-0.317l0.043,-0.316l0.045,-0.315l0.047,-0.315l0.049,-0.315l0.051,-0.314l0.053,-0.313l0.055,-0.312l0.057,-0.312l0.059,-0.311l0.06,-0.31l0.063,-0.31l0.064,-0.309l0.066,-0.309l0.068,-0.307l0.07,-0.307l0.072,-0.307l0.074,-0.305l0.075,-0.305l0.077,-0.304l0.079,-0.303l0.081,-0.303l0.083,-0.302l0.085,-0.301l0.086,-0.301l0.088,-0.299l0.09,-0.299l0.092,-0.298l0.094,-0.298l0.095,-0.296l0.097,-0.296l0.099,-0.295l0.101,-0.294l0.102,-0.293l0.104,-0.293l0.106,-0.291l0.108,-0.291l0.109,-0.29l0.111,-0.289l0.113,-0.289l0.114,-0.287l0.116,-0.287l0.118,-0.285l0.12,-0.285l0.121,-0.284l0.123,-0.283l0.124,-0.282l0.127,-0.282l0.128,-0.28l0.129,-0.28l0.131,-0.278l0.133,-0.278l0.135,-0.276l0.136,-0.276l0.137,-0.275l0.14,-0.274l0.14,-0.273l0.143,-0.272l0.144,-0.27l0.146,-0.27l0.147,-0.269l0.149,-0.268l0.15,-0.268l0.152,-0.266l0.154,-0.265l0.155,-0.264l0.156,-0.263l0.159,-0.261l0.159,-0.261l0.162,-0.26l0.162,-0.259l0.164,-0.258l0.166,-0.257l0.167,-0.255l0.169,-0.255l0.17,-0.253l0.172,-0.253l0.173,-0.251l0.175,-0.25l0.176,-0.25l0.178,-0.248l0.179,-0.247l0.18,-0.245l0.182,-0.245l0.183,-0.244l0.185,-0.242l0.186,-0.241l0.188,-0.241l0.189,-0.239l0.19,-0.237l0.192,-0.237l0.193,-0.235l0.195,-0.235l0.196,-0.233l0.197,-0.232l0.199,-0.23l0.2,-0.23l0.201,-0.228l0.203,-0.227l0.204,-0.226l0.205,-0.225l0.207,-0.223l0.208,-0.222l0.21,-0.221l0.21,-0.22l0.212,-0.218l0.213,-0.217l0.215,-0.216l0.216,-0.215l0.217,-0.213l0.218,-0.212l0.22,-0.21l0.221,-0.21l0.222,-0.208l0.223,-0.207l0.225,-0.205l0.226,-0.204l0.227,-0.203l0.228,-0.201l0.229,-0.2l0.231,-0.199l0.232,-0.197l0.233,-0.196l0.234,-0.195l0.236,-0.193l0.237,-0.192l0.237,-0.19l0.239,-0.189l0.241,-0.188l0.241,-0.186l0.242,-0.184l0.244,-0.184l0.245,-0.182l0.245,-0.18l0.247,-0.179l0.248,-0.178l0.249,-0.176l0.251,-0.175l0.251,-0.173l0.253,-0.171l0.253,-0.171l0.255,-0.168l0.255,-0.168l0.257,-0.165l0.258,-0.165l0.259,-0.162l0.26,-0.162l0.26,-0.159l0.262,-0.158l0.263,-0.157l0.264,-0.155l0.265,-0.154l0.266,-0.152l0.267,-0.15l0.268,-0.149l0.269,-0.147l0.27,-0.146l0.271,-0.144l0.272,-0.142l0.273,-0.141l0.274,-0.14l0.275,-0.137l0.276,-0.136l0.276,-0.135l0.278,-0.133l0.278,-0.131l0.28,-0.129l0.28,-0.128l0.282,-0.126l0.282,-0.125l0.283,-0.123l0.284,-0.121l0.285,-0.12l0.285,-0.118l0.287,-0.116l0.287,-0.114l0.289,-0.113l0.289,-0.111l0.29,-0.109l0.291,-0.108l0.291,-0.106l0.293,-0.104l0.293,-0.102l0.294,-0.101l0.295,-0.099l0.296,-0.097l0.296,-0.095l0.298,-0.094l0.298,-0.092l0.299,-0.09l0.299,-0.088l0.301,-0.086l0.301,-0.085l0.302,-0.083l0.302,-0.08l0.304,-0.08l0.304,-0.077l0.305,-0.075l0.305,-0.074l0.307,-0.072l0.307,-0.07l0.307,-0.068l0.309,-0.066l0.309,-0.064l0.31,-0.063l0.31,-0.06l0.311,-0.059l0.312,-0.057l0.312,-0.055l0.313,-0.053l0.314,-0.051l0.314,-0.049l0.315,-0.047l0.316,-0.045l0.316,-0.043l0.317,-0.042l0.318,-0.039l0.318,-0.038l0.318,-0.035l0.32,-0.034l0.319,-0.031l0.321,-0.03l0.321,-0.027l0.321,-0.026l0.322,-0.023l0.323,-0.022l0.323,-0.019l0.324,-0.018l0.324,-0.015l0.325,-0.013l0.325,-0.012l0.326,-0.009l0.326,-0.007l0.327,-0.005l0.327,-0.004l0.328,-0.001l0.328,0.001Zm-0.636,3l-0.309,0.003l-0.308,0.005l-0.307,0.007l-0.307,0.009l-0.306,0.01l-0.306,0.013l-0.305,0.015l-0.305,0.016l-0.304,0.018l-0.304,0.021l-0.303,0.022l-0.302,0.024l-0.302,0.026l-0.302,0.027l-0.301,0.03l-0.3,0.032l-0.3,0.033l-0.299,0.035l-0.299,0.037l-0.298,0.039l-0.298,0.041l-0.297,0.042l-0.296,0.045l-0.296,0.046l-0.295,0.048l-0.294,0.05l-0.294,0.051l-0.293,0.054l-0.293,0.055l-0.292,0.057l-0.291,0.059l-0.291,0.06l-0.29,0.062l-0.289,0.064l-0.289,0.066l-0.288,0.068l-0.287,0.069l-0.287,0.071l-0.286,0.073l-0.285,0.074l-0.285,0.076l-0.284,0.078l-0.283,0.08l-0.282,0.081l-0.282,0.083l-0.281,0.084l-0.281,0.087l-0.279,0.088l-0.279,0.089l-0.278,0.092l-0.277,0.093l-0.277,0.094l-0.276,0.097l-0.275,0.097l-0.274,0.1l-0.274,0.101l-0.272,0.103l-0.272,0.104l-0.271,0.106l-0.271,0.108l-0.269,0.109l-0.269,0.111l-0.268,0.113l-0.267,0.114l-0.266,0.115l-0.266,0.117l-0.264,0.119l-0.264,0.12l-0.263,0.122l-0.262,0.124l-0.261,0.124l-0.26,0.127l-0.259,0.128l-0.259,0.129l-0.258,0.131l-0.256,0.133l-0.256,0.134l-0.255,0.136l-0.254,0.137l-0.253,0.138l-0.252,0.14l-0.251,0.142l-0.251,0.143l-0.249,0.144l-0.248,0.146l-0.248,0.147l-0.246,0.149l-0.246,0.15l-0.244,0.152l-0.244,0.153l-0.242,0.155l-0.242,0.156l-0.24,0.157l-0.24,0.159l-0.239,0.16l-0.237,0.162l-0.237,0.163l-0.235,0.164l-0.235,0.166l-0.233,0.167l-0.233,0.168l-0.231,0.17l-0.23,0.171l-0.229,0.173l-0.229,0.174l-0.227,0.175l-0.226,0.177l-0.225,0.178l-0.223,0.179l-0.223,0.18l-0.222,0.182l-0.22,0.183l-0.22,0.185l-0.218,0.185l-0.217,0.187l-0.216,0.189l-0.215,0.189l-0.214,0.191l-0.212,0.192l-0.212,0.193l-0.21,0.195l-0.209,0.196l-0.208,0.197l-0.207,0.198l-0.205,0.2l-0.205,0.2l-0.203,0.202l-0.202,0.203l-0.2,0.205l-0.2,0.205l-0.198,0.207l-0.197,0.208l-0.196,0.209l-0.195,0.21l-0.193,0.212l-0.192,0.212l-0.191,0.214l-0.189,0.215l-0.189,0.216l-0.187,0.217l-0.185,0.218l-0.185,0.22l-0.183,0.22l-0.182,0.222l-0.18,0.223l-0.18,0.223l-0.177,0.225l-0.177,0.226l-0.175,0.228l-0.174,0.228l-0.173,0.229l-0.171,0.23l-0.17,0.231l-0.168,0.233l-0.167,0.233l-0.166,0.235l-0.164,0.235l-0.163,0.237l-0.162,0.237l-0.16,0.239l-0.159,0.24l-0.157,0.24l-0.156,0.242l-0.155,0.242l-0.153,0.244l-0.152,0.244l-0.15,0.246l-0.149,0.246l-0.147,0.248l-0.146,0.248l-0.144,0.249l-0.143,0.251l-0.142,0.251l-0.14,0.252l-0.138,0.253l-0.137,0.254l-0.136,0.255l-0.134,0.256l-0.133,0.257l-0.131,0.257l-0.129,0.259l-0.128,0.259l-0.127,0.26l-0.125,0.261l-0.123,0.262l-0.122,0.263l-0.12,0.264l-0.119,0.264l-0.117,0.266l-0.115,0.266l-0.114,0.267l-0.113,0.268l-0.111,0.269l-0.109,0.269l-0.108,0.271l-0.106,0.271l-0.104,0.272l-0.103,0.272l-0.101,0.274l-0.1,0.274l-0.097,0.275l-0.097,0.276l-0.094,0.277l-0.093,0.277l-0.092,0.278l-0.089,0.279l-0.088,0.279l-0.087,0.281l-0.084,0.281l-0.083,0.282l-0.082,0.282l-0.079,0.283l-0.078,0.284l-0.076,0.285l-0.074,0.285l-0.073,0.286l-0.071,0.287l-0.069,0.287l-0.068,0.288l-0.066,0.289l-0.064,0.289l-0.062,0.29l-0.06,0.291l-0.059,0.291l-0.057,0.292l-0.055,0.293l-0.054,0.293l-0.051,0.294l-0.05,0.294l-0.048,0.295l-0.046,0.296l-0.045,0.296l-0.042,0.297l-0.041,0.298l-0.039,0.298l-0.037,0.299l-0.035,0.299l-0.033,0.3l-0.032,0.3l-0.03,0.301l-0.027,0.301l-0.026,0.303l-0.024,0.302l-0.022,0.303l-0.021,0.304l-0.018,0.304l-0.016,0.305l-0.015,0.305l-0.013,0.306l-0.01,0.306l-0.009,0.307l-0.007,0.307l-0.005,0.308l-0.003,0.309l-0.001,0.308l0.001,0.309l0.003,0.308l0.005,0.308l0.007,0.308l0.009,0.306l0.01,0.307l0.013,0.305l0.015,0.306l0.016,0.304l0.018,0.305l0.021,0.303l0.022,0.303l0.024,0.303l0.026,0.302l0.027,0.302l0.03,0.301l0.032,0.3l0.033,0.3l0.035,0.299l0.037,0.299l0.039,0.298l0.041,0.297l0.042,0.297l0.045,0.297l0.046,0.295l0.048,0.295l0.05,0.295l0.051,0.294l0.054,0.293l0.055,0.292l0.057,0.292l0.059,0.292l0.06,0.29l0.062,0.291l0.064,0.289l0.066,0.288l0.068,0.289l0.069,0.287l0.071,0.287l0.073,0.286l0.074,0.285l0.076,0.285l0.078,0.283l0.079,0.284l0.082,0.282l0.083,0.282l0.084,0.281l0.087,0.28l0.088,0.28l0.089,0.279l0.092,0.278l0.093,0.277l0.094,0.277l0.097,0.276l0.097,0.275l0.1,0.274l0.101,0.273l0.103,0.273l0.104,0.272l0.106,0.271l0.108,0.27l0.109,0.27l0.111,0.269l0.113,0.268l0.114,0.267l0.115,0.266l0.117,0.265l0.119,0.265l0.12,0.264l0.122,0.262l0.123,0.262l0.125,0.261l0.127,0.261l0.128,0.259l0.129,0.259l0.131,0.257l0.133,0.257l0.134,0.256l0.136,0.255l0.137,0.254l0.138,0.253l0.14,0.252l0.142,0.251l0.143,0.25l0.144,0.25l0.146,0.248l0.147,0.247l0.149,0.247l0.15,0.245l0.152,0.245l0.153,0.243l0.155,0.243l0.156,0.241l0.157,0.241l0.159,0.24l0.16,0.238l0.162,0.238l0.163,0.236l0.164,0.236l0.166,0.234l0.167,0.234l0.168,0.232l0.17,0.231l0.171,0.231l0.173,0.229l0.174,0.228l0.175,0.227l0.177,0.226l0.177,0.225l0.18,0.224l0.18,0.223l0.182,0.221l0.183,0.221l0.185,0.219l0.185,0.219l0.187,0.217l0.189,0.216l0.189,0.215l0.191,0.213l0.192,0.213l0.193,0.211l0.195,0.211l0.196,0.209l0.197,0.208l0.198,0.206l0.2,0.206l0.2,0.204l0.202,0.203l0.203,0.202l0.205,0.201l0.205,0.2l0.207,0.198l0.208,0.197l0.209,0.196l0.21,0.194l0.212,0.194l0.212,0.192l0.214,0.19l0.215,0.19l0.216,0.188l0.217,0.187l0.218,0.186l0.22,0.184l0.22,0.184l0.222,0.181l0.223,0.181l0.223,0.179l0.225,0.178l0.226,0.177l0.227,0.175l0.229,0.174l0.229,0.172l0.23,0.171l0.231,0.17l0.233,0.169l0.233,0.167l0.235,0.166l0.235,0.164l0.237,0.163l0.237,0.162l0.239,0.16l0.239,0.159l0.241,0.157l0.242,0.156l0.242,0.154l0.244,0.154l0.244,0.151l0.246,0.15l0.246,0.149l0.248,0.148l0.248,0.146l0.249,0.144l0.251,0.143l0.251,0.141l0.252,0.141l0.253,0.138l0.254,0.137l0.255,0.136l0.256,0.134l0.257,0.132l0.257,0.131l0.259,0.13l0.259,0.128l0.26,0.126l0.261,0.125l0.262,0.124l0.263,0.121l0.264,0.121l0.264,0.118l0.266,0.118l0.266,0.115l0.267,0.114l0.268,0.113l0.269,0.11l0.269,0.11l0.271,0.107l0.271,0.106l0.272,0.105l0.272,0.102l0.274,0.102l0.274,0.099l0.275,0.098l0.276,0.096l0.276,0.095l0.278,0.093l0.278,0.091l0.279,0.09l0.279,0.088l0.281,0.086l0.281,0.085l0.282,0.083l0.282,0.081l0.283,0.08l0.284,0.078l0.285,0.076l0.285,0.074l0.286,0.073l0.287,0.071l0.287,0.069l0.288,0.068l0.289,0.065l0.289,0.064l0.29,0.063l0.291,0.06l0.291,0.059l0.292,0.057l0.293,0.055l0.293,0.053l0.294,0.052l0.294,0.05l0.295,0.048l0.296,0.046l0.296,0.044l0.297,0.043l0.298,0.041l0.298,0.038l0.299,0.038l0.299,0.035l0.3,0.033l0.3,0.032l0.301,0.029l0.302,0.028l0.302,0.026l0.302,0.024l0.303,0.022l0.304,0.02l0.304,0.019l0.305,0.016l0.305,0.015l0.306,0.012l0.306,0.011l0.307,0.009l0.307,0.006l0.308,0.005l0.309,0.003l0.308,0.001l0.309,-0.001l0.308,-0.003l0.308,-0.005l0.307,-0.006l0.307,-0.009l0.307,-0.011l0.305,-0.012l0.306,-0.015l0.304,-0.016l0.305,-0.019l0.303,-0.02l0.303,-0.022l0.303,-0.024l0.302,-0.026l0.302,-0.028l0.301,-0.029l0.3,-0.032l0.3,-0.033l0.299,-0.035l0.299,-0.038l0.298,-0.038l0.297,-0.041l0.297,-0.043l0.296,-0.044l0.296,-0.046l0.295,-0.048l0.295,-0.05l0.294,-0.052l0.293,-0.053l0.292,-0.055l0.292,-0.057l0.292,-0.059l0.29,-0.06l0.29,-0.063l0.29,-0.064l0.288,-0.065l0.288,-0.068l0.288,-0.069l0.287,-0.071l0.286,-0.073l0.285,-0.074l0.284,-0.076l0.284,-0.078l0.284,-0.08l0.282,-0.081l0.282,-0.083l0.281,-0.085l0.28,-0.086l0.28,-0.088l0.279,-0.09l0.278,-0.091l0.277,-0.093l0.277,-0.095l0.275,-0.096l0.275,-0.098l0.275,-0.099l0.273,-0.102l0.273,-0.102l0.272,-0.105l0.271,-0.106l0.27,-0.107l0.27,-0.11l0.269,-0.11l0.268,-0.113l0.267,-0.114l0.266,-0.115l0.265,-0.118l0.265,-0.118l0.263,-0.121l0.263,-0.121l0.262,-0.124l0.261,-0.125l0.261,-0.126l0.259,-0.128l0.258,-0.13l0.258,-0.131l0.257,-0.132l0.256,-0.134l0.255,-0.136l0.253,-0.137l0.254,-0.138l0.252,-0.14l0.251,-0.142l0.25,-0.143l0.25,-0.144l0.248,-0.146l0.247,-0.148l0.247,-0.149l0.245,-0.15l0.245,-0.151l0.243,-0.154l0.243,-0.154l0.242,-0.156l0.24,-0.157l0.24,-0.159l0.238,-0.16l0.238,-0.162l0.236,-0.163l0.236,-0.164l0.234,-0.166l0.234,-0.167l0.232,-0.169l0.231,-0.17l0.231,-0.171l0.229,-0.172l0.228,-0.174l0.227,-0.175l0.226,-0.177l0.225,-0.178l0.224,-0.179l0.223,-0.181l0.221,-0.181l0.221,-0.184l0.219,-0.184l0.219,-0.186l0.217,-0.187l0.216,-0.188l0.215,-0.189l0.213,-0.191l0.213,-0.192l0.211,-0.194l0.211,-0.194l0.209,-0.196l0.208,-0.197l0.206,-0.198l0.206,-0.2l0.204,-0.201l0.203,-0.202l0.202,-0.203l0.201,-0.204l0.2,-0.206l0.198,-0.206l0.197,-0.208l0.196,-0.209l0.194,-0.211l0.194,-0.211l0.192,-0.213l0.19,-0.213l0.19,-0.215l0.188,-0.216l0.187,-0.217l0.186,-0.219l0.184,-0.219l0.184,-0.221l0.181,-0.221l0.181,-0.223l0.179,-0.224l0.178,-0.225l0.177,-0.226l0.175,-0.227l0.174,-0.228l0.172,-0.229l0.171,-0.231l0.17,-0.231l0.169,-0.232l0.167,-0.234l0.166,-0.234l0.164,-0.236l0.163,-0.236l0.162,-0.238l0.16,-0.238l0.158,-0.24l0.158,-0.24l0.156,-0.242l0.154,-0.243l0.154,-0.243l0.151,-0.245l0.15,-0.245l0.149,-0.247l0.148,-0.247l0.146,-0.248l0.144,-0.25l0.143,-0.25l0.141,-0.251l0.14,-0.252l0.139,-0.253l0.137,-0.254l0.136,-0.255l0.134,-0.256l0.132,-0.257l0.131,-0.257l0.13,-0.259l0.128,-0.259l0.126,-0.261l0.125,-0.261l0.123,-0.262l0.122,-0.262l0.121,-0.264l0.118,-0.265l0.117,-0.265l0.116,-0.266l0.114,-0.267l0.112,-0.268l0.111,-0.269l0.11,-0.27l0.107,-0.27l0.106,-0.271l0.105,-0.272l0.102,-0.273l0.102,-0.273l0.099,-0.274l0.098,-0.275l0.096,-0.276l0.095,-0.277l0.093,-0.277l0.091,-0.278l0.09,-0.279l0.088,-0.28l0.086,-0.28l0.085,-0.281l0.083,-0.282l0.081,-0.282l0.08,-0.284l0.078,-0.284l0.076,-0.284l0.074,-0.285l0.073,-0.286l0.071,-0.287l0.069,-0.287l0.067,-0.288l0.066,-0.289l0.064,-0.29l0.063,-0.29l0.06,-0.29l0.059,-0.292l0.057,-0.292l0.055,-0.292l0.053,-0.293l0.052,-0.294l0.05,-0.295l0.048,-0.295l0.046,-0.295l0.044,-0.297l0.043,-0.297l0.041,-0.297l0.038,-0.298l0.037,-0.299l0.036,-0.299l0.033,-0.3l0.032,-0.3l0.029,-0.301l0.028,-0.302l0.026,-0.302l0.024,-0.303l0.022,-0.303l0.02,-0.303l0.019,-0.305l0.016,-0.304l0.015,-0.306l0.012,-0.305l0.011,-0.307l0.009,-0.306l0.006,-0.308l0.005,-0.308l0.003,-0.308l0.001,-0.309l-0.001,-0.308l-0.003,-0.309l-0.005,-0.308l-0.006,-0.307l-0.009,-0.307l-0.011,-0.306l-0.012,-0.306l-0.015,-0.305l-0.016,-0.305l-0.019,-0.304l-0.02,-0.304l-0.022,-0.303l-0.024,-0.302l-0.026,-0.302l-0.028,-0.302l-0.029,-0.301l-0.032,-0.3l-0.033,-0.3l-0.036,-0.299l-0.037,-0.299l-0.038,-0.298l-0.041,-0.298l-0.043,-0.297l-0.044,-0.296l-0.046,-0.296l-0.048,-0.295l-0.05,-0.294l-0.052,-0.294l-0.053,-0.293l-0.055,-0.293l-0.057,-0.292l-0.059,-0.291l-0.06,-0.291l-0.063,-0.29l-0.064,-0.289l-0.066,-0.289l-0.067,-0.288l-0.069,-0.287l-0.071,-0.287l-0.073,-0.286l-0.074,-0.285l-0.076,-0.285l-0.078,-0.284l-0.08,-0.283l-0.081,-0.282l-0.083,-0.282l-0.085,-0.281l-0.086,-0.281l-0.088,-0.279l-0.09,-0.279l-0.091,-0.278l-0.093,-0.277l-0.095,-0.277l-0.096,-0.276l-0.098,-0.275l-0.099,-0.274l-0.102,-0.274l-0.102,-0.272l-0.105,-0.272l-0.106,-0.271l-0.107,-0.271l-0.11,-0.269l-0.111,-0.269l-0.112,-0.268l-0.114,-0.267l-0.116,-0.266l-0.117,-0.266l-0.118,-0.264l-0.121,-0.264l-0.122,-0.263l-0.123,-0.262l-0.125,-0.261l-0.126,-0.26l-0.128,-0.259l-0.13,-0.259l-0.131,-0.257l-0.132,-0.257l-0.134,-0.256l-0.136,-0.255l-0.137,-0.254l-0.139,-0.253l-0.14,-0.252l-0.141,-0.251l-0.143,-0.251l-0.144,-0.249l-0.146,-0.248l-0.148,-0.248l-0.149,-0.246l-0.15,-0.246l-0.151,-0.244l-0.154,-0.244l-0.154,-0.242l-0.156,-0.242l-0.158,-0.24l-0.158,-0.24l-0.16,-0.239l-0.162,-0.237l-0.163,-0.237l-0.164,-0.235l-0.166,-0.235l-0.167,-0.233l-0.169,-0.233l-0.17,-0.231l-0.171,-0.23l-0.172,-0.229l-0.174,-0.228l-0.175,-0.228l-0.177,-0.226l-0.178,-0.225l-0.179,-0.223l-0.181,-0.223l-0.181,-0.222l-0.184,-0.22l-0.184,-0.22l-0.186,-0.218l-0.187,-0.217l-0.188,-0.216l-0.19,-0.215l-0.19,-0.214l-0.192,-0.212l-0.194,-0.212l-0.194,-0.21l-0.196,-0.209l-0.197,-0.208l-0.199,-0.207l-0.199,-0.205l-0.201,-0.205l-0.202,-0.203l-0.203,-0.202l-0.204,-0.2l-0.206,-0.2l-0.206,-0.198l-0.208,-0.197l-0.209,-0.196l-0.211,-0.195l-0.211,-0.193l-0.213,-0.192l-0.213,-0.191l-0.215,-0.189l-0.216,-0.189l-0.217,-0.187l-0.219,-0.185l-0.219,-0.185l-0.221,-0.183l-0.221,-0.182l-0.223,-0.18l-0.224,-0.179l-0.225,-0.178l-0.226,-0.177l-0.227,-0.175l-0.228,-0.174l-0.229,-0.173l-0.231,-0.171l-0.231,-0.17l-0.232,-0.168l-0.234,-0.167l-0.234,-0.166l-0.236,-0.164l-0.236,-0.163l-0.238,-0.162l-0.238,-0.16l-0.24,-0.159l-0.241,-0.157l-0.241,-0.156l-0.243,-0.155l-0.243,-0.153l-0.245,-0.152l-0.245,-0.15l-0.247,-0.149l-0.247,-0.147l-0.249,-0.146l-0.249,-0.144l-0.25,-0.143l-0.251,-0.142l-0.252,-0.14l-0.254,-0.138l-0.253,-0.137l-0.255,-0.136l-0.256,-0.134l-0.257,-0.133l-0.258,-0.131l-0.258,-0.129l-0.259,-0.128l-0.261,-0.127l-0.261,-0.124l-0.262,-0.124l-0.263,-0.122l-0.263,-0.12l-0.265,-0.119l-0.265,-0.117l-0.266,-0.115l-0.267,-0.114l-0.268,-0.113l-0.269,-0.111l-0.27,-0.109l-0.27,-0.108l-0.271,-0.106l-0.272,-0.104l-0.273,-0.103l-0.273,-0.101l-0.274,-0.1l-0.276,-0.097l-0.275,-0.097l-0.277,-0.094l-0.277,-0.093l-0.278,-0.092l-0.279,-0.089l-0.28,-0.088l-0.28,-0.087l-0.281,-0.084l-0.282,-0.083l-0.282,-0.081l-0.284,-0.08l-0.284,-0.078l-0.284,-0.076l-0.285,-0.074l-0.287,-0.073l-0.286,-0.071l-0.287,-0.069l-0.289,-0.068l-0.288,-0.066l-0.29,-0.064l-0.29,-0.062l-0.29,-0.06l-0.292,-0.059l-0.292,-0.057l-0.292,-0.055l-0.293,-0.054l-0.294,-0.051l-0.295,-0.05l-0.295,-0.048l-0.296,-0.046l-0.296,-0.045l-0.297,-0.042l-0.297,-0.041l-0.298,-0.039l-0.299,-0.037l-0.299,-0.035l-0.3,-0.033l-0.3,-0.032l-0.301,-0.03l-0.302,-0.027l-0.302,-0.026l-0.303,-0.024l-0.303,-0.022l-0.303,-0.021l-0.305,-0.018l-0.304,-0.016l-0.306,-0.015l-0.305,-0.013l-0.307,-0.01l-0.307,-0.009l-0.307,-0.007l-0.308,-0.005l-0.308,-0.003l-0.309,-0.001l-0.308,0.001Z" style="fill:#31c5f0;"/></g><g id="t"><path d="M21.076,69.91l0,-38.631l12.517,0c4.743,0 7.835,0.193 9.275,0.579c2.214,0.58 4.067,1.84 5.56,3.782c1.494,1.941 2.24,4.449 2.24,7.523c0,2.372 -0.43,4.366 -1.291,5.982c-0.861,1.616 -1.954,2.885 -3.281,3.808c-1.326,0.922 -2.674,1.532 -4.045,1.831c-1.862,0.369 -4.558,0.553 -8.089,0.553l-5.086,0l0,14.573l-7.8,0Zm7.8,-32.096l0,10.962l4.269,0c3.074,0 5.129,-0.202 6.166,-0.606c1.036,-0.404 1.849,-1.037 2.437,-1.898c0.589,-0.86 0.883,-1.862 0.883,-3.004c0,-1.405 -0.413,-2.564 -1.238,-3.478c-0.826,-0.913 -1.871,-1.484 -3.136,-1.713c-0.931,-0.175 -2.802,-0.263 -5.613,-0.263l-3.768,0Z" style="fill:#31c5f0;fill-rule:nonzero;"/><path d="M54.41,61.925l7.431,-1.133c0.317,1.441 0.958,2.534 1.924,3.281c0.966,0.747 2.319,1.12 4.058,1.12c1.915,0 3.356,-0.352 4.322,-1.054c0.65,-0.492 0.975,-1.151 0.975,-1.977c0,-0.562 -0.176,-1.027 -0.527,-1.396c-0.369,-0.352 -1.195,-0.677 -2.477,-0.975c-5.973,-1.318 -9.759,-2.521 -11.358,-3.61c-2.213,-1.511 -3.32,-3.611 -3.32,-6.298c0,-2.425 0.957,-4.463 2.872,-6.114c1.915,-1.651 4.884,-2.477 8.907,-2.477c3.83,0 6.676,0.624 8.538,1.871c1.862,1.247 3.145,3.092 3.847,5.534l-6.983,1.291c-0.299,-1.089 -0.865,-1.924 -1.7,-2.503c-0.834,-0.58 -2.024,-0.87 -3.57,-0.87c-1.95,0 -3.347,0.272 -4.19,0.817c-0.562,0.386 -0.843,0.887 -0.843,1.502c0,0.527 0.246,0.975 0.738,1.344c0.667,0.492 2.973,1.186 6.917,2.082c3.944,0.896 6.697,1.994 8.261,3.294c1.546,1.317 2.319,3.153 2.319,5.507c0,2.565 -1.072,4.77 -3.215,6.614c-2.143,1.845 -5.314,2.767 -9.513,2.767c-3.812,0 -6.829,-0.773 -9.052,-2.319c-2.222,-1.546 -3.676,-3.645 -4.361,-6.298Z" style="fill:#31c5f0;fill-rule:nonzero;"/></g></g></svg>