<?xml version="1.0" encoding="UTF-8" standalone="no"?><!DOCTYPE svg PUBLIC "-//W3C//DTD SVG 1.1//EN" "http://www.w3.org/Graphics/SVG/1.1/DTD/svg11.dtd"><svg width="100%" height="100%" viewBox="0 0 103 103" version="1.1" xmlns="http://www.w3.org/2000/svg" xmlns:xlink="http://www.w3.org/1999/xlink" xml:space="preserve" xmlns:serif="http://www.serif.com/" style="fill-rule:evenodd;clip-rule:evenodd;stroke-linejoin:round;stroke-miterlimit:1.41421;"><g id="react-ico" serif:id="react ico"><circle cx="51.735" cy="51.27" r="51" style="fill:#232323;"/><path d="M73.856,40.526c-0.731,-0.251 -1.467,-0.483 -2.21,-0.696c0.123,-0.501 0.237,-1.003 0.342,-1.508c1.673,-8.121 0.579,-14.663 -3.157,-16.817c-3.581,-2.066 -9.439,0.088 -15.355,5.236c-0.583,0.509 -1.153,1.032 -1.709,1.569c-0.373,-0.357 -0.752,-0.708 -1.138,-1.051c-6.2,-5.505 -12.414,-7.825 -16.146,-5.664c-3.578,2.071 -4.638,8.222 -3.132,15.918c0.15,0.762 0.319,1.52 0.508,2.274c-0.88,0.25 -1.729,0.516 -2.541,0.799c-7.269,2.534 -11.911,6.506 -11.911,10.626c0,4.255 4.983,8.523 12.554,11.11c0.614,0.209 1.233,0.403 1.857,0.581c-0.203,0.811 -0.383,1.629 -0.54,2.451c-1.436,7.562 -0.314,13.567 3.255,15.626c3.686,2.125 9.872,-0.059 15.896,-5.325c0.476,-0.416 0.954,-0.858 1.433,-1.321c0.602,0.582 1.221,1.147 1.856,1.694c5.835,5.021 11.597,7.048 15.163,4.984c3.683,-2.131 4.879,-8.582 3.325,-16.431c-0.118,-0.6 -0.256,-1.212 -0.411,-1.835c0.434,-0.128 0.86,-0.261 1.276,-0.399c7.871,-2.608 12.992,-6.823 12.992,-11.135c0,-4.135 -4.792,-8.133 -12.207,-10.686Z" style="fill:#53c1de;fill-rule:nonzero;"/><path d="M72.149,59.563c-0.375,0.125 -0.761,0.245 -1.153,0.361c-0.869,-2.751 -2.042,-5.676 -3.477,-8.698c1.37,-2.95 2.497,-5.838 3.342,-8.571c0.702,0.204 1.384,0.418 2.041,0.645c6.353,2.186 10.228,5.42 10.228,7.912c0,2.654 -4.185,6.099 -10.981,8.351l0,0Zm-2.82,5.588c0.687,3.47 0.785,6.608 0.33,9.061c-0.409,2.204 -1.231,3.674 -2.248,4.262c-2.163,1.253 -6.791,-0.375 -11.78,-4.669c-0.573,-0.493 -1.149,-1.018 -1.727,-1.574c1.935,-2.116 3.868,-4.576 5.755,-7.308c3.319,-0.294 6.455,-0.776 9.299,-1.433c0.139,0.565 0.264,1.119 0.371,1.661Zm-28.516,13.107c-2.114,0.746 -3.797,0.768 -4.815,0.181c-2.166,-1.249 -3.066,-6.071 -1.838,-12.538c0.146,-0.765 0.313,-1.525 0.501,-2.28c2.813,0.622 5.925,1.07 9.253,1.339c1.899,2.673 3.888,5.13 5.893,7.282c-0.426,0.412 -0.862,0.814 -1.308,1.204c-2.664,2.329 -5.333,3.981 -7.686,4.812l0,0Zm-9.903,-18.711c-3.348,-1.144 -6.113,-2.631 -8.008,-4.254c-1.702,-1.458 -2.562,-2.906 -2.562,-4.081c0,-2.5 3.727,-5.689 9.943,-7.856c0.781,-0.271 1.569,-0.519 2.363,-0.744c0.86,2.795 1.987,5.716 3.347,8.671c-1.378,2.999 -2.521,5.967 -3.388,8.794c-0.569,-0.163 -1.135,-0.339 -1.695,-0.53Zm3.32,-22.597c-1.291,-6.595 -0.434,-11.569 1.723,-12.817c2.297,-1.33 7.375,0.566 12.729,5.319c0.342,0.304 0.685,0.622 1.03,0.951c-1.995,2.142 -3.966,4.581 -5.849,7.238c-3.229,0.299 -6.32,0.78 -9.161,1.424c-0.175,-0.701 -0.333,-1.407 -0.472,-2.116l0,0.001Zm29.615,7.312c-0.671,-1.159 -1.367,-2.304 -2.088,-3.433c2.191,0.276 4.289,0.644 6.26,1.094c-0.591,1.896 -1.329,3.879 -2.197,5.912c-0.635,-1.204 -1.293,-2.395 -1.975,-3.573Zm-12.077,-11.763c1.352,1.466 2.707,3.102 4.04,4.878c-2.703,-0.128 -5.411,-0.129 -8.115,-0.002c1.334,-1.759 2.701,-3.393 4.075,-4.876Zm-12.155,11.783c-0.673,1.169 -1.319,2.353 -1.938,3.551c-0.854,-2.026 -1.585,-4.018 -2.181,-5.941c1.959,-0.438 4.048,-0.797 6.224,-1.069c-0.729,1.137 -1.43,2.29 -2.105,3.459Zm2.168,17.527c-2.249,-0.251 -4.369,-0.591 -6.328,-1.017c0.606,-1.957 1.353,-3.992 2.226,-6.061c0.621,1.199 1.27,2.384 1.946,3.552c0.691,1.193 1.409,2.368 2.156,3.526Zm10.068,8.322c-1.39,-1.5 -2.777,-3.159 -4.131,-4.943c1.315,0.051 2.655,0.078 4.017,0.078c1.399,0 2.783,-0.032 4.144,-0.093c-1.337,1.817 -2.686,3.479 -4.03,4.958Zm13.999,-15.506c0.917,2.092 1.691,4.116 2.305,6.04c-1.99,0.454 -4.14,0.82 -6.404,1.092c0.726,-1.151 1.428,-2.316 2.108,-3.494c0.69,-1.198 1.354,-2.41 1.991,-3.638Zm-4.532,2.173c-1.04,1.807 -2.139,3.579 -3.294,5.314c-2.037,0.146 -4.142,0.221 -6.287,0.221c-2.136,0 -4.215,-0.067 -6.216,-0.196c-1.185,-1.732 -2.305,-3.507 -3.356,-5.323c-1.046,-1.806 -2.023,-3.651 -2.929,-5.532c0.904,-1.881 1.878,-3.727 2.921,-5.535l0,0.001c1.042,-1.808 2.152,-3.576 3.329,-5.3c2.041,-0.154 4.135,-0.235 6.251,-0.235c2.126,0 4.222,0.081 6.263,0.237c1.165,1.721 2.268,3.483 3.308,5.282c1.047,1.803 2.034,3.641 2.96,5.509c-0.917,1.886 -1.901,3.74 -2.95,5.557l0,0Zm6.05,-32.752c2.299,1.326 3.193,6.672 1.749,13.684c-0.095,0.457 -0.198,0.912 -0.309,1.365c-2.848,-0.657 -5.941,-1.146 -9.18,-1.45c-1.886,-2.686 -3.841,-5.129 -5.803,-7.243c0.514,-0.496 1.041,-0.979 1.579,-1.448c5.069,-4.412 9.806,-6.153 11.964,-4.908Z" style="fill:#232323;fill-rule:nonzero;"/><path d="M51.735,45.081c3.386,0 6.131,2.745 6.131,6.131c0,3.386 -2.745,6.131 -6.131,6.131c-3.386,0 -6.131,-2.745 -6.131,-6.131c0,-3.386 2.745,-6.131 6.131,-6.131" style="fill:#53c1de;fill-rule:nonzero;"/></g></svg>