<?xml version="1.0" encoding="UTF-8" standalone="no"?><!DOCTYPE svg PUBLIC "-//W3C//DTD SVG 1.1//EN" "http://www.w3.org/Graphics/SVG/1.1/DTD/svg11.dtd"><svg width="100%" height="100%" viewBox="0 0 102 102" version="1.1" xmlns="http://www.w3.org/2000/svg" xmlns:xlink="http://www.w3.org/1999/xlink" xml:space="preserve" xmlns:serif="http://www.serif.com/" style="fill-rule:evenodd;clip-rule:evenodd;stroke-linejoin:round;stroke-miterlimit:1.41421;"><g id="sass-ico" serif:id="sass ico"><circle cx="50.778" cy="51.231" r="50.72" style="fill:#cf649a;"/><path d="M85.317,51.702c-2.809,0.016 -5.242,0.69 -7.282,1.695c-0.754,-1.491 -1.507,-2.794 -1.632,-3.767c-0.142,-1.13 -0.314,-1.821 -0.142,-3.17c0.173,-1.35 0.958,-3.265 0.958,-3.422c-0.016,-0.141 -0.173,-0.832 -1.79,-0.847c-1.616,-0.016 -3.013,0.313 -3.17,0.737c-0.157,0.424 -0.471,1.397 -0.675,2.402c-0.282,1.475 -3.233,6.701 -4.912,9.448c-0.55,-1.067 -1.021,-2.009 -1.115,-2.763c-0.141,-1.129 -0.314,-1.82 -0.141,-3.17c0.173,-1.35 0.957,-3.264 0.957,-3.421c-0.015,-0.142 -0.172,-0.832 -1.789,-0.848c-1.616,-0.015 -3.013,0.314 -3.17,0.738c-0.157,0.424 -0.33,1.428 -0.675,2.401c-0.33,0.973 -4.253,9.7 -5.274,11.975c-0.518,1.162 -0.973,2.088 -1.302,2.716c-0.33,0.627 -0.016,0.047 -0.047,0.11c-0.283,0.533 -0.44,0.831 -0.44,0.831l0,0.016c-0.22,0.393 -0.455,0.769 -0.565,0.769c-0.078,0 -0.235,-1.051 0.031,-2.495c0.581,-3.03 1.994,-7.754 1.978,-7.926c0,-0.079 0.267,-0.911 -0.91,-1.334c-1.146,-0.424 -1.554,0.282 -1.648,0.282c-0.094,0 -0.173,0.251 -0.173,0.251c0,0 1.271,-5.32 -2.433,-5.32c-2.322,0 -5.524,2.527 -7.109,4.834c-1.005,0.549 -3.139,1.711 -5.4,2.951c-0.863,0.47 -1.757,0.973 -2.605,1.428l-0.172,-0.189c-4.489,-4.787 -12.792,-8.177 -12.446,-14.612c0.125,-2.338 0.941,-8.506 15.946,-15.977c12.289,-6.121 22.13,-4.442 23.84,-0.706c2.433,5.336 -5.258,15.255 -18.033,16.683c-4.866,0.55 -7.424,-1.334 -8.067,-2.04c-0.675,-0.738 -0.769,-0.769 -1.02,-0.628c-0.409,0.22 -0.157,0.879 0,1.271c0.376,0.989 1.946,2.747 4.614,3.626c2.338,0.769 8.051,1.193 14.957,-1.475c7.738,-2.998 13.78,-11.316 12.007,-18.269c-1.805,-7.079 -13.545,-9.402 -24.641,-5.462c-6.608,2.354 -13.765,6.027 -18.913,10.845c-6.121,5.713 -7.094,10.704 -6.686,12.776c1.429,7.392 11.614,12.21 15.695,15.773c-0.204,0.11 -0.392,0.22 -0.565,0.314c-2.04,1.004 -9.809,5.069 -11.755,9.37c-2.198,4.865 0.345,8.365 2.04,8.836c5.242,1.46 10.61,-1.161 13.513,-5.477c2.888,-4.316 2.543,-9.92 1.209,-12.478l-0.048,-0.094l1.601,-0.942c1.036,-0.612 2.057,-1.177 2.951,-1.664c-0.502,1.366 -0.863,2.983 -1.051,5.337c-0.22,2.762 0.91,6.34 2.401,7.753c0.659,0.612 1.444,0.628 1.93,0.628c1.727,0 2.512,-1.429 3.375,-3.139c1.067,-2.088 2.009,-4.505 2.009,-4.505c0,0 -1.177,6.545 2.04,6.545c1.177,0 2.354,-1.522 2.888,-2.307l0,0.016c0,0 0.031,-0.047 0.094,-0.157c0.066,-0.098 0.129,-0.197 0.188,-0.298l0,-0.032c0.471,-0.816 1.523,-2.683 3.092,-5.775c2.025,-3.987 3.971,-8.978 3.971,-8.978c0,0 0.189,1.224 0.769,3.233c0.345,1.193 1.099,2.496 1.679,3.767c-0.47,0.659 -0.753,1.036 -0.753,1.036l0.016,0.016c-0.377,0.502 -0.801,1.036 -1.24,1.569c-1.601,1.915 -3.516,4.097 -3.767,4.725c-0.298,0.737 -0.235,1.286 0.346,1.726c0.423,0.314 1.177,0.377 1.977,0.314c1.444,-0.094 2.448,-0.455 2.951,-0.675c0.784,-0.283 1.679,-0.706 2.542,-1.334c1.57,-1.161 2.527,-2.809 2.433,-5.007c-0.047,-1.208 -0.439,-2.401 -0.926,-3.531c0.141,-0.204 0.283,-0.408 0.424,-0.628c2.48,-3.626 4.394,-7.612 4.394,-7.612c0,0 0.189,1.224 0.769,3.233c0.298,1.02 0.895,2.135 1.429,3.234c-2.323,1.899 -3.783,4.096 -4.285,5.54c-0.926,2.668 -0.204,3.877 1.161,4.159c0.612,0.126 1.491,-0.157 2.15,-0.439c0.817,-0.267 1.805,-0.723 2.716,-1.397c1.569,-1.162 3.076,-2.778 2.998,-4.96c-0.048,-1.004 -0.314,-1.993 -0.675,-2.935c1.977,-0.816 4.535,-1.287 7.784,-0.894c6.985,0.816 8.366,5.179 8.099,7c-0.267,1.82 -1.726,2.825 -2.213,3.138c-0.487,0.299 -0.644,0.409 -0.596,0.628c0.062,0.33 0.282,0.314 0.706,0.252c0.58,-0.095 3.672,-1.491 3.798,-4.85c0.188,-4.317 -3.908,-9.025 -11.175,-8.978l0,0Zm-53.865,18.159c-2.307,2.527 -5.556,3.484 -6.937,2.668c-1.491,-0.863 -0.91,-4.583 1.931,-7.267c1.726,-1.632 3.97,-3.139 5.446,-4.065c0.329,-0.204 0.831,-0.502 1.428,-0.863c0.094,-0.063 0.157,-0.094 0.157,-0.094c0.11,-0.063 0.235,-0.142 0.361,-0.22c1.051,3.83 0.047,7.188 -2.386,9.841l0,0Zm16.872,-11.473c-0.8,1.962 -2.495,7 -3.515,6.717c-0.879,-0.235 -1.413,-4.049 -0.173,-7.816c0.628,-1.899 1.962,-4.159 2.746,-5.038c1.272,-1.413 2.653,-1.884 2.998,-1.303c0.408,0.754 -1.554,6.216 -2.056,7.44Zm13.922,6.654c-0.346,0.173 -0.66,0.299 -0.801,0.205c-0.11,-0.063 0.141,-0.299 0.141,-0.299c0,0 1.742,-1.867 2.433,-2.731c0.392,-0.502 0.863,-1.082 1.365,-1.742l0,0.189c0.001,2.26 -2.165,3.766 -3.138,4.378Zm10.735,-2.448c-0.251,-0.188 -0.22,-0.769 0.628,-2.59c0.329,-0.722 1.083,-1.93 2.385,-3.076c0.157,0.471 0.252,0.926 0.236,1.35c-0.016,2.825 -2.025,3.877 -3.249,4.316Z" style="fill:#fff;fill-rule:nonzero;"/></g></svg>