<?xml version="1.0" encoding="UTF-8" standalone="no"?><!DOCTYPE svg PUBLIC "-//W3C//DTD SVG 1.1//EN" "http://www.w3.org/Graphics/SVG/1.1/DTD/svg11.dtd"><svg width="100%" height="100%" viewBox="0 0 152 422" version="1.1" xmlns="http://www.w3.org/2000/svg" xmlns:xlink="http://www.w3.org/1999/xlink" xml:space="preserve" xmlns:serif="http://www.serif.com/" style="fill-rule:evenodd;clip-rule:evenodd;stroke-linecap:square;stroke-miterlimit:1.5;"><g><path d="M78.973,1.803c-3.854,0 -6.978,3.124 -6.978,6.978c0,50.057 0,353.921 0,403.978c0,3.854 3.124,6.978 6.978,6.978c0,0 0,0 0.001,0c3.853,0 6.978,-3.124 6.978,-6.978c0,-50.057 0,-353.921 0,-403.978c0,-3.854 -3.125,-6.978 -6.978,-6.978c-0.001,0 -0.001,0 -0.001,0Z" style="fill:url(#_Linear1);stroke:#262626;stroke-width:2px;"/><g><path d="M46.631,296.846l27.573,0" style="fill:none;stroke:#262626;stroke-width:2px;"/><path d="M78.402,296.846c0,1.159 -0.94,2.1 -2.099,2.1c-1.159,0 -2.099,-0.941 -2.099,-2.1c0,-1.158 0.94,-2.099 2.099,-2.099c1.159,0 2.099,0.941 2.099,2.099Z" style="fill:none;stroke:#262626;stroke-width:2px;"/></g><g><path d="M131.561,272.085l-50.13,0" style="fill:none;stroke:#262626;stroke-width:2px;"/><path d="M77.233,272.085c0,-1.159 0.94,-2.1 2.099,-2.1c1.159,0 2.099,0.941 2.099,2.1c0,1.158 -0.94,2.099 -2.099,2.099c-1.159,0 -2.099,-0.941 -2.099,-2.099Z" style="fill:none;stroke:#262626;stroke-width:2px;"/></g><g><path d="M107.594,226.135l-24.505,0" style="fill:none;stroke:#262626;stroke-width:2px;"/><path d="M78.891,226.135c0,-1.159 0.94,-2.099 2.099,-2.099c1.159,0 2.099,0.94 2.099,2.099c0,1.159 -0.94,2.099 -2.099,2.099c-1.159,0 -2.099,-0.94 -2.099,-2.099Z" style="fill:none;stroke:#262626;stroke-width:2px;"/></g><g><path d="M121.954,180.866l-38.198,0" style="fill:none;stroke:#262626;stroke-width:2px;"/><path d="M79.557,180.866c0,-1.159 0.941,-2.1 2.099,-2.1c1.159,0 2.1,0.941 2.1,2.1c0,1.158 -0.941,2.099 -2.1,2.099c-1.158,0 -2.099,-0.941 -2.099,-2.099Z" style="fill:none;stroke:#262626;stroke-width:2px;"/></g><g><path d="M25.004,233.771l50.13,0" style="fill:none;stroke:#262626;stroke-width:2px;"/><path d="M79.332,233.771c0,1.158 -0.941,2.099 -2.099,2.099c-1.159,0 -2.099,-0.941 -2.099,-2.099c0,-1.159 0.94,-2.1 2.099,-2.1c1.158,0 2.099,0.941 2.099,2.1Z" style="fill:none;stroke:#262626;stroke-width:2px;"/></g><g><path d="M27.994,101.568l50.129,0" style="fill:none;stroke:#262626;stroke-width:2px;"/><path d="M82.322,101.568c0,1.159 -0.941,2.099 -2.1,2.099c-1.158,0 -2.099,-0.94 -2.099,-2.099c0,-1.158 0.941,-2.099 2.099,-2.099c1.159,0 2.1,0.941 2.1,2.099Z" style="fill:none;stroke:#262626;stroke-width:2px;"/></g><g><path d="M41.31,144.67l34.714,0" style="fill:none;stroke:#262626;stroke-width:2px;"/><path d="M80.222,144.67c0,1.159 -0.94,2.099 -2.099,2.099c-1.158,0 -2.099,-0.94 -2.099,-2.099c0,-1.159 0.941,-2.099 2.099,-2.099c1.159,0 2.099,0.94 2.099,2.099Z" style="fill:none;stroke:#262626;stroke-width:2px;"/></g><g id="css-ico" serif:id="css ico"><circle cx="31.489" cy="233.771" r="14.708" style="fill:#40b1e0;"/><clipPath id="_clip2"><rect x="31.489" y="214.181" width="20.648" height="42.4"/></clipPath><g clip-path="url(#_clip2)"><circle cx="31.489" cy="233.771" r="14.708" style="fill:#2aa9e0;"/></g><path d="M24.945,226.768l13.088,0l-0.184,2.588l-5.304,2.368l5.102,0l-0.587,7.599l-5.397,1.45l-5.488,-1.45l-0.33,-3.726l2.404,0l0.221,2.037l3.193,0.606l2.901,-0.954l0.183,-3.139l-9.067,0l-0.239,-2.423l5.91,-2.662l-6.222,0l-0.184,-2.294Z" style="fill:#ebebeb;"/></g><g id="rwd-ico" serif:id="rwd ico"><ellipse cx="119.515" cy="180.882" rx="13.77" ry="13.786" style="fill:#6ec9c2;"/><clipPath id="_clip3"><rect x="119.515" y="162.52" width="19.331" height="39.742"/></clipPath><g clip-path="url(#_clip3)"><ellipse cx="119.515" cy="180.882" rx="13.77" ry="13.786" style="fill:#2ebfb4;"/></g><path d="M125.136,181.687l-1.595,0l1.143,5.241l-3.189,0.958l-1.037,-6.199l-4.066,0l0.904,6.199l-2.923,-0.958l-1.196,-13.05l12.676,0l-0.717,7.809Zm-1.79,-5.252l-7.184,0l0,2.488l6.876,0l0.308,-2.488Z" style="fill:#fff;stroke:#000;stroke-opacity:0;stroke-width:0.02px;stroke-linecap:round;stroke-linejoin:round;"/></g><g id="js-ico" serif:id="js ico"><ellipse cx="39.834" cy="101.568" rx="17.386" ry="17.506" style="fill:#f0db4f;"/><text x="28.333px" y="108.23px" style="font-family:'Arial-BoldMT', 'Arial', sans-serif;font-weight:700;font-size:18.627px;fill:#3f3023;">JS</text></g><g id="ps-ico" serif:id="ps ico"><g><circle cx="126.693" cy="272.085" r="13.573" style="fill:#31334b;"/><path d="M126.868,258.513l0.175,0.003l0.174,0.006l0.174,0.008l0.173,0.01l0.173,0.012l0.172,0.014l0.171,0.016l0.171,0.019l0.17,0.02l0.169,0.023l0.169,0.025l0.168,0.026l0.167,0.029l0.167,0.031l0.166,0.033l0.165,0.035l0.165,0.037l0.163,0.039l0.163,0.041l0.162,0.042l0.162,0.045l0.16,0.047l0.16,0.049l0.159,0.05l0.158,0.053l0.157,0.054l0.157,0.056l0.155,0.058l0.155,0.06l0.153,0.062l0.153,0.063l0.152,0.066l0.15,0.067l0.15,0.069l0.149,0.07l0.148,0.073l0.147,0.074l0.146,0.076l0.144,0.077l0.144,0.079l0.143,0.081l0.141,0.083l0.141,0.084l0.139,0.086l0.138,0.088l0.137,0.089l0.136,0.09l0.135,0.093l0.134,0.094l0.132,0.095l0.132,0.097l0.13,0.098l0.128,0.1l0.128,0.102l0.126,0.103l0.125,0.104l0.124,0.106l0.123,0.108l0.121,0.109l0.12,0.11l0.118,0.112l0.118,0.113l0.115,0.114l0.115,0.116l0.113,0.117l0.112,0.119l0.11,0.12l0.109,0.121l0.107,0.122l0.106,0.124l0.105,0.125l0.103,0.127l0.101,0.127l0.1,0.129l0.099,0.13l0.097,0.131l0.095,0.133l0.094,0.133l0.092,0.135l0.091,0.136l0.089,0.137l0.088,0.139l0.085,0.139l0.085,0.14l0.082,0.142l0.081,0.143l0.079,0.143l0.078,0.145l0.076,0.146l0.074,0.147l0.072,0.148l0.071,0.148l0.069,0.15l0.067,0.151l0.065,0.152l0.064,0.152l0.062,0.154l0.059,0.155l0.058,0.155l0.057,0.156l0.054,0.157l0.052,0.159l0.051,0.158l0.049,0.16l0.046,0.161l0.045,0.161l0.043,0.162l0.041,0.163l0.039,0.164l0.037,0.165l0.035,0.165l0.033,0.166l0.03,0.166l0.029,0.168l0.027,0.168l0.025,0.169l0.022,0.169l0.021,0.17l0.018,0.171l0.017,0.171l0.014,0.172l0.012,0.173l0.01,0.173l0.008,0.173l0.005,0.175l0.003,0.174l0.002,0.176l-0.002,0.175l-0.003,0.175l-0.005,0.174l-0.008,0.174l-0.01,0.173l-0.012,0.172l-0.014,0.172l-0.017,0.172l-0.018,0.17l-0.021,0.17l-0.022,0.17l-0.025,0.168l-0.027,0.169l-0.029,0.167l-0.03,0.167l-0.033,0.166l-0.035,0.165l-0.037,0.164l-0.039,0.164l-0.041,0.163l-0.043,0.162l-0.045,0.162l-0.046,0.16l-0.049,0.16l-0.051,0.159l-0.052,0.158l-0.054,0.157l-0.057,0.156l-0.058,0.156l-0.059,0.154l-0.062,0.154l-0.064,0.153l-0.065,0.151l-0.067,0.151l-0.069,0.15l-0.071,0.149l-0.072,0.148l-0.074,0.146l-0.076,0.146l-0.078,0.145l-0.079,0.144l-0.081,0.142l-0.082,0.142l-0.085,0.14l-0.085,0.14l-0.088,0.138l-0.089,0.137l-0.091,0.136l-0.092,0.135l-0.094,0.133l-0.095,0.133l-0.097,0.131l-0.099,0.13l-0.1,0.129l-0.101,0.128l-0.103,0.126l-0.105,0.125l-0.106,0.124l-0.107,0.122l-0.109,0.122l-0.11,0.119l-0.112,0.119l-0.113,0.117l-0.115,0.116l-0.115,0.115l-0.118,0.113l-0.118,0.111l-0.12,0.111l-0.121,0.108l-0.123,0.108l-0.124,0.106l-0.125,0.104l-0.126,0.103l-0.128,0.102l-0.128,0.1l-0.13,0.098l-0.132,0.097l-0.132,0.096l-0.134,0.094l-0.135,0.092l-0.136,0.091l-0.137,0.089l-0.138,0.087l-0.139,0.086l-0.141,0.084l-0.141,0.083l-0.143,0.081l-0.144,0.079l-0.144,0.078l-0.146,0.076l-0.147,0.074l-0.148,0.072l-0.149,0.071l-0.15,0.069l-0.15,0.067l-0.152,0.065l-0.153,0.063l-0.153,0.062l-0.155,0.06l-0.155,0.058l-0.157,0.056l-0.157,0.055l-0.158,0.052l-0.159,0.051l-0.16,0.048l-0.16,0.047l-0.162,0.045l-0.162,0.043l-0.163,0.041l-0.163,0.038l-0.165,0.037l-0.165,0.035l-0.166,0.033l-0.167,0.031l-0.167,0.029l-0.168,0.027l-0.169,0.024l-0.169,0.023l-0.17,0.021l-0.171,0.018l-0.171,0.016l-0.172,0.015l-0.173,0.012l-0.173,0.01l-0.174,0.007l-0.174,0.006l-0.175,0.003l-0.175,0.001l-0.175,-0.001l-0.175,-0.003l-0.174,-0.006l-0.174,-0.007l-0.173,-0.01l-0.173,-0.012l-0.172,-0.015l-0.171,-0.016l-0.171,-0.018l-0.17,-0.021l-0.169,-0.023l-0.169,-0.024l-0.168,-0.027l-0.167,-0.029l-0.167,-0.031l-0.166,-0.033l-0.165,-0.035l-0.165,-0.037l-0.163,-0.038l-0.163,-0.041l-0.163,-0.043l-0.161,-0.045l-0.161,-0.047l-0.159,-0.048l-0.159,-0.051l-0.158,-0.052l-0.157,-0.055l-0.157,-0.056l-0.155,-0.058l-0.155,-0.06l-0.153,-0.062l-0.153,-0.063l-0.152,-0.065l-0.151,-0.067l-0.149,-0.069l-0.149,-0.071l-0.148,-0.072l-0.147,-0.074l-0.146,-0.076l-0.144,-0.078l-0.144,-0.079l-0.143,-0.081l-0.141,-0.083l-0.141,-0.084l-0.139,-0.086l-0.138,-0.087l-0.137,-0.089l-0.136,-0.091l-0.135,-0.092l-0.134,-0.094l-0.132,-0.096l-0.132,-0.097l-0.13,-0.098l-0.128,-0.1l-0.128,-0.102l-0.126,-0.103l-0.125,-0.104l-0.124,-0.106l-0.123,-0.108l-0.121,-0.108l-0.12,-0.111l-0.118,-0.111l-0.118,-0.113l-0.115,-0.115l-0.115,-0.116l-0.113,-0.117l-0.112,-0.119l-0.11,-0.119l-0.109,-0.122l-0.107,-0.122l-0.106,-0.124l-0.105,-0.125l-0.103,-0.126l-0.101,-0.128l-0.1,-0.129l-0.099,-0.13l-0.097,-0.131l-0.095,-0.133l-0.094,-0.133l-0.092,-0.135l-0.091,-0.136l-0.089,-0.137l-0.088,-0.138l-0.086,-0.14l-0.084,-0.14l-0.082,-0.142l-0.081,-0.142l-0.08,-0.144l-0.077,-0.145l-0.076,-0.146l-0.074,-0.146l-0.072,-0.148l-0.071,-0.149l-0.069,-0.15l-0.067,-0.151l-0.065,-0.151l-0.064,-0.153l-0.062,-0.154l-0.059,-0.154l-0.059,-0.156l-0.056,-0.156l-0.054,-0.157l-0.052,-0.158l-0.051,-0.159l-0.049,-0.16l-0.046,-0.16l-0.045,-0.162l-0.043,-0.162l-0.041,-0.163l-0.039,-0.164l-0.037,-0.164l-0.035,-0.165l-0.033,-0.166l-0.031,-0.167l-0.028,-0.167l-0.027,-0.169l-0.025,-0.168l-0.023,-0.17l-0.02,-0.17l-0.019,-0.17l-0.016,-0.172l-0.014,-0.172l-0.012,-0.172l-0.01,-0.173l-0.008,-0.174l-0.005,-0.174l-0.004,-0.175l-0.001,-0.175l0.001,-0.176l0.004,-0.174l0.005,-0.175l0.008,-0.173l0.01,-0.173l0.012,-0.173l0.014,-0.172l0.016,-0.171l0.019,-0.171l0.02,-0.17l0.023,-0.169l0.025,-0.169l0.027,-0.168l0.028,-0.168l0.031,-0.166l0.033,-0.166l0.035,-0.165l0.037,-0.165l0.039,-0.164l0.041,-0.163l0.043,-0.162l0.045,-0.161l0.046,-0.161l0.049,-0.16l0.051,-0.158l0.052,-0.159l0.054,-0.157l0.056,-0.156l0.059,-0.155l0.059,-0.155l0.062,-0.154l0.064,-0.152l0.065,-0.152l0.067,-0.151l0.069,-0.15l0.071,-0.148l0.072,-0.148l0.074,-0.147l0.076,-0.146l0.077,-0.145l0.08,-0.143l0.081,-0.143l0.082,-0.142l0.084,-0.14l0.086,-0.139l0.088,-0.139l0.089,-0.137l0.091,-0.136l0.092,-0.135l0.094,-0.133l0.095,-0.133l0.097,-0.131l0.099,-0.13l0.1,-0.129l0.101,-0.127l0.103,-0.127l0.105,-0.125l0.106,-0.124l0.107,-0.122l0.109,-0.121l0.11,-0.12l0.112,-0.119l0.113,-0.117l0.115,-0.116l0.115,-0.114l0.118,-0.113l0.118,-0.112l0.12,-0.11l0.121,-0.109l0.123,-0.108l0.124,-0.106l0.125,-0.104l0.126,-0.103l0.128,-0.102l0.128,-0.1l0.13,-0.098l0.132,-0.097l0.132,-0.095l0.134,-0.094l0.135,-0.093l0.136,-0.09l0.137,-0.089l0.138,-0.088l0.139,-0.086l0.141,-0.084l0.141,-0.083l0.143,-0.081l0.144,-0.079l0.144,-0.077l0.146,-0.076l0.147,-0.074l0.148,-0.073l0.149,-0.07l0.149,-0.069l0.151,-0.067l0.152,-0.066l0.153,-0.063l0.153,-0.062l0.155,-0.06l0.155,-0.058l0.157,-0.056l0.157,-0.054l0.158,-0.053l0.159,-0.05l0.159,-0.049l0.161,-0.047l0.161,-0.045l0.163,-0.042l0.163,-0.041l0.163,-0.039l0.165,-0.037l0.165,-0.035l0.166,-0.033l0.167,-0.031l0.167,-0.029l0.168,-0.026l0.169,-0.025l0.169,-0.023l0.17,-0.02l0.171,-0.019l0.171,-0.016l0.172,-0.014l0.173,-0.012l0.173,-0.01l0.174,-0.008l0.174,-0.006l0.175,-0.003l0.175,-0.001l0.175,0.001Zm-0.313,3l-0.136,0.003l-0.136,0.004l-0.137,0.006l-0.135,0.008l-0.133,0.009l-0.135,0.011l-0.133,0.013l-0.133,0.014l-0.132,0.016l-0.133,0.018l-0.132,0.019l-0.13,0.021l-0.129,0.022l-0.13,0.024l-0.131,0.026l-0.128,0.027l-0.127,0.029l-0.128,0.03l-0.126,0.032l-0.126,0.033l-0.126,0.035l-0.125,0.036l-0.123,0.038l-0.124,0.039l-0.122,0.041l-0.122,0.042l-0.123,0.044l-0.12,0.045l-0.12,0.047l-0.12,0.048l-0.12,0.05l-0.116,0.05l-0.117,0.052l-0.118,0.054l-0.116,0.055l-0.114,0.056l-0.116,0.058l-0.111,0.058l-0.112,0.06l-0.114,0.063l-0.111,0.063l-0.11,0.064l-0.109,0.065l-0.109,0.067l-0.108,0.069l-0.107,0.069l-0.105,0.071l-0.106,0.072l-0.104,0.073l-0.104,0.075l-0.102,0.075l-0.101,0.077l-0.101,0.078l-0.098,0.079l-0.099,0.08l-0.099,0.083l-0.096,0.082l-0.096,0.084l-0.094,0.084l-0.094,0.087l-0.092,0.087l-0.091,0.088l-0.091,0.09l-0.09,0.09l-0.087,0.091l-0.087,0.092l-0.087,0.095l-0.085,0.095l-0.084,0.095l-0.083,0.097l-0.081,0.097l-0.08,0.098l-0.08,0.101l-0.078,0.1l-0.076,0.101l-0.076,0.102l-0.074,0.104l-0.074,0.105l-0.071,0.103l-0.071,0.107l-0.07,0.107l-0.068,0.108l-0.067,0.109l-0.065,0.108l-0.065,0.112l-0.063,0.111l-0.061,0.11l-0.061,0.113l-0.059,0.115l-0.057,0.113l-0.057,0.115l-0.055,0.117l-0.053,0.115l-0.052,0.117l-0.052,0.12l-0.049,0.118l-0.048,0.118l-0.047,0.123l-0.045,0.12l-0.043,0.12l-0.042,0.122l-0.041,0.124l-0.04,0.124l-0.037,0.123l-0.036,0.124l-0.036,0.127l-0.033,0.126l-0.032,0.126l-0.03,0.127l-0.029,0.129l-0.027,0.128l-0.025,0.129l-0.024,0.129l-0.023,0.131l-0.021,0.131l-0.019,0.13l-0.017,0.132l-0.016,0.133l-0.015,0.133l-0.013,0.134l-0.011,0.134l-0.009,0.134l-0.008,0.136l-0.006,0.135l-0.004,0.136l-0.003,0.137l-0.001,0.138l0.001,0.137l0.003,0.137l0.004,0.136l0.006,0.135l0.008,0.136l0.009,0.134l0.011,0.134l0.013,0.134l0.015,0.133l0.016,0.133l0.017,0.132l0.019,0.13l0.021,0.132l0.023,0.13l0.024,0.129l0.025,0.129l0.027,0.128l0.029,0.129l0.03,0.127l0.032,0.126l0.033,0.126l0.036,0.127l0.036,0.124l0.037,0.124l0.04,0.124l0.041,0.123l0.042,0.122l0.043,0.12l0.045,0.121l0.047,0.122l0.048,0.119l0.049,0.118l0.052,0.119l0.052,0.117l0.053,0.115l0.055,0.117l0.057,0.116l0.057,0.113l0.059,0.114l0.061,0.113l0.061,0.111l0.063,0.111l0.065,0.111l0.065,0.108l0.067,0.109l0.068,0.108l0.07,0.107l0.071,0.107l0.071,0.103l0.074,0.106l0.074,0.103l0.076,0.102l0.076,0.101l0.078,0.101l0.08,0.1l0.08,0.098l0.081,0.097l0.083,0.097l0.084,0.096l0.085,0.094l0.087,0.095l0.087,0.092l0.087,0.091l0.09,0.091l0.091,0.089l0.091,0.088l0.092,0.088l0.094,0.086l0.094,0.084l0.096,0.084l0.096,0.083l0.099,0.082l0.099,0.081l0.098,0.078l0.101,0.078l0.101,0.077l0.102,0.075l0.104,0.075l0.104,0.073l0.106,0.073l0.105,0.07l0.107,0.069l0.108,0.069l0.109,0.067l0.11,0.066l0.109,0.063l0.11,0.063l0.115,0.063l0.112,0.06l0.111,0.058l0.116,0.058l0.114,0.056l0.116,0.055l0.118,0.055l0.117,0.052l0.116,0.05l0.12,0.05l0.12,0.048l0.12,0.046l0.122,0.046l0.121,0.043l0.12,0.042l0.124,0.041l0.124,0.039l0.123,0.038l0.125,0.036l0.126,0.035l0.126,0.034l0.126,0.031l0.128,0.03l0.127,0.029l0.128,0.027l0.131,0.026l0.13,0.024l0.129,0.022l0.13,0.021l0.132,0.019l0.133,0.018l0.132,0.016l0.133,0.015l0.133,0.012l0.135,0.011l0.133,0.01l0.135,0.007l0.137,0.006l0.136,0.005l0.136,0.002l0.138,0.001l0.137,-0.001l0.137,-0.002l0.136,-0.005l0.137,-0.006l0.134,-0.007l0.134,-0.01l0.135,-0.011l0.133,-0.012l0.133,-0.015l0.132,-0.016l0.133,-0.018l0.132,-0.019l0.13,-0.021l0.129,-0.022l0.13,-0.024l0.131,-0.026l0.128,-0.027l0.127,-0.029l0.128,-0.03l0.125,-0.031l0.126,-0.034l0.127,-0.035l0.125,-0.036l0.123,-0.038l0.124,-0.039l0.123,-0.041l0.121,-0.042l0.122,-0.044l0.121,-0.045l0.12,-0.046l0.12,-0.048l0.119,-0.05l0.117,-0.05l0.117,-0.053l0.118,-0.054l0.115,-0.054l0.116,-0.057l0.115,-0.058l0.11,-0.058l0.113,-0.06l0.115,-0.063l0.111,-0.063l0.108,-0.063l0.11,-0.066l0.109,-0.067l0.108,-0.069l0.106,-0.069l0.106,-0.07l0.106,-0.073l0.105,-0.074l0.102,-0.073l0.102,-0.076l0.102,-0.077l0.1,-0.078l0.1,-0.079l0.098,-0.08l0.099,-0.082l0.097,-0.083l0.094,-0.083l0.095,-0.085l0.094,-0.087l0.092,-0.086l0.09,-0.088l0.093,-0.091l0.089,-0.09l0.087,-0.091l0.088,-0.093l0.085,-0.093l0.086,-0.095l0.084,-0.096l0.082,-0.096l0.082,-0.098l0.08,-0.099l0.08,-0.099l0.078,-0.101l0.076,-0.101l0.076,-0.102l0.074,-0.103l0.074,-0.105l0.072,-0.105l0.07,-0.106l0.07,-0.107l0.068,-0.108l0.067,-0.108l0.065,-0.109l0.065,-0.111l0.063,-0.111l0.061,-0.111l0.061,-0.113l0.059,-0.114l0.058,-0.114l0.056,-0.115l0.055,-0.116l0.054,-0.118l0.052,-0.116l0.05,-0.117l0.05,-0.119l0.048,-0.12l0.046,-0.12l0.045,-0.12l0.044,-0.122l0.043,-0.124l0.041,-0.123l0.038,-0.121l0.038,-0.125l0.037,-0.125l0.034,-0.124l0.034,-0.127l0.032,-0.128l0.03,-0.126l0.028,-0.127l0.028,-0.13l0.025,-0.129l0.024,-0.129l0.023,-0.13l0.021,-0.132l0.019,-0.13l0.017,-0.133l0.016,-0.132l0.015,-0.133l0.013,-0.134l0.01,-0.133l0.01,-0.136l0.008,-0.135l0.006,-0.135l0.004,-0.136l0.003,-0.137l0.001,-0.137l-0.001,-0.138l-0.003,-0.137l-0.004,-0.136l-0.006,-0.135l-0.008,-0.134l-0.01,-0.137l-0.01,-0.133l-0.013,-0.134l-0.015,-0.133l-0.016,-0.132l-0.017,-0.133l-0.019,-0.13l-0.021,-0.131l-0.023,-0.131l-0.024,-0.129l-0.025,-0.129l-0.028,-0.13l-0.028,-0.127l-0.03,-0.126l-0.032,-0.128l-0.034,-0.127l-0.034,-0.123l-0.037,-0.126l-0.038,-0.125l-0.038,-0.121l-0.041,-0.123l-0.043,-0.124l-0.044,-0.122l-0.045,-0.12l-0.046,-0.119l-0.048,-0.12l-0.05,-0.119l-0.05,-0.117l-0.052,-0.118l-0.054,-0.117l-0.055,-0.116l-0.056,-0.114l-0.058,-0.114l-0.059,-0.115l-0.061,-0.113l-0.061,-0.11l-0.063,-0.111l-0.065,-0.112l-0.065,-0.109l-0.067,-0.108l-0.068,-0.108l-0.07,-0.107l-0.07,-0.105l-0.072,-0.106l-0.074,-0.104l-0.074,-0.104l-0.076,-0.102l-0.076,-0.101l-0.078,-0.1l-0.08,-0.1l-0.08,-0.099l-0.082,-0.098l-0.082,-0.096l-0.084,-0.095l-0.086,-0.096l-0.085,-0.093l-0.088,-0.093l-0.087,-0.091l-0.089,-0.09l-0.093,-0.091l-0.09,-0.088l-0.092,-0.085l-0.094,-0.088l-0.095,-0.085l-0.094,-0.082l-0.097,-0.083l-0.099,-0.083l-0.098,-0.08l-0.1,-0.079l-0.1,-0.078l-0.102,-0.077l-0.102,-0.076l-0.102,-0.073l-0.105,-0.073l-0.106,-0.073l-0.106,-0.071l-0.106,-0.069l-0.108,-0.069l-0.109,-0.067l-0.108,-0.065l-0.11,-0.063l-0.112,-0.064l-0.114,-0.063l-0.113,-0.06l-0.11,-0.058l-0.115,-0.058l-0.116,-0.056l-0.115,-0.055l-0.118,-0.054l-0.117,-0.052l-0.117,-0.051l-0.119,-0.049l-0.12,-0.048l-0.12,-0.047l-0.12,-0.045l-0.123,-0.044l-0.122,-0.042l-0.122,-0.04l-0.124,-0.04l-0.123,-0.038l-0.125,-0.036l-0.127,-0.035l-0.126,-0.033l-0.125,-0.032l-0.128,-0.03l-0.127,-0.029l-0.128,-0.027l-0.131,-0.026l-0.13,-0.024l-0.129,-0.022l-0.13,-0.021l-0.132,-0.019l-0.133,-0.018l-0.132,-0.016l-0.133,-0.014l-0.133,-0.013l-0.135,-0.011l-0.134,-0.009l-0.134,-0.008l-0.137,-0.006l-0.136,-0.004l-0.137,-0.003l-0.137,-0.001l-0.138,0.001Z" style="fill:#31c5f0;"/></g><text id="t" x="117.685px" y="277.169px" style="font-family:'Arial-BoldMT', 'Arial', sans-serif;font-weight:700;font-size:14.442px;fill:#31c5f0;">Ps</text></g><g id="affinity-ico" serif:id="affinity ico"><g><circle cx="46.493" cy="296.846" r="16.673" style="fill:#3554fe;"/><path d="M46.708,280.175l0.215,0.004l0.214,0.007l0.214,0.009l0.212,0.013l0.212,0.014l0.211,0.018l0.211,0.02l0.209,0.023l0.209,0.025l0.209,0.028l0.207,0.03l0.206,0.033l0.206,0.035l0.205,0.038l0.203,0.041l0.203,0.043l0.203,0.045l0.201,0.048l0.2,0.05l0.199,0.053l0.198,0.055l0.198,0.057l0.196,0.06l0.195,0.062l0.194,0.064l0.193,0.067l0.192,0.069l0.191,0.071l0.19,0.074l0.189,0.076l0.187,0.078l0.187,0.08l0.185,0.083l0.184,0.084l0.183,0.087l0.181,0.089l0.181,0.091l0.179,0.093l0.178,0.095l0.176,0.098l0.175,0.099l0.174,0.101l0.173,0.104l0.171,0.105l0.17,0.108l0.168,0.109l0.167,0.112l0.166,0.113l0.164,0.115l0.163,0.118l0.161,0.119l0.16,0.121l0.158,0.123l0.157,0.124l0.155,0.127l0.154,0.128l0.152,0.131l0.15,0.131l0.149,0.134l0.147,0.136l0.146,0.137l0.144,0.139l0.142,0.14l0.141,0.143l0.139,0.144l0.137,0.145l0.135,0.148l0.134,0.148l0.132,0.151l0.13,0.152l0.129,0.154l0.126,0.155l0.125,0.157l0.123,0.158l0.121,0.16l0.119,0.161l0.117,0.163l0.115,0.164l0.114,0.165l0.111,0.167l0.11,0.169l0.107,0.17l0.106,0.171l0.103,0.172l0.102,0.174l0.099,0.175l0.097,0.177l0.096,0.178l0.093,0.179l0.091,0.18l0.089,0.182l0.086,0.183l0.085,0.184l0.082,0.185l0.081,0.186l0.078,0.188l0.076,0.189l0.073,0.189l0.071,0.191l0.069,0.192l0.067,0.193l0.065,0.195l0.062,0.195l0.059,0.196l0.058,0.197l0.055,0.198l0.053,0.2l0.05,0.2l0.048,0.201l0.045,0.202l0.043,0.203l0.04,0.204l0.038,0.205l0.036,0.205l0.033,0.207l0.03,0.207l0.028,0.208l0.025,0.209l0.023,0.21l0.02,0.21l0.017,0.211l0.015,0.212l0.012,0.213l0.01,0.213l0.006,0.214l0.004,0.215l0.002,0.215l-0.002,0.216l-0.004,0.214l-0.006,0.215l-0.01,0.213l-0.012,0.213l-0.015,0.211l-0.017,0.212l-0.02,0.21l-0.023,0.21l-0.025,0.209l-0.028,0.208l-0.03,0.207l-0.033,0.207l-0.036,0.205l-0.038,0.205l-0.04,0.204l-0.043,0.203l-0.045,0.202l-0.048,0.201l-0.05,0.2l-0.053,0.199l-0.055,0.199l-0.058,0.197l-0.059,0.196l-0.062,0.195l-0.065,0.194l-0.067,0.194l-0.069,0.192l-0.071,0.191l-0.073,0.189l-0.076,0.189l-0.078,0.188l-0.081,0.186l-0.082,0.185l-0.085,0.184l-0.086,0.183l-0.089,0.182l-0.091,0.18l-0.093,0.179l-0.096,0.178l-0.097,0.176l-0.099,0.176l-0.102,0.174l-0.103,0.172l-0.106,0.171l-0.107,0.17l-0.11,0.169l-0.111,0.167l-0.114,0.165l-0.115,0.164l-0.117,0.163l-0.119,0.161l-0.121,0.16l-0.123,0.158l-0.125,0.157l-0.126,0.155l-0.129,0.154l-0.13,0.152l-0.132,0.15l-0.134,0.149l-0.135,0.148l-0.137,0.145l-0.139,0.144l-0.141,0.142l-0.142,0.141l-0.144,0.139l-0.146,0.137l-0.147,0.136l-0.149,0.133l-0.15,0.132l-0.152,0.131l-0.154,0.128l-0.155,0.126l-0.157,0.125l-0.158,0.123l-0.16,0.121l-0.161,0.119l-0.163,0.117l-0.164,0.116l-0.166,0.113l-0.167,0.111l-0.168,0.11l-0.17,0.107l-0.171,0.106l-0.173,0.103l-0.174,0.102l-0.175,0.099l-0.176,0.098l-0.178,0.095l-0.179,0.093l-0.181,0.091l-0.181,0.089l-0.183,0.087l-0.184,0.084l-0.185,0.083l-0.187,0.08l-0.187,0.078l-0.189,0.076l-0.19,0.073l-0.191,0.072l-0.192,0.069l-0.193,0.066l-0.194,0.065l-0.195,0.062l-0.196,0.06l-0.198,0.057l-0.198,0.055l-0.199,0.053l-0.2,0.05l-0.201,0.048l-0.203,0.045l-0.203,0.043l-0.203,0.041l-0.205,0.037l-0.206,0.036l-0.206,0.033l-0.207,0.03l-0.209,0.028l-0.209,0.025l-0.209,0.023l-0.211,0.02l-0.211,0.017l-0.212,0.015l-0.212,0.012l-0.214,0.01l-0.214,0.007l-0.215,0.004l-0.215,0.001l-0.215,-0.001l-0.215,-0.004l-0.214,-0.007l-0.213,-0.01l-0.213,-0.012l-0.212,-0.015l-0.211,-0.017l-0.211,-0.02l-0.209,-0.023l-0.209,-0.025l-0.208,-0.028l-0.208,-0.03l-0.206,-0.033l-0.206,-0.036l-0.204,-0.037l-0.204,-0.041l-0.203,-0.043l-0.202,-0.045l-0.201,-0.048l-0.201,-0.05l-0.199,-0.053l-0.198,-0.055l-0.197,-0.057l-0.197,-0.06l-0.195,-0.062l-0.194,-0.065l-0.193,-0.066l-0.192,-0.069l-0.191,-0.072l-0.19,-0.073l-0.188,-0.076l-0.188,-0.078l-0.186,-0.08l-0.186,-0.083l-0.184,-0.084l-0.182,-0.087l-0.182,-0.089l-0.18,-0.091l-0.18,-0.093l-0.177,-0.095l-0.177,-0.098l-0.175,-0.099l-0.174,-0.102l-0.173,-0.103l-0.171,-0.106l-0.17,-0.107l-0.168,-0.11l-0.167,-0.111l-0.166,-0.113l-0.164,-0.116l-0.162,-0.117l-0.162,-0.119l-0.159,-0.121l-0.159,-0.123l-0.156,-0.125l-0.156,-0.126l-0.153,-0.128l-0.152,-0.131l-0.151,-0.132l-0.149,-0.133l-0.147,-0.136l-0.146,-0.137l-0.144,-0.139l-0.142,-0.141l-0.141,-0.142l-0.138,-0.144l-0.138,-0.145l-0.135,-0.148l-0.134,-0.149l-0.132,-0.15l-0.13,-0.152l-0.128,-0.154l-0.127,-0.155l-0.125,-0.157l-0.122,-0.158l-0.121,-0.16l-0.12,-0.161l-0.117,-0.163l-0.115,-0.164l-0.113,-0.165l-0.112,-0.167l-0.109,-0.169l-0.108,-0.17l-0.105,-0.171l-0.104,-0.172l-0.101,-0.174l-0.1,-0.176l-0.097,-0.176l-0.095,-0.178l-0.093,-0.179l-0.091,-0.18l-0.089,-0.182l-0.087,-0.183l-0.085,-0.184l-0.082,-0.185l-0.08,-0.186l-0.078,-0.188l-0.076,-0.189l-0.074,-0.189l-0.071,-0.191l-0.069,-0.192l-0.067,-0.194l-0.064,-0.194l-0.062,-0.195l-0.06,-0.196l-0.058,-0.197l-0.055,-0.199l-0.052,-0.199l-0.05,-0.2l-0.048,-0.201l-0.046,-0.202l-0.043,-0.203l-0.04,-0.204l-0.038,-0.205l-0.035,-0.205l-0.033,-0.207l-0.031,-0.207l-0.027,-0.208l-0.026,-0.209l-0.022,-0.21l-0.02,-0.21l-0.018,-0.212l-0.015,-0.211l-0.012,-0.213l-0.009,-0.213l-0.007,-0.215l-0.004,-0.214l-0.002,-0.216l0.002,-0.215l0.004,-0.215l0.007,-0.214l0.009,-0.213l0.012,-0.213l0.015,-0.212l0.018,-0.211l0.02,-0.21l0.022,-0.21l0.026,-0.209l0.027,-0.208l0.031,-0.207l0.033,-0.207l0.035,-0.205l0.038,-0.205l0.04,-0.204l0.043,-0.203l0.046,-0.202l0.048,-0.201l0.05,-0.2l0.052,-0.2l0.055,-0.198l0.058,-0.197l0.06,-0.196l0.062,-0.195l0.064,-0.195l0.067,-0.193l0.069,-0.192l0.071,-0.191l0.074,-0.189l0.076,-0.189l0.078,-0.188l0.08,-0.186l0.082,-0.185l0.085,-0.184l0.087,-0.183l0.089,-0.182l0.091,-0.18l0.093,-0.179l0.095,-0.178l0.097,-0.177l0.1,-0.175l0.101,-0.174l0.104,-0.172l0.105,-0.171l0.108,-0.17l0.109,-0.169l0.112,-0.167l0.113,-0.165l0.115,-0.164l0.117,-0.163l0.12,-0.161l0.121,-0.16l0.122,-0.158l0.125,-0.157l0.127,-0.155l0.128,-0.154l0.13,-0.152l0.132,-0.151l0.134,-0.148l0.135,-0.148l0.138,-0.145l0.138,-0.144l0.141,-0.143l0.142,-0.14l0.144,-0.139l0.146,-0.137l0.147,-0.136l0.149,-0.134l0.151,-0.131l0.152,-0.131l0.153,-0.128l0.156,-0.127l0.156,-0.124l0.159,-0.123l0.159,-0.121l0.162,-0.119l0.162,-0.118l0.164,-0.115l0.166,-0.113l0.167,-0.112l0.168,-0.109l0.17,-0.108l0.171,-0.105l0.173,-0.104l0.174,-0.101l0.175,-0.099l0.177,-0.098l0.177,-0.095l0.18,-0.093l0.18,-0.091l0.182,-0.089l0.182,-0.087l0.184,-0.084l0.186,-0.083l0.186,-0.08l0.188,-0.078l0.188,-0.076l0.19,-0.074l0.191,-0.071l0.192,-0.069l0.193,-0.067l0.194,-0.064l0.195,-0.062l0.197,-0.06l0.197,-0.057l0.198,-0.055l0.199,-0.053l0.201,-0.05l0.201,-0.048l0.202,-0.045l0.203,-0.043l0.204,-0.041l0.204,-0.038l0.206,-0.035l0.206,-0.033l0.208,-0.03l0.208,-0.028l0.209,-0.025l0.209,-0.023l0.211,-0.02l0.211,-0.018l0.212,-0.014l0.213,-0.013l0.213,-0.009l0.214,-0.007l0.215,-0.004l0.215,-0.001l0.215,0.001Zm-0.392,3l-0.177,0.003l-0.176,0.006l-0.176,0.008l-0.174,0.01l-0.173,0.012l-0.174,0.014l-0.173,0.017l-0.172,0.018l-0.172,0.021l-0.17,0.023l-0.17,0.025l-0.169,0.027l-0.168,0.028l-0.168,0.032l-0.168,0.033l-0.165,0.035l-0.166,0.037l-0.165,0.039l-0.163,0.041l-0.163,0.043l-0.163,0.046l-0.162,0.046l-0.16,0.049l-0.16,0.051l-0.158,0.053l-0.158,0.055l-0.158,0.056l-0.156,0.058l-0.155,0.061l-0.155,0.062l-0.154,0.064l-0.152,0.065l-0.152,0.068l-0.151,0.069l-0.15,0.071l-0.149,0.073l-0.148,0.075l-0.145,0.076l-0.146,0.078l-0.145,0.08l-0.144,0.082l-0.143,0.083l-0.141,0.085l-0.141,0.086l-0.139,0.088l-0.138,0.09l-0.137,0.091l-0.136,0.094l-0.135,0.094l-0.133,0.096l-0.133,0.098l-0.13,0.099l-0.13,0.101l-0.13,0.103l-0.127,0.103l-0.126,0.106l-0.125,0.107l-0.124,0.109l-0.122,0.109l-0.121,0.111l-0.119,0.113l-0.118,0.114l-0.118,0.116l-0.115,0.117l-0.114,0.118l-0.113,0.119l-0.111,0.121l-0.11,0.123l-0.108,0.123l-0.107,0.125l-0.106,0.127l-0.103,0.126l-0.103,0.129l-0.101,0.131l-0.099,0.131l-0.098,0.132l-0.096,0.133l-0.094,0.135l-0.094,0.137l-0.091,0.136l-0.09,0.138l-0.088,0.14l-0.087,0.14l-0.084,0.141l-0.084,0.143l-0.081,0.144l-0.08,0.144l-0.078,0.146l-0.077,0.147l-0.074,0.148l-0.073,0.149l-0.071,0.149l-0.069,0.151l-0.068,0.152l-0.066,0.153l-0.064,0.154l-0.062,0.154l-0.06,0.155l-0.058,0.156l-0.057,0.158l-0.055,0.158l-0.052,0.159l-0.051,0.16l-0.049,0.16l-0.047,0.161l-0.045,0.163l-0.043,0.164l-0.041,0.162l-0.039,0.165l-0.037,0.166l-0.035,0.166l-0.034,0.167l-0.031,0.168l-0.029,0.168l-0.027,0.169l-0.025,0.171l-0.022,0.17l-0.021,0.171l-0.019,0.172l-0.016,0.172l-0.014,0.174l-0.013,0.175l-0.01,0.174l-0.007,0.175l-0.006,0.176l-0.003,0.177l-0.001,0.177l0.001,0.178l0.003,0.177l0.006,0.175l0.007,0.175l0.01,0.175l0.013,0.175l0.014,0.174l0.016,0.172l0.019,0.171l0.021,0.172l0.022,0.17l0.025,0.171l0.027,0.169l0.029,0.167l0.031,0.169l0.034,0.167l0.035,0.166l0.037,0.165l0.039,0.165l0.041,0.163l0.043,0.164l0.045,0.163l0.047,0.161l0.049,0.16l0.051,0.16l0.052,0.159l0.055,0.158l0.057,0.158l0.058,0.156l0.06,0.155l0.062,0.154l0.064,0.154l0.066,0.153l0.068,0.152l0.069,0.151l0.071,0.149l0.073,0.149l0.074,0.147l0.077,0.147l0.078,0.147l0.08,0.144l0.081,0.144l0.084,0.143l0.084,0.141l0.087,0.14l0.088,0.139l0.09,0.138l0.091,0.137l0.094,0.137l0.094,0.135l0.096,0.133l0.098,0.132l0.099,0.131l0.101,0.13l0.103,0.129l0.103,0.127l0.106,0.127l0.107,0.125l0.108,0.123l0.11,0.122l0.111,0.121l0.113,0.12l0.114,0.118l0.115,0.117l0.118,0.116l0.118,0.114l0.119,0.112l0.121,0.112l0.122,0.109l0.124,0.109l0.125,0.107l0.126,0.105l0.127,0.104l0.13,0.103l0.13,0.101l0.13,0.098l0.133,0.098l0.133,0.097l0.135,0.094l0.136,0.094l0.137,0.091l0.138,0.09l0.139,0.088l0.141,0.086l0.142,0.085l0.142,0.083l0.143,0.082l0.146,0.08l0.146,0.078l0.145,0.076l0.148,0.075l0.149,0.073l0.15,0.07l0.151,0.07l0.152,0.068l0.152,0.065l0.154,0.064l0.155,0.062l0.155,0.06l0.156,0.059l0.158,0.056l0.157,0.055l0.159,0.053l0.16,0.051l0.16,0.048l0.162,0.047l0.163,0.046l0.163,0.043l0.163,0.041l0.165,0.039l0.166,0.037l0.165,0.035l0.168,0.033l0.168,0.031l0.168,0.029l0.169,0.027l0.17,0.025l0.17,0.023l0.172,0.021l0.172,0.018l0.173,0.017l0.174,0.014l0.173,0.012l0.174,0.01l0.176,0.008l0.176,0.006l0.177,0.003l0.177,0.001l0.177,-0.001l0.177,-0.003l0.176,-0.006l0.176,-0.008l0.175,-0.01l0.173,-0.012l0.173,-0.014l0.173,-0.017l0.172,-0.018l0.172,-0.021l0.171,-0.023l0.169,-0.025l0.169,-0.027l0.168,-0.029l0.168,-0.031l0.168,-0.033l0.166,-0.035l0.165,-0.037l0.165,-0.039l0.164,-0.041l0.162,-0.043l0.163,-0.046l0.162,-0.047l0.16,-0.048l0.16,-0.051l0.159,-0.053l0.158,-0.055l0.157,-0.056l0.157,-0.059l0.154,-0.06l0.156,-0.062l0.154,-0.064l0.151,-0.065l0.152,-0.068l0.151,-0.07l0.15,-0.07l0.149,-0.073l0.148,-0.075l0.146,-0.076l0.146,-0.078l0.145,-0.08l0.143,-0.082l0.143,-0.083l0.142,-0.085l0.14,-0.086l0.139,-0.088l0.138,-0.09l0.137,-0.091l0.137,-0.094l0.134,-0.094l0.134,-0.097l0.132,-0.098l0.131,-0.098l0.13,-0.102l0.129,-0.102l0.127,-0.103l0.126,-0.106l0.126,-0.107l0.123,-0.109l0.122,-0.109l0.121,-0.111l0.12,-0.113l0.118,-0.114l0.117,-0.116l0.115,-0.117l0.115,-0.118l0.112,-0.12l0.111,-0.121l0.11,-0.122l0.108,-0.123l0.107,-0.125l0.106,-0.127l0.104,-0.127l0.102,-0.129l0.101,-0.13l0.099,-0.13l0.098,-0.133l0.097,-0.134l0.094,-0.135l0.093,-0.135l0.091,-0.137l0.09,-0.139l0.089,-0.139l0.086,-0.14l0.085,-0.142l0.083,-0.142l0.082,-0.144l0.08,-0.145l0.077,-0.146l0.077,-0.146l0.074,-0.148l0.074,-0.15l0.071,-0.149l0.069,-0.15l0.067,-0.152l0.066,-0.153l0.064,-0.153l0.062,-0.154l0.06,-0.156l0.059,-0.157l0.056,-0.157l0.055,-0.158l0.052,-0.159l0.051,-0.16l0.049,-0.161l0.047,-0.161l0.045,-0.162l0.043,-0.163l0.041,-0.164l0.039,-0.165l0.038,-0.166l0.035,-0.166l0.033,-0.166l0.031,-0.168l0.029,-0.168l0.027,-0.169l0.025,-0.17l0.023,-0.171l0.02,-0.172l0.019,-0.171l0.016,-0.173l0.015,-0.174l0.012,-0.173l0.01,-0.175l0.008,-0.176l0.005,-0.176l0.004,-0.177l0.001,-0.177l-0.001,-0.176l-0.004,-0.177l-0.005,-0.177l-0.008,-0.175l-0.01,-0.175l-0.012,-0.173l-0.015,-0.174l-0.016,-0.173l-0.019,-0.172l-0.02,-0.171l-0.023,-0.171l-0.025,-0.17l-0.027,-0.169l-0.029,-0.168l-0.031,-0.168l-0.033,-0.167l-0.035,-0.165l-0.038,-0.167l-0.039,-0.165l-0.041,-0.163l-0.043,-0.163l-0.045,-0.162l-0.047,-0.161l-0.049,-0.161l-0.051,-0.16l-0.052,-0.16l-0.055,-0.157l-0.056,-0.157l-0.059,-0.157l-0.06,-0.156l-0.062,-0.154l-0.064,-0.153l-0.066,-0.153l-0.067,-0.152l-0.069,-0.15l-0.071,-0.15l-0.074,-0.149l-0.074,-0.148l-0.077,-0.147l-0.077,-0.145l-0.08,-0.145l-0.082,-0.144l-0.083,-0.142l-0.085,-0.142l-0.086,-0.14l-0.089,-0.14l-0.09,-0.138l-0.091,-0.137l-0.093,-0.136l-0.094,-0.134l-0.097,-0.134l-0.098,-0.133l-0.099,-0.13l-0.101,-0.13l-0.102,-0.129l-0.104,-0.127l-0.106,-0.127l-0.107,-0.125l-0.108,-0.123l-0.11,-0.123l-0.111,-0.121l-0.112,-0.119l-0.115,-0.119l-0.115,-0.116l-0.117,-0.116l-0.118,-0.114l-0.12,-0.113l-0.121,-0.111l-0.122,-0.109l-0.123,-0.109l-0.126,-0.107l-0.126,-0.106l-0.127,-0.103l-0.129,-0.103l-0.13,-0.101l-0.131,-0.099l-0.132,-0.098l-0.134,-0.096l-0.134,-0.094l-0.137,-0.094l-0.137,-0.091l-0.138,-0.09l-0.139,-0.088l-0.14,-0.086l-0.142,-0.085l-0.143,-0.083l-0.144,-0.082l-0.144,-0.08l-0.146,-0.078l-0.146,-0.076l-0.148,-0.075l-0.149,-0.073l-0.15,-0.071l-0.151,-0.069l-0.152,-0.068l-0.151,-0.065l-0.154,-0.064l-0.156,-0.063l-0.154,-0.06l-0.156,-0.058l-0.158,-0.056l-0.159,-0.055l-0.158,-0.053l-0.16,-0.051l-0.16,-0.049l-0.161,-0.046l-0.164,-0.046l-0.163,-0.043l-0.163,-0.041l-0.165,-0.039l-0.165,-0.037l-0.166,-0.035l-0.168,-0.033l-0.168,-0.032l-0.168,-0.028l-0.169,-0.027l-0.169,-0.025l-0.171,-0.023l-0.172,-0.021l-0.172,-0.018l-0.173,-0.017l-0.173,-0.014l-0.173,-0.012l-0.175,-0.01l-0.176,-0.008l-0.176,-0.006l-0.176,-0.003l-0.178,-0.001l-0.177,0.001Z" style="fill:#6bc7ff;"/></g><path d="M47.386,288.018l0.21,0.496l0.874,0l7.716,13.184l-1.727,2.736l-6.669,0l0.68,1.241l-0.291,0l-0.712,-1.241l-8.271,0l-0.373,-0.761l-0.582,0l-1.441,-2.606l1.878,-3.351l1.877,-1.052l2.962,-5.115l-0.631,-1.013l1.457,-2.518l3.043,0Zm-6.465,13.68l5.018,0l-0.546,-0.973l5.402,0l-4.654,-8.154l-5.22,9.127Z" style="fill:#6bc7ff;"/></g><g id="webpack-ico" serif:id="webpack ico"><path d="M95.861,219.173l4.546,2.475l-0.253,0.146l0,8.78l0.228,0.131l-4.475,2.373c-1.215,-2.047 -1.912,-4.439 -1.912,-6.993c0,-2.519 0.679,-4.882 1.866,-6.912Z" style="fill:#adc8f2;"/><path d="M119.672,219.202c1.178,2.025 1.85,4.376 1.85,6.883c0,2.549 -0.695,4.937 -1.906,6.981l-4.474,-2.365l0.22,-0.127l0,-8.78l-0.233,-0.135l4.543,-2.457Z" style="fill:#adc8f2;"/><path d="M107.754,225.648l7.375,-3.989l0.233,0.135l0,8.78l-0.22,0.127l-7.388,-3.904l0,-0.001l-7.372,3.909l-0.228,-0.131l0,-8.78l0.253,-0.146l7.347,4Z" style="fill:#6f95db;"/><path d="M100.382,230.705l7.376,4.259l7.384,-4.263l4.474,2.365c-2.394,4.06 -6.81,6.783 -11.858,6.783c-5.042,0 -9.455,-2.718 -11.851,-6.771l4.475,-2.373Z" style="fill:#adc8f2;"/><path d="M95.861,219.173c2.383,-4.097 6.821,-6.851 11.897,-6.851c5.089,0 9.537,2.768 11.914,6.88l-4.543,2.457l-7.371,-4.255l-7.351,4.244l7.347,4l-11.893,-6.475Z" style="fill:#adc8f2;"/><path d="M107.754,226.797l7.388,3.904l-7.384,4.263l-7.376,-4.259l7.372,-3.909l0,0.001Z" style="fill:#7ea0df;"/><path d="M115.129,221.659l-7.375,3.989l-7.347,-4l7.351,-4.244l7.371,4.255Z" style="fill:#7ea0df;"/></g><g id="node-ico" serif:id="node ico"><circle cx="41.891" cy="144.67" r="13.185" style="fill:#a0d672;"/><g><path id="path22" d="M45.415,139.898c-0.019,0 -0.038,0.005 -0.055,0.014c-0.033,0.02 -0.054,0.056 -0.054,0.095l0,2.785c0,0.027 -0.013,0.052 -0.037,0.066c-0.024,0.013 -0.053,0.013 -0.076,0l-0.455,-0.263c-0.068,-0.039 -0.151,-0.039 -0.219,0l-1.816,1.049c-0.068,0.039 -0.11,0.114 -0.11,0.193l0,2.097c0,0.078 0.042,0.15 0.11,0.189l1.816,1.048c0.068,0.04 0.151,0.04 0.219,0l1.816,-1.048c0.068,-0.039 0.109,-0.111 0.109,-0.189l0,-5.228c0,-0.08 -0.043,-0.154 -0.112,-0.193l-1.082,-0.604c-0.017,-0.01 -0.035,-0.011 -0.054,-0.011l0,0Zm-11.686,2.617c-0.035,0.002 -0.067,0.008 -0.098,0.026l-1.817,1.048c-0.068,0.039 -0.109,0.111 -0.109,0.19l0.004,2.814c0,0.039 0.02,0.075 0.054,0.094c0.034,0.02 0.076,0.02 0.109,0l1.078,-0.619c0.068,-0.04 0.113,-0.111 0.113,-0.189l0,-1.314c0,-0.079 0.041,-0.15 0.109,-0.189l0.459,-0.266c0.034,-0.02 0.071,-0.029 0.109,-0.029c0.037,0 0.076,0.009 0.109,0.029l0.459,0.266c0.068,0.039 0.109,0.11 0.109,0.189l0,1.314c0,0.078 0.045,0.149 0.113,0.189l1.077,0.619c0.034,0.02 0.076,0.02 0.11,0c0.033,-0.019 0.054,-0.055 0.054,-0.094l0.004,-2.814c0,-0.079 -0.041,-0.151 -0.109,-0.19l-1.817,-1.048c-0.031,-0.018 -0.063,-0.024 -0.098,-0.026l-0.022,0l0,0Zm16.324,0.026c-0.038,0 -0.075,0.009 -0.11,0.029l-1.816,1.048c-0.068,0.04 -0.109,0.111 -0.109,0.19l0,2.097c0,0.078 0.044,0.15 0.113,0.189l1.802,1.026c0.066,0.038 0.147,0.041 0.214,0.004l1.092,-0.608c0.035,-0.019 0.059,-0.055 0.059,-0.095c0,-0.039 -0.021,-0.075 -0.055,-0.094l-1.827,-1.049c-0.035,-0.019 -0.059,-0.059 -0.059,-0.098l0,-0.655c0,-0.039 0.025,-0.075 0.059,-0.095l0.567,-0.328c0.034,-0.019 0.076,-0.019 0.11,0l0.568,0.328c0.034,0.02 0.054,0.056 0.054,0.095l0,0.517c0,0.039 0.021,0.075 0.055,0.094c0.034,0.02 0.075,0.02 0.109,0l1.089,-0.633c0.067,-0.039 0.109,-0.111 0.109,-0.189l0,-0.506c0,-0.079 -0.042,-0.15 -0.109,-0.19l-1.806,-1.048c-0.034,-0.02 -0.071,-0.029 -0.109,-0.029l0,0Zm-5.432,1.565c0.01,0 0.021,0.003 0.029,0.007l0.623,0.361c0.017,0.01 0.029,0.028 0.029,0.047l0,0.721c0,0.02 -0.012,0.038 -0.029,0.047l-0.623,0.361c-0.017,0.009 -0.037,0.009 -0.054,0l-0.623,-0.361c-0.017,-0.01 -0.029,-0.027 -0.029,-0.047l0,-0.721c0,-0.019 0.012,-0.037 0.029,-0.047l0.623,-0.361c0.008,-0.004 0.016,-0.007 0.025,-0.007l0,0Z" style="fill:#404137;"/><path id="path28" d="M39.186,142.53c-0.038,0 -0.075,0.009 -0.109,0.029l-1.817,1.045c-0.068,0.039 -0.109,0.114 -0.109,0.193l0,2.097c0,0.078 0.041,0.15 0.109,0.189l1.817,1.048c0.068,0.04 0.15,0.04 0.218,0l1.817,-1.048c0.068,-0.039 0.109,-0.111 0.109,-0.189l0,-2.097c0,-0.079 -0.041,-0.154 -0.109,-0.193l-1.817,-1.045c-0.034,-0.02 -0.071,-0.029 -0.109,-0.029Zm10.863,1.871c-0.007,0 -0.015,0 -0.022,0.004l-0.349,0.204c-0.013,0.007 -0.022,0.021 -0.022,0.036l0,0.4c0,0.015 0.009,0.029 0.022,0.037l0.349,0.2c0.013,0.008 0.027,0.008 0.04,0l0.35,-0.2c0.013,-0.008 0.022,-0.022 0.022,-0.037l0,-0.4c0,-0.015 -0.009,-0.029 -0.022,-0.036l-0.35,-0.204c-0.006,-0.004 -0.011,-0.004 -0.018,-0.004Z" style="fill:#6dab21;"/></g></g><g><path d="M130.631,369.643l-50.129,0" style="fill:none;stroke:#262626;stroke-width:2px;"/><path d="M76.303,369.643c0,-1.159 0.941,-2.1 2.099,-2.1c1.159,0 2.1,0.941 2.1,2.1c0,1.158 -0.941,2.099 -2.1,2.099c-1.158,0 -2.099,-0.941 -2.099,-2.099Z" style="fill:none;stroke:#262626;stroke-width:2px;"/></g><g><path d="M24.645,334.236l50.13,0" style="fill:none;stroke:#262626;stroke-width:2px;"/><path d="M78.973,334.236c0,1.158 -0.94,2.099 -2.099,2.099c-1.159,0 -2.099,-0.941 -2.099,-2.099c0,-1.159 0.94,-2.1 2.099,-2.1c1.159,0 2.099,0.941 2.099,2.1Z" style="fill:none;stroke:#262626;stroke-width:2px;"/></g><g><path d="M26.174,56.161l50.129,0" style="fill:none;stroke:#262626;stroke-width:2px;"/><path d="M80.502,56.161c0,1.158 -0.941,2.099 -2.1,2.099c-1.158,0 -2.099,-0.941 -2.099,-2.099c0,-1.159 0.941,-2.1 2.099,-2.1c1.159,0 2.1,0.941 2.1,2.1Z" style="fill:none;stroke:#262626;stroke-width:2px;"/></g><g><path d="M49.492,19.48l28.577,0" style="fill:none;stroke:#262626;stroke-width:2px;"/><path d="M82.268,19.48c0,1.159 -0.941,2.099 -2.1,2.099c-1.158,0 -2.099,-0.94 -2.099,-2.099c0,-1.159 0.941,-2.099 2.099,-2.099c1.159,0 2.1,0.94 2.1,2.099Z" style="fill:none;stroke:#262626;stroke-width:2px;"/></g><g><path d="M134.55,46.512l-50.129,0" style="fill:none;stroke:#262626;stroke-width:2px;"/><path d="M80.222,46.512c0,-1.159 0.941,-2.099 2.1,-2.099c1.158,0 2.099,0.94 2.099,2.099c0,1.159 -0.941,2.099 -2.099,2.099c-1.159,0 -2.1,-0.94 -2.1,-2.099Z" style="fill:none;stroke:#262626;stroke-width:2px;"/></g><g id="Sass-ico" serif:id="Sass ico"><circle cx="135.715" cy="369.216" r="15.922" style="fill:#de5078;"/><clipPath id="_clip4"><rect id="sass-1" x="125.608" y="361.635" width="20.214" height="15.161"/></clipPath><g clip-path="url(#_clip4)"><path d="M143.003,370.345c-0.706,0.004 -1.318,0.173 -1.831,0.426c-0.19,-0.375 -0.38,-0.703 -0.411,-0.947c-0.036,-0.285 -0.079,-0.458 -0.036,-0.798c0.044,-0.339 0.241,-0.821 0.241,-0.861c-0.004,-0.035 -0.043,-0.209 -0.45,-0.213c-0.406,-0.004 -0.758,0.079 -0.797,0.186c-0.04,0.106 -0.119,0.351 -0.17,0.604c-0.071,0.371 -0.813,1.686 -1.236,2.377c-0.138,-0.269 -0.257,-0.506 -0.28,-0.695c-0.036,-0.285 -0.079,-0.458 -0.036,-0.798c0.044,-0.339 0.241,-0.821 0.241,-0.861c-0.004,-0.035 -0.043,-0.209 -0.45,-0.213c-0.407,-0.004 -0.758,0.079 -0.797,0.186c-0.04,0.106 -0.083,0.359 -0.17,0.604c-0.083,0.245 -1.07,2.44 -1.327,3.012c-0.13,0.292 -0.245,0.525 -0.328,0.683c-0.082,0.158 -0.003,0.012 -0.011,0.028c-0.071,0.134 -0.111,0.209 -0.111,0.209l0,0.004c-0.055,0.099 -0.114,0.194 -0.142,0.194c-0.02,0 -0.059,-0.265 0.008,-0.628c0.146,-0.762 0.501,-1.95 0.497,-1.994c0,-0.02 0.067,-0.229 -0.229,-0.335c-0.288,-0.107 -0.391,0.071 -0.414,0.071c-0.024,0 -0.044,0.063 -0.044,0.063c0,0 0.32,-1.339 -0.612,-1.339c-0.584,0 -1.389,0.636 -1.788,1.216c-0.253,0.139 -0.79,0.431 -1.358,0.743c-0.217,0.118 -0.442,0.244 -0.656,0.359l-0.043,-0.048c-1.129,-1.204 -3.218,-2.056 -3.131,-3.675c0.032,-0.588 0.237,-2.14 4.011,-4.019c3.092,-1.54 5.567,-1.118 5.997,-0.178c0.612,1.342 -1.322,3.838 -4.536,4.197c-1.224,0.138 -1.867,-0.336 -2.029,-0.513c-0.17,-0.186 -0.194,-0.194 -0.257,-0.158c-0.102,0.055 -0.039,0.221 0,0.319c0.095,0.249 0.49,0.691 1.161,0.912c0.588,0.194 2.025,0.3 3.763,-0.371c1.946,-0.754 3.466,-2.846 3.02,-4.595c-0.454,-1.781 -3.407,-2.365 -6.199,-1.374c-1.662,0.592 -3.462,1.516 -4.757,2.728c-1.54,1.437 -1.785,2.693 -1.682,3.214c0.359,1.859 2.921,3.071 3.948,3.967c-0.051,0.028 -0.099,0.056 -0.142,0.079c-0.513,0.253 -2.468,1.276 -2.957,2.357c-0.553,1.224 0.087,2.105 0.513,2.223c1.319,0.367 2.669,-0.292 3.399,-1.378c0.727,-1.085 0.64,-2.495 0.304,-3.138l-0.012,-0.024l0.403,-0.237c0.261,-0.154 0.517,-0.296 0.742,-0.418c-0.126,0.343 -0.217,0.75 -0.264,1.342c-0.055,0.695 0.229,1.595 0.604,1.95c0.166,0.154 0.363,0.158 0.486,0.158c0.434,0 0.631,-0.359 0.848,-0.789c0.269,-0.526 0.506,-1.134 0.506,-1.134c0,0 -0.296,1.647 0.513,1.647c0.296,0 0.592,-0.383 0.726,-0.581l0,0.004c0,0 0.008,-0.011 0.024,-0.039c0.017,-0.025 0.033,-0.05 0.048,-0.075l0,-0.008c0.118,-0.205 0.382,-0.675 0.777,-1.453c0.51,-1.003 0.999,-2.258 0.999,-2.258c0,0 0.048,0.308 0.194,0.813c0.086,0.3 0.276,0.628 0.422,0.948c-0.118,0.165 -0.189,0.26 -0.189,0.26l0.003,0.004c-0.094,0.127 -0.201,0.261 -0.311,0.395c-0.403,0.482 -0.885,1.031 -0.948,1.188c-0.075,0.186 -0.059,0.324 0.087,0.435c0.107,0.079 0.296,0.094 0.497,0.079c0.364,-0.024 0.616,-0.115 0.743,-0.17c0.197,-0.071 0.422,-0.178 0.639,-0.336c0.395,-0.292 0.636,-0.706 0.612,-1.259c-0.012,-0.304 -0.11,-0.604 -0.233,-0.888c0.036,-0.052 0.071,-0.103 0.107,-0.158c0.624,-0.912 1.105,-1.915 1.105,-1.915c0,0 0.048,0.308 0.194,0.813c0.075,0.257 0.225,0.537 0.359,0.813c-0.584,0.478 -0.951,1.031 -1.078,1.394c-0.233,0.671 -0.051,0.975 0.292,1.046c0.154,0.032 0.375,-0.039 0.541,-0.11c0.206,-0.067 0.454,-0.182 0.683,-0.352c0.395,-0.292 0.774,-0.698 0.754,-1.247c-0.011,-0.253 -0.079,-0.502 -0.169,-0.738c0.497,-0.206 1.141,-0.324 1.958,-0.225c1.757,0.205 2.104,1.302 2.037,1.76c-0.067,0.458 -0.434,0.711 -0.557,0.79c-0.122,0.075 -0.161,0.103 -0.15,0.158c0.016,0.083 0.071,0.079 0.178,0.063c0.146,-0.024 0.924,-0.375 0.955,-1.22c0.048,-1.086 -0.983,-2.27 -2.811,-2.258l0,0Zm-13.549,4.568c-0.581,0.635 -1.398,0.876 -1.746,0.671c-0.375,-0.217 -0.229,-1.153 0.486,-1.828c0.434,-0.411 0.999,-0.79 1.37,-1.023c0.083,-0.051 0.209,-0.126 0.359,-0.217c0.024,-0.016 0.04,-0.024 0.04,-0.024c0.027,-0.015 0.059,-0.035 0.091,-0.055c0.264,0.964 0.012,1.808 -0.6,2.476l0,0Zm4.244,-2.886c-0.202,0.493 -0.628,1.76 -0.885,1.689c-0.221,-0.059 -0.355,-1.018 -0.043,-1.966c0.158,-0.478 0.493,-1.046 0.691,-1.267c0.32,-0.355 0.667,-0.474 0.754,-0.328c0.103,0.19 -0.391,1.564 -0.517,1.872Zm3.502,1.674c-0.087,0.043 -0.166,0.075 -0.202,0.051c-0.027,-0.016 0.036,-0.075 0.036,-0.075c0,0 0.438,-0.47 0.612,-0.687c0.099,-0.126 0.217,-0.272 0.343,-0.438l0,0.047c0,0.569 -0.544,0.948 -0.789,1.102Zm2.7,-0.616c-0.063,-0.048 -0.055,-0.194 0.158,-0.652c0.083,-0.181 0.273,-0.485 0.6,-0.774c0.04,0.119 0.063,0.233 0.059,0.34c-0.003,0.711 -0.509,0.975 -0.817,1.086Z" style="fill:#fff;fill-rule:nonzero;"/></g></g><g id="html5-ico" serif:id="html5 ico"><circle cx="22.328" cy="56.161" r="22.328" style="fill:#f47944;"/><clipPath id="_clip5"><rect x="22.328" y="26.422" width="31.345" height="64.366"/></clipPath><g clip-path="url(#_clip5)"><circle cx="22.328" cy="56.161" r="22.328" style="fill:#f16529;"/></g><path d="M31.581,49.049l0.385,-3.844l-19.275,0l0.988,11.642l13.234,0l-0.384,4.997l-4.321,1.154l-4.191,-1.154l-0.384,-3.13l-3.954,0l0.604,6.096l7.925,2.306l7.836,-2.306l1.153,-11.807l-13.948,0l-0.51,-3.954l14.842,0Z" style="fill:#ebebeb;"/></g><g id="bootstrap-ico" serif:id="bootstrap ico"><circle cx="31.13" cy="334.236" r="10.904" style="fill:#9353be;"/><text x="26.017px" y="339.142px" style="font-family:'Arial-BoldMT', 'Arial', sans-serif;font-weight:700;font-size:13.708px;fill:#fff;">B</text></g><g id="ai-ico" serif:id="ai ico"><g><circle cx="127.535" cy="46.512" r="19.781" style="fill:#3f3023;"/><path d="M127.663,26.732l0.127,0.001l0.128,0.002l0.127,0.003l0.127,0.004l0.127,0.004l0.127,0.005l0.126,0.006l0.126,0.007l0.126,0.008l0.126,0.008l0.126,0.009l0.125,0.01l0.125,0.011l0.125,0.011l0.125,0.013l0.125,0.013l0.124,0.014l0.124,0.014l0.124,0.016l0.123,0.016l0.124,0.017l0.123,0.017l0.123,0.019l0.122,0.019l0.122,0.02l0.123,0.02l0.121,0.022l0.122,0.022l0.121,0.023l0.121,0.023l0.121,0.025l0.121,0.025l0.12,0.026l0.12,0.026l0.12,0.027l0.119,0.028l0.119,0.029l0.119,0.03l0.119,0.03l0.118,0.031l0.118,0.031l0.118,0.032l0.117,0.033l0.118,0.034l0.116,0.035l0.117,0.035l0.116,0.035l0.116,0.037l0.116,0.037l0.115,0.038l0.115,0.039l0.229,0.079l0.228,0.082l0.227,0.084l0.225,0.087l0.224,0.09l0.222,0.093l0.221,0.095l0.22,0.098l0.218,0.1l0.217,0.103l0.216,0.106l0.214,0.108l0.212,0.11l0.211,0.113l0.21,0.116l0.207,0.118l0.207,0.12l0.205,0.123l0.203,0.125l0.201,0.128l0.2,0.129l0.198,0.133l0.197,0.134l0.194,0.137l0.193,0.139l0.192,0.141l0.189,0.144l0.188,0.146l0.186,0.148l0.184,0.15l0.182,0.152l0.181,0.155l0.178,0.156l0.177,0.159l0.175,0.16l0.172,0.163l0.171,0.165l0.169,0.167l0.167,0.169l0.165,0.17l0.162,0.173l0.161,0.175l0.159,0.177l0.156,0.178l0.155,0.181l0.152,0.182l0.15,0.184l0.148,0.186l0.146,0.188l0.144,0.189l0.141,0.191l0.139,0.194l0.137,0.194l0.134,0.197l0.132,0.198l0.13,0.2l0.128,0.201l0.125,0.203l0.123,0.205l0.12,0.206l0.118,0.208l0.115,0.21l0.114,0.211l0.11,0.212l0.108,0.214l0.106,0.216l0.103,0.216l0.1,0.219l0.098,0.22l0.095,0.221l0.092,0.222l0.09,0.224l0.088,0.225l0.084,0.227l0.082,0.228l0.079,0.229l0.039,0.115l0.038,0.115l0.037,0.116l0.036,0.116l0.036,0.116l0.035,0.116l0.035,0.117l0.033,0.117l0.033,0.118l0.033,0.118l0.031,0.118l0.031,0.118l0.03,0.119l0.03,0.119l0.028,0.119l0.028,0.119l0.028,0.12l0.026,0.12l0.026,0.12l0.025,0.121l0.025,0.12l0.023,0.122l0.023,0.121l0.022,0.121l0.022,0.122l0.02,0.122l0.02,0.123l0.019,0.122l0.019,0.123l0.017,0.123l0.017,0.124l0.016,0.123l0.016,0.124l0.014,0.124l0.014,0.124l0.013,0.125l0.012,0.125l0.012,0.124l0.011,0.126l0.01,0.125l0.009,0.126l0.008,0.125l0.008,0.127l0.007,0.126l0.006,0.126l0.005,0.127l0.004,0.127l0.004,0.127l0.003,0.127l0.002,0.128l0.001,0.127l0,0.128l0,0.128l-0.001,0.128l-0.002,0.127l-0.003,0.127l-0.004,0.127l-0.004,0.127l-0.005,0.127l-0.006,0.126l-0.007,0.127l-0.008,0.126l-0.008,0.125l-0.009,0.126l-0.01,0.125l-0.011,0.126l-0.012,0.125l-0.012,0.124l-0.013,0.125l-0.014,0.124l-0.014,0.124l-0.016,0.124l-0.016,0.123l-0.017,0.124l-0.017,0.123l-0.019,0.123l-0.019,0.122l-0.02,0.123l-0.02,0.122l-0.022,0.122l-0.022,0.121l-0.023,0.122l-0.023,0.121l-0.025,0.12l-0.025,0.121l-0.026,0.12l-0.026,0.12l-0.028,0.12l-0.028,0.119l-0.028,0.12l-0.03,0.118l-0.03,0.119l-0.031,0.118l-0.031,0.118l-0.033,0.118l-0.033,0.118l-0.033,0.117l-0.035,0.117l-0.035,0.116l-0.036,0.116l-0.036,0.116l-0.037,0.116l-0.038,0.115l-0.039,0.115l-0.079,0.229l-0.082,0.228l-0.084,0.227l-0.088,0.225l-0.09,0.224l-0.092,0.222l-0.095,0.222l-0.098,0.219l-0.1,0.219l-0.103,0.217l-0.106,0.215l-0.108,0.214l-0.11,0.212l-0.114,0.211l-0.115,0.21l-0.118,0.208l-0.12,0.206l-0.123,0.205l-0.125,0.203l-0.128,0.201l-0.13,0.2l-0.132,0.198l-0.134,0.197l-0.137,0.195l-0.139,0.193l-0.141,0.191l-0.144,0.189l-0.146,0.188l-0.148,0.186l-0.15,0.184l-0.152,0.183l-0.155,0.18l-0.156,0.178l-0.159,0.177l-0.161,0.175l-0.162,0.173l-0.165,0.17l-0.167,0.169l-0.169,0.167l-0.171,0.165l-0.172,0.163l-0.175,0.16l-0.177,0.159l-0.178,0.157l-0.181,0.154l-0.182,0.152l-0.184,0.15l-0.186,0.148l-0.188,0.146l-0.189,0.144l-0.192,0.141l-0.193,0.139l-0.194,0.137l-0.197,0.134l-0.198,0.133l-0.2,0.129l-0.201,0.128l-0.203,0.125l-0.205,0.123l-0.207,0.12l-0.207,0.118l-0.21,0.116l-0.211,0.113l-0.212,0.11l-0.214,0.108l-0.216,0.106l-0.217,0.103l-0.218,0.1l-0.22,0.098l-0.221,0.095l-0.222,0.093l-0.224,0.09l-0.225,0.087l-0.227,0.084l-0.228,0.082l-0.229,0.08l-0.115,0.038l-0.115,0.038l-0.116,0.037l-0.116,0.037l-0.116,0.035l-0.117,0.036l-0.116,0.034l-0.118,0.034l-0.117,0.033l-0.118,0.032l-0.118,0.031l-0.118,0.031l-0.119,0.031l-0.119,0.029l-0.119,0.029l-0.119,0.028l-0.12,0.027l-0.12,0.026l-0.12,0.026l-0.121,0.025l-0.121,0.025l-0.121,0.023l-0.121,0.023l-0.122,0.022l-0.121,0.022l-0.123,0.02l-0.122,0.02l-0.122,0.019l-0.123,0.019l-0.123,0.017l-0.124,0.017l-0.123,0.017l-0.124,0.015l-0.124,0.014l-0.124,0.014l-0.125,0.013l-0.125,0.013l-0.125,0.011l-0.125,0.011l-0.125,0.01l-0.126,0.009l-0.126,0.008l-0.126,0.008l-0.126,0.007l-0.126,0.006l-0.127,0.005l-0.127,0.004l-0.127,0.004l-0.127,0.003l-0.128,0.002l-0.127,0.001l-0.128,0.001l-0.128,-0.001l-0.128,-0.001l-0.127,-0.002l-0.127,-0.003l-0.127,-0.004l-0.127,-0.004l-0.127,-0.005l-0.126,-0.006l-0.127,-0.007l-0.126,-0.008l-0.126,-0.008l-0.125,-0.009l-0.126,-0.01l-0.125,-0.011l-0.125,-0.011l-0.124,-0.013l-0.125,-0.013l-0.124,-0.014l-0.124,-0.014l-0.124,-0.015l-0.124,-0.017l-0.123,-0.017l-0.123,-0.017l-0.123,-0.019l-0.122,-0.019l-0.123,-0.02l-0.122,-0.02l-0.122,-0.022l-0.121,-0.022l-0.122,-0.023l-0.121,-0.023l-0.121,-0.025l-0.12,-0.025l-0.12,-0.026l-0.12,-0.026l-0.12,-0.027l-0.119,-0.028l-0.12,-0.029l-0.119,-0.029l-0.118,-0.031l-0.118,-0.031l-0.119,-0.031l-0.117,-0.032l-0.118,-0.033l-0.117,-0.034l-0.117,-0.034l-0.116,-0.036l-0.117,-0.035l-0.116,-0.037l-0.115,-0.037l-0.115,-0.038l-0.116,-0.038l-0.229,-0.08l-0.227,-0.082l-0.227,-0.084l-0.225,-0.087l-0.224,-0.09l-0.223,-0.093l-0.221,-0.095l-0.219,-0.098l-0.219,-0.1l-0.217,-0.103l-0.215,-0.106l-0.214,-0.108l-0.213,-0.11l-0.21,-0.113l-0.21,-0.116l-0.208,-0.118l-0.206,-0.12l-0.205,-0.123l-0.203,-0.125l-0.201,-0.128l-0.2,-0.129l-0.198,-0.133l-0.197,-0.134l-0.195,-0.137l-0.193,-0.139l-0.191,-0.141l-0.19,-0.144l-0.187,-0.146l-0.186,-0.148l-0.184,-0.15l-0.183,-0.152l-0.18,-0.154l-0.179,-0.157l-0.176,-0.159l-0.175,-0.16l-0.173,-0.163l-0.171,-0.165l-0.168,-0.167l-0.167,-0.169l-0.165,-0.17l-0.163,-0.173l-0.16,-0.175l-0.159,-0.177l-0.157,-0.178l-0.154,-0.18l-0.152,-0.183l-0.151,-0.184l-0.148,-0.186l-0.145,-0.188l-0.144,-0.189l-0.141,-0.191l-0.139,-0.193l-0.137,-0.195l-0.135,-0.197l-0.132,-0.198l-0.13,-0.2l-0.127,-0.201l-0.125,-0.203l-0.123,-0.205l-0.12,-0.206l-0.118,-0.208l-0.116,-0.21l-0.113,-0.211l-0.11,-0.212l-0.108,-0.214l-0.106,-0.215l-0.103,-0.217l-0.1,-0.219l-0.098,-0.219l-0.095,-0.222l-0.093,-0.222l-0.09,-0.224l-0.087,-0.225l-0.085,-0.227l-0.081,-0.228l-0.08,-0.229l-0.038,-0.115l-0.038,-0.115l-0.037,-0.116l-0.037,-0.116l-0.036,-0.116l-0.035,-0.116l-0.034,-0.117l-0.034,-0.117l-0.033,-0.118l-0.032,-0.118l-0.032,-0.118l-0.03,-0.118l-0.031,-0.119l-0.029,-0.118l-0.029,-0.12l-0.028,-0.119l-0.027,-0.12l-0.027,-0.12l-0.025,-0.12l-0.025,-0.121l-0.025,-0.12l-0.023,-0.121l-0.023,-0.122l-0.022,-0.121l-0.022,-0.122l-0.021,-0.122l-0.019,-0.123l-0.02,-0.122l-0.018,-0.123l-0.018,-0.123l-0.016,-0.124l-0.017,-0.123l-0.015,-0.124l-0.015,-0.124l-0.013,-0.124l-0.013,-0.125l-0.013,-0.124l-0.011,-0.125l-0.011,-0.126l-0.01,-0.125l-0.009,-0.126l-0.009,-0.125l-0.007,-0.126l-0.007,-0.127l-0.006,-0.126l-0.005,-0.127l-0.005,-0.127l-0.003,-0.127l-0.003,-0.127l-0.002,-0.127l-0.001,-0.128l-0.001,-0.128l0.001,-0.128l0.001,-0.127l0.002,-0.128l0.003,-0.127l0.003,-0.127l0.005,-0.127l0.005,-0.127l0.006,-0.126l0.007,-0.126l0.007,-0.127l0.009,-0.125l0.009,-0.126l0.01,-0.125l0.011,-0.126l0.011,-0.124l0.013,-0.125l0.013,-0.125l0.013,-0.124l0.015,-0.124l0.015,-0.124l0.017,-0.123l0.016,-0.124l0.018,-0.123l0.018,-0.123l0.02,-0.122l0.019,-0.123l0.021,-0.122l0.022,-0.122l0.022,-0.121l0.023,-0.121l0.023,-0.122l0.025,-0.12l0.025,-0.121l0.025,-0.12l0.027,-0.12l0.027,-0.12l0.028,-0.119l0.029,-0.119l0.029,-0.119l0.031,-0.119l0.03,-0.118l0.032,-0.118l0.032,-0.118l0.033,-0.118l0.034,-0.117l0.034,-0.117l0.035,-0.116l0.036,-0.116l0.037,-0.116l0.037,-0.116l0.038,-0.115l0.038,-0.115l0.08,-0.229l0.081,-0.228l0.085,-0.227l0.087,-0.225l0.09,-0.224l0.093,-0.222l0.095,-0.221l0.098,-0.22l0.1,-0.219l0.103,-0.216l0.106,-0.216l0.108,-0.214l0.11,-0.212l0.113,-0.211l0.116,-0.21l0.118,-0.208l0.12,-0.206l0.123,-0.205l0.125,-0.203l0.127,-0.201l0.13,-0.2l0.132,-0.198l0.135,-0.197l0.137,-0.194l0.139,-0.194l0.141,-0.191l0.144,-0.189l0.145,-0.188l0.148,-0.186l0.151,-0.184l0.152,-0.182l0.154,-0.181l0.157,-0.178l0.159,-0.177l0.16,-0.175l0.163,-0.173l0.165,-0.17l0.167,-0.169l0.168,-0.167l0.171,-0.165l0.173,-0.163l0.175,-0.16l0.176,-0.159l0.179,-0.156l0.18,-0.155l0.183,-0.152l0.184,-0.15l0.186,-0.148l0.187,-0.146l0.19,-0.144l0.191,-0.141l0.193,-0.139l0.195,-0.137l0.197,-0.134l0.198,-0.133l0.2,-0.129l0.201,-0.128l0.203,-0.125l0.205,-0.123l0.206,-0.12l0.208,-0.118l0.21,-0.116l0.21,-0.113l0.213,-0.11l0.214,-0.108l0.215,-0.106l0.217,-0.103l0.219,-0.1l0.219,-0.098l0.221,-0.095l0.223,-0.093l0.224,-0.09l0.225,-0.087l0.227,-0.084l0.227,-0.082l0.229,-0.079l0.116,-0.039l0.115,-0.038l0.115,-0.037l0.116,-0.037l0.117,-0.035l0.116,-0.035l0.117,-0.035l0.117,-0.034l0.118,-0.033l0.117,-0.032l0.119,-0.031l0.118,-0.031l0.118,-0.03l0.119,-0.03l0.12,-0.029l0.119,-0.028l0.12,-0.027l0.12,-0.026l0.12,-0.026l0.12,-0.025l0.121,-0.025l0.121,-0.023l0.122,-0.023l0.121,-0.022l0.122,-0.022l0.122,-0.02l0.123,-0.02l0.122,-0.019l0.123,-0.019l0.123,-0.017l0.123,-0.017l0.124,-0.016l0.124,-0.016l0.124,-0.014l0.124,-0.014l0.125,-0.013l0.124,-0.013l0.125,-0.011l0.125,-0.011l0.126,-0.01l0.125,-0.009l0.126,-0.008l0.126,-0.008l0.127,-0.007l0.126,-0.006l0.127,-0.005l0.127,-0.004l0.127,-0.004l0.127,-0.003l0.127,-0.002l0.128,-0.001l0.128,0l0.128,0Zm-0.237,3l-0.109,0.001l-0.108,0.002l-0.109,0.002l-0.107,0.003l-0.108,0.004l-0.108,0.004l-0.107,0.005l-0.107,0.006l-0.107,0.007l-0.107,0.007l-0.108,0.008l-0.106,0.008l-0.106,0.009l-0.105,0.01l-0.107,0.01l-0.106,0.011l-0.105,0.012l-0.106,0.013l-0.104,0.012l-0.105,0.014l-0.105,0.015l-0.103,0.014l-0.105,0.016l-0.104,0.016l-0.104,0.017l-0.103,0.018l-0.104,0.018l-0.103,0.019l-0.103,0.019l-0.102,0.02l-0.102,0.021l-0.102,0.021l-0.103,0.022l-0.102,0.022l-0.1,0.023l-0.101,0.024l-0.101,0.024l-0.101,0.025l-0.102,0.026l-0.099,0.026l-0.1,0.027l-0.1,0.027l-0.1,0.028l-0.098,0.028l-0.098,0.029l-0.101,0.031l-0.099,0.03l-0.097,0.031l-0.098,0.031l-0.098,0.032l-0.092,0.031l-0.199,0.069l-0.194,0.07l-0.191,0.071l-0.191,0.074l-0.189,0.076l-0.189,0.079l-0.188,0.08l-0.186,0.083l-0.185,0.085l-0.184,0.088l-0.183,0.089l-0.181,0.092l-0.18,0.093l-0.179,0.096l-0.177,0.098l-0.177,0.1l-0.175,0.103l-0.173,0.103l-0.173,0.107l-0.171,0.108l-0.169,0.11l-0.169,0.112l-0.167,0.115l-0.165,0.116l-0.163,0.117l-0.163,0.121l-0.161,0.121l-0.159,0.124l-0.159,0.126l-0.155,0.127l-0.155,0.13l-0.154,0.131l-0.151,0.132l-0.15,0.135l-0.149,0.138l-0.147,0.138l-0.144,0.139l-0.144,0.142l-0.142,0.144l-0.14,0.145l-0.138,0.147l-0.136,0.148l-0.135,0.15l-0.133,0.152l-0.131,0.153l-0.13,0.155l-0.128,0.156l-0.125,0.158l-0.124,0.159l-0.122,0.161l-0.119,0.163l-0.118,0.163l-0.117,0.166l-0.114,0.167l-0.112,0.168l-0.11,0.17l-0.109,0.171l-0.106,0.171l-0.104,0.175l-0.102,0.174l-0.1,0.176l-0.098,0.179l-0.096,0.179l-0.093,0.179l-0.092,0.182l-0.09,0.182l-0.087,0.184l-0.085,0.186l-0.083,0.186l-0.08,0.187l-0.079,0.189l-0.076,0.189l-0.074,0.191l-0.072,0.192l-0.069,0.193l-0.069,0.198l-0.031,0.093l-0.032,0.098l-0.031,0.098l-0.031,0.099l-0.031,0.099l-0.029,0.097l-0.03,0.1l-0.028,0.098l-0.028,0.1l-0.028,0.101l-0.026,0.099l-0.027,0.101l-0.025,0.1l-0.025,0.1l-0.024,0.1l-0.024,0.102l-0.023,0.103l-0.023,0.101l-0.021,0.1l-0.021,0.102l-0.021,0.104l-0.02,0.104l-0.02,0.103l-0.018,0.101l-0.018,0.104l-0.018,0.103l-0.017,0.104l-0.016,0.103l-0.016,0.105l-0.015,0.106l-0.014,0.103l-0.013,0.104l-0.014,0.105l-0.012,0.106l-0.012,0.106l-0.011,0.105l-0.01,0.105l-0.01,0.107l-0.009,0.107l-0.009,0.106l-0.007,0.107l-0.008,0.106l-0.006,0.107l-0.006,0.108l-0.005,0.107l-0.004,0.108l-0.004,0.108l-0.003,0.108l-0.003,0.108l-0.001,0.108l-0.001,0.111l-0.001,0.107l0.001,0.108l0.001,0.11l0.001,0.108l0.003,0.108l0.003,0.108l0.004,0.108l0.004,0.108l0.005,0.107l0.006,0.108l0.006,0.107l0.008,0.107l0.007,0.106l0.009,0.106l0.009,0.107l0.01,0.106l0.01,0.106l0.011,0.105l0.012,0.106l0.012,0.106l0.014,0.105l0.013,0.104l0.014,0.103l0.016,0.107l0.015,0.104l0.016,0.103l0.017,0.104l0.018,0.103l0.018,0.104l0.018,0.101l0.02,0.103l0.02,0.104l0.021,0.104l0.021,0.102l0.021,0.1l0.023,0.101l0.023,0.103l0.024,0.102l0.024,0.1l0.025,0.101l0.026,0.099l0.026,0.101l0.026,0.099l0.028,0.101l0.028,0.1l0.028,0.098l0.03,0.1l0.029,0.097l0.031,0.099l0.031,0.099l0.031,0.098l0.032,0.098l0.031,0.093l0.069,0.198l0.069,0.193l0.072,0.192l0.074,0.19l0.076,0.191l0.079,0.189l0.08,0.186l0.083,0.186l0.086,0.186l0.086,0.184l0.09,0.182l0.092,0.182l0.093,0.179l0.096,0.179l0.098,0.179l0.1,0.176l0.102,0.174l0.104,0.175l0.106,0.172l0.109,0.171l0.11,0.169l0.112,0.168l0.115,0.168l0.116,0.165l0.118,0.164l0.119,0.162l0.122,0.161l0.124,0.159l0.125,0.158l0.128,0.156l0.13,0.155l0.131,0.154l0.133,0.151l0.135,0.15l0.136,0.148l0.138,0.147l0.14,0.146l0.142,0.143l0.143,0.141l0.146,0.141l0.146,0.138l0.149,0.136l0.15,0.135l0.151,0.133l0.154,0.131l0.155,0.13l0.156,0.127l0.158,0.126l0.159,0.124l0.161,0.121l0.162,0.12l0.165,0.119l0.165,0.116l0.166,0.114l0.169,0.112l0.169,0.11l0.171,0.108l0.172,0.106l0.174,0.105l0.176,0.102l0.176,0.1l0.177,0.098l0.179,0.096l0.18,0.094l0.181,0.091l0.183,0.089l0.184,0.088l0.185,0.085l0.186,0.083l0.188,0.08l0.188,0.079l0.19,0.076l0.191,0.074l0.192,0.072l0.193,0.069l0.198,0.069l0.094,0.031l0.097,0.032l0.097,0.031l0.099,0.031l0.099,0.031l0.098,0.029l0.1,0.03l0.1,0.028l0.098,0.028l0.099,0.027l0.101,0.027l0.101,0.026l0.1,0.026l0.1,0.024l0.102,0.025l0.101,0.024l0.1,0.023l0.103,0.022l0.102,0.022l0.102,0.021l0.102,0.021l0.102,0.02l0.103,0.019l0.103,0.019l0.104,0.018l0.103,0.018l0.104,0.017l0.104,0.016l0.103,0.015l0.105,0.015l0.105,0.015l0.105,0.014l0.106,0.013l0.103,0.012l0.106,0.012l0.106,0.011l0.107,0.01l0.105,0.01l0.106,0.009l0.107,0.009l0.107,0.007l0.106,0.007l0.107,0.007l0.108,0.006l0.107,0.005l0.108,0.004l0.109,0.004l0.106,0.003l0.109,0.002l0.11,0.002l0.107,0.001l0.109,0.001l0.109,-0.001l0.107,-0.001l0.11,-0.002l0.108,-0.002l0.107,-0.003l0.109,-0.004l0.107,-0.004l0.108,-0.005l0.108,-0.006l0.107,-0.007l0.106,-0.007l0.107,-0.007l0.107,-0.009l0.106,-0.009l0.105,-0.01l0.107,-0.01l0.106,-0.011l0.106,-0.012l0.103,-0.012l0.105,-0.013l0.106,-0.014l0.105,-0.015l0.104,-0.015l0.103,-0.015l0.105,-0.016l0.104,-0.017l0.103,-0.018l0.104,-0.018l0.103,-0.019l0.102,-0.019l0.103,-0.02l0.102,-0.021l0.102,-0.021l0.102,-0.022l0.102,-0.022l0.101,-0.023l0.101,-0.024l0.102,-0.025l0.1,-0.024l0.1,-0.026l0.101,-0.026l0.101,-0.027l0.099,-0.027l0.099,-0.028l0.099,-0.028l0.099,-0.03l0.099,-0.029l0.099,-0.031l0.099,-0.031l0.097,-0.031l0.096,-0.032l0.094,-0.031l0.199,-0.069l0.193,-0.069l0.192,-0.072l0.191,-0.074l0.19,-0.076l0.188,-0.079l0.187,-0.08l0.187,-0.083l0.184,-0.085l0.184,-0.088l0.183,-0.089l0.181,-0.091l0.181,-0.094l0.179,-0.096l0.177,-0.098l0.176,-0.1l0.175,-0.102l0.174,-0.105l0.173,-0.106l0.17,-0.108l0.17,-0.11l0.168,-0.112l0.167,-0.114l0.165,-0.116l0.164,-0.119l0.163,-0.12l0.161,-0.121l0.159,-0.124l0.158,-0.126l0.157,-0.128l0.154,-0.129l0.153,-0.131l0.152,-0.133l0.15,-0.135l0.148,-0.136l0.147,-0.138l0.145,-0.141l0.144,-0.141l0.141,-0.143l0.141,-0.146l0.138,-0.147l0.136,-0.148l0.135,-0.15l0.133,-0.151l0.131,-0.154l0.13,-0.155l0.127,-0.156l0.125,-0.158l0.125,-0.159l0.121,-0.161l0.12,-0.162l0.118,-0.164l0.116,-0.165l0.115,-0.168l0.112,-0.168l0.11,-0.169l0.108,-0.171l0.106,-0.172l0.105,-0.174l0.102,-0.175l0.1,-0.177l0.098,-0.178l0.096,-0.179l0.093,-0.179l0.092,-0.182l0.089,-0.182l0.087,-0.184l0.086,-0.185l0.083,-0.187l0.08,-0.187l0.078,-0.188l0.077,-0.191l0.074,-0.19l0.071,-0.192l0.07,-0.193l0.068,-0.199l0.031,-0.092l0.033,-0.098l0.031,-0.098l0.031,-0.099l0.031,-0.099l0.029,-0.097l0.029,-0.098l0.028,-0.1l0.029,-0.1l0.027,-0.101l0.027,-0.1l0.026,-0.098l0.025,-0.101l0.026,-0.103l0.024,-0.098l0.023,-0.102l0.024,-0.103l0.022,-0.1l0.022,-0.101l0.021,-0.104l0.021,-0.102l0.02,-0.103l0.019,-0.104l0.019,-0.103l0.018,-0.102l0.018,-0.103l0.016,-0.103l0.017,-0.104l0.015,-0.106l0.015,-0.105l0.015,-0.103l0.013,-0.104l0.013,-0.105l0.013,-0.106l0.012,-0.106l0.011,-0.105l0.01,-0.106l0.01,-0.106l0.009,-0.107l0.008,-0.106l0.008,-0.106l0.007,-0.107l0.007,-0.107l0.005,-0.108l0.006,-0.107l0.004,-0.108l0.004,-0.108l0.003,-0.108l0.002,-0.108l0.002,-0.108l0.001,-0.109l0,-0.109l0,-0.109l-0.001,-0.109l-0.002,-0.108l-0.002,-0.108l-0.003,-0.108l-0.004,-0.108l-0.004,-0.108l-0.006,-0.107l-0.005,-0.108l-0.007,-0.107l-0.007,-0.106l-0.008,-0.107l-0.008,-0.106l-0.009,-0.107l-0.01,-0.107l-0.01,-0.105l-0.011,-0.105l-0.012,-0.106l-0.013,-0.106l-0.013,-0.105l-0.013,-0.104l-0.015,-0.103l-0.015,-0.105l-0.015,-0.106l-0.017,-0.104l-0.016,-0.103l-0.018,-0.103l-0.018,-0.102l-0.019,-0.103l-0.019,-0.104l-0.02,-0.103l-0.021,-0.102l-0.021,-0.104l-0.022,-0.101l-0.022,-0.1l-0.024,-0.103l-0.023,-0.102l-0.024,-0.099l-0.026,-0.101l-0.025,-0.101l-0.026,-0.099l-0.027,-0.1l-0.027,-0.101l-0.029,-0.1l-0.028,-0.1l-0.029,-0.098l-0.029,-0.097l-0.031,-0.099l-0.031,-0.099l-0.032,-0.098l-0.032,-0.098l-0.03,-0.092l-0.069,-0.199l-0.07,-0.193l-0.071,-0.192l-0.074,-0.191l-0.076,-0.189l-0.079,-0.189l-0.08,-0.187l-0.084,-0.187l-0.085,-0.185l-0.087,-0.184l-0.089,-0.182l-0.092,-0.182l-0.093,-0.179l-0.096,-0.179l-0.098,-0.178l-0.1,-0.177l-0.103,-0.175l-0.104,-0.174l-0.106,-0.171l-0.108,-0.171l-0.11,-0.17l-0.112,-0.168l-0.115,-0.167l-0.116,-0.166l-0.118,-0.163l-0.12,-0.163l-0.121,-0.16l-0.125,-0.16l-0.125,-0.158l-0.127,-0.156l-0.13,-0.155l-0.131,-0.153l-0.133,-0.152l-0.135,-0.15l-0.136,-0.148l-0.138,-0.147l-0.14,-0.145l-0.143,-0.144l-0.143,-0.142l-0.145,-0.139l-0.146,-0.138l-0.149,-0.138l-0.151,-0.135l-0.15,-0.132l-0.154,-0.131l-0.154,-0.129l-0.157,-0.128l-0.158,-0.126l-0.159,-0.124l-0.161,-0.121l-0.163,-0.121l-0.163,-0.117l-0.166,-0.116l-0.167,-0.115l-0.168,-0.112l-0.17,-0.11l-0.17,-0.108l-0.173,-0.107l-0.173,-0.103l-0.175,-0.103l-0.177,-0.1l-0.177,-0.098l-0.179,-0.096l-0.181,-0.093l-0.181,-0.092l-0.183,-0.089l-0.184,-0.088l-0.184,-0.085l-0.187,-0.083l-0.187,-0.08l-0.189,-0.079l-0.19,-0.076l-0.19,-0.074l-0.192,-0.071l-0.193,-0.07l-0.199,-0.069l-0.092,-0.031l-0.098,-0.032l-0.098,-0.031l-0.097,-0.031l-0.099,-0.03l-0.101,-0.031l-0.098,-0.029l-0.098,-0.028l-0.1,-0.028l-0.101,-0.027l-0.099,-0.027l-0.1,-0.026l-0.101,-0.026l-0.101,-0.025l-0.101,-0.024l-0.101,-0.024l-0.101,-0.023l-0.101,-0.022l-0.103,-0.022l-0.102,-0.021l-0.102,-0.021l-0.103,-0.02l-0.102,-0.019l-0.103,-0.019l-0.104,-0.018l-0.103,-0.018l-0.104,-0.017l-0.105,-0.016l-0.104,-0.016l-0.103,-0.014l-0.105,-0.015l-0.106,-0.014l-0.104,-0.012l-0.106,-0.013l-0.104,-0.012l-0.106,-0.011l-0.107,-0.01l-0.105,-0.01l-0.106,-0.009l-0.106,-0.008l-0.108,-0.008l-0.108,-0.007l-0.106,-0.007l-0.107,-0.006l-0.108,-0.005l-0.107,-0.004l-0.108,-0.004l-0.108,-0.003l-0.108,-0.002l-0.108,-0.002l-0.109,-0.001l-0.109,0l-0.109,0Z" style="fill:#f1702d;"/></g><text id="t1" serif:id="t" x="116.776px" y="53.922px" style="font-family:'Arial-BoldMT', 'Arial', sans-serif;font-weight:700;font-size:21.047px;fill:#f1702d;">Ai</text></g><g id="git-ico" serif:id="git ico"><circle cx="49.492" cy="19.48" r="16.803" style="fill:#f93333;stroke:#ebebeb;stroke-width:1px;stroke-linecap:butt;stroke-linejoin:round;stroke-miterlimit:1.41421;"/><path d="M60.32,18.478l-9.826,-9.826c-0.566,-0.566 -1.483,-0.566 -2.05,0l-2.04,2.041l2.588,2.588c0.602,-0.203 1.292,-0.067 1.771,0.413c0.482,0.482 0.617,1.178 0.409,1.781l2.495,2.495c0.603,-0.208 1.3,-0.073 1.782,0.409c0.673,0.674 0.673,1.765 0,2.439c-0.674,0.674 -1.766,0.674 -2.44,0c-0.507,-0.507 -0.632,-1.251 -0.375,-1.875l-2.327,-2.327l0,6.122c0.164,0.082 0.319,0.19 0.456,0.327c0.673,0.673 0.673,1.765 0,2.439c-0.674,0.673 -1.766,0.673 -2.439,0c-0.673,-0.675 -0.673,-1.766 0,-2.439c0.167,-0.167 0.36,-0.292 0.565,-0.377l0,-6.179c-0.205,-0.084 -0.398,-0.209 -0.565,-0.377c-0.51,-0.51 -0.633,-1.259 -0.371,-1.885l-2.551,-2.552l-6.738,6.737c-0.566,0.567 -0.566,1.484 0,2.05l9.826,9.826c0.566,0.566 1.484,0.566 2.05,0l9.78,-9.78c0.566,-0.566 0.566,-1.484 0,-2.05Z" style="fill:#fff;fill-rule:nonzero;"/></g></g><defs><linearGradient id="_Linear1" x1="0" y1="0" x2="1" y2="0" gradientUnits="userSpaceOnUse" gradientTransform="matrix(2.55911e-14,-417.934,13.9567,8.54602e-16,78.9733,419.737)"><stop offset="0" style="stop-color:#f15757;stop-opacity:1"/><stop offset="0.15" style="stop-color:#cf649a;stop-opacity:1"/><stop offset="0.3" style="stop-color:#2635fe;stop-opacity:1"/><stop offset="0.45" style="stop-color:#75dbff;stop-opacity:1"/><stop offset="0.6" style="stop-color:#2ebfb4;stop-opacity:1"/><stop offset="0.75" style="stop-color:#ffef1c;stop-opacity:1"/><stop offset="0.9" style="stop-color:#ef7500;stop-opacity:1"/><stop offset="1" style="stop-color:#ff0404;stop-opacity:1"/></linearGradient></defs></svg>