<?xml version="1.0" encoding="UTF-8" standalone="no"?><!DOCTYPE svg PUBLIC "-//W3C//DTD SVG 1.1//EN" "http://www.w3.org/Graphics/SVG/1.1/DTD/svg11.dtd"><svg width="100%" height="100%" viewBox="0 0 752 272" version="1.1" xmlns="http://www.w3.org/2000/svg" xmlns:xlink="http://www.w3.org/1999/xlink" xml:space="preserve" style="fill-rule:evenodd;clip-rule:evenodd;stroke-linecap:square;stroke-miterlimit:1.5;"><path d="M749.93,141.365c0,-3.312 -1.316,-6.489 -3.658,-8.831c-2.342,-2.343 -5.519,-3.659 -8.832,-3.659c-89.602,0 -633.545,0 -723.147,0c-3.313,0 -6.49,1.316 -8.832,3.659c-2.342,2.342 -3.658,5.519 -3.658,8.831c0,0.001 0,0.003 0,0.004c0,3.312 1.316,6.489 3.658,8.831c2.342,2.343 5.519,3.659 8.832,3.659c89.602,0 633.545,0 723.147,0c3.313,0 6.49,-1.316 8.832,-3.659c2.342,-2.342 3.658,-5.519 3.658,-8.831c0,-0.001 0,-0.003 0,-0.004Z" style="fill:url(#_Linear1);stroke:#262626;stroke-width:2px;"/><g><path d="M91.474,233.837l0,-89.734" style="fill:none;stroke:#262626;stroke-width:2px;"/><circle cx="91.474" cy="140.345" r="3.758" style="fill:none;stroke:#262626;stroke-width:2px;"/></g><g><path d="M154.855,44.117l0,89.734" style="fill:none;stroke:#262626;stroke-width:2px;"/><circle cx="154.855" cy="137.609" r="3.758" style="fill:none;stroke:#262626;stroke-width:2px;"/></g><g><path d="M652.626,46.852l0,89.735" style="fill:none;stroke:#262626;stroke-width:2px;"/><circle cx="652.626" cy="140.345" r="3.758" style="fill:none;stroke:#262626;stroke-width:2px;"/></g><g><path d="M718.287,88.594l0,51.155" style="fill:none;stroke:#262626;stroke-width:2px;"/><circle cx="718.287" cy="143.506" r="3.758" style="fill:none;stroke:#262626;stroke-width:2px;"/></g><g><path d="M221.784,83.473l0,49.356" style="fill:none;stroke:#262626;stroke-width:2px;"/><circle cx="221.784" cy="136.587" r="3.758" style="fill:none;stroke:#262626;stroke-width:2px;"/></g><g><path d="M266.109,235.502l0,-89.735" style="fill:none;stroke:#262626;stroke-width:2px;"/><circle cx="266.109" cy="142.009" r="3.758" style="fill:none;stroke:#262626;stroke-width:2px;"/></g><g><path d="M348.361,192.6l0,-43.865" style="fill:none;stroke:#262626;stroke-width:2px;"/><circle cx="348.361" cy="144.977" r="3.758" style="fill:none;stroke:#262626;stroke-width:2px;"/></g><g><path d="M669.898,240.854l0,-89.735" style="fill:none;stroke:#262626;stroke-width:2px;"/><circle cx="669.898" cy="147.361" r="3.758" style="fill:none;stroke:#262626;stroke-width:2px;"/></g><g><path d="M429.396,218.306l0,-68.378" style="fill:none;stroke:#262626;stroke-width:2px;"/><circle cx="429.396" cy="146.17" r="3.758" style="fill:none;stroke:#262626;stroke-width:2px;"/></g><g><path d="M334.694,44.759l0,89.735" style="fill:none;stroke:#262626;stroke-width:2px;"/><circle cx="334.694" cy="138.251" r="3.758" style="fill:none;stroke:#262626;stroke-width:2px;"/></g><g><path d="M571.344,50.111l0,89.734" style="fill:none;stroke:#262626;stroke-width:2px;"/><circle cx="571.344" cy="143.603" r="3.758" style="fill:none;stroke:#262626;stroke-width:2px;"/></g><g><path d="M494.189,73.948l0,62.139" style="fill:none;stroke:#262626;stroke-width:2px;"/><circle cx="494.189" cy="139.845" r="3.758" style="fill:none;stroke:#262626;stroke-width:2px;"/></g><g id="Sass-ico"><circle cx="92.239" cy="242.939" r="28.501" style="fill:#de5078;"/><clipPath id="_clip2"><rect id="sass.-1" x="74.146" y="229.369" width="36.185" height="27.139"/></clipPath><g clip-path="url(#_clip2)"><path d="M105.285,244.96c-1.265,0.007 -2.361,0.311 -3.279,0.763c-0.34,-0.671 -0.679,-1.258 -0.735,-1.696c-0.064,-0.509 -0.142,-0.82 -0.064,-1.428c0.078,-0.607 0.431,-1.47 0.431,-1.54c-0.007,-0.064 -0.078,-0.375 -0.805,-0.382c-0.728,-0.007 -1.357,0.141 -1.428,0.332c-0.071,0.191 -0.212,0.629 -0.304,1.082c-0.127,0.664 -1.456,3.017 -2.212,4.254c-0.247,-0.481 -0.459,-0.905 -0.502,-1.244c-0.063,-0.509 -0.141,-0.82 -0.063,-1.427c0.077,-0.608 0.431,-1.47 0.431,-1.541c-0.007,-0.064 -0.078,-0.375 -0.806,-0.382c-0.728,-0.007 -1.357,0.142 -1.428,0.332c-0.07,0.191 -0.148,0.644 -0.303,1.082c-0.149,0.438 -1.916,4.367 -2.375,5.392c-0.233,0.523 -0.438,0.94 -0.587,1.223c-0.148,0.282 -0.007,0.021 -0.021,0.049c-0.127,0.241 -0.198,0.375 -0.198,0.375l0,0.007c-0.099,0.177 -0.205,0.346 -0.254,0.346c-0.036,0 -0.106,-0.473 0.014,-1.123c0.261,-1.365 0.897,-3.492 0.89,-3.569c0,-0.036 0.12,-0.41 -0.41,-0.601c-0.515,-0.191 -0.699,0.127 -0.742,0.127c-0.042,0 -0.077,0.113 -0.077,0.113c0,0 0.572,-2.396 -1.096,-2.396c-1.046,0 -2.488,1.138 -3.201,2.177c-0.453,0.247 -1.414,0.77 -2.431,1.329c-0.389,0.212 -0.792,0.438 -1.174,0.643l-0.077,-0.085c-2.022,-2.156 -5.76,-3.682 -5.605,-6.58c0.057,-1.053 0.424,-3.83 7.181,-7.194c5.533,-2.757 9.965,-2 10.735,-0.318c1.095,2.403 -2.368,6.869 -8.12,7.512c-2.191,0.248 -3.343,-0.6 -3.633,-0.919c-0.304,-0.332 -0.346,-0.346 -0.459,-0.282c-0.184,0.099 -0.071,0.396 0,0.572c0.169,0.446 0.876,1.237 2.077,1.633c1.053,0.346 3.626,0.537 6.736,-0.665c3.484,-1.349 6.205,-5.095 5.406,-8.226c-0.813,-3.187 -6.099,-4.233 -11.096,-2.459c-2.975,1.06 -6.198,2.714 -8.516,4.883c-2.756,2.573 -3.194,4.82 -3.01,5.753c0.643,3.329 5.229,5.498 7.067,7.103c-0.092,0.049 -0.177,0.099 -0.255,0.141c-0.918,0.452 -4.417,2.283 -5.293,4.219c-0.989,2.191 0.156,3.767 0.919,3.979c2.36,0.657 4.777,-0.523 6.085,-2.466c1.3,-1.944 1.145,-4.467 0.544,-5.619l-0.021,-0.042l0.721,-0.424c0.466,-0.276 0.925,-0.53 1.328,-0.75c-0.226,0.615 -0.389,1.343 -0.473,2.403c-0.099,1.244 0.41,2.856 1.081,3.492c0.297,0.275 0.65,0.282 0.869,0.282c0.778,0 1.131,-0.643 1.52,-1.413c0.48,-0.94 0.904,-2.028 0.904,-2.028c0,0 -0.53,2.947 0.919,2.947c0.53,0 1.06,-0.686 1.301,-1.039l0,0.007c0,0 0.014,-0.021 0.042,-0.071c0.03,-0.044 0.058,-0.089 0.085,-0.134l0,-0.014c0.212,-0.368 0.685,-1.209 1.392,-2.601c0.912,-1.795 1.788,-4.043 1.788,-4.043c0,0 0.085,0.552 0.346,1.456c0.156,0.538 0.495,1.124 0.757,1.696c-0.212,0.297 -0.34,0.467 -0.34,0.467l0.007,0.007c-0.169,0.226 -0.36,0.467 -0.558,0.707c-0.721,0.862 -1.583,1.844 -1.696,2.127c-0.134,0.332 -0.106,0.58 0.155,0.778c0.191,0.141 0.53,0.169 0.891,0.141c0.65,-0.043 1.102,-0.205 1.329,-0.304c0.353,-0.127 0.756,-0.318 1.144,-0.601c0.707,-0.523 1.138,-1.265 1.096,-2.254c-0.021,-0.544 -0.198,-1.082 -0.417,-1.59c0.064,-0.092 0.127,-0.184 0.191,-0.283c1.116,-1.633 1.979,-3.428 1.979,-3.428c0,0 0.084,0.552 0.346,1.456c0.134,0.46 0.403,0.961 0.643,1.456c-1.046,0.855 -1.703,1.845 -1.929,2.495c-0.417,1.201 -0.092,1.746 0.523,1.873c0.275,0.056 0.671,-0.071 0.968,-0.198c0.367,-0.12 0.813,-0.325 1.223,-0.629c0.706,-0.523 1.385,-1.251 1.349,-2.233c-0.021,-0.453 -0.141,-0.898 -0.304,-1.322c0.891,-0.368 2.043,-0.58 3.506,-0.403c3.145,0.368 3.767,2.332 3.647,3.152c-0.12,0.82 -0.778,1.272 -0.997,1.414c-0.219,0.134 -0.29,0.183 -0.268,0.282c0.028,0.149 0.127,0.142 0.318,0.113c0.261,-0.042 1.653,-0.671 1.71,-2.183c0.085,-1.944 -1.76,-4.064 -5.032,-4.043l0,0Zm-24.255,8.177c-1.039,1.138 -2.502,1.569 -3.124,1.201c-0.671,-0.388 -0.41,-2.063 0.869,-3.272c0.778,-0.735 1.788,-1.413 2.453,-1.83c0.148,-0.092 0.374,-0.226 0.643,-0.389c0.042,-0.028 0.071,-0.043 0.071,-0.043c0.049,-0.028 0.106,-0.063 0.162,-0.098c0.474,1.724 0.021,3.236 -1.074,4.431l0,0Zm7.597,-5.166c-0.36,0.883 -1.123,3.152 -1.583,3.024c-0.396,-0.106 -0.636,-1.823 -0.078,-3.519c0.283,-0.855 0.884,-1.873 1.237,-2.269c0.573,-0.636 1.195,-0.848 1.35,-0.586c0.184,0.339 -0.7,2.798 -0.926,3.35Zm6.269,2.996c-0.156,0.078 -0.297,0.134 -0.36,0.092c-0.05,-0.028 0.063,-0.134 0.063,-0.134c0,0 0.785,-0.841 1.096,-1.23c0.176,-0.226 0.388,-0.488 0.614,-0.784l0,0.084c0,1.018 -0.975,1.696 -1.413,1.972Zm4.834,-1.102c-0.113,-0.085 -0.099,-0.347 0.283,-1.167c0.148,-0.325 0.487,-0.869 1.074,-1.385c0.071,0.212 0.113,0.417 0.106,0.608c-0.007,1.272 -0.912,1.746 -1.463,1.944Z" style="fill:#fff;fill-rule:nonzero;"/></g></g><g id="html5-ico"><circle cx="652.626" cy="39.969" r="39.969" style="fill:#f47944;"/><clipPath id="_clip3"><rect x="652.626" y="-13.266" width="56.109" height="115.219"/></clipPath><g clip-path="url(#_clip3)"><circle cx="652.626" cy="39.969" r="39.969" style="fill:#f16529;"/></g><path d="M669.19,27.239l0.688,-6.881l-34.504,0l1.77,20.839l23.69,0l-0.688,8.946l-7.735,2.064l-7.501,-2.064l-0.689,-5.603l-7.077,0l1.081,10.911l14.186,4.129l14.026,-4.129l2.064,-21.135l-24.968,0l-0.912,-7.077l26.569,0Z" style="fill:#ebebeb;"/></g><g id="css-ico"><circle cx="334.694" cy="56.367" r="26.329" style="fill:#40b1e0;"/><clipPath id="_clip4"><rect x="334.694" y="21.3" width="36.961" height="75.898"/></clipPath><g clip-path="url(#_clip4)"><circle cx="334.694" cy="56.367" r="26.329" style="fill:#2aa9e0;"/></g><path d="M322.98,43.832l23.427,0l-0.328,4.633l-9.496,4.239l9.134,0l-1.051,13.603l-9.66,2.596l-9.825,-2.596l-0.591,-6.67l4.304,0l0.394,3.647l5.718,1.084l5.191,-1.708l0.329,-5.619l-16.232,0l-0.427,-4.337l10.58,-4.765l-11.139,0l-0.328,-4.107Z" style="fill:#ebebeb;"/></g><g id="rwd-ico"><circle cx="429.396" cy="213.939" r="24.678" style="fill:#6ec9c2;"/><clipPath id="_clip5"><rect x="429.396" y="181.07" width="34.644" height="71.14"/></clipPath><g clip-path="url(#_clip5)"><circle cx="429.396" cy="213.939" r="24.678" style="fill:#2ebfb4;"/></g><path d="M439.47,215.38l-2.858,0l2.048,9.383l-5.715,1.715l-1.858,-11.098l-7.287,0l1.62,11.098l-5.239,-1.715l-2.144,-23.362l22.719,0l-1.286,13.979Zm-3.207,-9.402l-12.876,0l0,4.455l12.323,0l0.553,-4.455Z" style="fill:#fff;stroke:#000;stroke-opacity:0;stroke-width:0.03px;stroke-linecap:round;stroke-linejoin:round;"/></g><g id="js-ico"><ellipse cx="571.344" cy="71.305" rx="31.122" ry="31.336" style="fill:#f0db4f;"/><text x="550.756px" y="83.231px" style="font-family:'Arial-BoldMT', 'Arial', sans-serif;font-weight:700;font-size:33.343px;fill:#3f3023;">J<tspan x="569.173px " y="83.231px ">S</tspan></text></g><g id="bootstrap-ico"><circle cx="154.855" cy="55.725" r="19.519" style="fill:#9353be;"/><text x="145.701px" y="64.508px" style="font-family:'Arial-BoldMT', 'Arial', sans-serif;font-weight:700;font-size:24.538px;fill:#fff;">B</text></g><g id="ps-ico"><g><circle cx="266.109" cy="226.788" r="24.296" style="fill:#31334b;"/><path d="M266.266,202.493l0.157,0.001l0.156,0.003l0.157,0.003l0.156,0.005l0.156,0.005l0.155,0.007l0.155,0.007l0.155,0.008l0.155,0.01l0.155,0.01l0.154,0.011l0.154,0.012l0.154,0.014l0.153,0.014l0.154,0.015l0.153,0.016l0.152,0.017l0.152,0.018l0.153,0.019l0.151,0.02l0.152,0.02l0.151,0.022l0.151,0.023l0.15,0.023l0.151,0.024l0.15,0.026l0.149,0.026l0.15,0.027l0.149,0.028l0.148,0.029l0.149,0.03l0.148,0.031l0.148,0.032l0.147,0.032l0.147,0.034l0.147,0.034l0.146,0.036l0.146,0.036l0.146,0.037l0.145,0.038l0.145,0.038l0.145,0.04l0.144,0.041l0.144,0.041l0.143,0.042l0.144,0.043l0.142,0.044l0.143,0.045l0.142,0.046l0.142,0.046l0.141,0.048l0.141,0.048l0.14,0.049l0.14,0.05l0.14,0.051l0.139,0.051l0.139,0.053l0.139,0.053l0.138,0.054l0.138,0.055l0.137,0.055l0.137,0.057l0.136,0.057l0.136,0.058l0.136,0.059l0.135,0.059l0.135,0.061l0.134,0.061l0.134,0.062l0.133,0.063l0.133,0.064l0.133,0.064l0.132,0.065l0.132,0.066l0.131,0.067l0.13,0.067l0.131,0.069l0.129,0.069l0.13,0.07l0.129,0.07l0.128,0.071l0.128,0.072l0.127,0.073l0.127,0.074l0.127,0.074l0.126,0.075l0.125,0.076l0.125,0.076l0.125,0.078l0.124,0.077l0.123,0.079l0.123,0.08l0.123,0.08l0.122,0.081l0.121,0.081l0.121,0.082l0.12,0.083l0.12,0.084l0.12,0.084l0.118,0.085l0.119,0.086l0.117,0.087l0.118,0.087l0.116,0.088l0.116,0.088l0.116,0.089l0.115,0.09l0.115,0.091l0.113,0.091l0.114,0.092l0.113,0.092l0.112,0.093l0.112,0.094l0.111,0.095l0.11,0.095l0.11,0.096l0.109,0.096l0.109,0.097l0.108,0.098l0.108,0.098l0.107,0.1l0.106,0.099l0.106,0.1l0.105,0.101l0.105,0.102l0.104,0.102l0.103,0.103l0.103,0.103l0.102,0.104l0.102,0.105l0.101,0.105l0.1,0.106l0.1,0.106l0.099,0.107l0.098,0.108l0.098,0.108l0.097,0.109l0.096,0.109l0.096,0.11l0.095,0.111l0.095,0.111l0.094,0.111l0.093,0.113l0.092,0.112l0.092,0.114l0.092,0.114l0.09,0.114l0.09,0.115l0.089,0.116l0.089,0.116l0.087,0.116l0.088,0.118l0.086,0.117l0.086,0.119l0.085,0.119l0.084,0.119l0.084,0.12l0.083,0.12l0.082,0.121l0.082,0.122l0.08,0.121l0.081,0.123l0.079,0.123l0.079,0.123l0.078,0.124l0.077,0.125l0.076,0.125l0.076,0.125l0.075,0.126l0.074,0.127l0.074,0.127l0.073,0.127l0.072,0.128l0.071,0.128l0.071,0.129l0.069,0.13l0.069,0.129l0.069,0.131l0.067,0.13l0.067,0.132l0.066,0.131l0.065,0.132l0.064,0.133l0.064,0.133l0.063,0.133l0.062,0.134l0.061,0.134l0.061,0.135l0.059,0.135l0.059,0.136l0.058,0.136l0.057,0.136l0.057,0.137l0.056,0.138l0.054,0.137l0.054,0.138l0.054,0.139l0.052,0.139l0.052,0.139l0.05,0.14l0.05,0.14l0.049,0.14l0.048,0.141l0.048,0.142l0.046,0.141l0.046,0.142l0.045,0.143l0.044,0.142l0.043,0.144l0.042,0.143l0.041,0.144l0.041,0.144l0.04,0.145l0.038,0.145l0.038,0.145l0.037,0.146l0.037,0.146l0.035,0.146l0.034,0.147l0.034,0.147l0.032,0.148l0.032,0.147l0.031,0.148l0.03,0.149l0.029,0.148l0.028,0.149l0.027,0.15l0.026,0.149l0.026,0.15l0.024,0.151l0.024,0.15l0.022,0.151l0.022,0.151l0.021,0.152l0.019,0.152l0.019,0.152l0.018,0.152l0.017,0.153l0.016,0.153l0.015,0.153l0.014,0.153l0.014,0.154l0.012,0.154l0.011,0.154l0.01,0.155l0.01,0.155l0.008,0.155l0.008,0.155l0.006,0.156l0.005,0.155l0.005,0.157l0.003,0.156l0.003,0.156l0.001,0.157l0.001,0.157l-0.001,0.157l-0.001,0.157l-0.003,0.157l-0.003,0.156l-0.005,0.156l-0.005,0.156l-0.006,0.155l-0.008,0.156l-0.008,0.155l-0.01,0.155l-0.01,0.154l-0.011,0.154l-0.012,0.154l-0.014,0.154l-0.014,0.154l-0.015,0.153l-0.016,0.153l-0.017,0.152l-0.018,0.153l-0.019,0.152l-0.019,0.152l-0.021,0.151l-0.022,0.151l-0.022,0.151l-0.024,0.151l-0.024,0.15l-0.026,0.15l-0.026,0.15l-0.027,0.149l-0.028,0.149l-0.029,0.149l-0.03,0.148l-0.031,0.148l-0.032,0.148l-0.032,0.147l-0.034,0.147l-0.034,0.147l-0.035,0.146l-0.037,0.146l-0.037,0.146l-0.038,0.145l-0.038,0.145l-0.04,0.145l-0.041,0.144l-0.041,0.144l-0.042,0.144l-0.043,0.143l-0.044,0.143l-0.045,0.142l-0.046,0.142l-0.046,0.142l-0.048,0.141l-0.048,0.141l-0.049,0.14l-0.05,0.141l-0.05,0.139l-0.052,0.14l-0.052,0.139l-0.054,0.138l-0.054,0.138l-0.054,0.138l-0.056,0.137l-0.057,0.137l-0.057,0.136l-0.058,0.136l-0.059,0.136l-0.059,0.135l-0.061,0.135l-0.061,0.134l-0.062,0.134l-0.063,0.134l-0.064,0.133l-0.064,0.132l-0.065,0.132l-0.066,0.132l-0.067,0.131l-0.067,0.131l-0.069,0.13l-0.069,0.13l-0.069,0.129l-0.071,0.129l-0.071,0.128l-0.072,0.128l-0.073,0.128l-0.074,0.127l-0.074,0.126l-0.075,0.126l-0.076,0.125l-0.076,0.125l-0.077,0.125l-0.078,0.124l-0.079,0.123l-0.079,0.123l-0.081,0.123l-0.08,0.122l-0.082,0.121l-0.082,0.121l-0.083,0.121l-0.084,0.119l-0.084,0.12l-0.085,0.119l-0.086,0.118l-0.086,0.118l-0.088,0.117l-0.087,0.117l-0.089,0.116l-0.089,0.115l-0.09,0.115l-0.09,0.115l-0.092,0.114l-0.092,0.113l-0.092,0.113l-0.093,0.112l-0.094,0.112l-0.095,0.111l-0.095,0.11l-0.096,0.11l-0.096,0.11l-0.097,0.108l-0.098,0.109l-0.098,0.107l-0.099,0.107l-0.1,0.107l-0.1,0.105l-0.101,0.106l-0.102,0.104l-0.102,0.104l-0.103,0.104l-0.103,0.102l-0.104,0.102l-0.105,0.102l-0.105,0.101l-0.106,0.1l-0.106,0.1l-0.107,0.099l-0.108,0.098l-0.108,0.098l-0.109,0.097l-0.109,0.097l-0.11,0.095l-0.11,0.096l-0.111,0.094l-0.112,0.094l-0.112,0.093l-0.113,0.093l-0.114,0.092l-0.113,0.091l-0.115,0.09l-0.115,0.09l-0.116,0.089l-0.116,0.089l-0.116,0.088l-0.118,0.087l-0.117,0.086l-0.119,0.086l-0.118,0.085l-0.12,0.084l-0.12,0.084l-0.12,0.083l-0.121,0.082l-0.121,0.082l-0.122,0.081l-0.123,0.08l-0.123,0.079l-0.123,0.079l-0.124,0.078l-0.125,0.077l-0.125,0.077l-0.125,0.075l-0.126,0.075l-0.127,0.075l-0.127,0.073l-0.127,0.073l-0.128,0.072l-0.128,0.071l-0.129,0.071l-0.13,0.07l-0.129,0.069l-0.131,0.068l-0.13,0.067l-0.131,0.067l-0.132,0.066l-0.132,0.065l-0.133,0.065l-0.133,0.063l-0.133,0.063l-0.134,0.062l-0.134,0.061l-0.135,0.061l-0.135,0.06l-0.136,0.058l-0.136,0.058l-0.136,0.058l-0.137,0.056l-0.137,0.056l-0.138,0.055l-0.138,0.054l-0.139,0.053l-0.139,0.052l-0.139,0.052l-0.14,0.05l-0.14,0.05l-0.14,0.049l-0.141,0.049l-0.141,0.047l-0.142,0.046l-0.142,0.046l-0.143,0.045l-0.142,0.044l-0.144,0.043l-0.143,0.042l-0.144,0.042l-0.144,0.04l-0.145,0.04l-0.145,0.039l-0.145,0.038l-0.146,0.037l-0.146,0.036l-0.146,0.035l-0.147,0.034l-0.147,0.034l-0.147,0.033l-0.148,0.031l-0.148,0.031l-0.149,0.03l-0.148,0.029l-0.149,0.028l-0.15,0.027l-0.149,0.027l-0.15,0.025l-0.151,0.024l-0.15,0.024l-0.151,0.022l-0.151,0.022l-0.152,0.021l-0.151,0.02l-0.153,0.019l-0.152,0.017l-0.152,0.017l-0.153,0.016l-0.154,0.016l-0.153,0.014l-0.154,0.013l-0.154,0.012l-0.154,0.011l-0.155,0.011l-0.155,0.009l-0.155,0.008l-0.155,0.008l-0.155,0.006l-0.156,0.006l-0.156,0.004l-0.157,0.004l-0.156,0.002l-0.157,0.002l-0.157,0l-0.157,0l-0.157,-0.002l-0.156,-0.002l-0.157,-0.004l-0.156,-0.004l-0.156,-0.006l-0.155,-0.006l-0.156,-0.008l-0.155,-0.008l-0.154,-0.009l-0.155,-0.011l-0.154,-0.011l-0.154,-0.012l-0.154,-0.013l-0.153,-0.014l-0.154,-0.016l-0.153,-0.016l-0.152,-0.017l-0.153,-0.017l-0.152,-0.019l-0.151,-0.02l-0.152,-0.021l-0.151,-0.022l-0.151,-0.022l-0.151,-0.024l-0.15,-0.024l-0.15,-0.025l-0.149,-0.027l-0.15,-0.027l-0.149,-0.028l-0.149,-0.029l-0.148,-0.03l-0.148,-0.031l-0.148,-0.031l-0.147,-0.033l-0.147,-0.034l-0.147,-0.034l-0.146,-0.035l-0.146,-0.036l-0.146,-0.037l-0.145,-0.038l-0.145,-0.039l-0.145,-0.04l-0.144,-0.04l-0.144,-0.042l-0.144,-0.042l-0.143,-0.043l-0.143,-0.044l-0.142,-0.045l-0.142,-0.046l-0.142,-0.046l-0.141,-0.047l-0.141,-0.049l-0.14,-0.049l-0.14,-0.05l-0.14,-0.05l-0.139,-0.052l-0.139,-0.052l-0.139,-0.053l-0.138,-0.054l-0.138,-0.055l-0.137,-0.056l-0.137,-0.056l-0.136,-0.058l-0.136,-0.058l-0.136,-0.058l-0.135,-0.06l-0.135,-0.061l-0.134,-0.061l-0.134,-0.062l-0.133,-0.063l-0.133,-0.063l-0.133,-0.065l-0.132,-0.065l-0.132,-0.066l-0.131,-0.067l-0.131,-0.067l-0.13,-0.068l-0.13,-0.069l-0.129,-0.07l-0.129,-0.071l-0.128,-0.071l-0.128,-0.072l-0.127,-0.073l-0.127,-0.073l-0.127,-0.075l-0.126,-0.075l-0.125,-0.075l-0.125,-0.077l-0.125,-0.077l-0.124,-0.078l-0.123,-0.079l-0.123,-0.079l-0.123,-0.08l-0.122,-0.081l-0.121,-0.082l-0.121,-0.082l-0.12,-0.083l-0.12,-0.084l-0.12,-0.084l-0.119,-0.085l-0.118,-0.086l-0.118,-0.086l-0.117,-0.087l-0.116,-0.088l-0.117,-0.089l-0.115,-0.089l-0.115,-0.09l-0.115,-0.09l-0.114,-0.091l-0.113,-0.092l-0.113,-0.093l-0.112,-0.093l-0.112,-0.094l-0.111,-0.094l-0.11,-0.096l-0.11,-0.095l-0.109,-0.097l-0.109,-0.097l-0.108,-0.098l-0.108,-0.098l-0.107,-0.099l-0.106,-0.1l-0.106,-0.1l-0.105,-0.101l-0.105,-0.102l-0.104,-0.102l-0.103,-0.102l-0.103,-0.104l-0.102,-0.104l-0.102,-0.104l-0.101,-0.106l-0.1,-0.105l-0.1,-0.107l-0.099,-0.107l-0.098,-0.107l-0.098,-0.109l-0.097,-0.108l-0.096,-0.11l-0.096,-0.11l-0.095,-0.11l-0.095,-0.111l-0.094,-0.112l-0.093,-0.112l-0.093,-0.113l-0.091,-0.113l-0.092,-0.114l-0.09,-0.115l-0.09,-0.115l-0.089,-0.115l-0.089,-0.116l-0.088,-0.117l-0.087,-0.117l-0.086,-0.118l-0.086,-0.118l-0.085,-0.119l-0.084,-0.12l-0.084,-0.119l-0.083,-0.121l-0.082,-0.121l-0.082,-0.121l-0.081,-0.122l-0.08,-0.123l-0.079,-0.123l-0.079,-0.123l-0.078,-0.124l-0.077,-0.125l-0.076,-0.125l-0.076,-0.125l-0.075,-0.126l-0.074,-0.126l-0.074,-0.127l-0.073,-0.128l-0.072,-0.128l-0.071,-0.128l-0.071,-0.129l-0.069,-0.129l-0.07,-0.13l-0.068,-0.13l-0.067,-0.131l-0.067,-0.131l-0.066,-0.132l-0.065,-0.132l-0.065,-0.132l-0.063,-0.133l-0.063,-0.134l-0.062,-0.134l-0.061,-0.134l-0.061,-0.135l-0.059,-0.135l-0.059,-0.136l-0.058,-0.136l-0.058,-0.136l-0.056,-0.137l-0.056,-0.137l-0.055,-0.138l-0.054,-0.138l-0.053,-0.138l-0.052,-0.139l-0.052,-0.14l-0.05,-0.139l-0.05,-0.141l-0.049,-0.14l-0.048,-0.141l-0.048,-0.141l-0.046,-0.142l-0.046,-0.142l-0.045,-0.142l-0.044,-0.143l-0.043,-0.143l-0.042,-0.144l-0.042,-0.144l-0.04,-0.144l-0.04,-0.145l-0.039,-0.145l-0.037,-0.145l-0.037,-0.146l-0.037,-0.146l-0.035,-0.146l-0.034,-0.147l-0.034,-0.147l-0.032,-0.147l-0.032,-0.148l-0.031,-0.148l-0.03,-0.148l-0.029,-0.149l-0.028,-0.149l-0.027,-0.149l-0.026,-0.15l-0.026,-0.15l-0.024,-0.15l-0.024,-0.151l-0.022,-0.151l-0.022,-0.151l-0.021,-0.151l-0.02,-0.152l-0.018,-0.152l-0.018,-0.153l-0.017,-0.152l-0.016,-0.153l-0.015,-0.153l-0.015,-0.154l-0.013,-0.154l-0.012,-0.154l-0.011,-0.154l-0.011,-0.154l-0.009,-0.155l-0.008,-0.155l-0.008,-0.156l-0.006,-0.155l-0.005,-0.156l-0.005,-0.156l-0.003,-0.156l-0.003,-0.157l-0.001,-0.157l-0.001,-0.157l0.001,-0.157l0.001,-0.157l0.003,-0.156l0.003,-0.156l0.005,-0.157l0.005,-0.155l0.006,-0.156l0.008,-0.155l0.008,-0.155l0.009,-0.155l0.011,-0.155l0.011,-0.154l0.012,-0.154l0.013,-0.154l0.015,-0.153l0.015,-0.153l0.016,-0.153l0.017,-0.153l0.018,-0.152l0.018,-0.152l0.02,-0.152l0.021,-0.152l0.022,-0.151l0.022,-0.151l0.024,-0.15l0.024,-0.151l0.026,-0.15l0.026,-0.149l0.027,-0.15l0.028,-0.149l0.029,-0.148l0.03,-0.149l0.031,-0.148l0.032,-0.147l0.032,-0.148l0.034,-0.147l0.034,-0.147l0.035,-0.146l0.037,-0.146l0.037,-0.146l0.037,-0.145l0.039,-0.145l0.04,-0.145l0.04,-0.144l0.042,-0.144l0.042,-0.143l0.043,-0.144l0.044,-0.142l0.045,-0.143l0.046,-0.142l0.046,-0.141l0.048,-0.142l0.048,-0.141l0.049,-0.14l0.05,-0.14l0.05,-0.14l0.052,-0.139l0.052,-0.139l0.053,-0.139l0.054,-0.138l0.055,-0.137l0.056,-0.138l0.056,-0.137l0.058,-0.136l0.058,-0.136l0.059,-0.136l0.059,-0.135l0.061,-0.135l0.061,-0.134l0.062,-0.134l0.063,-0.133l0.063,-0.133l0.065,-0.133l0.065,-0.132l0.066,-0.131l0.067,-0.132l0.067,-0.13l0.068,-0.131l0.07,-0.129l0.069,-0.13l0.071,-0.129l0.071,-0.128l0.072,-0.128l0.073,-0.127l0.074,-0.127l0.074,-0.127l0.075,-0.126l0.076,-0.125l0.076,-0.125l0.077,-0.125l0.078,-0.124l0.079,-0.123l0.079,-0.123l0.08,-0.123l0.081,-0.121l0.082,-0.122l0.082,-0.121l0.083,-0.12l0.084,-0.12l0.084,-0.119l0.085,-0.119l0.086,-0.119l0.086,-0.117l0.087,-0.118l0.088,-0.116l0.089,-0.116l0.089,-0.116l0.09,-0.115l0.09,-0.114l0.092,-0.114l0.091,-0.114l0.093,-0.112l0.093,-0.113l0.094,-0.111l0.095,-0.111l0.095,-0.111l0.096,-0.11l0.096,-0.109l0.097,-0.109l0.098,-0.108l0.098,-0.108l0.099,-0.107l0.1,-0.106l0.1,-0.106l0.101,-0.105l0.102,-0.105l0.102,-0.104l0.103,-0.103l0.103,-0.103l0.104,-0.102l0.105,-0.102l0.105,-0.101l0.106,-0.1l0.106,-0.099l0.107,-0.1l0.108,-0.098l0.108,-0.098l0.109,-0.097l0.109,-0.096l0.11,-0.096l0.11,-0.095l0.111,-0.095l0.112,-0.094l0.112,-0.093l0.113,-0.092l0.113,-0.092l0.114,-0.091l0.115,-0.091l0.115,-0.09l0.115,-0.089l0.117,-0.088l0.116,-0.088l0.117,-0.087l0.118,-0.087l0.118,-0.086l0.119,-0.085l0.12,-0.084l0.12,-0.084l0.12,-0.083l0.121,-0.082l0.121,-0.081l0.122,-0.081l0.123,-0.08l0.123,-0.08l0.123,-0.079l0.124,-0.077l0.125,-0.078l0.125,-0.076l0.125,-0.076l0.126,-0.075l0.127,-0.074l0.127,-0.074l0.127,-0.073l0.128,-0.072l0.128,-0.071l0.129,-0.07l0.129,-0.07l0.13,-0.069l0.13,-0.069l0.131,-0.067l0.131,-0.067l0.132,-0.066l0.132,-0.065l0.133,-0.064l0.133,-0.064l0.133,-0.063l0.134,-0.062l0.134,-0.061l0.135,-0.061l0.135,-0.059l0.136,-0.059l0.136,-0.058l0.136,-0.057l0.137,-0.057l0.137,-0.055l0.138,-0.055l0.138,-0.054l0.139,-0.053l0.139,-0.053l0.139,-0.051l0.14,-0.051l0.14,-0.05l0.14,-0.049l0.141,-0.048l0.141,-0.048l0.142,-0.046l0.142,-0.046l0.142,-0.045l0.143,-0.044l0.143,-0.043l0.144,-0.042l0.144,-0.041l0.144,-0.041l0.145,-0.04l0.145,-0.038l0.145,-0.038l0.146,-0.037l0.146,-0.036l0.146,-0.036l0.147,-0.034l0.147,-0.034l0.147,-0.032l0.148,-0.032l0.148,-0.031l0.148,-0.03l0.149,-0.029l0.149,-0.028l0.15,-0.027l0.149,-0.026l0.15,-0.026l0.15,-0.024l0.151,-0.023l0.151,-0.023l0.151,-0.022l0.152,-0.02l0.151,-0.02l0.152,-0.019l0.153,-0.018l0.152,-0.017l0.153,-0.016l0.154,-0.015l0.153,-0.014l0.154,-0.014l0.154,-0.012l0.154,-0.011l0.155,-0.01l0.154,-0.01l0.155,-0.008l0.156,-0.007l0.155,-0.007l0.156,-0.005l0.156,-0.005l0.157,-0.003l0.156,-0.003l0.157,-0.001l0.157,-0.001l0.157,0.001Zm-0.295,3l-0.138,0.001l-0.138,0.002l-0.135,0.003l-0.139,0.004l-0.137,0.005l-0.136,0.006l-0.138,0.006l-0.134,0.007l-0.135,0.009l-0.137,0.009l-0.136,0.01l-0.135,0.01l-0.134,0.012l-0.134,0.012l-0.135,0.014l-0.135,0.014l-0.133,0.014l-0.134,0.016l-0.132,0.017l-0.134,0.017l-0.133,0.018l-0.131,0.019l-0.133,0.02l-0.132,0.021l-0.132,0.021l-0.131,0.022l-0.132,0.023l-0.13,0.024l-0.131,0.025l-0.13,0.025l-0.13,0.026l-0.129,0.027l-0.129,0.028l-0.13,0.029l-0.129,0.029l-0.128,0.03l-0.129,0.031l-0.127,0.032l-0.127,0.032l-0.128,0.033l-0.128,0.034l-0.126,0.035l-0.125,0.035l-0.127,0.037l-0.126,0.037l-0.125,0.038l-0.124,0.038l-0.125,0.039l-0.125,0.04l-0.123,0.04l-0.125,0.042l-0.124,0.043l-0.123,0.043l-0.122,0.043l-0.121,0.044l-0.122,0.045l-0.123,0.047l-0.121,0.046l-0.12,0.047l-0.122,0.049l-0.12,0.048l-0.119,0.049l-0.121,0.051l-0.118,0.05l-0.118,0.052l-0.119,0.052l-0.119,0.054l-0.117,0.053l-0.116,0.054l-0.118,0.055l-0.117,0.056l-0.116,0.057l-0.116,0.057l-0.114,0.057l-0.115,0.059l-0.115,0.059l-0.114,0.06l-0.114,0.06l-0.112,0.061l-0.114,0.062l-0.113,0.063l-0.112,0.063l-0.112,0.064l-0.111,0.064l-0.11,0.065l-0.111,0.066l-0.111,0.067l-0.108,0.066l-0.11,0.068l-0.109,0.069l-0.108,0.068l-0.107,0.07l-0.108,0.07l-0.107,0.071l-0.106,0.071l-0.106,0.073l-0.106,0.073l-0.105,0.073l-0.104,0.074l-0.105,0.074l-0.104,0.076l-0.103,0.076l-0.103,0.076l-0.102,0.077l-0.102,0.078l-0.102,0.078l-0.1,0.079l-0.1,0.079l-0.1,0.08l-0.1,0.081l-0.099,0.081l-0.098,0.082l-0.098,0.082l-0.098,0.083l-0.097,0.084l-0.096,0.083l-0.096,0.085l-0.096,0.085l-0.094,0.086l-0.095,0.086l-0.094,0.087l-0.094,0.088l-0.092,0.088l-0.092,0.088l-0.092,0.09l-0.092,0.089l-0.09,0.09l-0.09,0.09l-0.09,0.092l-0.09,0.093l-0.088,0.092l-0.087,0.092l-0.087,0.093l-0.088,0.094l-0.086,0.095l-0.086,0.094l-0.085,0.096l-0.085,0.096l-0.083,0.096l-0.084,0.098l-0.083,0.097l-0.082,0.098l-0.083,0.099l-0.081,0.098l-0.08,0.099l-0.08,0.101l-0.079,0.1l-0.079,0.101l-0.079,0.101l-0.077,0.102l-0.077,0.102l-0.077,0.104l-0.076,0.103l-0.074,0.103l-0.075,0.104l-0.075,0.106l-0.073,0.105l-0.073,0.105l-0.072,0.106l-0.071,0.106l-0.071,0.107l-0.07,0.107l-0.07,0.109l-0.069,0.108l-0.068,0.109l-0.068,0.109l-0.067,0.109l-0.066,0.11l-0.066,0.111l-0.065,0.11l-0.065,0.112l-0.063,0.111l-0.063,0.112l-0.063,0.113l-0.062,0.113l-0.061,0.113l-0.06,0.114l-0.06,0.114l-0.059,0.115l-0.059,0.115l-0.058,0.115l-0.057,0.116l-0.056,0.115l-0.056,0.117l-0.055,0.117l-0.054,0.117l-0.054,0.118l-0.053,0.118l-0.052,0.119l-0.052,0.118l-0.051,0.12l-0.05,0.119l-0.049,0.119l-0.049,0.121l-0.048,0.121l-0.047,0.12l-0.047,0.122l-0.046,0.121l-0.045,0.122l-0.044,0.123l-0.044,0.122l-0.043,0.123l-0.042,0.123l-0.041,0.124l-0.041,0.125l-0.04,0.124l-0.039,0.125l-0.039,0.124l-0.038,0.126l-0.037,0.126l-0.036,0.125l-0.035,0.127l-0.035,0.127l-0.034,0.126l-0.033,0.127l-0.033,0.128l-0.031,0.128l-0.031,0.128l-0.03,0.128l-0.03,0.129l-0.028,0.129l-0.028,0.13l-0.027,0.129l-0.026,0.13l-0.026,0.131l-0.024,0.13l-0.024,0.131l-0.023,0.131l-0.022,0.131l-0.022,0.132l-0.02,0.132l-0.02,0.132l-0.019,0.133l-0.018,0.132l-0.018,0.134l-0.016,0.133l-0.016,0.133l-0.015,0.134l-0.014,0.134l-0.013,0.135l-0.012,0.134l-0.012,0.135l-0.011,0.135l-0.01,0.135l-0.009,0.136l-0.008,0.136l-0.007,0.136l-0.007,0.136l-0.005,0.137l-0.005,0.137l-0.004,0.137l-0.003,0.137l-0.002,0.137l-0.001,0.138l-0.001,0.138l0.001,0.138l0.001,0.138l0.002,0.137l0.003,0.138l0.004,0.137l0.005,0.137l0.005,0.136l0.007,0.137l0.007,0.135l0.008,0.137l0.009,0.135l0.01,0.135l0.011,0.136l0.012,0.135l0.012,0.134l0.013,0.134l0.014,0.134l0.015,0.134l0.016,0.134l0.016,0.133l0.018,0.133l0.018,0.133l0.019,0.132l0.02,0.132l0.02,0.132l0.022,0.133l0.022,0.13l0.023,0.131l0.024,0.132l0.024,0.13l0.026,0.13l0.026,0.13l0.027,0.129l0.028,0.13l0.028,0.129l0.03,0.129l0.03,0.129l0.031,0.127l0.031,0.128l0.033,0.128l0.033,0.127l0.034,0.127l0.035,0.127l0.035,0.126l0.036,0.126l0.037,0.126l0.038,0.125l0.039,0.125l0.039,0.124l0.04,0.125l0.041,0.124l0.041,0.124l0.042,0.123l0.043,0.123l0.044,0.123l0.044,0.122l0.045,0.122l0.046,0.122l0.047,0.121l0.047,0.121l0.048,0.12l0.049,0.121l0.049,0.119l0.05,0.12l0.051,0.119l0.052,0.119l0.052,0.118l0.053,0.119l0.054,0.117l0.054,0.117l0.055,0.117l0.056,0.117l0.056,0.115l0.057,0.116l0.058,0.116l0.059,0.115l0.059,0.114l0.06,0.115l0.06,0.113l0.061,0.113l0.062,0.113l0.063,0.113l0.063,0.112l0.063,0.111l0.065,0.112l0.065,0.111l0.066,0.11l0.066,0.11l0.067,0.109l0.068,0.109l0.068,0.11l0.069,0.108l0.07,0.108l0.07,0.107l0.071,0.107l0.071,0.106l0.072,0.106l0.073,0.106l0.073,0.105l0.075,0.105l0.075,0.105l0.074,0.102l0.076,0.104l0.077,0.103l0.077,0.102l0.077,0.102l0.079,0.102l0.079,0.101l0.079,0.1l0.079,0.099l0.081,0.1l0.082,0.099l0.082,0.099l0.082,0.097l0.083,0.098l0.084,0.097l0.083,0.096l0.085,0.096l0.085,0.096l0.086,0.095l0.086,0.094l0.088,0.095l0.087,0.093l0.087,0.092l0.088,0.092l0.09,0.093l0.09,0.091l0.09,0.09l0.09,0.09l0.092,0.09l0.091,0.089l0.093,0.089l0.093,0.088l0.093,0.087l0.094,0.087l0.095,0.087l0.094,0.085l0.096,0.085l0.096,0.085l0.096,0.083l0.097,0.084l0.098,0.084l0.098,0.082l0.098,0.081l0.099,0.081l0.1,0.081l0.1,0.08l0.1,0.08l0.1,0.078l0.102,0.079l0.102,0.077l0.102,0.077l0.103,0.077l0.103,0.076l0.104,0.075l0.105,0.075l0.104,0.074l0.105,0.073l0.106,0.073l0.106,0.072l0.106,0.071l0.107,0.071l0.108,0.071l0.107,0.069l0.108,0.069l0.109,0.068l0.109,0.068l0.109,0.066l0.111,0.067l0.111,0.067l0.111,0.065l0.11,0.063l0.112,0.065l0.112,0.063l0.113,0.062l0.113,0.062l0.113,0.061l0.115,0.061l0.113,0.06l0.113,0.058l0.117,0.059l0.115,0.058l0.115,0.057l0.116,0.056l0.117,0.056l0.118,0.055l0.116,0.055l0.117,0.053l0.119,0.053l0.119,0.053l0.118,0.051l0.118,0.05l0.121,0.051l0.119,0.049l0.12,0.049l0.122,0.048l0.12,0.047l0.121,0.047l0.123,0.046l0.122,0.045l0.121,0.044l0.122,0.044l0.123,0.043l0.124,0.042l0.125,0.042l0.123,0.04l0.125,0.04l0.125,0.04l0.124,0.038l0.125,0.038l0.126,0.037l0.127,0.036l0.125,0.035l0.126,0.035l0.128,0.034l0.128,0.033l0.127,0.033l0.127,0.031l0.129,0.031l0.128,0.03l0.129,0.03l0.13,0.028l0.129,0.028l0.129,0.027l0.13,0.026l0.13,0.026l0.131,0.024l0.13,0.024l0.132,0.023l0.131,0.022l0.132,0.022l0.132,0.02l0.133,0.02l0.131,0.019l0.132,0.018l0.135,0.018l0.133,0.016l0.133,0.016l0.133,0.015l0.135,0.014l0.135,0.013l0.134,0.013l0.134,0.011l0.135,0.011l0.136,0.01l0.137,0.009l0.135,0.008l0.134,0.007l0.138,0.007l0.136,0.005l0.137,0.005l0.139,0.004l0.135,0.003l0.138,0.002l0.138,0.002l0.138,0l0.138,0l0.138,-0.002l0.138,-0.002l0.135,-0.003l0.139,-0.004l0.136,-0.005l0.137,-0.005l0.137,-0.007l0.135,-0.007l0.135,-0.008l0.137,-0.009l0.136,-0.01l0.135,-0.011l0.134,-0.011l0.134,-0.013l0.135,-0.013l0.135,-0.014l0.133,-0.015l0.133,-0.016l0.133,-0.016l0.135,-0.018l0.132,-0.018l0.131,-0.019l0.133,-0.02l0.132,-0.02l0.132,-0.022l0.131,-0.022l0.131,-0.023l0.131,-0.024l0.131,-0.024l0.13,-0.026l0.13,-0.026l0.129,-0.027l0.129,-0.028l0.13,-0.028l0.129,-0.03l0.128,-0.03l0.129,-0.031l0.127,-0.031l0.127,-0.033l0.128,-0.033l0.128,-0.034l0.126,-0.035l0.125,-0.035l0.127,-0.036l0.126,-0.037l0.125,-0.038l0.124,-0.038l0.125,-0.04l0.125,-0.04l0.123,-0.04l0.125,-0.042l0.123,-0.042l0.123,-0.043l0.123,-0.044l0.121,-0.044l0.122,-0.045l0.123,-0.046l0.121,-0.047l0.12,-0.047l0.122,-0.048l0.12,-0.049l0.119,-0.049l0.12,-0.051l0.119,-0.05l0.118,-0.051l0.119,-0.053l0.119,-0.053l0.117,-0.053l0.116,-0.054l0.117,-0.056l0.118,-0.056l0.116,-0.056l0.115,-0.057l0.115,-0.058l0.117,-0.059l0.113,-0.058l0.113,-0.06l0.115,-0.061l0.113,-0.061l0.113,-0.062l0.113,-0.062l0.112,-0.063l0.112,-0.065l0.11,-0.063l0.111,-0.065l0.111,-0.067l0.111,-0.067l0.109,-0.066l0.108,-0.068l0.11,-0.068l0.108,-0.069l0.107,-0.069l0.108,-0.071l0.107,-0.071l0.106,-0.071l0.106,-0.072l0.106,-0.073l0.105,-0.073l0.104,-0.074l0.105,-0.075l0.104,-0.075l0.103,-0.076l0.103,-0.077l0.102,-0.077l0.102,-0.077l0.101,-0.079l0.101,-0.078l0.1,-0.08l0.1,-0.08l0.1,-0.081l0.099,-0.081l0.098,-0.081l0.098,-0.082l0.098,-0.084l0.097,-0.084l0.096,-0.083l0.096,-0.085l0.096,-0.085l0.094,-0.085l0.095,-0.087l0.094,-0.087l0.093,-0.087l0.093,-0.088l0.092,-0.089l0.092,-0.089l0.092,-0.09l0.09,-0.09l0.09,-0.09l0.089,-0.091l0.09,-0.093l0.089,-0.092l0.087,-0.092l0.087,-0.093l0.088,-0.095l0.086,-0.094l0.086,-0.095l0.085,-0.096l0.085,-0.096l0.084,-0.096l0.083,-0.097l0.083,-0.097l0.082,-0.098l0.082,-0.099l0.081,-0.099l0.082,-0.1l0.079,-0.099l0.079,-0.1l0.079,-0.101l0.078,-0.102l0.078,-0.102l0.077,-0.102l0.077,-0.103l0.076,-0.104l0.074,-0.102l0.075,-0.105l0.075,-0.105l0.073,-0.105l0.072,-0.106l0.073,-0.106l0.071,-0.106l0.071,-0.107l0.07,-0.107l0.07,-0.108l0.069,-0.108l0.068,-0.11l0.068,-0.109l0.067,-0.109l0.066,-0.11l0.066,-0.11l0.065,-0.111l0.065,-0.112l0.063,-0.111l0.063,-0.112l0.063,-0.113l0.062,-0.113l0.061,-0.113l0.06,-0.113l0.06,-0.115l0.059,-0.114l0.059,-0.115l0.058,-0.116l0.057,-0.116l0.056,-0.115l0.056,-0.117l0.055,-0.117l0.054,-0.117l0.054,-0.117l0.053,-0.119l0.052,-0.118l0.052,-0.119l0.051,-0.119l0.05,-0.12l0.049,-0.119l0.049,-0.121l0.048,-0.12l0.047,-0.121l0.047,-0.121l0.046,-0.122l0.045,-0.122l0.044,-0.122l0.044,-0.123l0.043,-0.123l0.042,-0.123l0.041,-0.124l0.041,-0.124l0.04,-0.125l0.039,-0.124l0.039,-0.125l0.038,-0.126l0.037,-0.125l0.036,-0.126l0.035,-0.126l0.035,-0.127l0.034,-0.127l0.033,-0.127l0.033,-0.128l0.031,-0.128l0.031,-0.127l0.03,-0.129l0.03,-0.129l0.028,-0.129l0.028,-0.13l0.027,-0.129l0.026,-0.13l0.025,-0.13l0.025,-0.13l0.024,-0.132l0.023,-0.131l0.022,-0.131l0.022,-0.132l0.02,-0.131l0.02,-0.133l0.019,-0.132l0.018,-0.133l0.017,-0.133l0.017,-0.133l0.016,-0.134l0.015,-0.134l0.014,-0.134l0.013,-0.134l0.012,-0.134l0.012,-0.135l0.011,-0.136l0.009,-0.135l0.009,-0.135l0.009,-0.137l0.007,-0.135l0.006,-0.137l0.006,-0.136l0.005,-0.137l0.004,-0.137l0.003,-0.138l0.002,-0.137l0.001,-0.138l0.001,-0.138l-0.001,-0.138l-0.001,-0.138l-0.002,-0.137l-0.003,-0.137l-0.004,-0.137l-0.005,-0.137l-0.006,-0.137l-0.006,-0.136l-0.007,-0.136l-0.009,-0.136l-0.009,-0.136l-0.009,-0.135l-0.011,-0.135l-0.012,-0.135l-0.012,-0.134l-0.013,-0.135l-0.014,-0.134l-0.015,-0.134l-0.016,-0.133l-0.017,-0.133l-0.017,-0.134l-0.018,-0.132l-0.019,-0.133l-0.02,-0.132l-0.02,-0.132l-0.022,-0.132l-0.022,-0.131l-0.023,-0.131l-0.024,-0.131l-0.025,-0.13l-0.025,-0.131l-0.026,-0.13l-0.027,-0.129l-0.028,-0.13l-0.028,-0.129l-0.03,-0.129l-0.03,-0.128l-0.031,-0.128l-0.031,-0.128l-0.033,-0.128l-0.033,-0.127l-0.034,-0.126l-0.035,-0.127l-0.035,-0.127l-0.036,-0.125l-0.037,-0.126l-0.038,-0.126l-0.039,-0.124l-0.039,-0.125l-0.04,-0.124l-0.041,-0.125l-0.041,-0.124l-0.042,-0.123l-0.043,-0.123l-0.044,-0.122l-0.044,-0.123l-0.045,-0.122l-0.046,-0.121l-0.047,-0.122l-0.047,-0.12l-0.048,-0.121l-0.049,-0.121l-0.049,-0.119l-0.05,-0.119l-0.051,-0.12l-0.052,-0.118l-0.052,-0.119l-0.053,-0.118l-0.054,-0.118l-0.054,-0.117l-0.055,-0.117l-0.056,-0.116l-0.056,-0.116l-0.057,-0.116l-0.058,-0.115l-0.059,-0.115l-0.059,-0.115l-0.06,-0.114l-0.06,-0.114l-0.061,-0.113l-0.062,-0.113l-0.063,-0.113l-0.063,-0.112l-0.063,-0.111l-0.065,-0.112l-0.065,-0.11l-0.066,-0.111l-0.066,-0.11l-0.067,-0.109l-0.068,-0.109l-0.068,-0.109l-0.069,-0.108l-0.07,-0.109l-0.07,-0.107l-0.071,-0.107l-0.071,-0.106l-0.073,-0.106l-0.072,-0.105l-0.073,-0.105l-0.075,-0.106l-0.075,-0.104l-0.074,-0.103l-0.076,-0.103l-0.077,-0.104l-0.077,-0.102l-0.078,-0.102l-0.078,-0.101l-0.079,-0.101l-0.079,-0.1l-0.08,-0.101l-0.081,-0.099l-0.08,-0.098l-0.083,-0.099l-0.082,-0.098l-0.083,-0.097l-0.083,-0.098l-0.084,-0.096l-0.085,-0.096l-0.085,-0.096l-0.086,-0.094l-0.086,-0.095l-0.088,-0.094l-0.087,-0.093l-0.087,-0.092l-0.089,-0.092l-0.09,-0.093l-0.089,-0.092l-0.09,-0.09l-0.09,-0.09l-0.092,-0.089l-0.092,-0.09l-0.092,-0.088l-0.092,-0.088l-0.094,-0.088l-0.094,-0.087l-0.095,-0.086l-0.094,-0.086l-0.096,-0.085l-0.096,-0.085l-0.096,-0.083l-0.097,-0.084l-0.098,-0.083l-0.098,-0.082l-0.098,-0.082l-0.099,-0.081l-0.1,-0.081l-0.1,-0.08l-0.1,-0.079l-0.101,-0.079l-0.101,-0.078l-0.102,-0.078l-0.102,-0.077l-0.103,-0.076l-0.103,-0.076l-0.104,-0.076l-0.105,-0.074l-0.104,-0.074l-0.105,-0.073l-0.106,-0.073l-0.106,-0.072l-0.106,-0.072l-0.107,-0.071l-0.108,-0.07l-0.107,-0.07l-0.108,-0.068l-0.11,-0.069l-0.109,-0.068l-0.108,-0.066l-0.111,-0.067l-0.111,-0.066l-0.11,-0.065l-0.111,-0.064l-0.112,-0.064l-0.112,-0.063l-0.113,-0.063l-0.114,-0.062l-0.112,-0.061l-0.114,-0.06l-0.114,-0.06l-0.115,-0.059l-0.115,-0.059l-0.114,-0.057l-0.116,-0.057l-0.116,-0.057l-0.118,-0.056l-0.117,-0.055l-0.116,-0.054l-0.117,-0.053l-0.119,-0.054l-0.119,-0.052l-0.118,-0.052l-0.119,-0.05l-0.12,-0.051l-0.119,-0.049l-0.12,-0.048l-0.122,-0.049l-0.12,-0.047l-0.121,-0.046l-0.123,-0.047l-0.122,-0.045l-0.121,-0.044l-0.123,-0.043l-0.123,-0.043l-0.123,-0.043l-0.125,-0.042l-0.123,-0.04l-0.125,-0.04l-0.125,-0.039l-0.124,-0.038l-0.125,-0.038l-0.126,-0.037l-0.127,-0.037l-0.125,-0.035l-0.126,-0.035l-0.128,-0.034l-0.128,-0.033l-0.127,-0.032l-0.127,-0.032l-0.129,-0.031l-0.128,-0.03l-0.129,-0.029l-0.13,-0.029l-0.129,-0.028l-0.129,-0.027l-0.13,-0.026l-0.13,-0.025l-0.131,-0.025l-0.131,-0.024l-0.131,-0.023l-0.131,-0.022l-0.132,-0.021l-0.132,-0.021l-0.133,-0.02l-0.131,-0.019l-0.133,-0.018l-0.134,-0.017l-0.132,-0.017l-0.134,-0.016l-0.133,-0.014l-0.135,-0.014l-0.135,-0.014l-0.134,-0.012l-0.134,-0.012l-0.135,-0.01l-0.136,-0.01l-0.137,-0.009l-0.135,-0.009l-0.135,-0.007l-0.137,-0.006l-0.137,-0.006l-0.136,-0.005l-0.139,-0.004l-0.135,-0.003l-0.138,-0.002l-0.138,-0.001l-0.138,-0.001l-0.138,0.001Z" style="fill:#31c5f0;"/></g><text id="t" x="249.983px" y="235.889px" style="font-family:'Arial-BoldMT', 'Arial', sans-serif;font-weight:700;font-size:25.852px;fill:#31c5f0;">Ps</text></g><g id="ai-ico"><g><circle cx="669.898" cy="228.295" r="35.408" style="fill:#3f3023;"/><path d="M670.127,192.888l0.228,0.002l0.228,0.003l0.228,0.005l0.228,0.007l0.227,0.008l0.226,0.009l0.227,0.011l0.226,0.012l0.225,0.014l0.226,0.015l0.224,0.016l0.225,0.018l0.224,0.019l0.224,0.021l0.223,0.022l0.223,0.023l0.222,0.025l0.222,0.026l0.222,0.028l0.221,0.028l0.221,0.031l0.22,0.031l0.22,0.033l0.22,0.034l0.219,0.036l0.218,0.037l0.218,0.038l0.218,0.04l0.217,0.041l0.217,0.042l0.216,0.044l0.216,0.045l0.215,0.046l0.215,0.047l0.214,0.049l0.214,0.05l0.213,0.052l0.213,0.052l0.213,0.054l0.211,0.056l0.212,0.056l0.21,0.058l0.211,0.059l0.209,0.06l0.21,0.062l0.208,0.063l0.208,0.064l0.208,0.065l0.207,0.067l0.206,0.068l0.206,0.069l0.206,0.07l0.204,0.071l0.205,0.073l0.203,0.074l0.203,0.075l0.203,0.076l0.201,0.078l0.202,0.079l0.2,0.079l0.2,0.082l0.2,0.082l0.199,0.083l0.198,0.085l0.198,0.086l0.197,0.087l0.196,0.088l0.196,0.089l0.195,0.09l0.194,0.092l0.194,0.093l0.193,0.094l0.193,0.095l0.192,0.096l0.191,0.097l0.19,0.098l0.19,0.1l0.189,0.1l0.189,0.102l0.188,0.103l0.187,0.104l0.186,0.105l0.186,0.106l0.185,0.107l0.184,0.108l0.184,0.11l0.183,0.11l0.182,0.112l0.181,0.112l0.181,0.114l0.18,0.114l0.179,0.116l0.178,0.117l0.178,0.118l0.177,0.119l0.176,0.119l0.176,0.121l0.175,0.122l0.174,0.123l0.173,0.124l0.172,0.125l0.172,0.126l0.171,0.127l0.17,0.128l0.169,0.129l0.168,0.13l0.168,0.131l0.167,0.132l0.166,0.133l0.165,0.134l0.164,0.135l0.164,0.135l0.163,0.137l0.162,0.138l0.161,0.139l0.16,0.139l0.159,0.141l0.159,0.141l0.157,0.143l0.157,0.143l0.156,0.145l0.155,0.145l0.154,0.146l0.154,0.147l0.152,0.148l0.152,0.149l0.15,0.15l0.15,0.15l0.149,0.152l0.148,0.152l0.147,0.154l0.146,0.154l0.145,0.155l0.145,0.156l0.143,0.157l0.143,0.157l0.141,0.159l0.141,0.159l0.139,0.16l0.139,0.161l0.138,0.162l0.137,0.163l0.135,0.164l0.135,0.164l0.134,0.165l0.133,0.166l0.132,0.167l0.131,0.168l0.13,0.168l0.129,0.169l0.128,0.17l0.127,0.171l0.126,0.172l0.125,0.172l0.124,0.173l0.123,0.174l0.122,0.175l0.121,0.176l0.12,0.176l0.118,0.177l0.118,0.178l0.117,0.178l0.116,0.179l0.114,0.18l0.114,0.181l0.112,0.181l0.112,0.183l0.11,0.182l0.11,0.184l0.108,0.184l0.107,0.185l0.106,0.186l0.105,0.186l0.104,0.188l0.103,0.187l0.102,0.189l0.1,0.189l0.1,0.19l0.098,0.19l0.097,0.191l0.096,0.192l0.095,0.193l0.094,0.193l0.093,0.194l0.092,0.194l0.09,0.195l0.089,0.196l0.088,0.196l0.087,0.197l0.086,0.198l0.085,0.198l0.083,0.199l0.082,0.2l0.082,0.2l0.079,0.2l0.079,0.202l0.078,0.201l0.076,0.203l0.075,0.203l0.074,0.204l0.073,0.204l0.071,0.204l0.07,0.206l0.069,0.206l0.068,0.206l0.067,0.207l0.065,0.208l0.064,0.208l0.063,0.208l0.062,0.21l0.06,0.209l0.059,0.211l0.058,0.21l0.056,0.212l0.056,0.211l0.054,0.213l0.052,0.213l0.052,0.213l0.05,0.214l0.049,0.214l0.047,0.215l0.046,0.215l0.045,0.216l0.044,0.216l0.042,0.217l0.041,0.217l0.04,0.218l0.038,0.218l0.037,0.218l0.036,0.219l0.034,0.22l0.033,0.22l0.031,0.22l0.031,0.221l0.028,0.221l0.028,0.222l0.026,0.222l0.025,0.222l0.023,0.223l0.022,0.223l0.021,0.224l0.019,0.224l0.018,0.225l0.016,0.224l0.015,0.226l0.014,0.225l0.012,0.226l0.011,0.227l0.009,0.226l0.008,0.227l0.007,0.228l0.005,0.228l0.003,0.228l0.002,0.228l0.001,0.229l-0.001,0.229l-0.002,0.229l-0.003,0.228l-0.005,0.228l-0.007,0.227l-0.008,0.227l-0.009,0.227l-0.011,0.226l-0.012,0.226l-0.014,0.226l-0.015,0.225l-0.016,0.225l-0.018,0.224l-0.019,0.224l-0.021,0.224l-0.022,0.223l-0.023,0.223l-0.025,0.223l-0.026,0.222l-0.028,0.221l-0.028,0.222l-0.031,0.22l-0.031,0.221l-0.033,0.22l-0.034,0.219l-0.036,0.219l-0.037,0.219l-0.038,0.218l-0.04,0.217l-0.041,0.218l-0.042,0.216l-0.044,0.216l-0.045,0.216l-0.046,0.216l-0.047,0.214l-0.049,0.215l-0.05,0.213l-0.052,0.214l-0.052,0.213l-0.054,0.212l-0.056,0.212l-0.056,0.211l-0.058,0.211l-0.059,0.21l-0.06,0.21l-0.062,0.209l-0.063,0.209l-0.064,0.208l-0.065,0.207l-0.067,0.207l-0.068,0.207l-0.069,0.206l-0.07,0.205l-0.071,0.205l-0.073,0.204l-0.074,0.204l-0.075,0.203l-0.076,0.202l-0.078,0.202l-0.079,0.201l-0.079,0.201l-0.082,0.2l-0.082,0.199l-0.083,0.199l-0.085,0.198l-0.086,0.198l-0.087,0.197l-0.088,0.196l-0.089,0.196l-0.09,0.195l-0.092,0.195l-0.093,0.193l-0.094,0.194l-0.095,0.192l-0.096,0.192l-0.097,0.191l-0.098,0.191l-0.1,0.19l-0.1,0.189l-0.102,0.188l-0.103,0.188l-0.104,0.187l-0.105,0.186l-0.106,0.186l-0.107,0.185l-0.108,0.184l-0.11,0.184l-0.11,0.183l-0.112,0.182l-0.112,0.182l-0.114,0.18l-0.114,0.18l-0.116,0.179l-0.117,0.179l-0.118,0.178l-0.118,0.177l-0.12,0.176l-0.121,0.175l-0.122,0.175l-0.123,0.174l-0.124,0.173l-0.125,0.173l-0.126,0.171l-0.127,0.171l-0.128,0.17l-0.129,0.169l-0.13,0.169l-0.131,0.167l-0.132,0.167l-0.133,0.166l-0.134,0.165l-0.135,0.165l-0.135,0.163l-0.137,0.163l-0.138,0.162l-0.139,0.161l-0.139,0.16l-0.141,0.16l-0.141,0.158l-0.143,0.158l-0.143,0.157l-0.145,0.156l-0.145,0.155l-0.146,0.154l-0.147,0.153l-0.148,0.153l-0.149,0.151l-0.15,0.151l-0.15,0.15l-0.152,0.148l-0.152,0.148l-0.154,0.147l-0.154,0.147l-0.155,0.145l-0.156,0.144l-0.157,0.144l-0.157,0.142l-0.159,0.142l-0.159,0.14l-0.16,0.14l-0.161,0.138l-0.162,0.138l-0.163,0.137l-0.164,0.136l-0.164,0.135l-0.165,0.134l-0.166,0.132l-0.167,0.132l-0.168,0.131l-0.168,0.13l-0.169,0.129l-0.17,0.128l-0.171,0.127l-0.172,0.126l-0.172,0.125l-0.173,0.124l-0.174,0.123l-0.175,0.122l-0.176,0.121l-0.176,0.12l-0.177,0.119l-0.178,0.118l-0.178,0.116l-0.179,0.116l-0.18,0.115l-0.181,0.113l-0.181,0.113l-0.182,0.111l-0.183,0.111l-0.184,0.109l-0.184,0.108l-0.185,0.108l-0.186,0.106l-0.186,0.105l-0.187,0.104l-0.188,0.102l-0.189,0.102l-0.189,0.101l-0.19,0.099l-0.19,0.098l-0.191,0.098l-0.192,0.096l-0.193,0.095l-0.193,0.094l-0.194,0.092l-0.194,0.092l-0.195,0.09l-0.196,0.09l-0.196,0.088l-0.197,0.087l-0.198,0.086l-0.198,0.084l-0.199,0.084l-0.2,0.082l-0.2,0.081l-0.2,0.08l-0.202,0.079l-0.201,0.077l-0.203,0.076l-0.203,0.076l-0.203,0.073l-0.205,0.073l-0.204,0.072l-0.206,0.07l-0.206,0.069l-0.206,0.068l-0.207,0.066l-0.208,0.066l-0.208,0.064l-0.208,0.062l-0.21,0.062l-0.209,0.06l-0.211,0.059l-0.21,0.058l-0.212,0.057l-0.211,0.055l-0.213,0.054l-0.213,0.053l-0.213,0.051l-0.214,0.05l-0.214,0.049l-0.215,0.048l-0.215,0.046l-0.216,0.045l-0.216,0.043l-0.217,0.043l-0.217,0.04l-0.218,0.04l-0.218,0.038l-0.218,0.037l-0.219,0.036l-0.22,0.034l-0.22,0.033l-0.22,0.032l-0.221,0.03l-0.221,0.029l-0.222,0.027l-0.222,0.026l-0.222,0.025l-0.223,0.024l-0.223,0.022l-0.224,0.02l-0.224,0.019l-0.225,0.018l-0.224,0.017l-0.226,0.015l-0.225,0.013l-0.226,0.012l-0.227,0.011l-0.226,0.01l-0.227,0.007l-0.228,0.007l-0.228,0.005l-0.228,0.004l-0.228,0.002l-0.229,0.001l-0.229,-0.001l-0.229,-0.002l-0.228,-0.004l-0.228,-0.005l-0.227,-0.007l-0.227,-0.007l-0.227,-0.01l-0.226,-0.011l-0.226,-0.012l-0.226,-0.013l-0.225,-0.015l-0.225,-0.017l-0.224,-0.018l-0.224,-0.019l-0.224,-0.02l-0.223,-0.022l-0.223,-0.024l-0.223,-0.025l-0.222,-0.026l-0.221,-0.027l-0.222,-0.029l-0.22,-0.03l-0.221,-0.032l-0.22,-0.033l-0.219,-0.034l-0.219,-0.036l-0.219,-0.037l-0.218,-0.038l-0.217,-0.04l-0.217,-0.04l-0.217,-0.043l-0.216,-0.043l-0.216,-0.045l-0.216,-0.046l-0.214,-0.048l-0.215,-0.049l-0.213,-0.05l-0.214,-0.051l-0.213,-0.053l-0.212,-0.054l-0.212,-0.055l-0.211,-0.057l-0.211,-0.058l-0.21,-0.059l-0.21,-0.06l-0.209,-0.062l-0.209,-0.062l-0.208,-0.064l-0.207,-0.066l-0.207,-0.066l-0.207,-0.068l-0.206,-0.069l-0.205,-0.07l-0.205,-0.072l-0.204,-0.073l-0.204,-0.073l-0.203,-0.076l-0.202,-0.076l-0.202,-0.077l-0.201,-0.079l-0.201,-0.08l-0.2,-0.081l-0.199,-0.082l-0.199,-0.084l-0.198,-0.084l-0.198,-0.086l-0.197,-0.087l-0.196,-0.088l-0.196,-0.09l-0.195,-0.09l-0.195,-0.092l-0.193,-0.092l-0.194,-0.094l-0.192,-0.095l-0.192,-0.096l-0.191,-0.098l-0.191,-0.098l-0.189,-0.099l-0.19,-0.101l-0.188,-0.102l-0.188,-0.102l-0.187,-0.104l-0.186,-0.105l-0.186,-0.106l-0.185,-0.108l-0.184,-0.108l-0.184,-0.109l-0.183,-0.111l-0.182,-0.111l-0.181,-0.113l-0.181,-0.113l-0.18,-0.115l-0.179,-0.116l-0.179,-0.116l-0.178,-0.118l-0.177,-0.119l-0.176,-0.12l-0.175,-0.121l-0.175,-0.122l-0.174,-0.123l-0.173,-0.124l-0.173,-0.125l-0.171,-0.126l-0.171,-0.127l-0.17,-0.128l-0.169,-0.129l-0.169,-0.13l-0.167,-0.131l-0.167,-0.132l-0.166,-0.132l-0.165,-0.134l-0.165,-0.135l-0.163,-0.136l-0.163,-0.137l-0.162,-0.138l-0.161,-0.138l-0.16,-0.14l-0.16,-0.14l-0.158,-0.142l-0.158,-0.142l-0.157,-0.144l-0.156,-0.144l-0.155,-0.145l-0.154,-0.147l-0.153,-0.147l-0.153,-0.148l-0.151,-0.148l-0.151,-0.15l-0.15,-0.151l-0.148,-0.151l-0.148,-0.153l-0.147,-0.153l-0.147,-0.154l-0.145,-0.155l-0.144,-0.156l-0.144,-0.157l-0.142,-0.158l-0.141,-0.158l-0.141,-0.16l-0.14,-0.16l-0.138,-0.161l-0.138,-0.162l-0.137,-0.163l-0.136,-0.163l-0.135,-0.165l-0.134,-0.165l-0.132,-0.166l-0.132,-0.167l-0.131,-0.167l-0.13,-0.169l-0.129,-0.169l-0.128,-0.17l-0.127,-0.171l-0.126,-0.171l-0.125,-0.173l-0.124,-0.173l-0.123,-0.174l-0.122,-0.175l-0.121,-0.175l-0.12,-0.176l-0.119,-0.177l-0.118,-0.178l-0.116,-0.179l-0.116,-0.179l-0.115,-0.18l-0.113,-0.18l-0.113,-0.182l-0.111,-0.182l-0.111,-0.183l-0.109,-0.184l-0.108,-0.184l-0.108,-0.185l-0.106,-0.186l-0.105,-0.186l-0.104,-0.187l-0.102,-0.188l-0.102,-0.188l-0.101,-0.189l-0.099,-0.19l-0.098,-0.191l-0.098,-0.191l-0.096,-0.192l-0.095,-0.192l-0.094,-0.194l-0.092,-0.193l-0.092,-0.195l-0.09,-0.195l-0.09,-0.196l-0.088,-0.196l-0.087,-0.197l-0.086,-0.198l-0.084,-0.198l-0.084,-0.199l-0.082,-0.199l-0.081,-0.2l-0.08,-0.201l-0.079,-0.201l-0.077,-0.202l-0.076,-0.202l-0.076,-0.203l-0.073,-0.204l-0.073,-0.204l-0.072,-0.205l-0.07,-0.205l-0.069,-0.206l-0.068,-0.207l-0.066,-0.207l-0.066,-0.207l-0.064,-0.208l-0.062,-0.209l-0.062,-0.209l-0.06,-0.21l-0.059,-0.21l-0.058,-0.211l-0.057,-0.211l-0.055,-0.212l-0.054,-0.212l-0.053,-0.213l-0.051,-0.214l-0.05,-0.213l-0.049,-0.215l-0.048,-0.214l-0.046,-0.216l-0.045,-0.216l-0.043,-0.216l-0.043,-0.216l-0.04,-0.218l-0.04,-0.217l-0.038,-0.218l-0.037,-0.219l-0.036,-0.219l-0.034,-0.219l-0.033,-0.22l-0.032,-0.221l-0.03,-0.22l-0.029,-0.222l-0.027,-0.221l-0.026,-0.222l-0.025,-0.223l-0.024,-0.223l-0.022,-0.223l-0.02,-0.224l-0.019,-0.224l-0.018,-0.224l-0.017,-0.225l-0.015,-0.225l-0.013,-0.226l-0.012,-0.226l-0.011,-0.226l-0.01,-0.227l-0.007,-0.227l-0.007,-0.227l-0.005,-0.228l-0.004,-0.228l-0.002,-0.229l-0.001,-0.229l0.001,-0.229l0.002,-0.228l0.004,-0.228l0.005,-0.228l0.007,-0.228l0.007,-0.227l0.01,-0.226l0.011,-0.227l0.012,-0.226l0.013,-0.225l0.015,-0.226l0.017,-0.224l0.018,-0.225l0.019,-0.224l0.02,-0.224l0.022,-0.223l0.024,-0.223l0.025,-0.222l0.026,-0.222l0.027,-0.222l0.029,-0.221l0.03,-0.221l0.032,-0.22l0.033,-0.22l0.034,-0.22l0.036,-0.219l0.037,-0.218l0.038,-0.218l0.04,-0.218l0.04,-0.217l0.043,-0.217l0.043,-0.216l0.045,-0.216l0.046,-0.215l0.048,-0.215l0.049,-0.214l0.05,-0.214l0.051,-0.213l0.053,-0.213l0.054,-0.213l0.055,-0.211l0.057,-0.212l0.058,-0.21l0.059,-0.211l0.06,-0.209l0.062,-0.21l0.062,-0.208l0.064,-0.208l0.066,-0.208l0.066,-0.207l0.068,-0.206l0.069,-0.206l0.07,-0.206l0.072,-0.204l0.073,-0.204l0.073,-0.204l0.076,-0.203l0.076,-0.203l0.077,-0.201l0.079,-0.202l0.08,-0.2l0.081,-0.2l0.082,-0.2l0.084,-0.199l0.084,-0.198l0.086,-0.198l0.087,-0.197l0.088,-0.196l0.09,-0.196l0.09,-0.195l0.092,-0.194l0.092,-0.194l0.094,-0.193l0.095,-0.193l0.096,-0.192l0.098,-0.191l0.098,-0.19l0.099,-0.19l0.101,-0.189l0.102,-0.189l0.102,-0.187l0.104,-0.188l0.105,-0.186l0.106,-0.186l0.108,-0.185l0.108,-0.184l0.109,-0.184l0.111,-0.182l0.111,-0.183l0.113,-0.181l0.113,-0.181l0.115,-0.18l0.116,-0.179l0.116,-0.178l0.118,-0.178l0.119,-0.177l0.12,-0.176l0.121,-0.176l0.122,-0.175l0.123,-0.174l0.124,-0.173l0.125,-0.172l0.126,-0.172l0.127,-0.171l0.128,-0.17l0.129,-0.169l0.13,-0.168l0.131,-0.168l0.132,-0.167l0.132,-0.166l0.134,-0.165l0.135,-0.164l0.136,-0.164l0.137,-0.163l0.138,-0.162l0.138,-0.161l0.14,-0.16l0.141,-0.159l0.141,-0.159l0.142,-0.157l0.144,-0.157l0.144,-0.156l0.145,-0.155l0.147,-0.154l0.147,-0.154l0.148,-0.152l0.148,-0.152l0.15,-0.15l0.151,-0.15l0.151,-0.149l0.153,-0.148l0.153,-0.147l0.154,-0.146l0.155,-0.145l0.156,-0.145l0.157,-0.143l0.158,-0.143l0.158,-0.141l0.16,-0.141l0.16,-0.139l0.161,-0.139l0.162,-0.138l0.163,-0.137l0.163,-0.135l0.165,-0.135l0.165,-0.134l0.166,-0.133l0.167,-0.132l0.167,-0.131l0.169,-0.13l0.169,-0.129l0.17,-0.128l0.171,-0.127l0.171,-0.126l0.173,-0.125l0.173,-0.124l0.174,-0.123l0.175,-0.122l0.175,-0.121l0.176,-0.119l0.177,-0.119l0.178,-0.118l0.179,-0.117l0.179,-0.116l0.18,-0.114l0.181,-0.114l0.181,-0.112l0.182,-0.112l0.183,-0.11l0.184,-0.11l0.184,-0.108l0.185,-0.107l0.186,-0.106l0.186,-0.105l0.187,-0.104l0.188,-0.103l0.188,-0.102l0.19,-0.1l0.189,-0.1l0.191,-0.098l0.191,-0.097l0.192,-0.096l0.192,-0.095l0.194,-0.094l0.193,-0.093l0.195,-0.092l0.195,-0.09l0.196,-0.089l0.196,-0.088l0.197,-0.087l0.198,-0.086l0.198,-0.085l0.199,-0.083l0.199,-0.082l0.2,-0.082l0.201,-0.079l0.201,-0.079l0.202,-0.078l0.202,-0.076l0.203,-0.075l0.204,-0.074l0.204,-0.073l0.205,-0.071l0.205,-0.07l0.206,-0.069l0.207,-0.068l0.207,-0.067l0.207,-0.065l0.208,-0.064l0.209,-0.063l0.209,-0.062l0.21,-0.06l0.21,-0.059l0.211,-0.058l0.211,-0.056l0.212,-0.056l0.212,-0.054l0.213,-0.052l0.214,-0.052l0.213,-0.05l0.215,-0.049l0.214,-0.047l0.216,-0.046l0.216,-0.045l0.216,-0.044l0.217,-0.042l0.217,-0.041l0.217,-0.04l0.218,-0.038l0.219,-0.037l0.219,-0.036l0.219,-0.034l0.22,-0.033l0.221,-0.031l0.22,-0.031l0.222,-0.028l0.221,-0.028l0.222,-0.026l0.223,-0.025l0.223,-0.023l0.223,-0.022l0.224,-0.021l0.224,-0.019l0.224,-0.018l0.225,-0.016l0.225,-0.015l0.226,-0.014l0.226,-0.012l0.226,-0.011l0.227,-0.009l0.227,-0.008l0.227,-0.007l0.228,-0.005l0.228,-0.003l0.229,-0.002l0.229,-0.001l0.229,0.001Zm-0.439,3l-0.209,0.002l-0.21,0.003l-0.209,0.004l-0.207,0.006l-0.209,0.008l-0.208,0.008l-0.207,0.01l-0.207,0.011l-0.207,0.013l-0.206,0.013l-0.205,0.016l-0.207,0.016l-0.205,0.017l-0.204,0.019l-0.205,0.02l-0.204,0.022l-0.204,0.023l-0.202,0.023l-0.203,0.026l-0.203,0.026l-0.202,0.028l-0.202,0.029l-0.2,0.03l-0.201,0.031l-0.201,0.033l-0.2,0.034l-0.2,0.035l-0.199,0.036l-0.198,0.037l-0.199,0.039l-0.197,0.04l-0.198,0.041l-0.197,0.042l-0.196,0.044l-0.196,0.044l-0.195,0.046l-0.196,0.047l-0.194,0.048l-0.195,0.05l-0.194,0.05l-0.193,0.052l-0.193,0.053l-0.192,0.054l-0.191,0.055l-0.192,0.056l-0.191,0.058l-0.19,0.058l-0.19,0.06l-0.189,0.061l-0.189,0.062l-0.188,0.063l-0.188,0.064l-0.187,0.066l-0.187,0.066l-0.187,0.068l-0.185,0.069l-0.185,0.069l-0.185,0.071l-0.184,0.072l-0.184,0.073l-0.182,0.074l-0.183,0.076l-0.182,0.076l-0.181,0.077l-0.18,0.079l-0.181,0.08l-0.18,0.08l-0.179,0.082l-0.178,0.082l-0.178,0.084l-0.178,0.085l-0.177,0.086l-0.176,0.087l-0.175,0.088l-0.175,0.089l-0.174,0.09l-0.174,0.091l-0.173,0.092l-0.173,0.093l-0.171,0.094l-0.172,0.095l-0.17,0.096l-0.17,0.098l-0.169,0.097l-0.169,0.099l-0.168,0.101l-0.168,0.101l-0.167,0.102l-0.165,0.103l-0.166,0.104l-0.164,0.105l-0.164,0.105l-0.164,0.107l-0.163,0.108l-0.162,0.109l-0.161,0.11l-0.161,0.11l-0.16,0.112l-0.159,0.113l-0.158,0.113l-0.158,0.115l-0.158,0.115l-0.156,0.116l-0.155,0.117l-0.156,0.119l-0.154,0.119l-0.153,0.12l-0.153,0.12l-0.152,0.122l-0.151,0.123l-0.151,0.123l-0.15,0.125l-0.149,0.125l-0.148,0.126l-0.147,0.127l-0.148,0.128l-0.146,0.129l-0.145,0.13l-0.144,0.13l-0.143,0.131l-0.143,0.132l-0.142,0.134l-0.142,0.133l-0.14,0.135l-0.139,0.135l-0.139,0.137l-0.139,0.137l-0.137,0.138l-0.136,0.139l-0.135,0.139l-0.135,0.141l-0.134,0.141l-0.133,0.142l-0.132,0.143l-0.131,0.143l-0.131,0.145l-0.13,0.145l-0.129,0.146l-0.127,0.147l-0.127,0.147l-0.126,0.148l-0.126,0.15l-0.124,0.149l-0.123,0.151l-0.123,0.151l-0.122,0.152l-0.121,0.153l-0.12,0.154l-0.119,0.154l-0.118,0.155l-0.117,0.156l-0.117,0.156l-0.115,0.157l-0.114,0.158l-0.114,0.158l-0.112,0.16l-0.112,0.159l-0.111,0.161l-0.109,0.162l-0.109,0.162l-0.108,0.162l-0.107,0.164l-0.106,0.164l-0.105,0.164l-0.104,0.166l-0.103,0.166l-0.102,0.167l-0.101,0.167l-0.1,0.168l-0.099,0.169l-0.098,0.169l-0.097,0.17l-0.096,0.171l-0.095,0.171l-0.094,0.172l-0.093,0.172l-0.093,0.173l-0.091,0.174l-0.09,0.175l-0.089,0.174l-0.087,0.176l-0.088,0.176l-0.085,0.177l-0.085,0.177l-0.084,0.178l-0.083,0.179l-0.081,0.178l-0.081,0.18l-0.08,0.181l-0.078,0.18l-0.077,0.182l-0.077,0.182l-0.075,0.182l-0.074,0.183l-0.073,0.183l-0.072,0.185l-0.071,0.184l-0.07,0.185l-0.069,0.186l-0.067,0.187l-0.067,0.186l-0.065,0.188l-0.064,0.187l-0.063,0.188l-0.063,0.189l-0.06,0.189l-0.06,0.191l-0.059,0.19l-0.057,0.19l-0.057,0.192l-0.055,0.192l-0.054,0.192l-0.053,0.193l-0.051,0.193l-0.051,0.194l-0.049,0.194l-0.048,0.195l-0.047,0.195l-0.046,0.195l-0.045,0.197l-0.043,0.196l-0.043,0.197l-0.041,0.197l-0.04,0.198l-0.038,0.198l-0.038,0.199l-0.036,0.199l-0.035,0.2l-0.034,0.199l-0.032,0.201l-0.032,0.201l-0.03,0.201l-0.029,0.201l-0.027,0.202l-0.027,0.203l-0.025,0.203l-0.024,0.203l-0.023,0.204l-0.021,0.204l-0.02,0.204l-0.019,0.204l-0.018,0.206l-0.016,0.206l-0.015,0.205l-0.014,0.207l-0.012,0.206l-0.011,0.207l-0.01,0.208l-0.009,0.207l-0.007,0.209l-0.006,0.208l-0.005,0.209l-0.003,0.209l-0.002,0.21l-0.001,0.209l0.001,0.21l0.002,0.209l0.003,0.21l0.005,0.208l0.006,0.209l0.007,0.208l0.009,0.208l0.01,0.207l0.011,0.207l0.012,0.207l0.014,0.206l0.015,0.206l0.016,0.206l0.018,0.205l0.019,0.204l0.02,0.205l0.021,0.204l0.023,0.203l0.024,0.204l0.025,0.203l0.027,0.202l0.027,0.202l0.029,0.202l0.03,0.201l0.032,0.201l0.032,0.2l0.034,0.2l0.035,0.2l0.036,0.199l0.038,0.199l0.038,0.198l0.04,0.197l0.041,0.198l0.043,0.197l0.043,0.196l0.045,0.196l0.046,0.196l0.047,0.195l0.048,0.195l0.049,0.194l0.051,0.194l0.051,0.192l0.053,0.194l0.054,0.192l0.055,0.191l0.057,0.192l0.057,0.191l0.059,0.19l0.06,0.19l0.06,0.189l0.062,0.189l0.064,0.188l0.064,0.188l0.065,0.187l0.067,0.187l0.067,0.186l0.069,0.186l0.07,0.185l0.071,0.185l0.072,0.184l0.073,0.184l0.074,0.183l0.075,0.182l0.077,0.182l0.077,0.181l0.078,0.181l0.08,0.18l0.081,0.18l0.081,0.179l0.083,0.178l0.084,0.178l0.085,0.178l0.085,0.176l0.088,0.177l0.087,0.175l0.089,0.175l0.091,0.174l0.09,0.174l0.092,0.173l0.094,0.172l0.094,0.173l0.095,0.17l0.096,0.171l0.097,0.17l0.098,0.17l0.099,0.168l0.1,0.168l0.101,0.168l0.102,0.166l0.103,0.166l0.104,0.166l0.105,0.164l0.106,0.165l0.107,0.163l0.108,0.163l0.109,0.162l0.109,0.161l0.111,0.161l0.112,0.16l0.112,0.159l0.114,0.159l0.114,0.157l0.116,0.157l0.116,0.157l0.117,0.156l0.118,0.155l0.12,0.154l0.119,0.153l0.121,0.153l0.122,0.152l0.122,0.151l0.124,0.151l0.124,0.15l0.125,0.149l0.127,0.148l0.127,0.148l0.127,0.146l0.129,0.146l0.13,0.146l0.131,0.144l0.131,0.143l0.132,0.144l0.133,0.141l0.134,0.141l0.134,0.141l0.136,0.14l0.137,0.139l0.136,0.137l0.139,0.138l0.139,0.136l0.139,0.135l0.14,0.135l0.142,0.134l0.141,0.133l0.144,0.132l0.143,0.132l0.145,0.13l0.144,0.129l0.146,0.129l0.148,0.129l0.147,0.126l0.148,0.126l0.149,0.126l0.15,0.124l0.151,0.124l0.151,0.122l0.152,0.122l0.153,0.121l0.153,0.12l0.155,0.119l0.154,0.118l0.156,0.117l0.157,0.117l0.157,0.115l0.158,0.114l0.158,0.114l0.159,0.112l0.16,0.112l0.161,0.111l0.162,0.11l0.161,0.108l0.163,0.108l0.164,0.107l0.164,0.106l0.164,0.105l0.165,0.103l0.167,0.104l0.167,0.102l0.167,0.101l0.167,0.1l0.17,0.099l0.169,0.098l0.17,0.097l0.17,0.096l0.172,0.095l0.171,0.094l0.173,0.093l0.173,0.093l0.174,0.091l0.174,0.09l0.175,0.089l0.175,0.088l0.176,0.086l0.177,0.086l0.178,0.085l0.178,0.084l0.178,0.083l0.179,0.081l0.18,0.081l0.18,0.08l0.181,0.078l0.181,0.077l0.182,0.077l0.183,0.075l0.182,0.074l0.184,0.073l0.184,0.072l0.185,0.071l0.185,0.07l0.186,0.069l0.186,0.067l0.187,0.067l0.187,0.065l0.188,0.064l0.188,0.063l0.189,0.062l0.189,0.061l0.19,0.06l0.19,0.059l0.192,0.057l0.191,0.057l0.191,0.055l0.192,0.054l0.193,0.053l0.193,0.051l0.194,0.051l0.195,0.049l0.194,0.048l0.196,0.047l0.195,0.046l0.195,0.045l0.197,0.043l0.198,0.043l0.197,0.041l0.197,0.04l0.199,0.038l0.198,0.038l0.199,0.036l0.2,0.035l0.2,0.034l0.201,0.032l0.201,0.032l0.2,0.03l0.202,0.029l0.202,0.027l0.202,0.027l0.203,0.025l0.204,0.024l0.203,0.023l0.204,0.021l0.205,0.02l0.204,0.019l0.206,0.018l0.205,0.016l0.206,0.015l0.207,0.014l0.206,0.012l0.207,0.011l0.207,0.01l0.209,0.009l0.207,0.007l0.208,0.006l0.21,0.005l0.208,0.003l0.21,0.002l0.21,0.001l0.21,-0.001l0.209,-0.002l0.209,-0.003l0.209,-0.005l0.209,-0.006l0.207,-0.007l0.208,-0.009l0.208,-0.01l0.207,-0.011l0.206,-0.012l0.207,-0.014l0.206,-0.015l0.205,-0.016l0.205,-0.018l0.205,-0.019l0.204,-0.02l0.204,-0.021l0.204,-0.023l0.204,-0.024l0.202,-0.025l0.203,-0.027l0.202,-0.027l0.201,-0.029l0.201,-0.03l0.201,-0.032l0.201,-0.032l0.2,-0.034l0.199,-0.035l0.199,-0.036l0.199,-0.038l0.198,-0.038l0.198,-0.04l0.197,-0.041l0.197,-0.043l0.197,-0.043l0.196,-0.045l0.195,-0.046l0.195,-0.047l0.195,-0.048l0.194,-0.049l0.194,-0.051l0.193,-0.051l0.193,-0.053l0.192,-0.054l0.192,-0.055l0.191,-0.057l0.191,-0.057l0.191,-0.059l0.189,-0.06l0.19,-0.061l0.189,-0.062l0.188,-0.063l0.188,-0.064l0.187,-0.065l0.187,-0.067l0.186,-0.067l0.186,-0.069l0.185,-0.07l0.184,-0.071l0.185,-0.072l0.183,-0.073l0.183,-0.074l0.182,-0.075l0.182,-0.077l0.182,-0.077l0.181,-0.079l0.18,-0.079l0.18,-0.081l0.178,-0.081l0.179,-0.083l0.177,-0.084l0.178,-0.085l0.177,-0.086l0.176,-0.086l0.175,-0.088l0.175,-0.089l0.175,-0.09l0.174,-0.092l0.173,-0.091l0.172,-0.094l0.172,-0.094l0.171,-0.095l0.171,-0.096l0.169,-0.097l0.17,-0.098l0.169,-0.099l0.168,-0.1l0.167,-0.101l0.167,-0.102l0.166,-0.104l0.165,-0.103l0.165,-0.105l0.164,-0.106l0.164,-0.107l0.163,-0.108l0.161,-0.108l0.162,-0.11l0.161,-0.111l0.159,-0.112l0.159,-0.112l0.159,-0.114l0.158,-0.114l0.157,-0.115l0.157,-0.117l0.155,-0.117l0.155,-0.118l0.155,-0.119l0.153,-0.12l0.153,-0.121l0.152,-0.122l0.151,-0.122l0.151,-0.124l0.149,-0.124l0.149,-0.125l0.149,-0.127l0.147,-0.126l0.147,-0.129l0.146,-0.129l0.145,-0.129l0.144,-0.13l0.144,-0.132l0.143,-0.132l0.142,-0.133l0.141,-0.134l0.141,-0.134l0.139,-0.136l0.139,-0.136l0.138,-0.138l0.137,-0.137l0.137,-0.139l0.135,-0.14l0.135,-0.141l0.134,-0.141l0.132,-0.141l0.133,-0.144l0.131,-0.143l0.13,-0.144l0.13,-0.146l0.129,-0.146l0.128,-0.146l0.127,-0.148l0.126,-0.148l0.125,-0.149l0.125,-0.15l0.123,-0.151l0.123,-0.151l0.122,-0.152l0.121,-0.153l0.119,-0.153l0.119,-0.154l0.119,-0.155l0.117,-0.156l0.116,-0.157l0.115,-0.157l0.115,-0.158l0.113,-0.158l0.113,-0.159l0.112,-0.16l0.11,-0.161l0.11,-0.161l0.109,-0.162l0.108,-0.163l0.106,-0.163l0.106,-0.164l0.105,-0.165l0.104,-0.166l0.103,-0.166l0.102,-0.166l0.101,-0.168l0.1,-0.168l0.1,-0.168l0.098,-0.17l0.097,-0.17l0.096,-0.171l0.095,-0.17l0.094,-0.172l0.093,-0.173l0.092,-0.173l0.091,-0.174l0.09,-0.174l0.089,-0.175l0.088,-0.175l0.087,-0.177l0.086,-0.177l0.085,-0.177l0.084,-0.178l0.082,-0.178l0.082,-0.179l0.081,-0.18l0.079,-0.18l0.079,-0.181l0.077,-0.181l0.077,-0.182l0.075,-0.183l0.074,-0.182l0.073,-0.184l0.072,-0.184l0.071,-0.185l0.07,-0.185l0.068,-0.186l0.068,-0.186l0.066,-0.187l0.066,-0.187l0.064,-0.188l0.063,-0.188l0.062,-0.189l0.061,-0.189l0.06,-0.19l0.058,-0.19l0.058,-0.191l0.056,-0.191l0.055,-0.192l0.054,-0.192l0.053,-0.193l0.052,-0.194l0.05,-0.193l0.05,-0.194l0.048,-0.195l0.047,-0.195l0.046,-0.196l0.044,-0.196l0.044,-0.196l0.042,-0.197l0.041,-0.198l0.04,-0.197l0.039,-0.198l0.037,-0.199l0.037,-0.2l0.035,-0.199l0.033,-0.2l0.033,-0.2l0.031,-0.201l0.03,-0.201l0.029,-0.202l0.028,-0.202l0.026,-0.202l0.026,-0.203l0.024,-0.204l0.022,-0.203l0.022,-0.204l0.02,-0.205l0.019,-0.204l0.017,-0.205l0.016,-0.206l0.016,-0.206l0.013,-0.206l0.013,-0.207l0.011,-0.207l0.01,-0.207l0.008,-0.208l0.008,-0.208l0.006,-0.208l0.004,-0.209l0.003,-0.21l0.002,-0.209l0.001,-0.21l-0.001,-0.21l-0.002,-0.209l-0.003,-0.209l-0.004,-0.209l-0.006,-0.208l-0.008,-0.208l-0.008,-0.209l-0.01,-0.207l-0.011,-0.207l-0.013,-0.206l-0.013,-0.206l-0.016,-0.206l-0.016,-0.206l-0.017,-0.206l-0.019,-0.204l-0.02,-0.204l-0.022,-0.204l-0.022,-0.204l-0.024,-0.203l-0.026,-0.203l-0.026,-0.203l-0.028,-0.201l-0.029,-0.202l-0.03,-0.202l-0.031,-0.2l-0.033,-0.201l-0.033,-0.199l-0.035,-0.2l-0.037,-0.199l-0.037,-0.199l-0.039,-0.198l-0.04,-0.198l-0.041,-0.197l-0.042,-0.197l-0.044,-0.197l-0.044,-0.196l-0.046,-0.195l-0.047,-0.195l-0.048,-0.195l-0.05,-0.194l-0.05,-0.194l-0.052,-0.193l-0.053,-0.193l-0.054,-0.192l-0.055,-0.192l-0.056,-0.191l-0.058,-0.191l-0.058,-0.19l-0.06,-0.19l-0.061,-0.19l-0.062,-0.189l-0.063,-0.188l-0.064,-0.187l-0.066,-0.188l-0.066,-0.187l-0.068,-0.186l-0.068,-0.186l-0.07,-0.185l-0.071,-0.184l-0.072,-0.185l-0.073,-0.183l-0.074,-0.183l-0.076,-0.182l-0.076,-0.182l-0.077,-0.182l-0.079,-0.181l-0.079,-0.18l-0.081,-0.179l-0.082,-0.179l-0.082,-0.179l-0.084,-0.178l-0.085,-0.177l-0.086,-0.177l-0.087,-0.176l-0.088,-0.176l-0.089,-0.175l-0.09,-0.173l-0.091,-0.174l-0.092,-0.174l-0.093,-0.172l-0.094,-0.172l-0.095,-0.171l-0.096,-0.171l-0.097,-0.17l-0.098,-0.169l-0.1,-0.169l-0.1,-0.168l-0.1,-0.167l-0.103,-0.167l-0.103,-0.166l-0.104,-0.166l-0.105,-0.164l-0.105,-0.164l-0.108,-0.164l-0.107,-0.162l-0.109,-0.162l-0.11,-0.162l-0.111,-0.161l-0.111,-0.159l-0.113,-0.16l-0.113,-0.158l-0.115,-0.158l-0.115,-0.157l-0.116,-0.156l-0.118,-0.156l-0.118,-0.155l-0.119,-0.154l-0.12,-0.154l-0.12,-0.153l-0.122,-0.152l-0.123,-0.151l-0.123,-0.151l-0.125,-0.149l-0.125,-0.15l-0.126,-0.148l-0.127,-0.147l-0.128,-0.147l-0.129,-0.146l-0.13,-0.145l-0.13,-0.144l-0.131,-0.144l-0.133,-0.143l-0.132,-0.142l-0.134,-0.141l-0.135,-0.141l-0.135,-0.139l-0.137,-0.139l-0.137,-0.138l-0.138,-0.137l-0.139,-0.137l-0.139,-0.135l-0.141,-0.135l-0.141,-0.133l-0.142,-0.134l-0.143,-0.132l-0.143,-0.131l-0.145,-0.13l-0.145,-0.13l-0.146,-0.129l-0.147,-0.128l-0.148,-0.127l-0.148,-0.126l-0.148,-0.125l-0.15,-0.124l-0.151,-0.124l-0.151,-0.123l-0.152,-0.122l-0.153,-0.12l-0.153,-0.12l-0.155,-0.119l-0.155,-0.119l-0.155,-0.117l-0.157,-0.116l-0.157,-0.115l-0.158,-0.115l-0.159,-0.113l-0.159,-0.113l-0.16,-0.112l-0.16,-0.11l-0.161,-0.11l-0.163,-0.109l-0.162,-0.108l-0.164,-0.106l-0.164,-0.106l-0.165,-0.105l-0.165,-0.104l-0.166,-0.103l-0.167,-0.102l-0.167,-0.102l-0.168,-0.1l-0.169,-0.099l-0.169,-0.098l-0.17,-0.097l-0.171,-0.096l-0.171,-0.095l-0.172,-0.094l-0.172,-0.093l-0.173,-0.092l-0.174,-0.091l-0.175,-0.09l-0.175,-0.089l-0.175,-0.088l-0.176,-0.087l-0.177,-0.086l-0.178,-0.085l-0.177,-0.084l-0.179,-0.082l-0.178,-0.082l-0.18,-0.08l-0.181,-0.08l-0.18,-0.079l-0.181,-0.077l-0.183,-0.076l-0.182,-0.076l-0.183,-0.074l-0.183,-0.073l-0.185,-0.072l-0.185,-0.071l-0.184,-0.069l-0.185,-0.069l-0.187,-0.068l-0.187,-0.066l-0.187,-0.066l-0.188,-0.064l-0.189,-0.063l-0.188,-0.062l-0.189,-0.061l-0.191,-0.06l-0.19,-0.058l-0.19,-0.058l-0.192,-0.056l-0.192,-0.055l-0.192,-0.054l-0.193,-0.053l-0.193,-0.052l-0.194,-0.05l-0.194,-0.05l-0.195,-0.048l-0.195,-0.047l-0.195,-0.046l-0.197,-0.044l-0.196,-0.044l-0.196,-0.042l-0.198,-0.041l-0.198,-0.04l-0.198,-0.039l-0.199,-0.037l-0.199,-0.036l-0.199,-0.035l-0.2,-0.034l-0.201,-0.033l-0.201,-0.031l-0.201,-0.03l-0.201,-0.029l-0.202,-0.028l-0.203,-0.026l-0.203,-0.026l-0.202,-0.023l-0.205,-0.023l-0.204,-0.022l-0.204,-0.02l-0.205,-0.019l-0.204,-0.017l-0.207,-0.016l-0.205,-0.016l-0.206,-0.013l-0.207,-0.013l-0.208,-0.011l-0.207,-0.01l-0.207,-0.008l-0.209,-0.008l-0.208,-0.006l-0.209,-0.004l-0.209,-0.003l-0.209,-0.002l-0.21,-0.001l-0.21,0.001Z" style="fill:#f1702d;"/></g><g id="t1" transform="matrix(0.301405,0,0,0.301405,546.901,148.39)"><text x="344.177px" y="309.114px" style="font-family:'Arial-BoldMT', 'Arial', sans-serif;font-weight:700;font-size:125px;fill:none;">Ai</text><text x="344.177px" y="309.114px" style="font-family:'Arial-BoldMT', 'Arial', sans-serif;font-weight:700;font-size:125px;fill:#f1702d;">Ai</text></g></g><g id="affinity-ico"><g><circle cx="221.784" cy="83.226" r="29.845" style="fill:#3554fe;"/><path d="M221.977,53.381l0.192,0.002l0.193,0.003l0.192,0.004l0.191,0.006l0.192,0.006l0.191,0.008l0.191,0.009l0.19,0.011l0.19,0.011l0.19,0.013l0.19,0.014l0.189,0.015l0.189,0.016l0.188,0.017l0.189,0.019l0.187,0.019l0.188,0.021l0.187,0.022l0.187,0.023l0.186,0.025l0.186,0.025l0.186,0.027l0.185,0.028l0.185,0.029l0.185,0.03l0.184,0.031l0.184,0.032l0.184,0.033l0.183,0.035l0.182,0.036l0.183,0.036l0.181,0.038l0.182,0.039l0.181,0.04l0.181,0.041l0.18,0.043l0.18,0.043l0.179,0.044l0.179,0.046l0.178,0.046l0.179,0.048l0.177,0.049l0.177,0.049l0.177,0.051l0.177,0.052l0.175,0.053l0.176,0.054l0.175,0.055l0.174,0.056l0.174,0.057l0.174,0.059l0.173,0.059l0.172,0.06l0.173,0.061l0.171,0.063l0.171,0.063l0.171,0.064l0.17,0.066l0.17,0.066l0.169,0.067l0.169,0.069l0.168,0.069l0.167,0.07l0.167,0.072l0.167,0.072l0.166,0.073l0.165,0.075l0.165,0.075l0.165,0.076l0.164,0.077l0.163,0.078l0.163,0.08l0.162,0.08l0.162,0.081l0.161,0.082l0.161,0.082l0.16,0.084l0.159,0.085l0.159,0.086l0.158,0.086l0.158,0.088l0.157,0.089l0.157,0.089l0.156,0.09l0.155,0.092l0.155,0.092l0.154,0.093l0.153,0.094l0.153,0.095l0.152,0.095l0.152,0.097l0.151,0.098l0.151,0.098l0.15,0.099l0.149,0.1l0.148,0.101l0.148,0.102l0.147,0.103l0.147,0.104l0.146,0.104l0.145,0.106l0.145,0.106l0.144,0.107l0.143,0.108l0.143,0.108l0.142,0.11l0.141,0.11l0.141,0.112l0.14,0.112l0.139,0.113l0.139,0.113l0.137,0.115l0.138,0.115l0.136,0.116l0.136,0.117l0.135,0.118l0.134,0.118l0.134,0.119l0.133,0.121l0.132,0.12l0.131,0.122l0.131,0.122l0.13,0.124l0.129,0.124l0.129,0.124l0.127,0.126l0.127,0.126l0.127,0.127l0.125,0.128l0.125,0.128l0.124,0.129l0.123,0.13l0.122,0.131l0.122,0.132l0.121,0.132l0.12,0.133l0.119,0.133l0.119,0.135l0.117,0.135l0.117,0.135l0.116,0.137l0.116,0.137l0.114,0.138l0.114,0.138l0.113,0.14l0.112,0.14l0.111,0.14l0.11,0.142l0.11,0.142l0.109,0.142l0.108,0.144l0.107,0.143l0.106,0.145l0.105,0.145l0.105,0.146l0.103,0.147l0.103,0.147l0.102,0.148l0.101,0.149l0.1,0.149l0.099,0.15l0.099,0.15l0.097,0.151l0.097,0.152l0.096,0.152l0.095,0.153l0.094,0.154l0.093,0.154l0.092,0.155l0.091,0.155l0.09,0.156l0.09,0.156l0.088,0.158l0.088,0.157l0.087,0.159l0.085,0.158l0.085,0.16l0.084,0.16l0.083,0.16l0.082,0.162l0.081,0.161l0.08,0.162l0.079,0.163l0.078,0.164l0.077,0.164l0.077,0.164l0.075,0.165l0.074,0.165l0.073,0.167l0.073,0.166l0.071,0.167l0.07,0.168l0.07,0.168l0.068,0.169l0.067,0.169l0.067,0.169l0.065,0.17l0.064,0.171l0.064,0.171l0.062,0.172l0.061,0.172l0.061,0.173l0.059,0.173l0.058,0.173l0.057,0.174l0.056,0.175l0.055,0.175l0.054,0.175l0.053,0.176l0.052,0.176l0.051,0.177l0.05,0.177l0.048,0.178l0.048,0.178l0.047,0.178l0.045,0.179l0.045,0.18l0.043,0.18l0.042,0.18l0.041,0.181l0.04,0.181l0.039,0.181l0.038,0.182l0.037,0.182l0.036,0.183l0.034,0.183l0.033,0.183l0.033,0.184l0.031,0.184l0.03,0.185l0.029,0.185l0.028,0.185l0.026,0.186l0.026,0.186l0.024,0.187l0.023,0.186l0.022,0.188l0.021,0.187l0.02,0.188l0.018,0.188l0.018,0.189l0.016,0.188l0.015,0.19l0.014,0.189l0.012,0.19l0.012,0.19l0.01,0.191l0.009,0.191l0.008,0.191l0.007,0.191l0.005,0.192l0.004,0.192l0.004,0.192l0.001,0.193l0.001,0.193l-0.001,0.192l-0.001,0.193l-0.004,0.192l-0.004,0.192l-0.005,0.192l-0.007,0.192l-0.008,0.191l-0.009,0.19l-0.01,0.191l-0.012,0.19l-0.012,0.19l-0.014,0.189l-0.015,0.19l-0.016,0.189l-0.018,0.188l-0.018,0.188l-0.02,0.188l-0.021,0.188l-0.022,0.187l-0.023,0.187l-0.024,0.186l-0.026,0.186l-0.026,0.186l-0.028,0.185l-0.029,0.185l-0.03,0.185l-0.031,0.184l-0.033,0.184l-0.033,0.183l-0.034,0.183l-0.036,0.183l-0.037,0.182l-0.038,0.182l-0.039,0.182l-0.04,0.181l-0.041,0.18l-0.042,0.18l-0.043,0.18l-0.045,0.18l-0.045,0.179l-0.047,0.178l-0.048,0.178l-0.048,0.178l-0.05,0.177l-0.051,0.177l-0.052,0.176l-0.053,0.176l-0.054,0.175l-0.055,0.175l-0.056,0.175l-0.057,0.174l-0.058,0.173l-0.059,0.174l-0.061,0.172l-0.061,0.172l-0.062,0.172l-0.064,0.171l-0.064,0.171l-0.065,0.17l-0.067,0.169l-0.067,0.17l-0.068,0.168l-0.07,0.168l-0.07,0.168l-0.071,0.167l-0.073,0.167l-0.073,0.166l-0.074,0.165l-0.075,0.165l-0.077,0.165l-0.077,0.163l-0.078,0.164l-0.079,0.163l-0.08,0.162l-0.081,0.162l-0.082,0.161l-0.083,0.16l-0.084,0.16l-0.085,0.16l-0.085,0.159l-0.087,0.158l-0.088,0.158l-0.088,0.157l-0.09,0.156l-0.09,0.156l-0.091,0.156l-0.092,0.154l-0.093,0.154l-0.094,0.154l-0.095,0.153l-0.096,0.152l-0.097,0.152l-0.097,0.151l-0.099,0.15l-0.099,0.15l-0.1,0.149l-0.101,0.149l-0.102,0.148l-0.103,0.147l-0.103,0.147l-0.105,0.146l-0.105,0.145l-0.106,0.145l-0.107,0.144l-0.108,0.143l-0.109,0.143l-0.11,0.142l-0.11,0.141l-0.111,0.141l-0.112,0.139l-0.113,0.14l-0.114,0.138l-0.114,0.138l-0.116,0.137l-0.116,0.137l-0.117,0.135l-0.117,0.136l-0.119,0.134l-0.119,0.133l-0.12,0.133l-0.121,0.133l-0.122,0.131l-0.122,0.131l-0.123,0.13l-0.124,0.129l-0.125,0.128l-0.125,0.128l-0.127,0.127l-0.127,0.126l-0.127,0.126l-0.129,0.125l-0.129,0.123l-0.13,0.124l-0.131,0.122l-0.131,0.122l-0.132,0.121l-0.133,0.12l-0.134,0.119l-0.134,0.118l-0.135,0.118l-0.136,0.117l-0.136,0.116l-0.138,0.115l-0.137,0.115l-0.139,0.114l-0.139,0.112l-0.14,0.113l-0.141,0.111l-0.141,0.11l-0.142,0.11l-0.143,0.108l-0.143,0.108l-0.144,0.107l-0.145,0.106l-0.145,0.106l-0.146,0.104l-0.147,0.104l-0.147,0.103l-0.148,0.102l-0.148,0.101l-0.149,0.1l-0.15,0.099l-0.151,0.099l-0.151,0.097l-0.152,0.097l-0.152,0.096l-0.153,0.094l-0.153,0.094l-0.154,0.093l-0.155,0.093l-0.155,0.091l-0.156,0.09l-0.157,0.09l-0.157,0.088l-0.158,0.088l-0.158,0.086l-0.159,0.086l-0.159,0.085l-0.16,0.084l-0.161,0.083l-0.161,0.082l-0.162,0.081l-0.162,0.08l-0.163,0.079l-0.163,0.078l-0.164,0.077l-0.165,0.076l-0.165,0.076l-0.165,0.074l-0.166,0.073l-0.167,0.072l-0.167,0.072l-0.167,0.07l-0.168,0.069l-0.169,0.069l-0.169,0.067l-0.17,0.066l-0.17,0.066l-0.171,0.064l-0.171,0.063l-0.171,0.063l-0.173,0.061l-0.172,0.06l-0.173,0.059l-0.174,0.059l-0.174,0.057l-0.174,0.056l-0.175,0.055l-0.176,0.054l-0.175,0.053l-0.177,0.052l-0.177,0.051l-0.177,0.049l-0.177,0.049l-0.179,0.048l-0.178,0.046l-0.179,0.046l-0.179,0.044l-0.18,0.044l-0.18,0.042l-0.181,0.041l-0.181,0.04l-0.182,0.039l-0.181,0.038l-0.183,0.037l-0.182,0.035l-0.183,0.035l-0.184,0.033l-0.184,0.032l-0.184,0.032l-0.185,0.03l-0.185,0.029l-0.185,0.027l-0.186,0.027l-0.186,0.025l-0.186,0.025l-0.187,0.023l-0.187,0.022l-0.188,0.021l-0.187,0.019l-0.189,0.019l-0.188,0.017l-0.189,0.017l-0.189,0.015l-0.19,0.013l-0.19,0.013l-0.19,0.012l-0.19,0.01l-0.191,0.009l-0.191,0.008l-0.192,0.006l-0.191,0.006l-0.192,0.004l-0.193,0.003l-0.192,0.002l-0.193,0.001l-0.193,-0.001l-0.193,-0.002l-0.192,-0.003l-0.192,-0.004l-0.192,-0.006l-0.191,-0.006l-0.191,-0.008l-0.191,-0.009l-0.19,-0.01l-0.191,-0.012l-0.189,-0.013l-0.19,-0.013l-0.189,-0.015l-0.189,-0.017l-0.189,-0.017l-0.188,-0.019l-0.188,-0.019l-0.187,-0.021l-0.187,-0.022l-0.187,-0.023l-0.187,-0.025l-0.186,-0.025l-0.185,-0.027l-0.186,-0.027l-0.185,-0.029l-0.184,-0.03l-0.185,-0.032l-0.183,-0.032l-0.184,-0.033l-0.183,-0.035l-0.183,-0.035l-0.182,-0.037l-0.182,-0.038l-0.181,-0.039l-0.181,-0.04l-0.181,-0.041l-0.18,-0.042l-0.18,-0.044l-0.179,-0.044l-0.179,-0.046l-0.179,-0.046l-0.178,-0.048l-0.177,-0.049l-0.178,-0.049l-0.176,-0.051l-0.177,-0.052l-0.176,-0.053l-0.175,-0.054l-0.175,-0.055l-0.174,-0.056l-0.175,-0.057l-0.173,-0.059l-0.173,-0.059l-0.173,-0.06l-0.172,-0.061l-0.171,-0.063l-0.172,-0.063l-0.17,-0.064l-0.17,-0.066l-0.17,-0.066l-0.169,-0.067l-0.169,-0.069l-0.168,-0.069l-0.168,-0.07l-0.167,-0.072l-0.166,-0.072l-0.166,-0.073l-0.166,-0.074l-0.165,-0.076l-0.164,-0.076l-0.164,-0.077l-0.163,-0.078l-0.163,-0.079l-0.162,-0.08l-0.162,-0.081l-0.161,-0.082l-0.161,-0.083l-0.16,-0.084l-0.159,-0.085l-0.159,-0.086l-0.158,-0.086l-0.158,-0.088l-0.157,-0.088l-0.157,-0.09l-0.156,-0.09l-0.155,-0.091l-0.155,-0.093l-0.154,-0.093l-0.154,-0.094l-0.152,-0.094l-0.153,-0.096l-0.151,-0.097l-0.152,-0.097l-0.15,-0.099l-0.15,-0.099l-0.149,-0.1l-0.149,-0.101l-0.147,-0.102l-0.148,-0.103l-0.146,-0.104l-0.146,-0.104l-0.146,-0.106l-0.144,-0.106l-0.144,-0.107l-0.144,-0.108l-0.142,-0.108l-0.142,-0.11l-0.141,-0.11l-0.141,-0.111l-0.14,-0.113l-0.139,-0.112l-0.139,-0.114l-0.138,-0.115l-0.137,-0.115l-0.136,-0.116l-0.136,-0.117l-0.135,-0.118l-0.134,-0.118l-0.134,-0.119l-0.133,-0.12l-0.132,-0.121l-0.132,-0.122l-0.13,-0.122l-0.13,-0.124l-0.129,-0.123l-0.129,-0.125l-0.128,-0.126l-0.127,-0.126l-0.126,-0.127l-0.125,-0.128l-0.125,-0.128l-0.124,-0.129l-0.123,-0.13l-0.123,-0.131l-0.121,-0.131l-0.121,-0.133l-0.12,-0.133l-0.12,-0.133l-0.118,-0.134l-0.118,-0.136l-0.117,-0.135l-0.116,-0.137l-0.115,-0.137l-0.115,-0.138l-0.113,-0.138l-0.113,-0.14l-0.112,-0.139l-0.111,-0.141l-0.111,-0.141l-0.109,-0.142l-0.109,-0.143l-0.108,-0.143l-0.107,-0.144l-0.106,-0.145l-0.105,-0.145l-0.105,-0.146l-0.104,-0.147l-0.102,-0.147l-0.102,-0.148l-0.101,-0.149l-0.1,-0.149l-0.1,-0.15l-0.098,-0.15l-0.098,-0.151l-0.096,-0.152l-0.096,-0.152l-0.095,-0.153l-0.094,-0.154l-0.093,-0.154l-0.092,-0.154l-0.091,-0.156l-0.091,-0.156l-0.089,-0.156l-0.089,-0.157l-0.087,-0.158l-0.087,-0.158l-0.086,-0.159l-0.084,-0.16l-0.084,-0.16l-0.083,-0.16l-0.082,-0.161l-0.081,-0.162l-0.08,-0.162l-0.079,-0.163l-0.078,-0.164l-0.078,-0.163l-0.076,-0.165l-0.075,-0.165l-0.074,-0.165l-0.074,-0.166l-0.072,-0.167l-0.071,-0.167l-0.071,-0.168l-0.069,-0.168l-0.068,-0.168l-0.068,-0.17l-0.066,-0.169l-0.065,-0.17l-0.065,-0.171l-0.063,-0.171l-0.062,-0.172l-0.062,-0.172l-0.06,-0.172l-0.059,-0.174l-0.058,-0.173l-0.057,-0.174l-0.056,-0.175l-0.056,-0.175l-0.054,-0.175l-0.052,-0.176l-0.052,-0.176l-0.051,-0.177l-0.05,-0.177l-0.049,-0.178l-0.047,-0.178l-0.047,-0.178l-0.045,-0.179l-0.045,-0.18l-0.043,-0.18l-0.042,-0.18l-0.042,-0.18l-0.04,-0.181l-0.039,-0.182l-0.037,-0.182l-0.037,-0.182l-0.036,-0.183l-0.034,-0.183l-0.034,-0.183l-0.032,-0.184l-0.031,-0.184l-0.03,-0.185l-0.029,-0.185l-0.028,-0.185l-0.026,-0.186l-0.026,-0.186l-0.024,-0.186l-0.023,-0.187l-0.022,-0.187l-0.021,-0.188l-0.02,-0.188l-0.019,-0.188l-0.017,-0.188l-0.016,-0.189l-0.015,-0.19l-0.014,-0.189l-0.013,-0.19l-0.011,-0.19l-0.01,-0.191l-0.009,-0.19l-0.008,-0.191l-0.007,-0.192l-0.005,-0.192l-0.005,-0.192l-0.003,-0.192l-0.002,-0.193l0,-0.192l0,-0.193l0.002,-0.193l0.003,-0.192l0.005,-0.192l0.005,-0.192l0.007,-0.191l0.008,-0.191l0.009,-0.191l0.01,-0.191l0.011,-0.19l0.013,-0.19l0.014,-0.189l0.015,-0.19l0.016,-0.188l0.017,-0.189l0.019,-0.188l0.02,-0.188l0.021,-0.187l0.022,-0.188l0.023,-0.186l0.024,-0.187l0.026,-0.186l0.026,-0.186l0.028,-0.185l0.029,-0.185l0.03,-0.185l0.031,-0.184l0.032,-0.184l0.034,-0.183l0.034,-0.183l0.036,-0.183l0.037,-0.182l0.037,-0.182l0.039,-0.181l0.04,-0.181l0.042,-0.181l0.042,-0.18l0.043,-0.18l0.045,-0.18l0.045,-0.179l0.047,-0.178l0.047,-0.178l0.049,-0.178l0.05,-0.177l0.051,-0.177l0.052,-0.176l0.052,-0.176l0.054,-0.175l0.056,-0.175l0.056,-0.175l0.057,-0.174l0.058,-0.173l0.059,-0.173l0.06,-0.173l0.062,-0.172l0.062,-0.172l0.063,-0.171l0.065,-0.171l0.065,-0.17l0.066,-0.169l0.068,-0.169l0.068,-0.169l0.069,-0.168l0.071,-0.168l0.071,-0.167l0.072,-0.166l0.074,-0.167l0.074,-0.165l0.075,-0.165l0.076,-0.164l0.078,-0.164l0.078,-0.164l0.079,-0.163l0.08,-0.162l0.081,-0.161l0.082,-0.162l0.083,-0.16l0.084,-0.16l0.084,-0.16l0.086,-0.158l0.087,-0.159l0.087,-0.157l0.089,-0.158l0.089,-0.156l0.091,-0.156l0.091,-0.155l0.092,-0.155l0.093,-0.154l0.094,-0.154l0.095,-0.153l0.096,-0.152l0.096,-0.152l0.098,-0.151l0.098,-0.15l0.1,-0.15l0.1,-0.149l0.101,-0.149l0.102,-0.148l0.102,-0.147l0.104,-0.147l0.105,-0.146l0.105,-0.145l0.106,-0.145l0.107,-0.143l0.108,-0.144l0.109,-0.142l0.109,-0.142l0.111,-0.142l0.111,-0.14l0.112,-0.14l0.113,-0.14l0.113,-0.138l0.115,-0.138l0.115,-0.137l0.116,-0.137l0.117,-0.135l0.118,-0.135l0.118,-0.135l0.12,-0.133l0.12,-0.133l0.121,-0.132l0.121,-0.132l0.123,-0.131l0.123,-0.13l0.124,-0.129l0.125,-0.128l0.125,-0.128l0.126,-0.127l0.127,-0.126l0.128,-0.126l0.129,-0.124l0.129,-0.124l0.13,-0.124l0.13,-0.122l0.132,-0.122l0.132,-0.12l0.133,-0.121l0.134,-0.119l0.134,-0.118l0.135,-0.118l0.136,-0.117l0.136,-0.116l0.137,-0.115l0.138,-0.115l0.139,-0.113l0.139,-0.113l0.14,-0.112l0.141,-0.112l0.141,-0.11l0.142,-0.11l0.142,-0.108l0.144,-0.108l0.144,-0.107l0.144,-0.106l0.146,-0.106l0.146,-0.104l0.146,-0.104l0.148,-0.103l0.147,-0.102l0.149,-0.101l0.149,-0.1l0.15,-0.099l0.15,-0.098l0.152,-0.098l0.151,-0.097l0.153,-0.095l0.152,-0.095l0.154,-0.094l0.154,-0.093l0.155,-0.092l0.155,-0.092l0.156,-0.09l0.157,-0.089l0.157,-0.089l0.158,-0.088l0.158,-0.086l0.159,-0.086l0.159,-0.085l0.16,-0.084l0.161,-0.082l0.161,-0.082l0.162,-0.081l0.162,-0.08l0.163,-0.08l0.163,-0.078l0.164,-0.077l0.164,-0.076l0.165,-0.075l0.166,-0.075l0.166,-0.073l0.166,-0.072l0.167,-0.072l0.168,-0.07l0.168,-0.069l0.169,-0.069l0.169,-0.067l0.17,-0.066l0.17,-0.066l0.17,-0.064l0.172,-0.063l0.171,-0.063l0.172,-0.061l0.173,-0.06l0.173,-0.059l0.173,-0.059l0.175,-0.057l0.174,-0.056l0.175,-0.055l0.175,-0.054l0.176,-0.053l0.177,-0.052l0.176,-0.051l0.178,-0.049l0.177,-0.049l0.178,-0.048l0.179,-0.046l0.179,-0.046l0.179,-0.044l0.18,-0.043l0.18,-0.043l0.181,-0.041l0.181,-0.04l0.181,-0.039l0.182,-0.038l0.182,-0.036l0.183,-0.036l0.183,-0.035l0.184,-0.033l0.183,-0.032l0.185,-0.031l0.184,-0.03l0.185,-0.029l0.186,-0.028l0.185,-0.027l0.186,-0.025l0.187,-0.025l0.187,-0.023l0.187,-0.022l0.187,-0.021l0.188,-0.019l0.188,-0.019l0.189,-0.017l0.189,-0.016l0.189,-0.015l0.19,-0.014l0.189,-0.013l0.191,-0.011l0.19,-0.011l0.191,-0.009l0.191,-0.008l0.191,-0.006l0.192,-0.006l0.192,-0.004l0.192,-0.003l0.193,-0.002l0.193,-0.001l0.193,0.001Zm-0.366,3l-0.175,0.002l-0.173,0.002l-0.173,0.004l-0.173,0.005l-0.172,0.006l-0.172,0.007l-0.172,0.009l-0.172,0.009l-0.171,0.01l-0.171,0.011l-0.17,0.013l-0.169,0.013l-0.171,0.015l-0.171,0.016l-0.168,0.016l-0.169,0.018l-0.169,0.019l-0.169,0.02l-0.168,0.021l-0.167,0.021l-0.166,0.023l-0.169,0.024l-0.167,0.025l-0.165,0.026l-0.166,0.027l-0.166,0.028l-0.165,0.029l-0.164,0.03l-0.164,0.031l-0.166,0.032l-0.165,0.034l-0.163,0.033l-0.162,0.035l-0.162,0.036l-0.163,0.037l-0.163,0.038l-0.162,0.039l-0.16,0.04l-0.16,0.041l-0.162,0.042l-0.159,0.042l-0.159,0.044l-0.161,0.045l-0.159,0.046l-0.158,0.046l-0.157,0.048l-0.158,0.049l-0.157,0.049l-0.158,0.051l-0.156,0.051l-0.156,0.052l-0.156,0.053l-0.154,0.054l-0.154,0.055l-0.156,0.057l-0.153,0.057l-0.154,0.057l-0.152,0.059l-0.152,0.059l-0.152,0.061l-0.153,0.062l-0.152,0.062l-0.148,0.063l-0.151,0.064l-0.151,0.066l-0.147,0.065l-0.15,0.067l-0.148,0.068l-0.149,0.068l-0.148,0.07l-0.146,0.07l-0.145,0.07l-0.146,0.073l-0.147,0.073l-0.144,0.073l-0.144,0.075l-0.144,0.075l-0.143,0.076l-0.144,0.078l-0.142,0.078l-0.142,0.078l-0.142,0.081l-0.14,0.079l-0.14,0.081l-0.14,0.083l-0.139,0.083l-0.138,0.083l-0.139,0.085l-0.137,0.085l-0.137,0.086l-0.137,0.087l-0.136,0.088l-0.135,0.088l-0.134,0.09l-0.136,0.091l-0.133,0.09l-0.132,0.091l-0.134,0.094l-0.132,0.093l-0.131,0.093l-0.131,0.095l-0.13,0.096l-0.128,0.095l-0.13,0.098l-0.129,0.098l-0.126,0.098l-0.128,0.1l-0.128,0.101l-0.126,0.1l-0.124,0.101l-0.124,0.102l-0.125,0.104l-0.124,0.104l-0.123,0.104l-0.121,0.105l-0.122,0.107l-0.121,0.106l-0.121,0.108l-0.12,0.108l-0.118,0.108l-0.118,0.109l-0.118,0.111l-0.118,0.112l-0.115,0.11l-0.115,0.112l-0.116,0.113l-0.115,0.115l-0.113,0.114l-0.113,0.114l-0.112,0.116l-0.111,0.116l-0.112,0.118l-0.11,0.118l-0.109,0.117l-0.109,0.12l-0.109,0.12l-0.107,0.12l-0.106,0.12l-0.106,0.122l-0.105,0.122l-0.105,0.123l-0.104,0.124l-0.103,0.124l-0.102,0.125l-0.102,0.124l-0.1,0.126l-0.101,0.128l-0.099,0.127l-0.099,0.127l-0.097,0.129l-0.098,0.129l-0.096,0.129l-0.095,0.13l-0.096,0.132l-0.094,0.131l-0.092,0.131l-0.093,0.132l-0.092,0.134l-0.091,0.134l-0.09,0.134l-0.089,0.135l-0.089,0.135l-0.087,0.136l-0.087,0.136l-0.086,0.137l-0.086,0.138l-0.085,0.138l-0.083,0.139l-0.083,0.139l-0.082,0.14l-0.081,0.14l-0.081,0.141l-0.079,0.141l-0.079,0.142l-0.078,0.142l-0.077,0.143l-0.077,0.144l-0.075,0.144l-0.074,0.143l-0.074,0.145l-0.073,0.146l-0.072,0.146l-0.071,0.147l-0.07,0.146l-0.069,0.147l-0.069,0.148l-0.068,0.149l-0.067,0.148l-0.066,0.15l-0.064,0.149l-0.064,0.15l-0.064,0.151l-0.062,0.152l-0.061,0.151l-0.061,0.152l-0.06,0.152l-0.058,0.153l-0.058,0.154l-0.057,0.153l-0.056,0.155l-0.055,0.154l-0.054,0.156l-0.054,0.155l-0.052,0.156l-0.051,0.157l-0.051,0.156l-0.049,0.157l-0.049,0.158l-0.047,0.158l-0.047,0.159l-0.046,0.159l-0.044,0.158l-0.044,0.16l-0.043,0.16l-0.042,0.161l-0.041,0.161l-0.04,0.161l-0.038,0.161l-0.039,0.163l-0.036,0.162l-0.036,0.162l-0.035,0.163l-0.035,0.164l-0.033,0.164l-0.031,0.164l-0.032,0.165l-0.03,0.164l-0.029,0.166l-0.028,0.165l-0.027,0.166l-0.026,0.167l-0.025,0.166l-0.023,0.167l-0.023,0.168l-0.022,0.167l-0.021,0.169l-0.02,0.168l-0.019,0.168l-0.017,0.169l-0.017,0.17l-0.016,0.17l-0.014,0.169l-0.014,0.171l-0.012,0.17l-0.012,0.171l-0.01,0.171l-0.009,0.172l-0.008,0.172l-0.007,0.172l-0.007,0.172l-0.004,0.173l-0.004,0.173l-0.003,0.173l-0.002,0.174l0,0.173l0,0.174l0.002,0.174l0.003,0.173l0.004,0.173l0.004,0.173l0.007,0.172l0.007,0.172l0.008,0.172l0.009,0.172l0.01,0.171l0.012,0.171l0.012,0.171l0.014,0.17l0.014,0.17l0.016,0.169l0.017,0.17l0.017,0.169l0.019,0.168l0.02,0.169l0.021,0.168l0.022,0.167l0.023,0.168l0.023,0.167l0.025,0.166l0.026,0.167l0.027,0.166l0.028,0.165l0.029,0.166l0.03,0.165l0.032,0.164l0.031,0.164l0.033,0.164l0.035,0.164l0.035,0.163l0.036,0.162l0.036,0.163l0.039,0.162l0.038,0.162l0.04,0.161l0.041,0.16l0.042,0.161l0.043,0.16l0.044,0.16l0.044,0.159l0.046,0.158l0.047,0.159l0.047,0.158l0.049,0.158l0.049,0.157l0.051,0.157l0.051,0.156l0.052,0.156l0.054,0.155l0.054,0.156l0.055,0.155l0.056,0.154l0.057,0.153l0.058,0.154l0.058,0.153l0.06,0.152l0.061,0.153l0.061,0.151l0.062,0.151l0.063,0.151l0.064,0.149l0.066,0.151l0.066,0.149l0.066,0.148l0.068,0.149l0.069,0.148l0.069,0.147l0.07,0.147l0.071,0.147l0.072,0.145l0.073,0.146l0.074,0.145l0.074,0.144l0.075,0.143l0.077,0.144l0.077,0.143l0.078,0.142l0.079,0.142l0.079,0.141l0.081,0.141l0.081,0.141l0.082,0.14l0.083,0.139l0.083,0.138l0.085,0.138l0.085,0.138l0.087,0.137l0.087,0.137l0.087,0.135l0.089,0.135l0.089,0.135l0.09,0.134l0.091,0.134l0.092,0.134l0.093,0.132l0.092,0.131l0.094,0.132l0.096,0.131l0.095,0.131l0.096,0.128l0.098,0.13l0.097,0.128l0.099,0.127l0.099,0.128l0.1,0.126l0.101,0.127l0.102,0.125l0.102,0.125l0.103,0.123l0.104,0.124l0.105,0.123l0.104,0.122l0.107,0.121l0.107,0.122l0.106,0.119l0.109,0.12l0.109,0.12l0.109,0.118l0.11,0.117l0.112,0.118l0.111,0.116l0.112,0.116l0.113,0.114l0.113,0.114l0.115,0.115l0.115,0.112l0.116,0.112l0.116,0.112l0.117,0.111l0.118,0.111l0.118,0.109l0.118,0.108l0.12,0.108l0.121,0.108l0.121,0.107l0.122,0.106l0.121,0.105l0.123,0.104l0.124,0.104l0.125,0.104l0.124,0.102l0.124,0.101l0.126,0.1l0.128,0.101l0.128,0.1l0.126,0.098l0.129,0.098l0.13,0.098l0.128,0.095l0.13,0.096l0.131,0.095l0.131,0.093l0.132,0.093l0.134,0.094l0.132,0.091l0.133,0.091l0.136,0.091l0.134,0.089l0.135,0.088l0.136,0.088l0.137,0.087l0.137,0.086l0.137,0.085l0.139,0.085l0.138,0.084l0.139,0.082l0.139,0.082l0.141,0.082l0.141,0.08l0.141,0.08l0.142,0.078l0.142,0.078l0.144,0.078l0.143,0.076l0.144,0.075l0.144,0.075l0.144,0.073l0.147,0.074l0.146,0.072l0.145,0.07l0.146,0.07l0.148,0.07l0.149,0.069l0.148,0.067l0.15,0.068l0.147,0.065l0.151,0.065l0.151,0.064l0.148,0.063l0.152,0.062l0.153,0.062l0.152,0.061l0.152,0.059l0.152,0.059l0.154,0.058l0.153,0.056l0.154,0.056l0.155,0.055l0.157,0.055l0.155,0.053l0.155,0.052l0.156,0.052l0.158,0.05l0.157,0.05l0.158,0.048l0.157,0.048l0.158,0.046l0.159,0.046l0.16,0.045l0.16,0.044l0.161,0.043l0.158,0.041l0.162,0.041l0.162,0.04l0.16,0.039l0.163,0.038l0.163,0.037l0.161,0.036l0.163,0.035l0.164,0.034l0.164,0.033l0.164,0.032l0.166,0.031l0.165,0.03l0.164,0.029l0.166,0.028l0.164,0.027l0.167,0.026l0.168,0.025l0.168,0.024l0.166,0.023l0.167,0.022l0.168,0.02l0.169,0.02l0.169,0.019l0.169,0.018l0.168,0.016l0.171,0.016l0.171,0.015l0.169,0.013l0.17,0.013l0.171,0.011l0.171,0.01l0.172,0.01l0.172,0.008l0.172,0.007l0.172,0.006l0.173,0.005l0.173,0.004l0.173,0.002l0.174,0.002l0.174,0.001l0.174,-0.001l0.174,-0.002l0.173,-0.002l0.173,-0.004l0.172,-0.005l0.173,-0.006l0.172,-0.007l0.171,-0.008l0.173,-0.01l0.171,-0.01l0.17,-0.011l0.17,-0.013l0.17,-0.013l0.171,-0.015l0.17,-0.016l0.169,-0.016l0.168,-0.018l0.17,-0.019l0.168,-0.02l0.169,-0.02l0.167,-0.022l0.166,-0.023l0.167,-0.024l0.169,-0.025l0.166,-0.026l0.165,-0.027l0.166,-0.028l0.164,-0.029l0.165,-0.03l0.166,-0.031l0.164,-0.032l0.163,-0.033l0.165,-0.034l0.163,-0.035l0.161,-0.036l0.163,-0.037l0.163,-0.038l0.16,-0.039l0.162,-0.04l0.162,-0.041l0.158,-0.041l0.161,-0.043l0.16,-0.044l0.16,-0.045l0.159,-0.046l0.158,-0.046l0.157,-0.048l0.158,-0.048l0.157,-0.05l0.157,-0.05l0.157,-0.052l0.155,-0.052l0.155,-0.053l0.157,-0.055l0.154,-0.055l0.154,-0.056l0.154,-0.056l0.153,-0.058l0.153,-0.059l0.152,-0.059l0.152,-0.061l0.152,-0.062l0.152,-0.062l0.149,-0.063l0.151,-0.064l0.151,-0.065l0.147,-0.065l0.149,-0.068l0.149,-0.067l0.149,-0.069l0.147,-0.07l0.146,-0.07l0.146,-0.07l0.146,-0.072l0.147,-0.074l0.144,-0.073l0.144,-0.075l0.144,-0.075l0.142,-0.076l0.144,-0.078l0.143,-0.078l0.141,-0.078l0.142,-0.08l0.14,-0.08l0.141,-0.082l0.14,-0.082l0.139,-0.082l0.138,-0.084l0.139,-0.085l0.137,-0.085l0.137,-0.086l0.137,-0.087l0.136,-0.088l0.135,-0.088l0.134,-0.089l0.136,-0.091l0.133,-0.091l0.132,-0.091l0.134,-0.094l0.132,-0.093l0.13,-0.093l0.131,-0.095l0.13,-0.096l0.129,-0.095l0.13,-0.098l0.128,-0.098l0.127,-0.098l0.128,-0.1l0.128,-0.101l0.125,-0.1l0.125,-0.101l0.124,-0.102l0.125,-0.104l0.124,-0.104l0.122,-0.104l0.122,-0.105l0.122,-0.106l0.121,-0.107l0.12,-0.108l0.12,-0.108l0.119,-0.108l0.118,-0.109l0.117,-0.111l0.118,-0.111l0.116,-0.112l0.116,-0.112l0.114,-0.112l0.115,-0.115l0.114,-0.114l0.112,-0.114l0.113,-0.116l0.111,-0.116l0.112,-0.118l0.11,-0.117l0.109,-0.118l0.109,-0.12l0.109,-0.12l0.106,-0.119l0.107,-0.122l0.107,-0.121l0.104,-0.122l0.105,-0.123l0.104,-0.124l0.103,-0.123l0.102,-0.125l0.101,-0.125l0.101,-0.127l0.101,-0.126l0.099,-0.128l0.098,-0.127l0.098,-0.129l0.097,-0.129l0.096,-0.128l0.096,-0.131l0.095,-0.131l0.094,-0.132l0.093,-0.131l0.092,-0.132l0.093,-0.134l0.09,-0.133l0.09,-0.135l0.09,-0.135l0.089,-0.135l0.087,-0.135l0.087,-0.137l0.086,-0.137l0.086,-0.138l0.084,-0.138l0.084,-0.138l0.082,-0.139l0.083,-0.14l0.081,-0.141l0.081,-0.141l0.079,-0.141l0.079,-0.142l0.078,-0.142l0.077,-0.143l0.076,-0.144l0.076,-0.144l0.074,-0.143l0.074,-0.145l0.072,-0.146l0.072,-0.145l0.072,-0.148l0.07,-0.146l0.069,-0.147l0.069,-0.148l0.068,-0.149l0.066,-0.148l0.066,-0.149l0.065,-0.151l0.064,-0.149l0.063,-0.151l0.063,-0.151l0.061,-0.152l0.061,-0.152l0.059,-0.152l0.059,-0.153l0.058,-0.154l0.057,-0.153l0.056,-0.154l0.055,-0.155l0.054,-0.155l0.053,-0.156l0.053,-0.156l0.051,-0.156l0.05,-0.157l0.05,-0.157l0.048,-0.158l0.048,-0.158l0.047,-0.159l0.045,-0.158l0.045,-0.159l0.044,-0.16l0.043,-0.16l0.042,-0.161l0.04,-0.16l0.04,-0.161l0.039,-0.162l0.038,-0.162l0.037,-0.162l0.036,-0.163l0.035,-0.163l0.034,-0.164l0.033,-0.164l0.032,-0.164l0.031,-0.164l0.03,-0.165l0.029,-0.166l0.028,-0.165l0.027,-0.166l0.026,-0.167l0.025,-0.166l0.024,-0.167l0.023,-0.168l0.022,-0.167l0.021,-0.168l0.02,-0.169l0.018,-0.168l0.018,-0.169l0.017,-0.17l0.015,-0.169l0.015,-0.17l0.014,-0.171l0.012,-0.17l0.011,-0.171l0.011,-0.171l0.009,-0.172l0.008,-0.171l0.007,-0.173l0.006,-0.172l0.005,-0.173l0.004,-0.173l0.003,-0.173l0.001,-0.174l0.001,-0.174l-0.001,-0.173l-0.001,-0.174l-0.003,-0.173l-0.004,-0.173l-0.005,-0.173l-0.006,-0.172l-0.007,-0.172l-0.008,-0.172l-0.009,-0.172l-0.011,-0.171l-0.011,-0.171l-0.012,-0.17l-0.014,-0.171l-0.015,-0.17l-0.015,-0.169l-0.017,-0.17l-0.018,-0.169l-0.018,-0.168l-0.02,-0.169l-0.021,-0.168l-0.022,-0.167l-0.023,-0.168l-0.024,-0.167l-0.025,-0.166l-0.026,-0.167l-0.027,-0.166l-0.028,-0.165l-0.029,-0.166l-0.03,-0.164l-0.031,-0.165l-0.032,-0.164l-0.033,-0.164l-0.034,-0.164l-0.035,-0.163l-0.036,-0.162l-0.037,-0.162l-0.038,-0.163l-0.039,-0.161l-0.04,-0.161l-0.04,-0.161l-0.042,-0.161l-0.043,-0.16l-0.044,-0.16l-0.045,-0.158l-0.045,-0.159l-0.047,-0.159l-0.048,-0.158l-0.048,-0.158l-0.05,-0.157l-0.05,-0.156l-0.051,-0.157l-0.053,-0.156l-0.053,-0.155l-0.054,-0.155l-0.055,-0.155l-0.056,-0.155l-0.057,-0.153l-0.058,-0.154l-0.059,-0.153l-0.059,-0.152l-0.061,-0.152l-0.061,-0.151l-0.063,-0.152l-0.063,-0.151l-0.064,-0.15l-0.065,-0.149l-0.066,-0.149l-0.066,-0.149l-0.068,-0.149l-0.069,-0.148l-0.069,-0.147l-0.07,-0.146l-0.072,-0.147l-0.072,-0.146l-0.072,-0.146l-0.074,-0.145l-0.074,-0.143l-0.076,-0.144l-0.076,-0.144l-0.077,-0.143l-0.078,-0.142l-0.079,-0.142l-0.079,-0.141l-0.081,-0.141l-0.081,-0.14l-0.083,-0.141l-0.082,-0.138l-0.084,-0.139l-0.084,-0.138l-0.086,-0.138l-0.086,-0.137l-0.087,-0.136l-0.087,-0.136l-0.089,-0.135l-0.09,-0.135l-0.09,-0.134l-0.09,-0.134l-0.093,-0.133l-0.092,-0.133l-0.093,-0.131l-0.094,-0.131l-0.095,-0.132l-0.096,-0.13l-0.096,-0.129l-0.097,-0.129l-0.098,-0.129l-0.098,-0.127l-0.099,-0.127l-0.101,-0.128l-0.101,-0.126l-0.101,-0.124l-0.102,-0.125l-0.103,-0.124l-0.104,-0.124l-0.105,-0.123l-0.105,-0.122l-0.106,-0.122l-0.106,-0.12l-0.107,-0.12l-0.109,-0.12l-0.109,-0.12l-0.109,-0.117l-0.11,-0.118l-0.112,-0.118l-0.111,-0.116l-0.113,-0.116l-0.112,-0.114l-0.114,-0.114l-0.115,-0.115l-0.115,-0.113l-0.115,-0.112l-0.116,-0.11l-0.118,-0.112l-0.117,-0.111l-0.118,-0.109l-0.119,-0.108l-0.12,-0.108l-0.12,-0.108l-0.121,-0.106l-0.122,-0.107l-0.122,-0.105l-0.122,-0.104l-0.124,-0.104l-0.125,-0.104l-0.124,-0.102l-0.125,-0.101l-0.125,-0.1l-0.128,-0.101l-0.128,-0.1l-0.127,-0.098l-0.128,-0.098l-0.13,-0.098l-0.129,-0.095l-0.13,-0.096l-0.131,-0.095l-0.13,-0.093l-0.132,-0.093l-0.134,-0.094l-0.132,-0.091l-0.133,-0.09l-0.136,-0.091l-0.134,-0.09l-0.135,-0.088l-0.136,-0.088l-0.137,-0.087l-0.137,-0.086l-0.137,-0.085l-0.139,-0.085l-0.138,-0.083l-0.139,-0.083l-0.141,-0.083l-0.14,-0.081l-0.139,-0.08l-0.143,-0.08l-0.141,-0.078l-0.143,-0.078l-0.144,-0.078l-0.142,-0.076l-0.144,-0.075l-0.144,-0.075l-0.144,-0.073l-0.147,-0.073l-0.146,-0.073l-0.146,-0.07l-0.146,-0.07l-0.147,-0.07l-0.149,-0.068l-0.149,-0.068l-0.149,-0.067l-0.147,-0.065l-0.151,-0.066l-0.151,-0.064l-0.149,-0.063l-0.152,-0.062l-0.152,-0.062l-0.152,-0.061l-0.152,-0.059l-0.153,-0.059l-0.153,-0.057l-0.154,-0.057l-0.155,-0.057l-0.155,-0.055l-0.153,-0.054l-0.156,-0.053l-0.156,-0.052l-0.157,-0.051l-0.157,-0.051l-0.157,-0.049l-0.158,-0.049l-0.157,-0.048l-0.158,-0.046l-0.159,-0.046l-0.162,-0.045l-0.158,-0.044l-0.16,-0.042l-0.161,-0.042l-0.16,-0.041l-0.161,-0.04l-0.161,-0.039l-0.163,-0.038l-0.163,-0.037l-0.163,-0.036l-0.161,-0.035l-0.163,-0.033l-0.165,-0.034l-0.166,-0.032l-0.164,-0.031l-0.164,-0.03l-0.165,-0.029l-0.166,-0.028l-0.166,-0.027l-0.165,-0.026l-0.167,-0.025l-0.169,-0.024l-0.166,-0.023l-0.167,-0.021l-0.169,-0.021l-0.168,-0.02l-0.17,-0.019l-0.168,-0.018l-0.169,-0.016l-0.17,-0.016l-0.171,-0.015l-0.17,-0.013l-0.17,-0.013l-0.17,-0.011l-0.171,-0.01l-0.173,-0.009l-0.171,-0.009l-0.172,-0.007l-0.173,-0.006l-0.172,-0.005l-0.173,-0.004l-0.173,-0.002l-0.176,-0.002l-0.172,-0.001l-0.173,0.001Z" style="fill:#6bc7ff;"/></g><path d="M223.382,67.421l0.377,0.889l1.564,0l13.812,23.6l-3.092,4.897l-11.937,0l1.217,2.223l-0.521,0l-1.275,-2.223l-14.805,0l-0.667,-1.362l-1.043,0l-2.579,-4.665l3.361,-5.997l3.361,-1.883l5.302,-9.156l-1.13,-1.815l2.608,-4.508l5.447,0Zm-11.572,24.489l8.982,0l-0.978,-1.742l9.67,0l-8.33,-14.595l-9.344,16.337Z" style="fill:#6bc7ff;"/></g><g id="git-ico"><circle cx="718.287" cy="88.594" r="30.078" style="fill:#f93333;stroke:#ebebeb;stroke-width:1px;stroke-linecap:butt;stroke-linejoin:round;stroke-miterlimit:1.41421;"/><path d="M737.67,86.8l-17.59,-17.588c-1.012,-1.014 -2.655,-1.014 -3.669,0l-3.652,3.653l4.633,4.632c1.077,-0.363 2.311,-0.119 3.169,0.739c0.864,0.864 1.106,2.109 0.733,3.19l4.465,4.465c1.081,-0.372 2.327,-0.131 3.19,0.733c1.206,1.206 1.206,3.159 0,4.366c-1.207,1.206 -3.16,1.206 -4.367,0c-0.907,-0.908 -1.131,-2.241 -0.671,-3.358l-4.166,-4.164l0,10.959c0.294,0.146 0.572,0.339 0.816,0.584c1.206,1.206 1.206,3.159 0,4.366c-1.205,1.206 -3.16,1.206 -4.365,0c-1.206,-1.207 -1.206,-3.161 0,-4.366c0.298,-0.298 0.643,-0.523 1.011,-0.674l0,-11.061c-0.368,-0.151 -0.712,-0.374 -1.011,-0.674c-0.913,-0.913 -1.133,-2.254 -0.665,-3.375l-4.567,-4.568l-12.061,12.06c-1.013,1.014 -1.013,2.656 0,3.67l17.59,17.589c1.013,1.013 2.655,1.013 3.669,0l17.508,-17.508c1.013,-1.013 1.013,-2.657 0,-3.67Z" style="fill:#fff;fill-rule:nonzero;"/></g><g id="webpack-ico"><path d="M327.072,180.424l8.138,4.43l-0.453,0.261l0,15.718l0.408,0.235l-8.01,4.247c-2.175,-3.664 -3.423,-7.946 -3.423,-12.517c0,-4.511 1.215,-8.74 3.34,-12.374Z" style="fill:#adc8f2;"/><path d="M369.695,180.475c2.108,3.625 3.311,7.835 3.311,12.323c0,4.563 -1.243,8.838 -3.411,12.496l-8.009,-4.233l0.394,-0.228l0,-15.718l-0.417,-0.241l8.132,-4.399Z" style="fill:#adc8f2;"/><path d="M348.361,192.015l13.202,-7.141l0.417,0.241l0,15.718l-0.394,0.228l-13.225,-6.99l0,0l-13.196,6.997l-0.408,-0.235l0,-15.718l0.453,-0.261l13.151,7.161Z" style="fill:#6f95db;"/><path d="M335.165,201.068l13.204,7.623l13.217,-7.63l8.009,4.233c-4.286,7.267 -12.192,12.141 -21.226,12.141c-9.026,0 -16.926,-4.865 -21.214,-12.12l8.01,-4.247Z" style="fill:#adc8f2;"/><path d="M327.072,180.424c4.265,-7.333 12.21,-12.263 21.297,-12.263c9.109,0 17.07,4.955 21.326,12.314l-8.132,4.399l-13.194,-7.617l-13.159,7.597l13.151,7.161l-21.289,-11.591Z" style="fill:#adc8f2;"/><path d="M348.361,194.071l13.225,6.99l-13.217,7.63l-13.204,-7.623l13.196,-6.997l0,0Z" style="fill:#7ea0df;"/><path d="M361.563,184.874l-13.202,7.141l-13.151,-7.161l13.159,-7.597l13.194,7.617Z" style="fill:#7ea0df;"/></g><g id="node-ico"><circle cx="494.189" cy="74.987" r="23.602" style="fill:#a0d672;"/><g><path id="path22" d="M500.497,66.445c-0.033,0 -0.067,0.008 -0.098,0.026c-0.059,0.035 -0.097,0.1 -0.097,0.169l0,4.986c0,0.049 -0.023,0.092 -0.065,0.117c-0.043,0.024 -0.095,0.024 -0.137,0l-0.815,-0.469c-0.121,-0.07 -0.269,-0.07 -0.391,0l-3.252,1.876c-0.121,0.071 -0.195,0.205 -0.195,0.346l0,3.753c0,0.141 0.074,0.269 0.195,0.339l3.252,1.877c0.122,0.07 0.27,0.07 0.391,0l3.252,-1.877c0.121,-0.07 0.195,-0.198 0.195,-0.339l0,-9.357c0,-0.143 -0.077,-0.276 -0.202,-0.346l-1.935,-1.082c-0.03,-0.017 -0.064,-0.02 -0.098,-0.019l0,0Zm-20.918,4.685c-0.062,0.003 -0.12,0.014 -0.176,0.046l-3.252,1.877c-0.121,0.07 -0.195,0.197 -0.195,0.339l0.006,5.037c0,0.07 0.036,0.135 0.098,0.169c0.06,0.036 0.135,0.036 0.196,0l1.928,-1.108c0.123,-0.072 0.202,-0.198 0.202,-0.338l0,-2.353c0,-0.14 0.074,-0.269 0.196,-0.339l0.821,-0.475c0.061,-0.036 0.127,-0.053 0.196,-0.053c0.067,0 0.135,0.017 0.195,0.053l0.821,0.475c0.122,0.07 0.196,0.199 0.196,0.339l0,2.353c0,0.14 0.08,0.267 0.202,0.338l1.929,1.108c0.06,0.036 0.135,0.036 0.195,0c0.06,-0.034 0.098,-0.099 0.098,-0.169l0.006,-5.037c0,-0.142 -0.073,-0.269 -0.195,-0.339l-3.252,-1.877c-0.055,-0.032 -0.114,-0.043 -0.176,-0.046l-0.039,0l0,0Zm29.22,0.046c-0.068,0 -0.134,0.017 -0.195,0.052l-3.252,1.877c-0.121,0.07 -0.195,0.198 -0.195,0.339l0,3.753c0,0.141 0.079,0.269 0.202,0.339l3.225,1.838c0.119,0.068 0.265,0.073 0.385,0.006l1.955,-1.088c0.062,-0.034 0.104,-0.099 0.104,-0.169c0,-0.071 -0.036,-0.135 -0.098,-0.17l-3.271,-1.877c-0.061,-0.035 -0.104,-0.105 -0.104,-0.176l0,-1.173c0,-0.07 0.043,-0.134 0.104,-0.169l1.017,-0.587c0.06,-0.035 0.134,-0.035 0.195,0l1.017,0.587c0.06,0.035 0.097,0.099 0.097,0.169l0,0.926c0,0.07 0.037,0.134 0.098,0.169c0.061,0.035 0.135,0.035 0.196,0l1.948,-1.134c0.121,-0.07 0.196,-0.199 0.196,-0.339l0,-0.905c0,-0.14 -0.075,-0.269 -0.196,-0.339l-3.232,-1.877c-0.061,-0.035 -0.128,-0.052 -0.196,-0.052l0,0Zm-9.722,2.802c0.017,0 0.037,0.004 0.052,0.013l1.114,0.645c0.03,0.018 0.052,0.05 0.052,0.085l0,1.29c0,0.035 -0.021,0.067 -0.052,0.085l-1.114,0.645c-0.031,0.017 -0.068,0.017 -0.098,0l-1.114,-0.645c-0.031,-0.018 -0.052,-0.05 -0.052,-0.085l0,-1.29c0,-0.035 0.021,-0.067 0.052,-0.085l1.114,-0.645c0.015,-0.009 0.029,-0.013 0.046,-0.013l0,0Z" style="fill:#404137;"/><path id="path28" d="M489.347,71.156c-0.067,0 -0.134,0.017 -0.195,0.052l-3.252,1.871c-0.121,0.07 -0.195,0.205 -0.195,0.345l0,3.754c0,0.14 0.074,0.268 0.195,0.339l3.252,1.876c0.121,0.071 0.269,0.071 0.391,0l3.252,-1.876c0.121,-0.071 0.195,-0.199 0.195,-0.339l0,-3.754c0,-0.14 -0.074,-0.275 -0.195,-0.345l-3.252,-1.871c-0.061,-0.035 -0.128,-0.052 -0.196,-0.052Zm19.446,3.35c-0.013,0 -0.028,0 -0.039,0.006l-0.626,0.365c-0.023,0.014 -0.039,0.038 -0.039,0.065l0,0.717c0,0.027 0.016,0.052 0.039,0.065l0.626,0.359c0.023,0.013 0.048,0.013 0.071,0l0.626,-0.359c0.023,-0.013 0.039,-0.038 0.039,-0.065l0,-0.717c0,-0.027 -0.016,-0.051 -0.039,-0.065l-0.626,-0.365c-0.011,-0.006 -0.019,-0.006 -0.032,-0.006Z" style="fill:#6dab21;"/></g></g><defs><linearGradient id="_Linear1" x1="0" y1="0" x2="1" y2="0" gradientUnits="userSpaceOnUse" gradientTransform="matrix(748.127,0,0,24.9834,1.80278,141.367)"><stop offset="0" style="stop-color:#f15757;stop-opacity:1"/><stop offset="0.15" style="stop-color:#cf649a;stop-opacity:1"/><stop offset="0.3" style="stop-color:#2635fe;stop-opacity:1"/><stop offset="0.45" style="stop-color:#75dbff;stop-opacity:1"/><stop offset="0.6" style="stop-color:#2ebfb4;stop-opacity:1"/><stop offset="0.75" style="stop-color:#ffef1c;stop-opacity:1"/><stop offset="0.9" style="stop-color:#ef7500;stop-opacity:1"/><stop offset="1" style="stop-color:#ff0404;stop-opacity:1"/></linearGradient></defs></svg>