<?xml version="1.0" encoding="UTF-8" standalone="no"?><!DOCTYPE svg PUBLIC "-//W3C//DTD SVG 1.1//EN" "http://www.w3.org/Graphics/SVG/1.1/DTD/svg11.dtd"><svg width="100%" height="100%" viewBox="0 0 102 102" version="1.1" xmlns="http://www.w3.org/2000/svg" xmlns:xlink="http://www.w3.org/1999/xlink" xml:space="preserve" xmlns:serif="http://www.serif.com/" style="fill-rule:evenodd;clip-rule:evenodd;stroke-linejoin:round;stroke-miterlimit:1.41421;"><clipPath id="_clip1"><rect id="webpack-ico" serif:id="webpack ico" x="0.098" y="0.27" width="101.44" height="101.44"/></clipPath><g clip-path="url(#_clip1)"><path d="M6.975,25.515l16.753,9.121l-0.932,0.538l0,32.357l0.839,0.484l-16.49,8.744c-4.478,-7.543 -7.047,-16.359 -7.047,-25.769c0,-9.286 2.501,-17.993 6.877,-25.475Z" style="fill:#adc8f2;"/><path d="M94.722,25.621c4.34,7.463 6.816,16.129 6.816,25.369c0,9.393 -2.559,18.194 -7.021,25.725l-16.489,-8.715l0.812,-0.469l0,-32.357l-0.86,-0.497l16.742,-9.056Z" style="fill:#adc8f2;"/><path d="M50.803,49.378l27.177,-14.701l0.86,0.497l0,32.357l-0.812,0.469l-27.225,-14.39l0,0l-27.168,14.405l-0.839,-0.484l0,-32.357l0.932,-0.538l27.075,14.742Z" style="fill:#6f95db;"/><path d="M23.635,68.015l27.183,15.694l27.21,-15.709l16.489,8.715c-8.825,14.961 -25.099,24.995 -43.699,24.995c-18.582,0 -34.844,-10.015 -43.673,-24.951l16.49,-8.744Z" style="fill:#adc8f2;"/><path d="M6.975,25.515c8.78,-15.095 25.136,-25.245 43.843,-25.245c18.753,0 35.143,10.2 43.904,25.351l-16.742,9.056l-27.162,-15.682l-27.09,15.641l27.075,14.742l-43.828,-23.863Z" style="fill:#adc8f2;"/><path d="M50.803,53.61l27.225,14.39l-27.21,15.709l-27.183,-15.694l27.168,-14.405l0,0Z" style="fill:#7ea0df;"/><path d="M77.98,34.677l-27.177,14.701l-27.075,-14.742l27.09,-15.641l27.162,15.682Z" style="fill:#7ea0df;"/></g></svg>